<svg width="14" height="11" viewBox="0 0 14 11" fill="none" xmlns="http://www.w3.org/2000/svg">
<path d="M13.7266 3.47266C13.8359 3.39062 14 3.47266 14 3.60938V9.1875C14 9.92578 13.3984 10.5 12.6875 10.5H1.3125C0.574219 10.5 0 9.92578 0 9.1875V3.60938C0 3.47266 0.136719 3.39062 0.246094 3.47266C0.875 3.96484 1.66797 4.56641 4.45703 6.58984C5.03125 7 6.01562 7.90234 7 7.90234C7.95703 7.90234 8.96875 7 9.51562 6.58984C12.3047 4.56641 13.0977 3.96484 13.7266 3.47266ZM7 7C6.34375 7.02734 5.44141 6.20703 4.97656 5.87891C1.33984 3.25391 1.06641 3.00781 0.246094 2.35156C0.0820312 2.24219 0 2.05078 0 1.83203V1.3125C0 0.601562 0.574219 0 1.3125 0H12.6875C13.3984 0 14 0.601562 14 1.3125V1.83203C14 2.05078 13.8906 2.24219 13.7266 2.35156C12.9062 3.00781 12.6328 3.25391 8.99609 5.87891C8.53125 6.20703 7.62891 7.02734 7 7Z" fill="#FF4000"/>
</svg>
