<svg width="60" height="60" viewBox="0 0 60 60" fill="none" xmlns="http://www.w3.org/2000/svg">
<mask id="mask0_241_384" style="mask-type:alpha" maskUnits="userSpaceOnUse" x="0" y="0" width="60" height="60">
<rect width="60" height="60" fill="#D9D9D9"/>
</mask>
<g mask="url(#mask0_241_384)">
<path d="M53.0973 46.8834L50.6086 44.3784V28.3141H34.5448L27.503 21.2891H50.6086V15.1609C50.6086 14.9364 50.5365 14.752 50.3923 14.6078C50.2482 14.4636 50.0638 14.3916 49.8392 14.3916H20.6217L17.4805 11.2503H49.8392C50.9138 11.2503 51.8342 11.6334 52.6005 12.3997C53.3667 13.1659 53.7498 14.0864 53.7498 15.1609V44.8422C53.7498 45.2118 53.6923 45.5703 53.5773 45.9178C53.4627 46.2653 53.3027 46.5872 53.0973 46.8834ZM23.8298 28.3141H9.39108V44.8397C9.39108 45.0322 9.47108 45.2087 9.63108 45.3691C9.79149 45.5291 9.96795 45.6091 10.1605 45.6091H41.1092L23.8298 28.3141ZM51.798 56.2822L44.2498 48.7503H10.1605C9.08587 48.7503 8.16545 48.3672 7.3992 47.6009C6.63295 46.8347 6.24982 45.9143 6.24982 44.8397V15.1609C6.24982 14.0864 6.63295 13.1659 7.3992 12.3997C8.16545 11.6334 9.08587 11.2503 10.1605 11.2503H11.2498L14.3911 14.3916H10.1605C9.96795 14.3916 9.79149 14.4716 9.63108 14.6316C9.47108 14.792 9.39108 14.9684 9.39108 15.1609V21.2891H16.7886L3.16357 7.66406L5.41357 5.41406L54.0317 54.0322L51.798 56.2822Z" fill="#FF4000"/>
</g>
</svg>
