<svg width="60" height="60" viewBox="0 0 60 60" fill="none" xmlns="http://www.w3.org/2000/svg">
<mask id="mask0_241_397" style="mask-type:alpha" maskUnits="userSpaceOnUse" x="0" y="0" width="60" height="60">
<rect width="60" height="60" fill="#D9D9D9"/>
</mask>
<g mask="url(#mask0_241_397)">
<path d="M38.9837 32.7114L36.5993 30.3271C37.3185 27.7608 36.7254 25.5923 34.8199 23.8214C32.9141 22.0506 30.7818 21.4937 28.4231 22.1508L26.0387 19.7664C26.6024 19.4618 27.2162 19.235 27.8799 19.0858C28.5433 18.9371 29.2499 18.8627 29.9999 18.8627C32.7574 18.8627 35.0947 19.8212 37.0118 21.7383C38.9289 23.6554 39.8874 25.9927 39.8874 28.7502C39.8874 29.5002 39.8087 30.2191 39.6512 30.9071C39.4937 31.595 39.2712 32.1964 38.9837 32.7114ZM46.9612 40.5833L44.7437 38.4714C46.547 37.1218 48.1364 35.6268 49.5118 33.9864C50.8877 32.346 51.9735 30.6006 52.7693 28.7502C50.686 24.3389 47.6274 20.8429 43.5937 18.2621C39.5599 15.6816 35.1301 14.3914 30.3043 14.3914C28.831 14.3914 27.3502 14.5168 25.8618 14.7677C24.3739 15.0189 23.0845 15.3368 21.9937 15.7214L19.5706 13.2727C21.0268 12.6614 22.6956 12.1716 24.5768 11.8033C26.4585 11.4345 28.3195 11.2502 30.1599 11.2502C35.8504 11.2502 41.0566 12.8458 45.7787 16.0371C50.5008 19.2283 53.9591 23.466 56.1537 28.7502C55.1654 31.091 53.9029 33.2533 52.3662 35.2371C50.8291 37.2212 49.0274 39.0033 46.9612 40.5833ZM50.1312 54.4358L40.0162 44.4233C38.7341 44.9596 37.2274 45.3981 35.4962 45.7389C33.7649 46.0798 31.9329 46.2502 29.9999 46.2502C24.2212 46.2502 18.977 44.6546 14.2674 41.4633C9.55827 38.2721 6.08452 34.0343 3.84619 28.7502C4.75202 26.5589 5.97098 24.4679 7.50307 22.4771C9.03515 20.4862 10.781 18.6958 12.7406 17.1058L5.32682 9.68267L7.53869 7.4458L52.2499 52.1571L50.1312 54.4358ZM14.9106 19.3177C13.4318 20.3964 11.9624 21.8037 10.5024 23.5396C9.04244 25.275 7.94327 27.0118 7.20494 28.7502C9.30536 33.1614 12.3964 36.6575 16.4781 39.2383C20.5601 41.8187 25.1464 43.1089 30.2368 43.1089C31.6506 43.1089 33.0514 42.9973 34.4393 42.7739C35.8272 42.551 36.8741 42.2887 37.5799 41.9871L33.5706 37.9521C33.1335 38.1591 32.5751 38.3252 31.8956 38.4502C31.2164 38.5752 30.5845 38.6377 29.9999 38.6377C27.2595 38.6377 24.9264 37.6835 23.0006 35.7752C21.0751 33.8664 20.1124 31.5248 20.1124 28.7502C20.1124 28.1648 20.1749 27.5448 20.2999 26.8902C20.4249 26.236 20.591 25.6658 20.7981 25.1796L14.9106 19.3177Z" fill="#FF4000"/>
</g>
</svg>
