<svg width="50" height="50" viewBox="0 0 50 50" fill="none" xmlns="http://www.w3.org/2000/svg">
<rect width="50" height="50" rx="8" fill="#FF4000"/>
<mask id="mask0_241_784" style="mask-type:alpha" maskUnits="userSpaceOnUse" x="5" y="5" width="40" height="40">
<rect x="5" y="5" width="40" height="40" fill="#D9D9D9"/>
</mask>
<g mask="url(#mask0_241_784)">
<path d="M18.6707 16.6155C17.388 16.6155 16.3006 16.1699 15.4086 15.2788C14.5164 14.3877 14.0703 13.298 14.0703 12.0096C14.0703 10.7213 14.5164 9.63159 15.4086 8.74048C16.3006 7.84936 17.388 7.40381 18.6707 7.40381C19.7471 7.40381 20.6957 7.75006 21.5166 8.44256C22.3374 9.13478 22.8952 9.99936 23.1899 11.0363H35.9295V13.1305H34.2628V16.6155H32.1686V13.1305H23.1899C22.9066 14.1519 22.3481 14.988 21.5145 15.6388C20.6806 16.2899 19.7327 16.6155 18.6707 16.6155ZM20.457 13.7892C20.9442 13.3009 21.1878 12.7056 21.1878 12.0034C21.1878 11.3012 20.9438 10.708 20.4557 10.2238C19.9674 9.73992 19.3721 9.49798 18.6699 9.49798C17.9677 9.49798 17.3745 9.74047 16.8903 10.2255C16.4064 10.7105 16.1645 11.3041 16.1645 12.0063C16.1645 12.7085 16.407 13.3033 16.892 13.7905C17.377 14.2777 17.9706 14.5213 18.6728 14.5213C19.375 14.5213 19.9698 14.2773 20.457 13.7892ZM19.8741 33.2496C20.1218 33.0002 20.2457 32.6995 20.2457 32.3476C20.2457 31.9956 20.1202 31.6966 19.8691 31.4505C19.6182 31.2044 19.3157 31.0813 18.9616 31.0813C18.6074 31.0813 18.3091 31.206 18.0666 31.4555C17.8241 31.7049 17.7028 32.0056 17.7028 32.3576C17.7028 32.7098 17.8257 33.0088 18.0716 33.2546C18.3174 33.5008 18.6174 33.6238 18.9716 33.6238C19.3257 33.6238 19.6266 33.4991 19.8741 33.2496ZM31.9361 33.2496C32.1836 33.0002 32.3074 32.6995 32.3074 32.3476C32.3074 31.9956 32.182 31.6966 31.9311 31.4505C31.6803 31.2044 31.3778 31.0813 31.0236 31.0813C30.6695 31.0813 30.3711 31.206 30.1286 31.4555C29.8861 31.7049 29.7649 32.0056 29.7649 32.3576C29.7649 32.7098 29.8878 33.0088 30.1336 33.2546C30.3795 33.5008 30.6793 33.6238 31.0332 33.6238C31.3874 33.6238 31.6884 33.4991 31.9361 33.2496ZM14.1666 29.173L16.7882 21.5896C16.8952 21.2758 17.0763 21.0231 17.3316 20.8317C17.5868 20.6406 17.8716 20.5451 18.1857 20.5451H31.8141C32.1282 20.5451 32.413 20.6406 32.6682 20.8317C32.9235 21.0231 33.1046 21.2758 33.2116 21.5896L35.8332 29.173V39.658C35.8332 39.9155 35.7505 40.1277 35.5849 40.2946C35.4193 40.4613 35.2081 40.5446 34.9511 40.5446H34.6211C34.3645 40.5446 34.1532 40.4613 33.9874 40.2946C33.8218 40.1277 33.7391 39.9155 33.7391 39.658V37.0534H16.2607V39.658C16.2607 39.9155 16.178 40.1277 16.0124 40.2946C15.8466 40.4613 15.6353 40.5446 15.3786 40.5446H15.0486C14.7917 40.5446 14.5805 40.4613 14.4149 40.2946C14.2493 40.1277 14.1666 39.9155 14.1666 39.658V29.173ZM16.8695 27.6626H33.1474L31.4274 22.6388H18.5724L16.8695 27.6626ZM16.2607 34.9596H33.7391V29.7563H16.2607V34.9596Z" fill="white"/>
</g>
</svg>
