<svg width="50" height="50" viewBox="0 0 50 50" fill="none" xmlns="http://www.w3.org/2000/svg">
<rect width="50" height="50" rx="8" fill="#FF4000"/>
<mask id="mask0_241_792" style="mask-type:alpha" maskUnits="userSpaceOnUse" x="5" y="5" width="40" height="40">
<rect x="5" y="5" width="40" height="40" fill="#D9D9D9"/>
</mask>
<g mask="url(#mask0_241_792)">
<path d="M18.9103 27.5961H31.0894V27.0619C31.0894 26.0405 30.5341 25.2239 29.4236 24.6119C28.3128 24.0003 26.8382 23.6944 24.9998 23.6944C23.1615 23.6944 21.6869 24.0003 20.5761 24.6119C19.4655 25.2239 18.9103 26.0405 18.9103 27.0619V27.5961ZM26.9811 20.1736C27.5219 19.6325 27.7923 18.9721 27.7923 18.1923C27.7923 17.4123 27.5219 16.7518 26.9811 16.2107C26.4403 15.6698 25.7798 15.3994 24.9998 15.3994C24.2198 15.3994 23.5594 15.6698 23.0186 16.2107C22.4778 16.7518 22.2073 17.4123 22.2073 18.1923C22.2073 18.9721 22.4778 19.6325 23.0186 20.1736C23.5594 20.7144 24.2198 20.9848 24.9998 20.9848C25.7798 20.9848 26.4403 20.7144 26.9811 20.1736ZM9.1665 40.064V11.7736C9.1665 11.0572 9.42192 10.4436 9.93275 9.93275C10.4436 9.42192 11.0572 9.1665 11.7736 9.1665H38.2261C38.9425 9.1665 39.5561 9.42192 40.0669 9.93275C40.5778 10.4436 40.8332 11.0572 40.8332 11.7736V31.5594C40.8332 32.2758 40.5778 32.8894 40.0669 33.4003C39.5561 33.9111 38.9425 34.1665 38.2261 34.1665H15.064L9.1665 40.064ZM14.1582 32.0723H38.2261C38.3544 32.0723 38.4721 32.019 38.579 31.9123C38.6857 31.8054 38.739 31.6878 38.739 31.5594V11.7736C38.739 11.6453 38.6857 11.5276 38.579 11.4207C38.4721 11.314 38.3544 11.2607 38.2261 11.2607H11.7736C11.6453 11.2607 11.5276 11.314 11.4207 11.4207C11.314 11.5276 11.2607 11.6453 11.2607 11.7736V35.0853L14.1582 32.0723Z" fill="white"/>
</g>
</svg>
