<svg width="50" height="50" viewBox="0 0 50 50" fill="none" xmlns="http://www.w3.org/2000/svg">
<rect width="50" height="50" rx="8" fill="#FF4000"/>
<mask id="mask0_241_776" style="mask-type:alpha" maskUnits="userSpaceOnUse" x="5" y="5" width="40" height="40">
<rect x="5" y="5" width="40" height="40" fill="#D9D9D9"/>
</mask>
<g mask="url(#mask0_241_776)">
<path d="M17.0027 27.9279C16.7191 27.6391 16.5772 27.2895 16.5772 26.8792C16.5772 26.4689 16.7191 26.122 17.0027 25.8384C17.2866 25.5545 17.6336 25.4125 18.0439 25.4125C18.4542 25.4125 18.8038 25.5545 19.0927 25.8384C19.3816 26.122 19.526 26.4689 19.526 26.8792C19.526 27.2895 19.3816 27.6391 19.0927 27.9279C18.8038 28.2168 18.4542 28.3613 18.0439 28.3613C17.6336 28.3613 17.2866 28.2168 17.0027 27.9279ZM24.0189 27.93C23.7314 27.6425 23.5877 27.2929 23.5877 26.8813C23.5877 26.4696 23.7314 26.122 24.0189 25.8384C24.3064 25.5545 24.6542 25.4125 25.0622 25.4125C25.4703 25.4125 25.8181 25.5545 26.1056 25.8384C26.3928 26.122 26.5364 26.4696 26.5364 26.8813C26.5364 27.2929 26.3928 27.6425 26.1056 27.93C25.8181 28.2175 25.4703 28.3613 25.0622 28.3613C24.6542 28.3613 24.3064 28.2175 24.0189 27.93ZM30.8885 27.93C30.601 27.6425 30.4572 27.2929 30.4572 26.8813C30.4572 26.4696 30.601 26.122 30.8885 25.8384C31.176 25.5545 31.5238 25.4125 31.9318 25.4125C32.3399 25.4125 32.6877 25.5545 32.9752 25.8384C33.2624 26.122 33.406 26.4696 33.406 26.8813C33.406 27.2929 33.2624 27.6425 32.9752 27.93C32.6877 28.2175 32.3399 28.3613 31.9318 28.3613C31.5238 28.3613 31.176 28.2175 30.8885 27.93ZM13.4406 40.8334C12.7242 40.8334 12.1106 40.5779 11.5997 40.0671C11.0889 39.5563 10.8335 38.9427 10.8335 38.2263V14.7009C10.8335 13.9845 11.0889 13.371 11.5997 12.8604C12.1106 12.3496 12.7242 12.0942 13.4406 12.0942H16.261V8.97461H18.5152V12.0942H31.5493V8.97461H33.7502V12.0942H36.5597C37.2761 12.0942 37.8897 12.3496 38.4006 12.8604C38.9114 13.371 39.1668 13.9845 39.1668 14.7009V38.2263C39.1668 38.9427 38.9114 39.5563 38.4006 40.0671C37.8897 40.5779 37.2761 40.8334 36.5597 40.8334H13.4406ZM13.4406 38.7392H36.5597C36.6881 38.7392 36.8057 38.6859 36.9127 38.5792C37.0193 38.4722 37.0727 38.3546 37.0727 38.2263V21.9767H12.9277V38.2263C12.9277 38.3546 12.981 38.4722 13.0877 38.5792C13.1946 38.6859 13.3122 38.7392 13.4406 38.7392ZM12.9277 19.8825H37.0727V14.7009C37.0727 14.5728 37.0193 14.4553 36.9127 14.3484C36.8057 14.2414 36.6881 14.1879 36.5597 14.1879H13.4406C13.3122 14.1879 13.1946 14.2414 13.0877 14.3484C12.981 14.4553 12.9277 14.5728 12.9277 14.7009V19.8825Z" fill="white"/>
</g>
</svg>
