<svg width="60" height="60" viewBox="0 0 60 60" fill="none" xmlns="http://www.w3.org/2000/svg">
<mask id="mask0_241_370" style="mask-type:alpha" maskUnits="userSpaceOnUse" x="0" y="0" width="60" height="60">
<rect width="60" height="60" fill="#D9D9D9"/>
</mask>
<g mask="url(#mask0_241_370)">
<path d="M36.1738 11.6551C35.7383 11.2147 35.5206 10.6845 35.5206 10.0645C35.5206 9.44409 35.7408 8.91639 36.1813 8.48139C36.6213 8.04597 37.1515 7.82826 37.7719 7.82826C38.3919 7.82826 38.9196 8.04826 39.355 8.48826C39.7904 8.92868 40.0081 9.45889 40.0081 10.0789C40.0081 10.6989 39.7879 11.2266 39.3475 11.662C38.9075 12.0974 38.3773 12.3151 37.7569 12.3151C37.1369 12.3151 36.6092 12.0951 36.1738 11.6551ZM36.1019 51.5108C35.6665 51.0703 35.4487 50.5401 35.4487 49.9201C35.4487 49.3001 35.6688 48.7724 36.1088 48.337C36.5492 47.9016 37.0794 47.6839 37.6994 47.6839C38.3198 47.6839 38.8475 47.9039 39.2825 48.3439C39.7179 48.7843 39.9356 49.3145 39.9356 49.9345C39.9356 50.5549 39.7156 51.0826 39.2756 51.5176C38.8352 51.953 38.305 52.1708 37.685 52.1708C37.065 52.1708 36.5373 51.9508 36.1019 51.5108ZM46.1019 20.1164C45.6665 19.6764 45.4487 19.1462 45.4487 18.5258C45.4487 17.9058 45.6688 17.3781 46.1087 16.9426C46.5492 16.5072 47.0794 16.2895 47.6994 16.2895C48.3198 16.2895 48.8475 16.5097 49.2825 16.9501C49.7179 17.3901 49.9356 17.9201 49.9356 18.5401C49.9356 19.1606 49.7156 19.6885 49.2756 20.1239C48.8352 20.5593 48.305 20.777 47.685 20.777C47.065 20.777 46.5373 20.5568 46.1019 20.1164ZM46.0294 43.1214C45.5944 42.681 45.3769 42.1508 45.3769 41.5308C45.3769 40.9108 45.5969 40.3831 46.0369 39.9476C46.4769 39.5122 47.0071 39.2945 47.6275 39.2945C48.2475 39.2945 48.7752 39.5145 49.2106 39.9545C49.646 40.3949 49.8638 40.9251 49.8638 41.5451C49.8638 42.1651 49.6437 42.6928 49.2038 43.1283C48.7633 43.5637 48.2331 43.7814 47.6131 43.7814C46.9927 43.7814 46.4648 43.5614 46.0294 43.1214ZM49.6113 31.5826C49.1758 31.1426 48.9581 30.6124 48.9581 29.992C48.9581 29.372 49.1783 28.8443 49.6188 28.4089C50.0588 27.9735 50.589 27.7558 51.2094 27.7558C51.8294 27.7558 52.3571 27.976 52.7925 28.4164C53.2279 28.8564 53.4456 29.3866 53.4456 30.007C53.4456 30.627 53.2254 31.1547 52.785 31.5901C52.345 32.0256 51.8148 32.2433 51.1944 32.2433C50.5744 32.2433 50.0467 32.0231 49.6113 31.5826ZM30 53.7495C26.7179 53.7495 23.6317 53.1262 20.7413 51.8795C17.8508 50.6328 15.3367 48.941 13.1987 46.8039C11.0608 44.6668 9.36812 42.1537 8.12062 39.2645C6.87354 36.3753 6.25 33.2885 6.25 30.0039C6.25 26.7189 6.87354 23.6312 8.12062 20.7408C9.36729 17.8503 11.0594 15.3362 13.1969 13.1983C15.3344 11.0603 17.8479 9.36764 20.7375 8.12014C23.6271 6.87305 26.7146 6.24951 30 6.24951V9.39076C24.2588 9.39076 19.3885 11.3901 15.3894 15.3889C11.3906 19.3881 9.39125 24.2583 9.39125 29.9995C9.39125 35.7408 11.3881 40.611 15.3819 44.6101C19.3756 48.6089 24.2483 50.6083 30 50.6083V53.7495ZM27.1131 32.8839C26.324 32.0931 25.9294 31.1316 25.9294 29.9995C25.9294 29.7278 25.9521 29.4576 25.9975 29.1889C26.0429 28.9206 26.1233 28.6766 26.2388 28.457L21.3125 23.4995L23.5 21.312L28.4762 26.2383C28.6867 26.1474 29.1946 26.0443 30 25.9289C31.1321 25.9289 32.0935 26.3247 32.8844 27.1164C33.6752 27.9076 34.0706 28.8699 34.0706 30.0033C34.0706 31.1366 33.6748 32.0976 32.8831 32.8864C32.0919 33.6756 31.1296 34.0701 29.9963 34.0701C28.8629 34.0701 27.9019 33.6747 27.1131 32.8839Z" fill="#FF4000"/>
</g>
</svg>
