<svg width="28" height="28" viewBox="0 0 28 28" fill="none" xmlns="http://www.w3.org/2000/svg">
<rect width="28" height="28" rx="3.3401" fill="#101C2E"/>
<mask id="mask0_241_684" style="mask-type:alpha" maskUnits="userSpaceOnUse" x="4" y="4" width="20" height="20">
<rect x="4" y="4" width="20" height="20" fill="#D9D9D9"/>
</mask>
<g mask="url(#mask0_241_684)">
<path d="M7.75009 21.0833V13.102L6.07009 14.3889L5.44238 13.5556L7.75009 11.7916V9.50203H8.79717V10.9829L14.0001 7.02078L22.5578 13.5641L21.9301 14.3845L20.2501 13.102V21.0833H7.75009ZM8.79717 20.0362H13.108V16.3824H14.8922V20.0362H19.203V12.3066L14.0001 8.33912L8.79717 12.3066V20.0362ZM7.75009 8.48724C7.75009 7.9153 7.94384 7.42863 8.33134 7.02724C8.7187 6.62585 9.21759 6.42516 9.82801 6.42516C10.157 6.42516 10.4111 6.32557 10.5903 6.12641C10.7695 5.9271 10.859 5.68835 10.859 5.41016H11.9061C11.9061 5.97641 11.7143 6.46168 11.3307 6.86599C10.9471 7.27016 10.4462 7.47224 9.82801 7.47224C9.50717 7.47224 9.25516 7.56981 9.07197 7.76495C8.88877 7.96023 8.79717 8.20099 8.79717 8.48724H7.75009Z" fill="white"/>
</g>
</svg>
