<svg width="60" height="60" viewBox="0 0 60 60" fill="none" xmlns="http://www.w3.org/2000/svg">
<mask id="mask0_241_410" style="mask-type:alpha" maskUnits="userSpaceOnUse" x="0" y="0" width="60" height="60">
<rect width="60" height="60" fill="#D9D9D9"/>
</mask>
<g mask="url(#mask0_241_410)">
<path d="M6.25 51.2495V48.1083H28.4294V19.1901C27.2981 18.8951 26.2931 18.3203 25.4144 17.4658C24.5356 16.6112 23.9408 15.5862 23.63 14.3908H14.3912L21.8912 32.8314C21.8258 34.5993 21.0383 36.1051 19.5287 37.3489C18.0192 38.5926 16.1998 39.2145 14.0706 39.2145C11.9415 39.2145 10.1221 38.5926 8.6125 37.3489C7.10292 36.1051 6.31542 34.5993 6.25 32.8314L13.7662 14.3908H8.75V11.2495H23.63C24.0175 9.82326 24.7933 8.63347 25.9575 7.68014C27.1217 6.72639 28.4692 6.24951 30 6.24951C31.5308 6.24951 32.8783 6.72639 34.0425 7.68014C35.2062 8.63347 35.9821 9.82326 36.37 11.2495H51.25V14.3908H46.25L53.75 32.8314C53.6846 34.5993 52.8971 36.1051 51.3875 37.3489C49.8779 38.5926 48.0585 39.2145 45.9294 39.2145C43.8002 39.2145 41.9808 38.5926 40.4712 37.3489C38.9617 36.1051 38.1742 34.5993 38.1087 32.8314L45.625 14.3908H36.37C36.0592 15.5862 35.4644 16.6112 34.5856 17.4658C33.7069 18.3203 32.7019 18.8951 31.5706 19.1901V48.1083H53.75V51.2495H6.25ZM41.0737 32.6439H50.785L45.9294 20.6226L41.0737 32.6439ZM9.215 32.6439H18.9263L14.0706 20.6226L9.215 32.6439ZM30 16.2495C30.9583 16.2495 31.7696 15.9106 32.4337 15.2326C33.0975 14.5547 33.4294 13.7506 33.4294 12.8201C33.4294 11.8618 33.0975 11.0506 32.4337 10.3864C31.7696 9.72264 30.9583 9.39076 30 9.39076C29.0696 9.39076 28.2654 9.72264 27.5875 10.3864C26.9096 11.0506 26.5706 11.8618 26.5706 12.8201C26.5706 13.7506 26.9096 14.5547 27.5875 15.2326C28.2654 15.9106 29.0696 16.2495 30 16.2495Z" fill="#FF4000"/>
</g>
</svg>
