<svg width="11" height="15" viewBox="0 0 11 15" fill="none" xmlns="http://www.w3.org/2000/svg">
<path d="M4.70312 13.7266C0.710938 7.98438 0 7.38281 0 5.25C0 2.35156 2.32422 0 5.25 0C8.14844 0 10.5 2.35156 10.5 5.25C10.5 7.38281 9.76172 7.98438 5.76953 13.7266C5.52344 14.1094 4.94922 14.1094 4.70312 13.7266ZM5.25 7.4375C6.45312 7.4375 7.4375 6.48047 7.4375 5.25C7.4375 4.04688 6.45312 3.0625 5.25 3.0625C4.01953 3.0625 3.0625 4.04688 3.0625 5.25C3.0625 6.48047 4.01953 7.4375 5.25 7.4375Z" fill="#FF4000"/>
</svg>
