<svg width="26" height="26" viewBox="0 0 26 26" fill="none" xmlns="http://www.w3.org/2000/svg">
<rect width="26" height="26" rx="13" fill="#FA510F"/>
<path d="M10.738 9.60925C10.8558 9.59991 11.2131 9.59529 11.3144 9.6513C11.4421 9.72217 11.537 10.0011 11.5935 10.1385L11.8154 10.6779C11.8618 10.7913 11.9089 10.9045 11.9568 11.0173C11.995 11.107 12.0398 11.1969 12.0626 11.292C12.0697 11.3214 12.0773 11.3509 12.0728 11.3812C12.038 11.6125 11.6669 11.9583 11.5377 12.1701C11.5081 12.2185 11.4871 12.2777 11.5022 12.3346C11.5344 12.4557 11.6343 12.5822 11.703 12.6856C12.0937 13.2734 12.5928 13.7734 13.2016 14.1342C13.3563 14.2258 13.8959 14.5166 14.0579 14.5177C14.0994 14.518 14.1385 14.5073 14.1732 14.4844C14.2839 14.411 14.584 14.0241 14.6749 13.9036C14.7295 13.8314 14.7807 13.7495 14.846 13.6868C14.8743 13.6597 14.9049 13.6362 14.9439 13.6274C15.0095 13.6124 15.0745 13.6301 15.1367 13.6506C15.2538 13.6889 15.369 13.7477 15.4804 13.7999C15.6741 13.8911 15.867 13.9843 16.059 14.0791C16.2338 14.1645 16.4278 14.2539 16.5962 14.3502C16.6501 14.381 16.694 14.4233 16.7006 14.4865C16.7289 14.7559 16.6423 15.1867 16.4904 15.4088C16.2332 15.7434 15.7524 16.0148 15.3311 16.0743C14.8485 16.1425 14.4693 16.0425 14.0188 15.8858C13.3614 15.6572 12.7763 15.3839 12.2228 14.9542C11.5721 14.4489 11.0097 13.8562 10.5306 13.1858C10.159 12.676 9.82483 12.1455 9.73962 11.5059C9.67148 10.994 9.80373 10.4328 10.1326 10.0341C10.3112 9.81753 10.4476 9.64525 10.738 9.60925Z" fill="white"/>
<path fill-rule="evenodd" clip-rule="evenodd" d="M12.9805 5.90796C13.5349 5.89052 14.0897 5.93853 14.6329 6.05079C16.418 6.42762 17.9809 7.49672 18.9787 9.02414C19.9758 10.5534 20.3246 12.4166 19.9481 14.203C19.563 16.0123 18.4683 17.5915 16.9095 18.5873C15.3756 19.5727 13.5112 19.9041 11.732 19.5066C11.285 19.4074 10.8487 19.2639 10.4298 19.0789C10.2738 19.0099 10.0773 18.8979 9.93392 18.8403L9.92305 18.836C9.6325 18.9041 9.31463 18.994 9.02474 19.0702L6.61546 19.7017C6.50947 19.7295 6.39977 19.7519 6.29644 19.7851L6.28992 19.7764C6.29349 19.7264 6.3439 19.5501 6.35952 19.4929L7.15633 16.5833C7.18785 16.4683 7.22912 16.3321 7.25203 16.2172C6.7196 15.2649 6.417 14.3036 6.35082 13.2069C6.23765 11.3301 6.88104 9.53315 8.146 8.13816C9.22515 6.96015 10.6801 6.1938 12.262 5.97031C12.5124 5.93433 12.7303 5.92032 12.9805 5.90796ZM13.0516 7.07236C11.5435 7.1146 10.1136 7.75327 9.07549 8.84796C8.00276 9.96948 7.4681 11.4235 7.50362 12.9683C7.52915 13.8316 7.75128 14.6777 8.15325 15.4421C8.21856 15.567 8.28878 15.6895 8.36351 15.809C8.40692 15.8793 8.46882 15.9721 8.50706 16.0424C8.35742 16.6395 8.17585 17.2336 8.02057 17.8297C7.99303 17.9354 7.96313 18.0481 7.93066 18.1523L9.44525 17.7564L9.83605 17.652C9.90561 17.6336 10.0261 17.6006 10.0956 17.5926C10.1642 17.6203 10.2451 17.6728 10.3102 17.7107C10.4222 17.7761 10.5321 17.838 10.6481 17.8964C11.1767 18.1621 11.7434 18.344 12.328 18.4351C13.8329 18.6729 15.3706 18.2969 16.5962 17.3917C17.8189 16.4953 18.6356 15.1503 18.867 13.652C19.0987 12.1489 18.7213 10.6152 17.8179 9.39174C16.9161 8.16559 15.5609 7.35128 14.055 7.12964C13.7228 7.08284 13.3869 7.06332 13.0516 7.07236Z" fill="white"/>
</svg>
