<svg width="473" height="122" viewBox="0 0 473 122" fill="none" xmlns="http://www.w3.org/2000/svg">
<path d="M0 16.9176C0 11.4692 4.63161 8.56736 9.86511 7.05244C43.8795 -2.79354 61.4818 -1.89742 94.4275 7.05244C99.6853 8.48075 104.293 11.4692 104.293 16.9176L96.0717 88.4769C96.0717 91.9564 94.2418 95.1527 91.3008 96.9252C90.759 97.2517 90.2029 97.5564 89.6824 97.9158L57.1861 120.354C56.6656 120.713 56.1226 121.045 55.5284 121.262C53.3448 122.059 50.9478 122.059 48.7642 121.262C48.1701 121.045 47.6271 120.713 47.1066 120.354L14.6102 97.9158C14.0897 97.5564 13.5336 97.2517 12.9919 96.9252C10.0508 95.1527 8.22093 91.9564 8.22093 88.4769L0 16.9176Z" fill="white"/>
<path d="M18.0412 19.8542L18.0327 19.8571L38.4654 51.1775C36.7121 48.9802 33.028 50.3666 33.2958 53.2928L36.6289 89.7159C36.8622 92.2673 33.9309 93.8611 31.9162 92.2782L23.1382 85.3811C22.5232 84.8978 22.1276 84.1877 22.0402 83.4104L15.2728 23.1795C15.1153 21.778 15.9816 20.4636 17.3318 20.0567L18.0348 19.8442L18.0412 19.8542Z" fill="url(#paint0_linear_25_46)"/>
<path d="M86.2603 19.8542L86.2688 19.8571L65.8361 51.1775C67.5894 48.9802 71.2735 50.3666 71.0058 53.2928L67.6727 89.7159C67.4393 92.2673 70.3707 93.8611 72.3853 92.2782L81.1633 85.3811C81.7783 84.8978 82.1739 84.1877 82.2613 83.4104L89.0287 23.1795C89.1862 21.778 88.32 20.4636 86.9697 20.0567L86.2667 19.8442L86.2603 19.8542Z" fill="url(#paint1_linear_25_46)"/>
<path d="M70.2143 16.7983C70.9694 15.9336 72.1621 15.5905 73.2622 15.9214L86.3084 19.8462C76.8534 36.0384 66.5861 52.2134 54.5971 68.3868C53.4434 70.1545 50.8508 70.1545 49.6972 68.3868C37.7777 52.6973 27.4489 36.4353 17.9851 19.8462L31.0328 15.9214C32.1328 15.5905 33.3248 15.9338 34.08 16.7983L49.9435 34.9638C51.1089 36.2982 53.186 36.2983 54.3515 34.9638L70.2143 16.7983Z" fill="#1E4ED8"/>
<path d="M249.534 20.0594C251.565 20.0595 253.325 20.2394 254.814 20.6005C256.349 20.9615 257.636 21.3911 258.674 21.8876C259.712 22.3839 260.524 22.8805 261.11 23.3768C261.742 23.8282 262.172 24.189 262.397 24.4598C263.661 25.6332 264.361 26.6492 264.496 27.5067C264.631 28.3191 264.157 29.4698 263.074 30.9589C261.946 32.5384 260.818 33.4188 259.689 33.5995C258.606 33.78 257.365 33.3959 255.966 32.4481C255.424 31.9517 254.882 31.5008 254.341 31.0946C253.799 30.6884 253.144 30.372 252.377 30.1464C251.655 29.8757 250.684 29.7401 249.466 29.7401C248.744 29.7402 248.067 29.8534 247.436 30.079C246.804 30.2595 246.262 30.5304 245.811 30.8915C245.359 31.2525 244.998 31.7036 244.728 32.245C244.457 32.7413 244.321 33.3057 244.321 33.9374C244.321 34.9755 244.66 35.8114 245.337 36.4432C246.059 37.0749 246.984 37.5938 248.112 37.9999C249.286 38.3609 250.573 38.7218 251.972 39.0829C253.416 39.3988 254.883 39.783 256.372 40.2343C257.726 40.6856 259.035 41.2497 260.299 41.9266C261.562 42.5585 262.691 43.3713 263.684 44.3641C264.676 45.3569 265.466 46.5977 266.053 48.0868C266.685 49.5762 267.001 51.4048 267.001 53.5712C267.001 56.279 266.481 58.6031 265.443 60.5438C264.405 62.4846 263.029 64.0645 261.313 65.2831C259.599 66.5016 257.748 67.3821 255.763 67.9237C253.777 68.5104 251.836 68.8036 249.94 68.8036C247.549 68.8036 245.45 68.5103 243.645 67.9237C241.884 67.337 240.372 66.6374 239.108 65.8251C237.89 64.9676 236.919 64.1325 236.197 63.3202C235.475 62.508 234.979 61.8983 234.708 61.4921C233.941 60.4994 233.467 59.6418 233.286 58.9198C233.106 58.1525 233.196 57.3843 233.557 56.6171C233.963 55.8499 234.64 55.0147 235.588 54.1122C236.535 53.3001 237.415 52.8713 238.228 52.826C239.085 52.7358 239.921 52.939 240.733 53.4354C241.546 53.9319 242.335 54.6315 243.103 55.5341C244.186 56.8429 245.246 57.7688 246.284 58.3104C247.367 58.8068 248.496 59.0545 249.669 59.0546C251.158 59.0546 252.423 58.8746 253.461 58.5135C254.499 58.1525 255.288 57.5874 255.83 56.8202C256.372 56.0079 256.643 54.9927 256.643 53.7743C256.643 52.7813 256.258 51.9909 255.491 51.4042C254.769 50.7725 253.776 50.2314 252.513 49.7802C251.294 49.3288 249.917 48.8992 248.383 48.493C246.894 48.0417 245.404 47.5231 243.915 46.9364C242.877 46.5754 241.884 46.1235 240.937 45.5819C239.989 45.0403 239.085 44.4318 238.228 43.7548C237.37 43.0778 236.626 42.265 235.994 41.3173C235.407 40.3695 234.933 39.2859 234.572 38.0673C234.256 36.8487 234.099 35.4496 234.099 33.87C234.099 31.2072 234.753 28.8377 236.062 26.7616C237.37 24.6855 239.176 23.061 241.478 21.8876C243.824 20.669 246.51 20.0594 249.534 20.0594ZM197.31 20.8036C197.986 20.8036 198.618 20.9391 199.205 21.2098C199.792 21.4355 200.31 21.7743 200.762 22.2255C201.258 22.6768 201.665 23.2186 201.98 23.8505L219.854 60.9501C220.395 62.0783 220.688 63.0489 220.733 63.8612C220.779 64.6284 220.531 65.328 219.989 65.9598C219.493 66.5466 218.658 67.1339 217.484 67.7206C215.679 68.5781 214.28 68.8257 213.287 68.4647C212.294 68.1488 211.368 67.0884 210.511 65.2831L206.595 57.0917H187.937L184.04 65.2831C183.137 67.0433 182.189 68.0814 181.196 68.3973C180.249 68.7582 178.872 68.5096 177.067 67.6522C175.894 67.1106 175.036 66.5466 174.494 65.9598C174.442 65.8937 174.395 65.8258 174.349 65.7577C174.132 66.4036 173.708 66.9452 173.073 67.3817C172.351 67.8782 171.155 68.1268 169.485 68.1268C167.861 68.1268 166.687 67.8781 165.965 67.3817C165.243 66.8853 164.791 66.2311 164.61 65.4188C164.43 64.6065 164.34 63.7714 164.34 62.9139V38.745L154.252 53.0292C154.071 53.2548 153.824 53.5713 153.508 53.9774C153.192 54.3385 152.74 54.6539 152.153 54.9247C151.612 55.1954 150.867 55.3309 149.92 55.3309C148.927 55.3309 148.137 55.1955 147.55 54.9247C147.008 54.6539 146.58 54.3384 146.264 53.9774C145.948 53.6163 145.677 53.3 145.451 53.0292L135.432 38.8124V63.0487C135.432 63.9062 135.342 64.719 135.161 65.4862C134.981 66.2535 134.529 66.8852 133.807 67.3817C133.13 67.8782 131.956 68.1268 130.286 68.1268C128.661 68.1268 127.488 67.8782 126.766 67.3817C126.089 66.8853 125.66 66.2534 125.479 65.4862C125.299 64.6739 125.209 63.8165 125.209 62.9139V25.8817C125.209 25.0242 125.299 24.2337 125.479 23.5116C125.66 22.7445 126.112 22.1125 126.834 21.6161C127.556 21.1198 128.752 20.8719 130.422 20.8719C131.55 20.872 132.407 20.9397 132.994 21.0751C133.581 21.2105 134.009 21.4137 134.28 21.6844C134.551 21.9101 134.845 22.1801 135.161 22.496L149.887 42.3915L164.679 22.496C165.04 22.0449 165.401 21.7069 165.762 21.4813C166.123 21.2557 166.574 21.097 167.115 21.0067C167.702 20.9164 168.515 20.8719 169.553 20.8719C171.177 20.872 172.351 21.1196 173.073 21.6161C173.795 22.1126 174.246 22.7675 174.427 23.58C174.607 24.3471 174.698 25.1592 174.698 26.0165V60.9481C174.72 60.9043 174.742 60.8596 174.765 60.8153L192.57 23.7831C193.022 22.8805 193.676 22.1577 194.533 21.6161C195.436 21.0745 196.362 20.8036 197.31 20.8036ZM226.42 20.8036C228.135 20.8036 229.331 21.0523 230.008 21.5487C230.73 22.0452 231.159 22.677 231.294 23.4442C231.474 24.2114 231.564 25.0688 231.564 26.0165V63.0487C231.564 63.9061 231.474 64.7413 231.294 65.5536C231.113 66.3208 230.663 66.9536 229.94 67.4501C229.263 67.9014 228.067 68.1268 226.352 68.1268C224.727 68.1268 223.553 67.9014 222.831 67.4501C222.109 66.9536 221.658 66.2986 221.478 65.4862C221.342 64.6738 221.274 63.8388 221.274 62.9813V25.9491C221.274 25.0465 221.342 24.2115 221.478 23.4442C221.658 22.6771 222.109 22.0451 222.831 21.5487C223.553 21.0522 224.75 20.8036 226.42 20.8036ZM192.09 48.3583H202.42L197.242 37.5262L192.09 48.3583Z" fill="white"/>
<path fill-rule="evenodd" clip-rule="evenodd" d="M293.087 20.0595C295.118 20.0595 296.878 20.2395 298.367 20.6005C299.902 20.9616 301.188 21.3911 302.227 21.8876C303.264 22.384 304.076 22.8805 304.663 23.3769C305.295 23.8282 305.725 24.1891 305.95 24.4599C307.214 25.6332 307.913 26.6493 308.049 27.5067C308.184 28.3191 307.71 29.4699 306.627 30.9589C305.499 32.5384 304.37 33.4188 303.242 33.5995C302.159 33.78 300.918 33.3959 299.519 32.4482C298.977 31.9517 298.435 31.5008 297.894 31.0946C297.352 30.6884 296.697 30.3721 295.93 30.1464C295.208 29.8757 294.237 29.7401 293.019 29.7401C292.297 29.7402 291.62 29.8535 290.988 30.079C290.356 30.2595 289.815 30.5305 289.363 30.8915C288.912 31.2525 288.551 31.7036 288.28 32.245C288.01 32.7414 287.874 33.3057 287.874 33.9374C287.874 34.9755 288.213 35.8114 288.89 36.4433C289.612 37.0749 290.537 37.5938 291.665 37.9999C292.838 38.3609 294.125 38.7219 295.523 39.0829C296.968 39.3989 298.435 39.7829 299.925 40.2343C301.279 40.6856 302.587 41.2498 303.851 41.9267C305.114 42.5585 306.243 43.3712 307.236 44.3642C308.229 45.357 309.019 46.5978 309.605 48.0868C310.237 49.5762 310.554 51.4048 310.554 53.5712C310.554 56.2791 310.034 58.6032 308.996 60.5439C307.958 62.4846 306.581 64.0645 304.866 65.2831C303.151 66.5016 301.301 67.3821 299.315 67.9237C297.33 68.5104 295.389 68.8036 293.493 68.8036C291.101 68.8036 289.002 68.5105 287.196 67.9237C285.436 67.3371 283.925 66.6374 282.661 65.8251C281.443 64.9677 280.472 64.1325 279.75 63.3202C279.028 62.5078 278.531 61.8983 278.26 61.4921C277.493 60.4995 277.02 59.6418 276.839 58.9198C276.658 58.1526 276.748 57.3844 277.109 56.6171C277.516 55.8499 278.193 55.0147 279.141 54.1122C280.088 53.3001 280.968 52.8713 281.78 52.8261C282.638 52.7358 283.473 52.9392 284.285 53.4355C285.098 53.9319 285.888 54.6314 286.655 55.5341C287.738 56.843 288.799 57.7689 289.837 58.3105C290.92 58.8069 292.048 59.0545 293.222 59.0546C294.711 59.0546 295.976 58.8746 297.014 58.5136C298.052 58.1525 298.841 57.5874 299.383 56.8202C299.924 56.0079 300.195 54.9927 300.195 53.7743C300.195 52.7814 299.811 51.9909 299.044 51.4042C298.322 50.7725 297.329 50.2314 296.065 49.7802C294.847 49.3288 293.47 48.8993 291.936 48.4931C290.446 48.0418 288.957 47.5231 287.468 46.9364C286.43 46.5754 285.436 46.1235 284.488 45.5819C283.541 45.0404 282.638 44.4317 281.78 43.7548C280.923 43.0778 280.179 42.265 279.547 41.3173C278.96 40.3695 278.486 39.2859 278.125 38.0673C277.809 36.8487 277.651 35.4496 277.651 33.87C277.651 31.2072 278.305 28.8377 279.614 26.7616C280.923 24.6855 282.729 23.0611 285.03 21.8876C287.377 20.669 290.063 20.0595 293.087 20.0595ZM372.464 20.33C375.713 20.33 378.76 20.9618 381.604 22.2255C384.492 23.4441 386.997 25.1595 389.118 27.371C391.239 29.5825 392.909 32.1551 394.128 35.0888C395.392 38.0225 396.023 41.2045 396.023 44.6347C396.023 47.9294 395.414 51.0438 394.195 53.9774C393.022 56.8658 391.375 59.4386 389.254 61.6952C387.133 63.9068 384.672 65.6444 381.874 66.9081C379.121 68.1717 376.165 68.8036 373.006 68.8036C369.756 68.8036 366.686 68.1941 363.798 66.9755C360.955 65.7118 358.45 63.9972 356.283 61.831C354.162 59.6195 352.47 57.069 351.206 54.1806C349.987 51.2921 349.378 48.1776 349.378 44.8378C349.378 41.4528 349.965 38.293 351.139 35.3593C352.357 32.3808 354.004 29.7632 356.08 27.5067C358.201 25.2501 360.662 23.4892 363.46 22.2255C366.258 20.9618 369.26 20.33 372.464 20.33ZM335.528 20.33C337.83 20.33 339.839 20.6009 341.554 21.1425C343.269 21.6841 344.668 22.2482 345.751 22.8349C346.834 23.3764 347.511 23.7606 347.782 23.9862C348.594 24.4826 349.362 25.0469 350.084 25.6786C350.806 26.3105 351.189 27.1456 351.234 28.1835C351.234 28.7251 351.122 29.267 350.896 29.8085C350.716 30.3049 350.422 30.8459 350.016 31.4325C349.294 32.4706 348.594 33.2388 347.917 33.7353C347.285 34.1864 346.631 34.412 345.954 34.412C345.413 34.412 344.893 34.2766 344.396 34.0058C343.945 33.735 343.359 33.374 342.637 32.9228C342.321 32.6971 341.869 32.4262 341.282 32.1103C340.696 31.7492 339.906 31.4328 338.913 31.162C337.92 30.8461 336.656 30.6884 335.122 30.6884C333.543 30.6884 331.94 30.9816 330.315 31.5683C328.736 32.1099 327.268 32.9448 325.914 34.0732C324.56 35.2015 323.477 36.646 322.665 38.4062C321.853 40.1212 321.446 42.1297 321.446 44.4315C321.446 46.8236 321.853 48.8776 322.665 50.5927C323.523 52.3076 324.629 53.7291 325.982 54.8573C327.336 55.9856 328.803 56.8429 330.383 57.4296C332.008 57.9712 333.588 58.2421 335.122 58.2421C336.476 58.2421 337.627 58.1066 338.574 57.8358C339.567 57.5651 340.402 57.2496 341.079 56.8886C341.801 56.4825 342.411 56.1215 342.907 55.8056C343.404 55.4897 343.9 55.1955 344.396 54.9247C344.938 54.6539 345.48 54.5185 346.021 54.5185C346.653 54.5185 347.285 54.7672 347.917 55.2636C348.594 55.76 349.271 56.5496 349.948 57.6327C350.354 58.2195 350.671 58.8067 350.896 59.3935C351.122 59.935 351.212 60.477 351.167 61.0185C351.167 61.966 350.806 62.7558 350.084 63.3876C349.362 63.9743 348.595 64.5162 347.782 65.0126C347.421 65.1931 346.721 65.5995 345.683 66.2314C344.645 66.8179 343.268 67.359 341.554 67.8554C339.839 68.397 337.785 68.6679 335.393 68.6679C333.407 68.6679 331.308 68.3524 329.097 67.7206C326.885 67.0888 324.719 66.1405 322.598 64.8769C320.476 63.6132 318.536 62.0109 316.775 60.0702C315.06 58.0844 313.684 55.7826 312.646 53.1649C311.653 50.5021 311.156 47.4777 311.156 44.0927C311.156 40.8433 311.653 37.955 312.646 35.4276C313.684 32.855 315.06 30.6201 316.775 28.7245C318.49 26.8292 320.408 25.2721 322.529 24.0536C324.651 22.7899 326.84 21.865 329.097 21.2782C331.353 20.6464 333.497 20.33 335.528 20.33ZM417.052 20.8036C418.902 20.8036 420.799 21.1422 422.739 21.8192C424.68 22.4962 426.462 23.5345 428.087 24.9335C429.712 26.3326 431.021 28.0704 432.014 30.1464C433.007 32.2225 433.503 34.6829 433.503 37.5263C433.503 39.4218 433.21 41.2495 432.623 43.0097C432.081 44.7699 431.247 46.3953 430.118 47.8847C429.211 49.0823 428.128 50.1479 426.87 51.0829L432.759 59.5282C433.526 60.6114 434 61.5373 434.181 62.3046C434.406 63.0717 434.293 63.7937 433.842 64.4706C433.436 65.1475 432.646 65.9149 431.473 66.7724C429.803 67.991 428.47 68.465 427.478 68.1942C426.485 67.9233 425.446 67.0428 424.363 65.5536L416.278 53.9774H408.115V62.9814C408.115 63.8389 408.025 64.6739 407.845 65.4862C407.664 66.2534 407.213 66.8853 406.491 67.3817C405.769 67.8782 404.572 68.1269 402.902 68.1269C401.278 68.1268 400.104 67.8782 399.382 67.3817C398.66 66.8854 398.209 66.231 398.028 65.4189C397.893 64.6065 397.825 63.7714 397.825 62.914V25.8817C397.825 25.0242 397.893 24.2115 398.028 23.4442C398.209 22.6771 398.66 22.0452 399.382 21.5487C400.104 21.0523 401.301 20.8036 402.971 20.8036H417.052ZM467.511 20.8036C468.413 20.8036 469.249 20.8946 470.017 21.0751C470.784 21.2106 471.416 21.6393 471.912 22.3612C472.408 23.0834 472.656 24.3019 472.656 26.0165C472.656 27.641 472.408 28.8148 471.912 29.537C471.416 30.2592 470.761 30.711 469.948 30.8915C469.181 31.0269 468.346 31.0946 467.443 31.0946H446.931V39.828H460.877C461.779 39.8281 462.569 39.8958 463.246 40.0312C463.968 40.1665 464.532 40.5498 464.938 41.1815C465.345 41.8134 465.548 42.8748 465.548 44.3642C465.548 45.763 465.345 46.7782 464.938 47.4101C464.532 48.0419 463.968 48.426 463.246 48.5614C462.524 48.6968 461.689 48.7646 460.741 48.7646H446.931V57.8358H467.511C468.413 57.8358 469.249 57.9268 470.017 58.1073C470.784 58.2879 471.416 58.7389 471.912 59.4608C472.409 60.1378 472.656 61.3339 472.656 63.0487C472.656 64.6733 472.408 65.8471 471.912 66.5692C471.416 67.2914 470.761 67.72 469.948 67.8554C469.181 68.0359 468.346 68.1269 467.443 68.1269H441.718C440.093 68.1269 438.919 67.9012 438.197 67.4501C437.475 66.9536 437.023 66.2986 436.843 65.4862C436.707 64.6739 436.64 63.8389 436.64 62.9814V25.9491C436.64 23.9633 437.024 22.6097 437.791 21.8876C438.558 21.1655 439.934 20.8037 441.92 20.8036H467.511ZM372.667 30.621C370.907 30.621 369.237 30.9819 367.657 31.704C366.123 32.4261 364.746 33.4411 363.527 34.7499C362.354 36.0137 361.406 37.5036 360.684 39.2187C360.007 40.8885 359.669 42.694 359.669 44.6347C359.669 46.5302 360.007 48.3357 360.684 50.0507C361.406 51.7206 362.354 53.1874 363.527 54.4511C364.746 55.7148 366.123 56.7075 367.657 57.4296C369.192 58.1517 370.862 58.5136 372.667 58.5136C374.472 58.5136 376.165 58.1517 377.744 57.4296C379.324 56.7075 380.701 55.7371 381.874 54.5185C383.093 53.2547 384.019 51.788 384.65 50.1181C385.327 48.4032 385.665 46.5529 385.665 44.5673C385.665 42.6718 385.327 40.8885 384.65 39.2187C383.973 37.5036 383.025 36.0137 381.807 34.7499C380.633 33.4411 379.256 32.4261 377.677 31.704C376.142 30.9819 374.472 30.621 372.667 30.621ZM408.115 43.8222H417.526C418.158 43.8221 418.812 43.7089 419.489 43.4833C420.166 43.2125 420.776 42.8294 421.317 42.3329C421.859 41.8364 422.31 41.1815 422.671 40.369C423.032 39.5567 423.213 38.5862 423.213 37.4579C423.213 36.1492 422.942 35.0209 422.4 34.0732C421.904 33.1255 421.182 32.4036 420.234 31.9071C419.287 31.3656 418.181 31.0947 416.917 31.0946H408.115V43.8222Z" fill="white"/>
<path d="M356.948 80.411C358.408 80.4111 359.758 80.6909 360.998 81.2509C362.258 81.7909 363.358 82.5512 364.298 83.5312C365.238 84.5111 365.978 85.6512 366.518 86.9511C367.058 88.231 367.328 89.6211 367.328 91.121C367.328 92.5809 367.068 93.9607 366.548 95.2607C366.028 96.5405 365.298 97.6806 364.358 98.6806C363.418 99.6606 362.338 100.431 361.118 100.991C359.918 101.531 358.618 101.801 357.218 101.801C355.778 101.801 354.428 101.531 353.168 100.991C351.928 100.431 350.828 99.6708 349.868 98.7108C348.908 97.7308 348.158 96.6105 347.618 95.3505C347.078 94.0706 346.808 92.7009 346.808 91.2411C346.808 89.7412 347.068 88.3409 347.588 87.0409C348.128 85.7209 348.858 84.5707 349.778 83.5907C350.718 82.5909 351.798 81.8108 353.018 81.2509C354.238 80.6909 355.548 80.411 356.948 80.411ZM279.386 80.5907C279.626 80.5908 279.846 80.6309 280.046 80.7108C280.246 80.7908 280.426 80.9103 280.586 81.0702C280.766 81.2302 280.915 81.4308 281.035 81.6708L289.346 99.0107C289.546 99.3906 289.646 99.7312 289.646 100.031C289.665 100.311 289.585 100.561 289.405 100.781C289.225 100.981 288.926 101.191 288.506 101.411C287.866 101.711 287.366 101.79 287.006 101.65C286.666 101.51 286.346 101.12 286.046 100.48L283.972 96.1005H274.76L272.695 100.48C272.395 101.1 272.065 101.471 271.705 101.591C271.345 101.731 270.845 101.661 270.205 101.381C269.805 101.181 269.506 100.971 269.306 100.751C269.126 100.531 269.045 100.271 269.065 99.9706C269.105 99.6507 269.235 99.2708 269.455 98.831L277.705 81.6405C277.865 81.3205 278.096 81.0705 278.396 80.8905C278.715 80.6906 279.046 80.5907 279.386 80.5907ZM171.562 80.5907C172.122 80.5907 172.523 80.671 172.763 80.831C173.023 80.991 173.182 81.2112 173.242 81.4911C173.322 81.7711 173.362 82.0809 173.362 82.4208V98.3202H182.513C182.813 98.3202 183.082 98.3511 183.322 98.411C183.562 98.451 183.753 98.591 183.893 98.831C184.033 99.051 184.103 99.4111 184.103 99.911C184.103 100.411 184.032 100.78 183.893 101.02C183.753 101.24 183.562 101.38 183.322 101.44C183.082 101.52 182.813 101.56 182.513 101.56H171.593C171.013 101.56 170.593 101.471 170.333 101.291C170.073 101.131 169.902 100.911 169.822 100.631C169.762 100.351 169.732 100.05 169.732 99.7304V82.4208C169.732 82.081 169.762 81.771 169.822 81.4911C169.902 81.2111 170.063 80.991 170.303 80.831C170.563 80.671 170.983 80.5907 171.562 80.5907ZM197.469 80.5907C198.028 80.5908 198.428 80.6711 198.668 80.831C198.928 80.991 199.088 81.2111 199.148 81.4911C199.228 81.771 199.269 82.081 199.269 82.4208V99.7304C199.269 100.07 199.228 100.381 199.148 100.661C199.088 100.921 198.928 101.131 198.668 101.291C198.408 101.471 197.998 101.56 197.438 101.56C196.878 101.56 196.468 101.471 196.208 101.291C195.948 101.131 195.789 100.911 195.729 100.631C195.669 100.351 195.639 100.041 195.639 99.7011V82.3905C195.639 82.0707 195.669 81.771 195.729 81.4911C195.808 81.2113 195.968 80.9909 196.208 80.831C196.468 80.671 196.889 80.5907 197.469 80.5907ZM426.693 80.5907C427.033 80.5907 427.334 80.6308 427.594 80.7108C427.874 80.7709 428.094 80.9305 428.254 81.1903C428.414 81.4303 428.493 81.8408 428.493 82.4208C428.493 82.9805 428.403 83.3903 428.224 83.6503C428.064 83.9103 427.843 84.0708 427.563 84.1308C427.303 84.1908 427.003 84.2206 426.663 84.2206H416.733V89.2607H423.573C423.913 89.2607 424.203 89.3008 424.443 89.3808C424.683 89.4408 424.874 89.5807 425.014 89.8007C425.154 90.0207 425.224 90.3911 425.224 90.911C425.224 91.4107 425.154 91.7805 425.014 92.0204C424.874 92.2404 424.673 92.3803 424.413 92.4403C424.153 92.4803 423.853 92.5009 423.514 92.5009H416.733V97.9003H426.693C427.033 97.9003 427.334 97.9404 427.594 98.0204C427.874 98.0805 428.094 98.241 428.254 98.5009C428.414 98.7609 428.493 99.1708 428.493 99.7304C428.493 100.29 428.404 100.701 428.224 100.961C428.064 101.221 427.843 101.38 427.563 101.44C427.303 101.52 427.003 101.56 426.663 101.56H414.903C414.344 101.56 413.934 101.471 413.674 101.291C413.414 101.131 413.253 100.911 413.193 100.631C413.133 100.351 413.104 100.041 413.104 99.7011V82.3905C413.104 81.7106 413.233 81.2404 413.493 80.9804C413.773 80.7204 414.273 80.5908 414.993 80.5907H426.693ZM231.207 80.5907C231.747 80.5907 232.147 80.6804 232.407 80.8603C232.667 81.0202 232.828 81.2405 232.888 81.5204C232.968 81.8004 233.008 82.1111 233.008 82.4511V99.7607C233.008 100.061 232.968 100.351 232.888 100.631C232.828 100.911 232.667 101.131 232.407 101.291C232.147 101.451 231.737 101.531 231.178 101.531C230.638 101.531 230.238 101.441 229.978 101.261C229.718 101.101 229.548 100.88 229.468 100.6C229.408 100.321 229.377 100.021 229.377 99.7011V86.831L223.917 94.7206C223.857 94.8006 223.767 94.9108 223.647 95.0507C223.527 95.1707 223.367 95.2808 223.167 95.3808C222.967 95.4807 222.697 95.5312 222.357 95.5312C222.037 95.5312 221.777 95.4808 221.577 95.3808C221.377 95.2808 221.218 95.1706 221.098 95.0507C220.998 94.9307 220.897 94.8103 220.797 94.6903L215.367 86.831V99.7607C215.367 100.061 215.327 100.351 215.247 100.631C215.187 100.911 215.028 101.131 214.768 101.291C214.508 101.451 214.097 101.531 213.537 101.531C213.017 101.531 212.627 101.451 212.367 101.291C212.107 101.131 211.937 100.911 211.857 100.631C211.797 100.351 211.768 100.041 211.768 99.7011V82.3905C211.768 82.0706 211.797 81.7804 211.857 81.5204C211.937 81.2406 212.107 81.0202 212.367 80.8603C212.627 80.6803 213.038 80.5907 213.598 80.5907C214.017 80.5907 214.327 80.6206 214.527 80.6806C214.747 80.7205 214.917 80.7906 215.037 80.8905C215.157 80.9705 215.277 81.0806 215.397 81.2206L222.372 90.9687L229.377 81.1903C229.517 81.0305 229.657 80.911 229.797 80.831C229.937 80.751 230.117 80.6903 230.337 80.6503C230.557 80.6103 230.847 80.5907 231.207 80.5907ZM253.927 80.5907C254.807 80.5907 255.667 80.7409 256.507 81.0409C257.347 81.3409 258.097 81.7906 258.757 82.3905C259.437 82.9904 259.967 83.7304 260.347 84.6103C260.747 85.4903 260.946 86.5211 260.946 87.7011C260.946 88.8609 260.747 89.8808 260.347 90.7607C259.967 91.6207 259.437 92.3511 258.757 92.9511C258.077 93.551 257.317 94.0007 256.477 94.3007C255.657 94.6007 254.796 94.7509 253.896 94.7509H249.367V99.7304C249.367 100.05 249.327 100.351 249.247 100.631C249.187 100.911 249.027 101.131 248.767 101.291C248.527 101.451 248.117 101.531 247.537 101.531C246.977 101.531 246.567 101.451 246.307 101.291C246.047 101.131 245.887 100.911 245.827 100.631C245.767 100.331 245.736 100.021 245.736 99.7011V82.3905C245.736 82.0706 245.767 81.7804 245.827 81.5204C245.907 81.2406 246.077 81.0202 246.337 80.8603C246.597 80.6804 247.007 80.5908 247.566 80.5907H253.927ZM333.179 80.5907C333.739 80.5907 334.139 80.6803 334.379 80.8603C334.639 81.0202 334.798 81.2406 334.858 81.5204C334.938 81.8004 334.979 82.1111 334.979 82.4511V99.7304C334.979 100.05 334.928 100.351 334.828 100.631C334.748 100.891 334.568 101.101 334.288 101.261C334.028 101.441 333.618 101.531 333.059 101.531C332.619 101.531 332.269 101.491 332.009 101.411C331.769 101.331 331.549 101.16 331.349 100.9L321.179 86.9208V99.7304C321.179 100.05 321.139 100.351 321.059 100.631C320.999 100.891 320.838 101.101 320.578 101.261C320.318 101.441 319.908 101.531 319.349 101.531C318.809 101.531 318.408 101.441 318.148 101.261C317.908 101.101 317.749 100.88 317.669 100.6C317.609 100.321 317.578 100.021 317.578 99.7011V82.3007C317.578 82.0008 317.618 81.7208 317.698 81.4608C317.778 81.2008 317.949 80.991 318.209 80.831C318.489 80.6711 318.899 80.5907 319.438 80.5907C320.038 80.5907 320.449 80.6607 320.669 80.8007C320.909 80.9207 321.128 81.1009 321.328 81.3407L331.349 95.3505V82.3007C331.349 82.0007 331.389 81.7208 331.469 81.4608C331.549 81.2009 331.719 80.991 331.979 80.831C332.239 80.671 332.639 80.5907 333.179 80.5907ZM398.395 80.5907C398.934 80.5908 399.334 80.6805 399.594 80.8603C399.854 81.0202 400.014 81.2405 400.074 81.5204C400.154 81.8004 400.194 82.1111 400.194 82.4511V99.7607C400.194 100.061 400.154 100.351 400.074 100.631C400.014 100.911 399.854 101.131 399.594 101.291C399.334 101.451 398.924 101.531 398.364 101.531C397.824 101.531 397.424 101.441 397.164 101.261C396.904 101.101 396.734 100.88 396.654 100.6C396.594 100.321 396.564 100.021 396.564 99.7011V86.831L391.104 94.7206C391.044 94.8006 390.954 94.9107 390.834 95.0507C390.714 95.1706 390.554 95.2808 390.354 95.3808C390.154 95.4808 389.884 95.5312 389.544 95.5312C389.224 95.5311 388.964 95.4808 388.764 95.3808C388.564 95.2808 388.404 95.1706 388.284 95.0507C388.184 94.9307 388.084 94.8103 387.984 94.6903L382.554 86.831V99.7607C382.554 100.061 382.514 100.351 382.434 100.631C382.374 100.911 382.214 101.131 381.954 101.291C381.694 101.451 381.284 101.531 380.724 101.531C380.204 101.531 379.814 101.451 379.554 101.291C379.294 101.131 379.124 100.911 379.044 100.631C378.984 100.351 378.954 100.041 378.954 99.7011V82.3905C378.954 82.0706 378.984 81.7804 379.044 81.5204C379.124 81.2405 379.294 81.0202 379.554 80.8603C379.814 80.6803 380.224 80.5907 380.784 80.5907C381.204 80.5907 381.514 80.6206 381.714 80.6806C381.934 80.7205 382.104 80.7907 382.224 80.8905C382.344 80.9705 382.464 81.0807 382.584 81.2206L389.559 90.9687L396.564 81.1903C396.704 81.0305 396.844 80.9109 396.984 80.831C397.124 80.751 397.304 80.6903 397.524 80.6503C397.744 80.6103 398.035 80.5907 398.395 80.5907ZM357.068 84.0702C356.168 84.0702 355.318 84.2503 354.518 84.6103C353.718 84.9703 353.008 85.4806 352.388 86.1405C351.788 86.7805 351.318 87.5305 350.978 88.3905C350.638 89.2505 350.468 90.161 350.468 91.121C350.468 92.0808 350.638 92.9907 350.978 93.8505C351.338 94.7105 351.818 95.4605 352.418 96.1005C353.018 96.7405 353.708 97.2405 354.488 97.6005C355.288 97.9604 356.148 98.1405 357.068 98.1405C357.988 98.1405 358.848 97.9603 359.647 97.6005C360.447 97.2405 361.148 96.7405 361.748 96.1005C362.368 95.4606 362.848 94.7206 363.188 93.8808C363.527 93.0209 363.698 92.1009 363.698 91.121C363.698 90.141 363.518 89.2305 363.158 88.3905C362.818 87.5306 362.338 86.7805 361.718 86.1405C361.118 85.4806 360.418 84.9702 359.618 84.6103C358.838 84.2503 357.988 84.0703 357.068 84.0702ZM276.216 93.0107H282.509L279.355 86.3505L276.216 93.0107ZM249.367 91.0907H253.927C254.547 91.0907 255.106 90.9703 255.606 90.7304C256.126 90.4704 256.547 90.0907 256.867 89.5907C257.187 89.0708 257.347 88.4204 257.347 87.6405C257.347 86.9406 257.196 86.3407 256.896 85.8407C256.616 85.3208 256.216 84.9205 255.696 84.6405C255.196 84.3607 254.596 84.2206 253.896 84.2206H249.367V91.0907Z" fill="white"/>
<defs>
<linearGradient id="paint0_linear_25_46" x1="28.7957" y1="45.8734" x2="38.4654" y2="42.7379" gradientUnits="userSpaceOnUse">
<stop stop-color="#1E4ED8"/>
<stop offset="1" stop-color="#020B22"/>
</linearGradient>
<linearGradient id="paint1_linear_25_46" x1="75.5058" y1="45.8734" x2="65.8361" y2="42.7379" gradientUnits="userSpaceOnUse">
<stop stop-color="#1E4ED8"/>
<stop offset="1" stop-color="#020B22"/>
</linearGradient>
</defs>
</svg>
