<svg width="381" height="268" viewBox="0 0 381 268" fill="none" xmlns="http://www.w3.org/2000/svg">
<path d="M124.054 21.42C124.054 14.5216 129.918 10.8475 136.545 8.92936C179.611 -3.537 201.898 -2.4024 243.612 8.92936C250.269 10.7378 256.103 14.5216 256.103 21.4199L245.694 112.024C245.694 116.515 243.286 120.633 239.435 122.849C238.887 123.164 238.333 123.472 237.812 123.831L196.251 152.529C195.731 152.888 195.187 153.217 194.597 153.446C191.691 154.574 188.466 154.574 185.56 153.446C184.97 153.217 184.426 152.888 183.905 152.529L142.344 123.831C141.824 123.472 141.27 123.164 140.721 122.849C136.87 120.633 134.463 116.515 134.463 112.024L124.054 21.42Z" fill="#1E4ED8"/>
<path d="M146.897 25.1382L146.886 25.1418L172.757 64.7977C170.537 62.0157 165.872 63.771 166.211 67.4761L170.431 113.593C170.727 116.823 167.015 118.841 164.464 116.837L153.35 108.104C152.571 107.492 152.071 106.593 151.96 105.609L143.391 29.3484C143.192 27.574 144.289 25.9098 145.999 25.3946L146.889 25.1255L146.897 25.1382Z" fill="url(#paint0_linear_13_380)"/>
<path d="M233.271 25.1382L233.282 25.1418L207.412 64.7977C209.632 62.0157 214.296 63.771 213.957 67.4761L209.737 113.593C209.441 116.823 213.153 118.841 215.704 116.837L226.818 108.104C227.597 107.492 228.098 106.593 228.208 105.609L236.777 29.3484C236.976 27.574 235.879 25.9098 234.17 25.3946L233.28 25.1255L233.271 25.1382Z" fill="url(#paint1_linear_13_380)"/>
<path d="M212.955 21.269C213.911 20.1742 215.421 19.7397 216.814 20.1587L233.332 25.1281C221.361 45.6297 208.361 66.1093 193.181 86.5871C191.721 88.8252 188.438 88.8252 186.978 86.5871C171.886 66.7221 158.808 46.1321 146.826 25.1281L163.346 20.1587C164.739 19.7398 166.248 20.1744 167.204 21.269L187.289 44.2691C188.765 45.9586 191.395 45.9586 192.871 44.2691L212.955 21.269Z" fill="white"/>
<path d="M136.029 180.701C138.251 180.702 140.177 180.899 141.807 181.294C143.486 181.689 144.893 182.158 146.029 182.701C147.165 183.245 148.054 183.788 148.696 184.331C149.387 184.825 149.857 185.22 150.104 185.516C151.486 186.8 152.251 187.911 152.399 188.849C152.548 189.738 152.029 190.998 150.844 192.627C149.609 194.355 148.375 195.318 147.141 195.516C145.956 195.713 144.597 195.294 143.066 194.257C142.474 193.714 141.881 193.22 141.288 192.776C140.696 192.331 139.98 191.986 139.141 191.739C138.351 191.442 137.288 191.294 135.955 191.294C135.165 191.294 134.424 191.417 133.732 191.664C133.041 191.862 132.449 192.158 131.955 192.553C131.461 192.948 131.066 193.442 130.77 194.035C130.473 194.578 130.325 195.195 130.325 195.886C130.325 197.022 130.696 197.936 131.437 198.627C132.227 199.319 133.239 199.886 134.474 200.33C135.758 200.725 137.165 201.121 138.696 201.516C140.276 201.862 141.881 202.282 143.511 202.776C144.992 203.27 146.424 203.887 147.807 204.627C149.189 205.319 150.424 206.208 151.511 207.294C152.597 208.381 153.462 209.738 154.104 211.368C154.795 212.997 155.141 214.997 155.141 217.368C155.141 220.33 154.572 222.874 153.437 224.997C152.301 227.121 150.795 228.85 148.918 230.183C147.041 231.516 145.017 232.479 142.844 233.072C140.671 233.714 138.548 234.034 136.474 234.035C133.856 234.035 131.56 233.714 129.585 233.072C127.659 232.43 126.005 231.664 124.622 230.776C123.289 229.837 122.227 228.923 121.437 228.035C120.646 227.146 120.103 226.479 119.807 226.035C118.967 224.948 118.449 224.01 118.251 223.22C118.053 222.381 118.153 221.541 118.548 220.701C118.992 219.862 119.733 218.948 120.77 217.96C121.807 217.071 122.77 216.602 123.659 216.553C124.597 216.454 125.511 216.677 126.399 217.22C127.288 217.763 128.153 218.528 128.992 219.516C130.177 220.948 131.338 221.96 132.474 222.553C133.659 223.096 134.894 223.368 136.178 223.368C137.807 223.367 139.19 223.171 140.325 222.776C141.461 222.381 142.325 221.763 142.918 220.923C143.51 220.034 143.807 218.923 143.807 217.59C143.807 216.504 143.387 215.639 142.548 214.997C141.758 214.306 140.671 213.714 139.288 213.22C137.955 212.726 136.448 212.257 134.77 211.813C133.14 211.319 131.51 210.751 129.881 210.109C128.745 209.714 127.659 209.22 126.622 208.627C125.585 208.035 124.597 207.368 123.659 206.627C122.721 205.887 121.906 204.997 121.215 203.96C120.573 202.923 120.054 201.738 119.659 200.405C119.314 199.071 119.141 197.541 119.141 195.813C119.141 192.899 119.856 190.306 121.288 188.035C122.72 185.763 124.696 183.985 127.214 182.701C129.782 181.368 132.721 180.701 136.029 180.701ZM78.8877 181.516C79.6283 181.516 80.32 181.664 80.9619 181.96C81.6039 182.207 82.1722 182.578 82.666 183.072C83.2091 183.565 83.6534 184.158 83.999 184.849L103.555 225.442C104.147 226.676 104.468 227.738 104.518 228.627C104.567 229.467 104.296 230.232 103.703 230.923C103.16 231.565 102.246 232.207 100.962 232.849C98.9866 233.787 97.4556 234.059 96.3691 233.664C95.2828 233.319 94.2702 232.158 93.332 230.183L89.0479 221.22H68.6318L64.3691 230.183C63.3816 232.108 62.345 233.244 61.2588 233.59C60.2218 233.985 58.7153 233.714 56.7402 232.776C55.4563 232.183 54.5174 231.565 53.9248 230.923C53.8682 230.851 53.8168 230.777 53.7666 230.702C53.53 231.409 53.0648 232.001 52.3701 232.479C51.58 233.022 50.2715 233.294 48.4443 233.294C46.6667 233.294 45.3829 233.022 44.5928 232.479C43.8027 231.936 43.3089 231.219 43.1113 230.33C42.9138 229.442 42.8145 228.528 42.8145 227.59V201.146L31.7773 216.776C31.5799 217.023 31.3083 217.368 30.9629 217.812C30.6173 218.207 30.1233 218.553 29.4814 218.849C28.8889 219.145 28.074 219.294 27.0371 219.294C25.9507 219.294 25.0863 219.145 24.4443 218.849C23.8518 218.553 23.3828 218.207 23.0371 217.812C22.6917 217.417 22.3952 217.072 22.1484 216.776L11.1846 201.22V227.739C11.1845 228.677 11.0861 229.565 10.8887 230.405C10.6911 231.244 10.1973 231.936 9.40723 232.479C8.66652 233.022 7.3827 233.294 5.55566 233.294C3.77789 233.294 2.49325 233.022 1.70312 232.479C0.962597 231.936 0.493396 231.244 0.295898 230.405C0.0984213 229.516 4.87865e-06 228.578 0 227.59V187.072C2.2879e-06 186.133 0.0983702 185.269 0.295898 184.479C0.493447 183.639 0.987293 182.948 1.77734 182.405C2.5674 181.861 3.87621 181.59 5.70312 181.59C6.93769 181.59 7.87658 181.665 8.51855 181.813C9.16032 181.961 9.62952 182.183 9.92578 182.479C10.222 182.726 10.5431 183.022 10.8887 183.368L27.001 205.136L43.1846 183.368C43.5796 182.874 43.9751 182.504 44.3701 182.257C44.7651 182.01 45.259 181.837 45.8516 181.739C46.4935 181.64 47.3828 181.59 48.5186 181.59C50.2961 181.59 51.58 181.862 52.3701 182.405C53.1602 182.948 53.654 183.664 53.8516 184.553C54.0491 185.393 54.1475 186.282 54.1475 187.22V225.443C54.1722 225.394 54.196 225.344 54.2217 225.294L73.7031 184.776C74.1969 183.788 74.9124 182.997 75.8506 182.405C76.8381 181.812 77.8508 181.516 78.8877 181.516ZM110.738 181.516C112.615 181.516 113.924 181.788 114.665 182.331C115.455 182.874 115.924 183.565 116.072 184.405C116.27 185.244 116.368 186.183 116.368 187.22V227.739C116.368 228.677 116.27 229.59 116.072 230.479C115.875 231.318 115.381 232.01 114.591 232.553C113.85 233.047 112.541 233.294 110.665 233.294C108.887 233.294 107.603 233.047 106.812 232.553C106.022 232.01 105.529 231.293 105.331 230.405C105.183 229.516 105.109 228.602 105.109 227.664V187.146C105.109 186.158 105.183 185.244 105.331 184.405C105.529 183.565 106.023 182.874 106.812 182.331C107.603 181.788 108.911 181.516 110.738 181.516ZM73.1777 211.664H84.4795L78.8145 199.813L73.1777 211.664Z" fill="#1E4ED8"/>
<path fill-rule="evenodd" clip-rule="evenodd" d="M183.681 180.701C185.904 180.701 187.83 180.899 189.46 181.294C191.138 181.689 192.546 182.158 193.681 182.701C194.817 183.245 195.706 183.788 196.348 184.331C197.039 184.825 197.509 185.22 197.756 185.516C199.138 186.8 199.904 187.912 200.052 188.85C200.2 189.739 199.682 190.998 198.497 192.627C197.262 194.356 196.027 195.318 194.793 195.516C193.608 195.713 192.249 195.294 190.718 194.257C190.126 193.714 189.534 193.22 188.941 192.776C188.349 192.331 187.632 191.986 186.793 191.739C186.003 191.442 184.94 191.294 183.607 191.294C182.817 191.294 182.077 191.418 181.385 191.664C180.694 191.862 180.101 192.158 179.607 192.553C179.113 192.948 178.719 193.442 178.423 194.035C178.126 194.578 177.978 195.195 177.978 195.886C177.978 197.022 178.349 197.936 179.09 198.627C179.88 199.318 180.891 199.887 182.126 200.331C183.41 200.726 184.817 201.121 186.348 201.516C187.929 201.862 189.533 202.282 191.163 202.776C192.644 203.27 194.077 203.887 195.46 204.627C196.842 205.319 198.076 206.208 199.163 207.294C200.249 208.381 201.114 209.738 201.756 211.368C202.447 212.997 202.793 214.997 202.793 217.368C202.793 220.33 202.224 222.874 201.089 224.997C199.953 227.121 198.447 228.85 196.571 230.183C194.695 231.516 192.67 232.479 190.497 233.072C188.324 233.714 186.2 234.035 184.126 234.035C181.509 234.034 179.212 233.714 177.237 233.072C175.311 232.43 173.657 231.665 172.274 230.776C170.941 229.838 169.88 228.923 169.09 228.035C168.299 227.146 167.756 226.479 167.46 226.035C166.62 224.948 166.102 224.01 165.904 223.22C165.707 222.381 165.805 221.541 166.2 220.701C166.644 219.862 167.386 218.948 168.423 217.96C169.459 217.072 170.422 216.602 171.311 216.553C172.25 216.454 173.164 216.677 174.052 217.22C174.941 217.763 175.805 218.529 176.644 219.516C177.829 220.948 178.99 221.96 180.126 222.553C181.311 223.096 182.546 223.368 183.83 223.368C185.459 223.368 186.842 223.171 187.978 222.776C189.114 222.381 189.978 221.763 190.571 220.923C191.163 220.034 191.46 218.923 191.46 217.59C191.46 216.504 191.039 215.639 190.2 214.997C189.41 214.306 188.324 213.714 186.941 213.22C185.608 212.726 184.101 212.257 182.423 211.813C180.793 211.319 179.163 210.751 177.534 210.109C176.398 209.714 175.311 209.22 174.274 208.627C173.237 208.035 172.249 207.368 171.311 206.627C170.373 205.887 169.558 204.997 168.867 203.96C168.225 202.923 167.706 201.738 167.311 200.405C166.966 199.071 166.793 197.541 166.793 195.813C166.793 192.899 167.509 190.306 168.941 188.035C170.373 185.763 172.348 183.985 174.867 182.701C177.435 181.368 180.373 180.702 183.681 180.701ZM270.532 180.997C274.087 180.997 277.421 181.689 280.532 183.072C283.692 184.405 286.433 186.282 288.754 188.701C291.075 191.121 292.902 193.936 294.235 197.146C295.618 200.356 296.309 203.837 296.309 207.59C296.309 211.195 295.643 214.603 294.309 217.813C293.025 220.973 291.223 223.788 288.902 226.257C286.581 228.677 283.889 230.578 280.828 231.96C277.815 233.343 274.581 234.035 271.124 234.035C267.568 234.034 264.211 233.368 261.05 232.035C257.939 230.652 255.198 228.775 252.828 226.405C250.507 223.985 248.655 221.195 247.272 218.035C245.939 214.874 245.272 211.467 245.272 207.813C245.272 204.109 245.914 200.652 247.198 197.442C248.531 194.183 250.335 191.319 252.606 188.85C254.927 186.381 257.618 184.454 260.679 183.072C263.741 181.689 267.026 180.997 270.532 180.997ZM230.119 180.997C232.637 180.997 234.834 181.294 236.711 181.886C238.587 182.479 240.118 183.097 241.303 183.739C242.489 184.331 243.23 184.75 243.526 184.997C244.415 185.541 245.255 186.159 246.045 186.85C246.835 187.541 247.254 188.455 247.303 189.59C247.303 190.183 247.18 190.776 246.933 191.368C246.736 191.912 246.415 192.504 245.97 193.146C245.18 194.282 244.414 195.121 243.674 195.664C242.982 196.158 242.267 196.405 241.526 196.405C240.933 196.405 240.365 196.257 239.822 195.96C239.328 195.664 238.686 195.269 237.896 194.776C237.551 194.529 237.057 194.232 236.415 193.886C235.773 193.491 234.908 193.146 233.822 192.85C232.736 192.504 231.353 192.331 229.675 192.331C227.946 192.331 226.193 192.652 224.415 193.294C222.687 193.887 221.082 194.8 219.6 196.035C218.119 197.269 216.934 198.85 216.045 200.776C215.156 202.652 214.711 204.849 214.711 207.368C214.711 209.985 215.156 212.232 216.045 214.109C216.983 215.985 218.193 217.541 219.675 218.776C221.156 220.01 222.761 220.948 224.489 221.59C226.267 222.183 227.996 222.479 229.675 222.479C231.156 222.479 232.415 222.331 233.452 222.035C234.538 221.738 235.451 221.392 236.192 220.997C236.982 220.553 237.649 220.158 238.192 219.813C238.735 219.467 239.279 219.146 239.822 218.85C240.415 218.554 241.008 218.405 241.6 218.405C242.291 218.405 242.982 218.677 243.674 219.22C244.414 219.763 245.155 220.628 245.896 221.813C246.341 222.455 246.686 223.097 246.933 223.739C247.18 224.331 247.279 224.923 247.229 225.516C247.229 226.553 246.835 227.417 246.045 228.109C245.255 228.751 244.415 229.343 243.526 229.886C243.131 230.084 242.365 230.529 241.229 231.22C240.093 231.862 238.587 232.454 236.711 232.997C234.834 233.59 232.588 233.886 229.97 233.886C227.798 233.886 225.501 233.54 223.082 232.849C220.662 232.158 218.291 231.121 215.97 229.739C213.649 228.356 211.526 226.602 209.6 224.479C207.724 222.306 206.218 219.787 205.082 216.923C203.995 214.01 203.452 210.701 203.452 206.997C203.452 203.442 203.995 200.281 205.082 197.516C206.218 194.701 207.724 192.257 209.6 190.183C211.477 188.109 213.575 186.405 215.896 185.072C218.217 183.689 220.613 182.676 223.082 182.035C225.551 181.343 227.897 180.997 230.119 180.997ZM319.317 181.516C321.342 181.516 323.416 181.887 325.54 182.627C327.663 183.368 329.614 184.504 331.391 186.035C333.169 187.565 334.602 189.467 335.688 191.739C336.774 194.01 337.317 196.702 337.317 199.813C337.317 201.887 336.996 203.887 336.354 205.813C335.762 207.739 334.848 209.516 333.614 211.146C332.621 212.457 331.436 213.623 330.059 214.646L336.503 223.886C337.342 225.071 337.861 226.084 338.058 226.923C338.305 227.763 338.182 228.554 337.688 229.294C337.244 230.035 336.379 230.875 335.095 231.813C333.268 233.146 331.811 233.664 330.724 233.368C329.638 233.071 328.502 232.108 327.317 230.479L318.47 217.813H309.54V227.664C309.54 228.603 309.44 229.516 309.243 230.405C309.045 231.244 308.552 231.936 307.761 232.479C306.971 233.022 305.663 233.294 303.836 233.294C302.058 233.294 300.774 233.022 299.984 232.479C299.194 231.936 298.7 231.22 298.503 230.331C298.354 229.442 298.28 228.528 298.28 227.59V187.072C298.28 186.133 298.354 185.244 298.503 184.405C298.7 183.565 299.194 182.874 299.984 182.331C300.774 181.788 302.083 181.516 303.91 181.516H319.317ZM374.527 181.516C375.515 181.516 376.428 181.615 377.267 181.813C378.107 181.961 378.798 182.43 379.342 183.22C379.885 184.01 380.156 185.344 380.156 187.22C380.156 188.998 379.885 190.282 379.342 191.072C378.798 191.862 378.082 192.356 377.193 192.553C376.354 192.701 375.44 192.776 374.453 192.776H352.008V202.331H367.267C368.255 202.331 369.119 202.405 369.86 202.553C370.65 202.701 371.267 203.121 371.712 203.813C372.156 204.504 372.379 205.665 372.379 207.294C372.379 208.825 372.156 209.936 371.712 210.627C371.267 211.319 370.65 211.738 369.86 211.886C369.07 212.034 368.157 212.109 367.12 212.109H352.008V222.035H374.527C375.515 222.035 376.428 222.134 377.267 222.331C378.107 222.529 378.798 223.023 379.342 223.813C379.885 224.554 380.156 225.862 380.156 227.739C380.156 229.516 379.885 230.8 379.342 231.59C378.798 232.38 378.082 232.849 377.193 232.997C376.354 233.195 375.44 233.294 374.453 233.294H346.304C344.527 233.294 343.243 233.047 342.453 232.553C341.663 232.01 341.169 231.294 340.971 230.405C340.823 229.516 340.749 228.602 340.749 227.664V187.146C340.749 184.973 341.169 183.492 342.008 182.701C342.848 181.911 344.354 181.516 346.527 181.516H374.527ZM270.754 192.257C268.828 192.257 267 192.652 265.272 193.442C263.593 194.232 262.087 195.344 260.754 196.776C259.47 198.158 258.432 199.788 257.642 201.664C256.902 203.491 256.532 205.467 256.532 207.59C256.532 209.664 256.902 211.639 257.642 213.516C258.432 215.343 259.47 216.949 260.754 218.331C262.087 219.714 263.593 220.8 265.272 221.59C266.951 222.38 268.778 222.776 270.754 222.776C272.729 222.776 274.581 222.38 276.309 221.59C278.038 220.8 279.544 219.738 280.828 218.405C282.161 217.022 283.174 215.417 283.865 213.59C284.606 211.714 284.976 209.689 284.976 207.516C284.976 205.442 284.606 203.491 283.865 201.664C283.124 199.788 282.087 198.158 280.754 196.776C279.47 195.344 277.963 194.232 276.235 193.442C274.556 192.652 272.729 192.257 270.754 192.257ZM309.54 206.701H319.836C320.527 206.701 321.243 206.578 321.984 206.331C322.725 206.035 323.391 205.615 323.984 205.072C324.577 204.528 325.07 203.812 325.466 202.923C325.86 202.034 326.058 200.973 326.058 199.739C326.058 198.307 325.762 197.072 325.17 196.035C324.626 194.997 323.836 194.208 322.799 193.664C321.762 193.072 320.552 192.776 319.17 192.776H309.54V206.701Z" fill="#1E4ED8"/>
<path d="M247.913 246.354C249.373 246.354 250.723 246.633 251.963 247.193C253.223 247.733 254.323 248.494 255.263 249.474C256.203 250.454 256.943 251.594 257.483 252.894C258.023 254.174 258.293 255.564 258.293 257.064C258.293 258.523 258.033 259.903 257.513 261.203C256.993 262.483 256.263 263.623 255.324 264.623C254.384 265.603 253.303 266.374 252.083 266.934C250.883 267.474 249.583 267.743 248.183 267.743C246.743 267.743 245.393 267.474 244.133 266.934C242.893 266.374 241.793 265.613 240.833 264.653C239.873 263.673 239.123 262.553 238.583 261.293C238.043 260.013 237.773 258.643 237.773 257.184C237.773 255.684 238.033 254.283 238.553 252.983C239.093 251.663 239.824 250.513 240.744 249.533C241.683 248.533 242.763 247.753 243.983 247.193C245.203 246.633 246.513 246.354 247.913 246.354ZM170.351 246.533C170.591 246.533 170.811 246.573 171.011 246.653C171.211 246.733 171.391 246.853 171.551 247.013C171.731 247.173 171.88 247.373 172 247.613L180.311 264.953C180.511 265.333 180.611 265.674 180.611 265.974C180.631 266.254 180.55 266.504 180.37 266.724C180.19 266.924 179.891 267.134 179.471 267.354C178.831 267.654 178.331 267.733 177.971 267.593C177.631 267.453 177.311 267.063 177.011 266.423L174.937 262.043H165.725L163.661 266.423C163.361 267.043 163.03 267.413 162.67 267.533C162.31 267.673 161.81 267.603 161.17 267.323C160.771 267.123 160.471 266.913 160.271 266.693C160.091 266.473 160.011 266.213 160.031 265.913C160.071 265.593 160.2 265.213 160.42 264.773L168.67 247.583C168.83 247.263 169.061 247.013 169.361 246.833C169.681 246.633 170.011 246.533 170.351 246.533ZM62.5277 246.533C63.0877 246.533 63.4879 246.613 63.7279 246.773C63.9878 246.933 64.1474 247.154 64.2074 247.434C64.2873 247.714 64.3275 248.023 64.3275 248.363V264.263H73.4779C73.7778 264.263 74.0476 264.294 74.2875 264.354C74.5275 264.394 74.7178 264.533 74.8578 264.773C74.9977 264.994 75.0677 265.354 75.0677 265.854C75.0677 266.353 74.9977 266.723 74.8578 266.963C74.7178 267.183 74.5275 267.323 74.2875 267.383C74.0475 267.463 73.7778 267.503 73.4779 267.503H62.558C61.9782 267.503 61.5582 267.413 61.2982 267.233C61.0382 267.073 60.8675 266.853 60.7875 266.573C60.7275 266.293 60.6976 265.993 60.6976 265.673V248.363C60.6976 248.024 60.7275 247.714 60.7875 247.434C60.8675 247.154 61.028 246.933 61.2679 246.773C61.5279 246.614 61.9478 246.533 62.5277 246.533ZM88.434 246.533C88.9936 246.533 89.3932 246.614 89.6332 246.773C89.8932 246.933 90.0536 247.154 90.1136 247.434C90.1936 247.714 90.2338 248.024 90.2338 248.363V265.673C90.2338 266.013 90.1936 266.324 90.1136 266.604C90.0536 266.863 89.8931 267.074 89.6332 267.233C89.3732 267.413 88.9634 267.503 88.4037 267.503C87.8437 267.503 87.4332 267.413 87.1732 267.233C86.9133 267.073 86.7537 266.853 86.6937 266.573C86.6337 266.293 86.6039 265.983 86.6039 265.644V248.333C86.6039 248.013 86.6338 247.713 86.6937 247.434C86.7737 247.154 86.9334 246.933 87.1732 246.773C87.4332 246.613 87.854 246.533 88.434 246.533ZM317.659 246.533C317.999 246.533 318.299 246.573 318.559 246.653C318.839 246.713 319.059 246.873 319.219 247.133C319.379 247.373 319.458 247.783 319.458 248.363C319.458 248.923 319.369 249.333 319.189 249.593C319.029 249.853 318.809 250.013 318.529 250.073C318.269 250.133 317.968 250.163 317.628 250.163H307.699V255.203H314.538C314.878 255.203 315.169 255.243 315.409 255.323C315.649 255.383 315.839 255.523 315.979 255.743C316.119 255.963 316.189 256.334 316.189 256.854C316.189 257.353 316.119 257.723 315.979 257.963C315.839 258.183 315.638 258.323 315.378 258.383C315.118 258.423 314.819 258.443 314.479 258.443H307.699V263.843H317.659C317.999 263.843 318.299 263.883 318.559 263.963C318.839 264.023 319.059 264.183 319.219 264.443C319.379 264.703 319.458 265.113 319.458 265.673C319.458 266.233 319.369 266.643 319.189 266.903C319.029 267.163 318.809 267.323 318.529 267.383C318.269 267.463 317.968 267.503 317.628 267.503H305.869C305.309 267.503 304.899 267.413 304.639 267.233C304.379 267.073 304.219 266.853 304.159 266.573C304.099 266.293 304.069 265.983 304.069 265.644V248.333C304.069 247.653 304.198 247.183 304.458 246.923C304.738 246.663 305.239 246.533 305.958 246.533H317.659ZM122.172 246.533C122.712 246.533 123.112 246.623 123.372 246.803C123.632 246.963 123.793 247.183 123.853 247.463C123.933 247.743 123.973 248.054 123.973 248.394V265.703C123.973 266.003 123.933 266.293 123.853 266.573C123.793 266.853 123.632 267.073 123.372 267.233C123.112 267.393 122.703 267.474 122.143 267.474C121.603 267.474 121.203 267.383 120.943 267.203C120.683 267.043 120.513 266.823 120.433 266.543C120.373 266.263 120.342 265.963 120.342 265.644V252.773L114.882 260.663C114.822 260.743 114.733 260.853 114.613 260.993C114.493 261.113 114.332 261.223 114.132 261.323C113.932 261.423 113.662 261.474 113.323 261.474C113.003 261.474 112.742 261.423 112.542 261.323C112.343 261.223 112.183 261.113 112.063 260.993C111.963 260.873 111.862 260.753 111.762 260.633L106.332 252.773V265.703C106.332 266.003 106.292 266.293 106.212 266.573C106.152 266.853 105.993 267.073 105.733 267.233C105.473 267.393 105.062 267.474 104.502 267.474C103.982 267.474 103.592 267.393 103.332 267.233C103.072 267.073 102.903 266.853 102.823 266.573C102.763 266.293 102.733 265.983 102.733 265.644V248.333C102.733 248.013 102.763 247.723 102.823 247.463C102.903 247.183 103.072 246.963 103.332 246.803C103.592 246.623 104.003 246.533 104.563 246.533C104.983 246.533 105.293 246.563 105.493 246.623C105.712 246.663 105.882 246.733 106.002 246.833C106.122 246.913 106.243 247.023 106.363 247.163L113.337 256.911L120.342 247.133C120.482 246.973 120.622 246.853 120.762 246.773C120.902 246.694 121.082 246.633 121.302 246.593C121.522 246.553 121.812 246.533 122.172 246.533ZM144.892 246.533C145.772 246.533 146.632 246.683 147.472 246.983C148.312 247.283 149.062 247.733 149.722 248.333C150.402 248.933 150.932 249.673 151.312 250.553C151.712 251.433 151.911 252.464 151.911 253.644C151.911 254.803 151.712 255.823 151.312 256.703C150.932 257.563 150.402 258.294 149.722 258.894C149.042 259.494 148.282 259.943 147.442 260.243C146.622 260.543 145.762 260.693 144.862 260.693H140.332V265.673C140.332 265.993 140.292 266.293 140.212 266.573C140.152 266.853 139.992 267.073 139.732 267.233C139.492 267.393 139.082 267.474 138.502 267.474C137.942 267.474 137.532 267.393 137.272 267.233C137.012 267.073 136.852 266.853 136.792 266.573C136.732 266.273 136.702 265.963 136.702 265.644V248.333C136.702 248.013 136.732 247.723 136.792 247.463C136.872 247.183 137.042 246.963 137.302 246.803C137.562 246.623 137.972 246.533 138.532 246.533H144.892ZM224.144 246.533C224.704 246.533 225.104 246.623 225.344 246.803C225.604 246.963 225.764 247.183 225.824 247.463C225.904 247.743 225.944 248.054 225.944 248.394V265.673C225.944 265.993 225.893 266.293 225.793 266.573C225.713 266.833 225.533 267.043 225.253 267.203C224.993 267.383 224.584 267.474 224.024 267.474C223.584 267.474 223.234 267.434 222.974 267.354C222.734 267.274 222.514 267.103 222.314 266.843L212.144 252.863V265.673C212.144 265.993 212.104 266.293 212.024 266.573C211.964 266.833 211.803 267.043 211.543 267.203C211.283 267.383 210.874 267.474 210.314 267.474C209.774 267.474 209.374 267.383 209.114 267.203C208.874 267.043 208.714 266.823 208.634 266.543C208.574 266.263 208.543 265.963 208.543 265.644V248.243C208.543 247.943 208.583 247.663 208.663 247.403C208.743 247.143 208.914 246.933 209.174 246.773C209.454 246.614 209.864 246.533 210.404 246.533C211.004 246.533 211.414 246.603 211.634 246.743C211.874 246.863 212.093 247.043 212.293 247.283L222.314 261.293V248.243C222.314 247.943 222.354 247.663 222.434 247.403C222.514 247.143 222.684 246.933 222.944 246.773C223.204 246.613 223.604 246.533 224.144 246.533ZM289.36 246.533C289.899 246.533 290.299 246.623 290.559 246.803C290.819 246.963 290.979 247.183 291.039 247.463C291.119 247.743 291.16 248.054 291.16 248.394V265.703C291.16 266.003 291.119 266.293 291.039 266.573C290.979 266.853 290.819 267.073 290.559 267.233C290.299 267.393 289.889 267.474 289.329 267.474C288.789 267.474 288.389 267.383 288.129 267.203C287.869 267.043 287.7 266.823 287.62 266.543C287.56 266.263 287.53 265.963 287.53 265.644V252.773L282.07 260.663C282.01 260.743 281.919 260.853 281.799 260.993C281.679 261.113 281.52 261.223 281.32 261.323C281.12 261.423 280.849 261.474 280.509 261.474C280.189 261.474 279.929 261.423 279.729 261.323C279.529 261.223 279.369 261.113 279.249 260.993C279.149 260.873 279.05 260.753 278.95 260.633L273.519 252.773V265.703C273.519 266.003 273.479 266.293 273.399 266.573C273.339 266.853 273.179 267.073 272.919 267.233C272.659 267.393 272.249 267.474 271.689 267.474C271.169 267.474 270.779 267.393 270.519 267.233C270.259 267.073 270.089 266.853 270.009 266.573C269.949 266.293 269.919 265.983 269.919 265.644V248.333C269.919 248.013 269.949 247.723 270.009 247.463C270.089 247.183 270.259 246.963 270.519 246.803C270.779 246.623 271.189 246.533 271.749 246.533C272.169 246.533 272.479 246.563 272.679 246.623C272.899 246.663 273.069 246.733 273.189 246.833C273.309 246.913 273.429 247.023 273.549 247.163L280.524 256.911L287.53 247.133C287.67 246.973 287.81 246.853 287.95 246.773C288.09 246.694 288.27 246.633 288.49 246.593C288.71 246.553 289 246.533 289.36 246.533ZM248.034 250.013C247.134 250.013 246.283 250.193 245.483 250.553C244.683 250.913 243.973 251.423 243.353 252.083C242.753 252.723 242.283 253.473 241.943 254.333C241.603 255.193 241.433 256.104 241.433 257.064C241.433 258.023 241.603 258.933 241.943 259.793C242.303 260.653 242.783 261.403 243.383 262.043C243.983 262.683 244.673 263.183 245.453 263.543C246.253 263.903 247.114 264.083 248.034 264.083C248.953 264.083 249.813 263.903 250.613 263.543C251.413 263.183 252.113 262.683 252.713 262.043C253.333 261.403 253.813 260.663 254.153 259.823C254.493 258.963 254.663 258.043 254.663 257.064C254.663 256.084 254.483 255.173 254.123 254.333C253.783 253.473 253.303 252.723 252.683 252.083C252.083 251.423 251.383 250.913 250.583 250.553C249.804 250.193 248.953 250.013 248.034 250.013ZM167.181 258.953H173.474L170.321 252.293L167.181 258.953ZM140.332 257.033H144.892C145.512 257.033 146.072 256.913 146.572 256.673C147.092 256.413 147.512 256.033 147.832 255.533C148.152 255.013 148.312 254.363 148.312 253.583C148.312 252.883 148.162 252.283 147.862 251.783C147.582 251.263 147.181 250.863 146.661 250.583C146.162 250.303 145.562 250.163 144.862 250.163H140.332V257.033Z" fill="#2E2E2E"/>
<defs>
<linearGradient id="paint0_linear_13_380" x1="160.513" y1="58.082" x2="172.757" y2="54.112" gradientUnits="userSpaceOnUse">
<stop stop-color="white"/>
<stop offset="1" stop-color="#999999"/>
</linearGradient>
<linearGradient id="paint1_linear_13_380" x1="219.655" y1="58.082" x2="207.412" y2="54.112" gradientUnits="userSpaceOnUse">
<stop stop-color="white"/>
<stop offset="1" stop-color="#999999"/>
</linearGradient>
</defs>
</svg>
