<svg width="473" height="122" viewBox="0 0 473 122" fill="none" xmlns="http://www.w3.org/2000/svg">
<path d="M0 16.9176C0 11.4692 4.63161 8.56736 9.86511 7.05244C43.8795 -2.79354 61.4818 -1.89742 94.4275 7.05244C99.6853 8.48075 104.293 11.4692 104.293 16.9176L96.0717 88.4769C96.0717 91.9564 94.2418 95.1527 91.3008 96.9252C90.759 97.2517 90.2029 97.5564 89.6824 97.9158L57.1861 120.354C56.6656 120.713 56.1226 121.045 55.5284 121.262C53.3448 122.059 50.9478 122.059 48.7642 121.262C48.1701 121.045 47.6271 120.713 47.1066 120.354L14.6102 97.9158C14.0897 97.5564 13.5336 97.2517 12.9919 96.9252C10.0508 95.1527 8.22093 91.9564 8.22093 88.4769L0 16.9176Z" fill="#1E4ED8"/>
<path d="M18.0412 19.8542L18.0327 19.8571L38.4654 51.1775C36.7121 48.9802 33.028 50.3666 33.2958 53.2928L36.6289 89.7159C36.8622 92.2673 33.9309 93.8612 31.9162 92.2783L23.1382 85.3811C22.5232 84.8978 22.1276 84.1877 22.0402 83.4104L15.2728 23.1795C15.1153 21.778 15.9816 20.4636 17.3318 20.0567L18.0348 19.8443L18.0412 19.8542Z" fill="url(#paint0_linear_13_344)"/>
<path d="M86.2603 19.8542L86.2688 19.8571L65.8361 51.1775C67.5894 48.9802 71.2735 50.3666 71.0058 53.2928L67.6727 89.7159C67.4393 92.2673 70.3707 93.8612 72.3853 92.2783L81.1633 85.3811C81.7783 84.8978 82.1739 84.1877 82.2613 83.4104L89.0287 23.1795C89.1862 21.778 88.32 20.4636 86.9697 20.0567L86.2667 19.8443L86.2603 19.8542Z" fill="url(#paint1_linear_13_344)"/>
<path d="M70.2143 16.7983C70.9694 15.9336 72.1621 15.5905 73.2622 15.9214L86.3084 19.8462C76.8534 36.0385 66.5861 52.2134 54.5971 68.3868C53.4434 70.1545 50.8508 70.1545 49.6972 68.3868C37.7777 52.6973 27.4489 36.4353 17.9851 19.8462L31.0328 15.9214C32.1328 15.5906 33.3248 15.9338 34.08 16.7983L49.9435 34.9639C51.1089 36.2982 53.186 36.2983 54.3515 34.9639L70.2143 16.7983Z" fill="white"/>
<path d="M249.534 19.8631C251.565 19.8631 253.325 20.0431 254.814 20.4041C256.349 20.7652 257.636 21.1948 258.674 21.6913C259.712 22.1876 260.524 22.6841 261.11 23.1805C261.742 23.6318 262.172 23.9927 262.397 24.2635C263.661 25.4369 264.361 26.4529 264.496 27.3104C264.631 28.1227 264.157 29.2735 263.074 30.7625C261.946 32.3421 260.818 33.2225 259.689 33.4032C258.606 33.5837 257.365 33.1996 255.966 32.2518C255.424 31.7554 254.882 31.3045 254.341 30.8983C253.799 30.4921 253.144 30.1757 252.377 29.95C251.655 29.6794 250.684 29.5438 249.466 29.5438C248.744 29.5438 248.067 29.6571 247.436 29.8827C246.804 30.0632 246.262 30.3341 245.811 30.6952C245.359 31.0561 244.998 31.5073 244.728 32.0487C244.457 32.545 244.321 33.1094 244.321 33.7411C244.321 34.7791 244.66 35.615 245.337 36.2469C246.059 36.8786 246.984 37.3974 248.112 37.8036C249.286 38.1646 250.573 38.5255 251.972 38.8866C253.416 39.2025 254.883 39.5866 256.372 40.0379C257.726 40.4893 259.035 41.0534 260.299 41.7303C261.562 42.3622 262.691 43.175 263.684 44.1678C264.676 45.1606 265.466 46.4014 266.053 47.8905C266.685 49.3799 267.001 51.2084 267.001 53.3748C267.001 56.0827 266.481 58.4068 265.443 60.3475C264.405 62.2883 263.029 63.8682 261.313 65.0868C259.599 66.3053 257.748 67.1858 255.763 67.7274C253.777 68.3141 251.836 68.6072 249.94 68.6073C247.549 68.6073 245.45 68.314 243.645 67.7274C241.884 67.1407 240.372 66.4411 239.108 65.6288C237.89 64.7713 236.919 63.9362 236.197 63.1239C235.475 62.3116 234.979 61.702 234.708 61.2957C233.941 60.303 233.467 59.4455 233.286 58.7235C233.106 57.9562 233.196 57.188 233.557 56.4207C233.963 55.6536 234.64 54.8184 235.588 53.9159C236.535 53.1038 237.415 52.675 238.228 52.6297C239.085 52.5395 239.921 52.7426 240.733 53.2391C241.546 53.7355 242.335 54.4352 243.103 55.3377C244.186 56.6466 245.246 57.5725 246.284 58.1141C247.367 58.6105 248.496 58.8582 249.669 58.8582C251.158 58.8582 252.423 58.6783 253.461 58.3172C254.499 57.9562 255.288 57.3911 255.83 56.6239C256.372 55.8116 256.643 54.7964 256.643 53.578C256.643 52.585 256.258 51.7946 255.491 51.2079C254.769 50.5762 253.776 50.0351 252.513 49.5838C251.294 49.1325 249.917 48.7029 248.383 48.2967C246.894 47.8454 245.404 47.3267 243.915 46.7401C242.877 46.379 241.884 45.9271 240.937 45.3856C239.989 44.844 239.085 44.2354 238.228 43.5584C237.37 42.8815 236.626 42.0686 235.994 41.1209C235.407 40.1731 234.933 39.0896 234.572 37.8709C234.256 36.6524 234.099 35.2532 234.099 33.6737C234.099 31.0109 234.753 28.6414 236.062 26.5653C237.37 24.4892 239.176 22.8647 241.478 21.6913C243.824 20.4726 246.51 19.8631 249.534 19.8631ZM197.31 20.6073C197.986 20.6073 198.618 20.7428 199.205 21.0135C199.792 21.2391 200.31 21.578 200.762 22.0291C201.258 22.4805 201.665 23.0223 201.98 23.6541L219.854 60.7538C220.395 61.882 220.688 62.8525 220.733 63.6649C220.779 64.432 220.531 65.1317 219.989 65.7635C219.493 66.3502 218.658 66.9375 217.484 67.5243C215.679 68.3817 214.28 68.6294 213.287 68.2684C212.294 67.9525 211.368 66.8921 210.511 65.0868L206.595 56.8954H187.937L184.04 65.0868C183.137 66.847 182.189 67.8851 181.196 68.201C180.249 68.5619 178.872 68.3133 177.067 67.4559C175.894 66.9143 175.036 66.3503 174.494 65.7635C174.442 65.6974 174.395 65.6294 174.349 65.5614C174.132 66.2073 173.708 66.7489 173.073 67.1854C172.351 67.6818 171.155 67.9305 169.485 67.9305C167.861 67.9305 166.687 67.6818 165.965 67.1854C165.243 66.689 164.791 66.0348 164.61 65.2225C164.43 64.4102 164.34 63.5751 164.34 62.7176V38.5487L154.252 52.8329C154.071 53.0585 153.824 53.3749 153.508 53.7811C153.192 54.1421 152.74 54.4576 152.153 54.7284C151.612 54.9991 150.867 55.1346 149.92 55.1346C148.927 55.1346 148.137 54.9992 147.55 54.7284C147.008 54.4576 146.58 54.1421 146.264 53.7811C145.948 53.42 145.677 53.1037 145.451 52.8329L135.432 38.6161V62.8524C135.432 63.7099 135.342 64.5227 135.161 65.2899C134.981 66.0572 134.529 66.6889 133.807 67.1854C133.13 67.6818 131.956 67.9305 130.286 67.9305C128.661 67.9305 127.488 67.6818 126.766 67.1854C126.089 66.689 125.66 66.057 125.479 65.2899C125.299 64.4776 125.209 63.6202 125.209 62.7176V25.6854C125.209 24.8279 125.299 24.0374 125.479 23.3153C125.66 22.5481 126.112 21.9162 126.834 21.4198C127.556 20.9234 128.752 20.6756 130.422 20.6756C131.55 20.6756 132.407 20.7434 132.994 20.8788C133.581 21.0141 134.009 21.2173 134.28 21.4881C134.551 21.7138 134.845 21.9838 135.161 22.2997L149.887 42.1952L164.679 22.2997C165.04 21.8486 165.401 21.5106 165.762 21.285C166.123 21.0594 166.574 20.9007 167.115 20.8104C167.702 20.7201 168.515 20.6756 169.553 20.6756C171.177 20.6756 172.351 20.9233 173.073 21.4198C173.795 21.9162 174.246 22.5712 174.427 23.3836C174.607 24.1507 174.698 24.9628 174.698 25.8202V60.7518C174.72 60.708 174.742 60.6632 174.765 60.619L192.57 23.5868C193.022 22.6842 193.676 21.9614 194.533 21.4198C195.436 20.8782 196.362 20.6073 197.31 20.6073ZM226.42 20.6073C228.135 20.6073 229.331 20.8559 230.008 21.3524C230.73 21.8488 231.159 22.4807 231.294 23.2479C231.474 24.0151 231.564 24.8725 231.564 25.8202V62.8524C231.564 63.7098 231.474 64.545 231.294 65.3573C231.113 66.1245 230.663 66.7573 229.94 67.2538C229.263 67.7051 228.067 67.9305 226.352 67.9305C224.727 67.9305 223.553 67.7051 222.831 67.2538C222.109 66.7573 221.658 66.1023 221.478 65.2899C221.342 64.4775 221.274 63.6425 221.274 62.785V25.7528C221.274 24.8501 221.342 24.0151 221.478 23.2479C221.658 22.4808 222.109 21.8488 222.831 21.3524C223.553 20.8559 224.75 20.6073 226.42 20.6073ZM192.09 48.162H202.42L197.242 37.3299L192.09 48.162Z" fill="#1E4ED8"/>
<path fill-rule="evenodd" clip-rule="evenodd" d="M293.086 19.8632C295.117 19.8632 296.878 20.0431 298.367 20.4042C299.902 20.7652 301.188 21.1949 302.226 21.6913C303.264 22.1878 304.077 22.6841 304.663 23.1806C305.295 23.6318 305.724 23.9928 305.949 24.2636C307.213 25.437 307.913 26.4529 308.048 27.3104C308.183 28.1228 307.71 29.2735 306.627 30.7626C305.499 32.3423 304.37 33.2227 303.241 33.4032C302.158 33.5836 300.917 33.1996 299.518 32.2518C298.976 31.7556 298.435 31.3044 297.894 30.8983C297.352 30.4921 296.697 30.1758 295.93 29.9501C295.208 29.6793 294.237 29.5438 293.019 29.5438C292.297 29.5439 291.619 29.6571 290.988 29.8827C290.356 30.0632 289.815 30.3343 289.364 30.6952C288.912 31.0562 288.55 31.5072 288.28 32.0487C288.009 32.5451 287.873 33.1094 287.873 33.7411C287.873 34.7792 288.212 35.6151 288.889 36.247C289.611 36.8788 290.537 37.3974 291.665 37.8036C292.839 38.1646 294.125 38.5256 295.524 38.8866C296.968 39.2025 298.435 39.5867 299.924 40.038C301.278 40.4893 302.587 41.0534 303.851 41.7304C305.115 42.3622 306.243 43.1749 307.236 44.1679C308.228 45.1607 309.019 46.4013 309.606 47.8905C310.238 49.3799 310.553 51.2085 310.553 53.3749C310.553 56.0827 310.034 58.4069 308.996 60.3475C307.958 62.2883 306.582 63.8682 304.866 65.0868C303.151 66.3054 301.301 67.1858 299.315 67.7274C297.329 68.3141 295.388 68.6073 293.492 68.6073C291.101 68.6073 289.002 68.3141 287.197 67.7274C285.436 67.1407 283.924 66.4412 282.66 65.6288C281.442 64.7713 280.471 63.9363 279.749 63.1239C279.027 62.3115 278.531 61.702 278.26 61.2958C277.493 60.303 277.019 59.4456 276.838 58.7235C276.658 57.9563 276.749 57.1881 277.11 56.4208C277.516 55.6537 278.192 54.8184 279.14 53.9159C280.088 53.1035 280.968 52.6749 281.781 52.6298C282.638 52.5395 283.473 52.7428 284.285 53.2392C285.098 53.7356 285.888 54.4351 286.656 55.3378C287.739 56.6466 288.799 57.5726 289.837 58.1142C290.92 58.6105 292.049 58.8583 293.222 58.8583C294.711 58.8583 295.975 58.6782 297.013 58.3173C298.051 57.9562 298.841 57.3912 299.383 56.6239C299.924 55.8116 300.196 54.7963 300.196 53.578C300.196 52.5851 299.811 51.7946 299.044 51.2079C298.322 50.5762 297.329 50.0351 296.066 49.5839C294.847 49.1325 293.47 48.703 291.936 48.2968C290.446 47.8454 288.956 47.3269 287.467 46.7401C286.429 46.3791 285.436 45.9272 284.489 45.3856C283.541 44.8441 282.638 44.2354 281.781 43.5585C280.923 42.8815 280.178 42.0688 279.546 41.121C278.959 40.1732 278.486 39.0895 278.125 37.871C277.809 36.6524 277.651 35.2533 277.651 33.6737C277.651 31.0109 278.306 28.6414 279.615 26.5653C280.923 24.4892 282.729 22.8648 285.031 21.6913C287.377 20.4728 290.062 19.8632 293.086 19.8632ZM372.464 20.1337C375.714 20.1337 378.76 20.7655 381.604 22.0292C384.492 23.2478 386.997 24.9632 389.118 27.1747C391.24 29.3862 392.91 31.9588 394.128 34.8925C395.392 37.8262 396.024 41.0082 396.024 44.4384C396.024 47.7331 395.414 50.8475 394.196 53.7811C393.022 56.6696 391.374 59.2423 389.253 61.4989C387.132 63.7103 384.672 65.4481 381.874 66.7118C379.121 67.9755 376.164 68.6073 373.005 68.6073C369.756 68.6073 366.687 67.9977 363.798 66.7792C360.955 65.5155 358.45 63.8009 356.283 61.6347C354.162 59.4232 352.47 56.8727 351.206 53.9843C349.988 51.0958 349.378 47.9813 349.378 44.6415C349.378 41.2565 349.964 38.0967 351.138 35.163C352.356 32.1843 354.004 29.567 356.08 27.3104C358.202 25.0538 360.662 23.2929 363.46 22.0292C366.258 20.7656 369.26 20.1337 372.464 20.1337ZM335.528 20.1337C337.829 20.1337 339.838 20.4046 341.553 20.9462C343.268 21.4878 344.668 22.0518 345.751 22.6386C346.834 23.1801 347.511 23.5643 347.781 23.7899C348.594 24.2864 349.361 24.8505 350.083 25.4823C350.805 26.1142 351.189 26.9491 351.235 27.9872C351.235 28.5287 351.121 29.0707 350.896 29.6122C350.715 30.1085 350.422 30.6497 350.016 31.2362C349.294 32.2743 348.594 33.0425 347.917 33.539C347.286 33.9901 346.631 34.2156 345.954 34.2157C345.413 34.2157 344.893 34.0802 344.397 33.8095C343.945 33.5387 343.359 33.1777 342.637 32.7265C342.321 32.5008 341.869 32.2299 341.282 31.914C340.696 31.5529 339.906 31.2365 338.913 30.9657C337.92 30.6498 336.656 30.4921 335.121 30.4921C333.542 30.4921 331.939 30.7853 330.315 31.372C328.735 31.9136 327.268 32.7486 325.914 33.8768C324.56 35.0052 323.478 36.4497 322.665 38.2099C321.853 39.9249 321.447 41.9334 321.447 44.2352C321.447 46.6273 321.853 48.6813 322.665 50.3964C323.523 52.1112 324.629 53.5328 325.983 54.661C327.337 55.7893 328.803 56.6466 330.383 57.2333C332.008 57.7748 333.587 58.0457 335.121 58.0458C336.475 58.0458 337.627 57.9103 338.574 57.6395C339.567 57.3688 340.402 57.0533 341.079 56.6923C341.801 56.2861 342.411 55.9252 342.907 55.6093C343.404 55.2933 343.9 54.9992 344.397 54.7284C344.938 54.4576 345.48 54.3222 346.022 54.3222C346.654 54.3222 347.285 54.5709 347.917 55.0673C348.594 55.5637 349.272 56.3533 349.948 57.4364C350.355 58.0232 350.67 58.6104 350.896 59.1972C351.121 59.7387 351.212 60.2806 351.167 60.8222C351.167 61.7698 350.805 62.5595 350.083 63.1913C349.361 63.778 348.594 64.3199 347.781 64.8163C347.42 64.9969 346.721 65.4034 345.683 66.035C344.645 66.6217 343.268 67.1626 341.553 67.6591C339.838 68.2006 337.785 68.4716 335.393 68.4716C333.407 68.4716 331.308 68.1562 329.096 67.5243C326.885 66.8924 324.718 65.9442 322.597 64.6806C320.476 63.4168 318.535 61.8146 316.775 59.8739C315.06 57.8881 313.683 55.5863 312.645 52.9686C311.652 50.3058 311.156 47.2814 311.156 43.8964C311.156 40.6471 311.652 37.7586 312.645 35.2313C313.683 32.6587 315.06 30.4238 316.775 28.5282C318.49 26.6326 320.408 25.0759 322.53 23.8573C324.651 22.5937 326.839 21.6687 329.096 21.0819C331.352 20.4501 333.497 20.1337 335.528 20.1337ZM417.052 20.6073C418.902 20.6073 420.798 20.946 422.739 21.6229C424.679 22.2999 426.462 23.3381 428.087 24.7372C429.712 26.1363 431.021 27.874 432.014 29.9501C433.007 32.0262 433.503 34.4865 433.503 37.33C433.503 39.2255 433.21 41.0533 432.623 42.8134C432.082 44.5736 431.247 46.199 430.118 47.6884C429.211 48.8862 428.127 49.9515 426.869 50.8866L432.759 59.3319C433.526 60.4151 433.999 61.341 434.18 62.1083C434.406 62.8755 434.293 63.5974 433.842 64.2743C433.436 64.9513 432.645 65.7185 431.472 66.5761C429.802 67.7946 428.471 68.2687 427.478 67.9979C426.485 67.7271 425.447 66.8466 424.364 65.3573L416.279 53.7811H408.115V62.785C408.115 63.6426 408.025 64.4776 407.845 65.2899C407.664 66.0572 407.213 66.689 406.49 67.1854C405.768 67.6818 404.572 67.9306 402.903 67.9306C401.278 67.9305 400.104 67.6819 399.382 67.1854C398.66 66.689 398.209 66.0347 398.029 65.2225C397.893 64.4102 397.825 63.5751 397.825 62.7177V25.6854C397.825 24.8279 397.893 24.0152 398.029 23.2479C398.209 22.4808 398.66 21.8489 399.382 21.3524C400.104 20.856 401.3 20.6074 402.97 20.6073H417.052ZM467.511 20.6073C468.414 20.6073 469.249 20.6983 470.016 20.8788C470.783 21.0142 471.415 21.4428 471.911 22.1649C472.408 22.887 472.656 24.1053 472.656 25.8202C472.656 27.445 472.408 28.6186 471.911 29.3407C471.415 30.0628 470.761 30.5147 469.948 30.6952C469.181 30.8306 468.346 30.8983 467.444 30.8983H446.93V39.6317H460.876C461.779 39.6317 462.569 39.6995 463.246 39.8349C463.968 39.9703 464.533 40.3535 464.939 40.9852C465.345 41.6171 465.548 42.6784 465.548 44.1679C465.548 45.5666 465.345 46.5819 464.939 47.2138C464.533 47.8456 463.968 48.2297 463.246 48.3651C462.524 48.5005 461.689 48.5682 460.741 48.5683H446.93V57.6395H467.511C468.414 57.6395 469.249 57.7305 470.016 57.911C470.783 58.0915 471.415 58.5426 471.911 59.2645C472.408 59.9415 472.656 61.1376 472.656 62.8524C472.656 64.4772 472.408 65.6508 471.911 66.3729C471.415 67.095 470.761 67.5236 469.948 67.6591C469.181 67.8396 468.346 67.9305 467.444 67.9306H441.717C440.092 67.9305 438.919 67.7051 438.197 67.2538C437.474 66.7573 437.024 66.1023 436.843 65.2899C436.708 64.4775 436.64 63.6426 436.64 62.785V25.7528C436.64 23.7673 437.023 22.4135 437.79 21.6913C438.558 20.9692 439.934 20.6073 441.92 20.6073H467.511ZM372.667 30.4247C370.907 30.4247 369.237 30.7856 367.657 31.5077C366.123 32.2298 364.746 33.2449 363.528 34.5536C362.354 35.8173 361.406 37.3073 360.684 39.0224C360.007 40.6923 359.668 42.4977 359.668 44.4384C359.668 46.3339 360.007 48.1393 360.684 49.8544C361.406 51.5243 362.354 52.991 363.528 54.2548C364.746 55.5185 366.123 56.5112 367.657 57.2333C369.192 57.9554 370.862 58.3173 372.667 58.3173C374.472 58.3172 376.165 57.9554 377.744 57.2333C379.324 56.5112 380.701 55.5408 381.874 54.3222C383.093 53.0585 384.018 51.5916 384.65 49.9218C385.327 48.2068 385.665 46.3567 385.665 44.371C385.665 42.4754 385.327 40.6923 384.65 39.0224C383.973 37.3073 383.025 35.8173 381.807 34.5536C380.633 33.2448 379.257 32.2298 377.677 31.5077C376.143 30.7856 374.472 30.4247 372.667 30.4247ZM408.115 43.6259H417.526C418.158 43.6259 418.812 43.5127 419.49 43.287C420.166 43.0162 420.776 42.633 421.318 42.1366C421.859 41.6402 422.31 40.9851 422.671 40.1727C423.032 39.3604 423.213 38.3898 423.213 37.2616C423.213 35.9529 422.942 34.8246 422.401 33.8768C421.904 32.9291 421.181 32.2073 420.234 31.7108C419.286 31.1693 418.18 30.8983 416.916 30.8983H408.115V43.6259Z" fill="#1E4ED8"/>
<path d="M356.948 80.6074C358.408 80.6074 359.758 80.8873 360.998 81.4472C362.258 81.9872 363.358 82.7476 364.298 83.7275C365.238 84.7075 365.978 85.8475 366.518 87.1474C367.058 88.4274 367.328 89.8174 367.328 91.3174C367.328 92.7772 367.068 94.1571 366.548 95.457C366.028 96.7369 365.298 97.877 364.358 98.8769C363.418 99.8569 362.338 100.627 361.118 101.187C359.918 101.727 358.618 101.997 357.218 101.997C355.778 101.997 354.428 101.727 353.168 101.187C351.928 100.628 350.828 99.8671 349.868 98.9072C348.908 97.9272 348.158 96.8068 347.618 95.5468C347.078 94.267 346.808 92.8973 346.808 91.4375C346.808 89.9375 347.068 88.5372 347.588 87.2373C348.128 85.9173 348.858 84.7671 349.778 83.7871C350.718 82.7873 351.798 82.0072 353.018 81.4472C354.238 80.8872 355.548 80.6074 356.948 80.6074ZM279.386 80.7871C279.626 80.7871 279.846 80.8272 280.046 80.9072C280.246 80.9872 280.426 81.1067 280.586 81.2666C280.766 81.4266 280.915 81.6272 281.035 81.8672L289.346 99.207C289.546 99.587 289.646 99.9275 289.646 100.228C289.665 100.507 289.585 100.758 289.405 100.978C289.225 101.177 288.926 101.388 288.506 101.607C287.866 101.907 287.366 101.987 287.006 101.847C286.666 101.707 286.346 101.317 286.046 100.677L283.972 96.2968H274.76L272.695 100.677C272.395 101.297 272.065 101.667 271.705 101.787C271.345 101.927 270.845 101.857 270.205 101.577C269.805 101.377 269.506 101.167 269.306 100.947C269.126 100.727 269.045 100.467 269.065 100.167C269.105 99.8471 269.235 99.4671 269.455 99.0273L277.705 81.8369C277.865 81.5169 278.096 81.2669 278.396 81.0869C278.715 80.8869 279.046 80.7871 279.386 80.7871ZM171.562 80.7871C172.122 80.7871 172.523 80.8673 172.763 81.0273C173.023 81.1873 173.182 81.4075 173.242 81.6875C173.322 81.9674 173.362 82.2773 173.362 82.6172V98.5166H182.513C182.813 98.5166 183.082 98.5474 183.322 98.6074C183.562 98.6474 183.753 98.7873 183.893 99.0273C184.033 99.2473 184.103 99.6075 184.103 100.107C184.103 100.607 184.032 100.977 183.893 101.217C183.753 101.437 183.562 101.577 183.322 101.637C183.082 101.717 182.813 101.757 182.513 101.757H171.593C171.013 101.757 170.593 101.667 170.333 101.487C170.073 101.327 169.902 101.107 169.822 100.827C169.762 100.547 169.732 100.247 169.732 99.9267V82.6172C169.732 82.2773 169.762 81.9673 169.822 81.6875C169.902 81.4075 170.063 81.1873 170.303 81.0273C170.563 80.8673 170.983 80.7871 171.562 80.7871ZM197.469 80.7871C198.028 80.7871 198.428 80.8674 198.668 81.0273C198.928 81.1873 199.088 81.4075 199.148 81.6875C199.228 81.9674 199.269 82.2773 199.269 82.6172V99.9267C199.269 100.267 199.228 100.577 199.148 100.857C199.088 101.117 198.928 101.327 198.668 101.487C198.408 101.667 197.998 101.757 197.438 101.757C196.878 101.757 196.468 101.667 196.208 101.487C195.948 101.327 195.789 101.107 195.729 100.827C195.669 100.547 195.639 100.237 195.639 99.8974V82.5869C195.639 82.2671 195.669 81.9673 195.729 81.6875C195.808 81.4076 195.968 81.1873 196.208 81.0273C196.468 80.8673 196.889 80.7871 197.469 80.7871ZM426.693 80.7871C427.033 80.7871 427.334 80.8272 427.594 80.9072C427.874 80.9672 428.094 81.1268 428.254 81.3867C428.414 81.6267 428.493 82.0372 428.493 82.6172C428.493 83.1768 428.403 83.5866 428.224 83.8466C428.064 84.1066 427.843 84.2671 427.563 84.3271C427.303 84.3871 427.003 84.417 426.663 84.417H416.733V89.457H423.573C423.913 89.457 424.203 89.4971 424.443 89.5771C424.683 89.6371 424.874 89.777 425.014 89.997C425.154 90.2171 425.224 90.5875 425.224 91.1074C425.224 91.607 425.154 91.9768 425.014 92.2168C424.874 92.4368 424.673 92.5767 424.413 92.6367C424.153 92.6766 423.853 92.6972 423.514 92.6972H416.733V98.0966H426.693C427.033 98.0966 427.334 98.1368 427.594 98.2168C427.874 98.2768 428.094 98.4373 428.254 98.6972C428.414 98.9572 428.493 99.3671 428.493 99.9267C428.493 100.487 428.404 100.897 428.224 101.157C428.064 101.417 427.843 101.577 427.563 101.637C427.303 101.717 427.003 101.757 426.663 101.757H414.903C414.344 101.757 413.934 101.667 413.674 101.487C413.414 101.327 413.253 101.107 413.193 100.827C413.133 100.547 413.104 100.237 413.104 99.8974V82.5869C413.104 81.907 413.233 81.4367 413.493 81.1767C413.773 80.9168 414.273 80.7871 414.993 80.7871H426.693ZM231.207 80.7871C231.747 80.7871 232.147 80.8767 232.407 81.0566C232.667 81.2166 232.828 81.4369 232.888 81.7168C232.968 81.9968 233.008 82.3074 233.008 82.6474V99.957C233.008 100.257 232.968 100.547 232.888 100.827C232.828 101.107 232.667 101.327 232.407 101.487C232.147 101.647 231.737 101.727 231.178 101.728C230.638 101.728 230.238 101.637 229.978 101.457C229.718 101.297 229.548 101.077 229.468 100.797C229.408 100.517 229.377 100.217 229.377 99.8974V87.0273L223.917 94.917C223.857 94.9969 223.767 95.1071 223.647 95.247C223.527 95.367 223.367 95.4771 223.167 95.5771C222.967 95.677 222.697 95.7275 222.357 95.7275C222.037 95.7275 221.777 95.6771 221.577 95.5771C221.377 95.4772 221.218 95.367 221.098 95.247C220.998 95.127 220.897 95.0067 220.797 94.8867L215.367 87.0273V99.957C215.367 100.257 215.327 100.547 215.247 100.827C215.187 101.107 215.028 101.327 214.768 101.487C214.508 101.647 214.097 101.728 213.537 101.728C213.017 101.727 212.627 101.647 212.367 101.487C212.107 101.327 211.937 101.107 211.857 100.827C211.797 100.547 211.768 100.237 211.768 99.8974V82.5869C211.768 82.267 211.797 81.9767 211.857 81.7168C211.937 81.4369 212.107 81.2166 212.367 81.0566C212.627 80.8767 213.038 80.7871 213.598 80.7871C214.017 80.7871 214.327 80.8169 214.527 80.8769C214.747 80.9169 214.917 80.987 215.037 81.0869C215.157 81.1669 215.277 81.277 215.397 81.417L222.372 91.165L229.377 81.3867C229.517 81.2269 229.657 81.1073 229.797 81.0273C229.937 80.9474 230.117 80.8866 230.337 80.8466C230.557 80.8067 230.847 80.7871 231.207 80.7871ZM253.927 80.7871C254.807 80.7871 255.667 80.9373 256.507 81.2373C257.347 81.5373 258.097 81.9869 258.757 82.5869C259.437 83.1868 259.967 83.9268 260.347 84.8066C260.747 85.6866 260.946 86.7174 260.946 87.8974C260.946 89.0573 260.747 90.0771 260.347 90.957C259.967 91.817 259.437 92.5474 258.757 93.1474C258.077 93.7474 257.317 94.1971 256.477 94.497C255.657 94.797 254.796 94.9472 253.896 94.9472H249.367V99.9267C249.367 100.247 249.327 100.547 249.247 100.827C249.187 101.107 249.027 101.327 248.767 101.487C248.527 101.647 248.117 101.727 247.537 101.728C246.977 101.728 246.567 101.647 246.307 101.487C246.047 101.327 245.887 101.107 245.827 100.827C245.767 100.527 245.736 100.217 245.736 99.8974V82.5869C245.736 82.267 245.767 81.9767 245.827 81.7168C245.907 81.4369 246.077 81.2165 246.337 81.0566C246.597 80.8768 247.007 80.7871 247.566 80.7871H253.927ZM333.179 80.7871C333.739 80.7871 334.139 80.8766 334.379 81.0566C334.639 81.2165 334.798 81.4369 334.858 81.7168C334.938 81.9968 334.979 82.3074 334.979 82.6474V99.9267C334.979 100.247 334.928 100.547 334.828 100.827C334.748 101.087 334.568 101.297 334.288 101.457C334.028 101.637 333.618 101.728 333.059 101.728C332.619 101.728 332.269 101.687 332.009 101.607C331.769 101.527 331.549 101.357 331.349 101.097L321.179 87.1172V99.9267C321.179 100.247 321.139 100.547 321.059 100.827C320.999 101.087 320.838 101.297 320.578 101.457C320.318 101.637 319.908 101.727 319.349 101.728C318.809 101.728 318.408 101.637 318.148 101.457C317.908 101.297 317.749 101.077 317.669 100.797C317.609 100.517 317.578 100.217 317.578 99.8974V82.497C317.578 82.1971 317.618 81.9171 317.698 81.6572C317.778 81.3972 317.949 81.1873 318.209 81.0273C318.489 80.8674 318.899 80.7871 319.438 80.7871C320.038 80.7871 320.449 80.857 320.669 80.997C320.909 81.117 321.128 81.2973 321.328 81.5371L331.349 95.5468V82.497C331.349 82.1971 331.389 81.9172 331.469 81.6572C331.549 81.3972 331.719 81.1873 331.979 81.0273C332.239 80.8673 332.639 80.7871 333.179 80.7871ZM398.395 80.7871C398.934 80.7871 399.334 80.8769 399.594 81.0566C399.854 81.2166 400.014 81.4369 400.074 81.7168C400.154 81.9968 400.194 82.3074 400.194 82.6474V99.957C400.194 100.257 400.154 100.547 400.074 100.827C400.014 101.107 399.854 101.327 399.594 101.487C399.334 101.647 398.924 101.727 398.364 101.728C397.824 101.728 397.424 101.637 397.164 101.457C396.904 101.297 396.734 101.077 396.654 100.797C396.594 100.517 396.564 100.217 396.564 99.8974V87.0273L391.104 94.917C391.044 94.997 390.954 95.107 390.834 95.247C390.714 95.367 390.554 95.4772 390.354 95.5771C390.154 95.6771 389.884 95.7275 389.544 95.7275C389.224 95.7275 388.964 95.6771 388.764 95.5771C388.564 95.4772 388.404 95.367 388.284 95.247C388.184 95.127 388.084 95.0067 387.984 94.8867L382.554 87.0273V99.957C382.554 100.257 382.514 100.547 382.434 100.827C382.374 101.107 382.214 101.327 381.954 101.487C381.694 101.647 381.284 101.728 380.724 101.728C380.204 101.727 379.814 101.647 379.554 101.487C379.294 101.327 379.124 101.107 379.044 100.827C378.984 100.547 378.954 100.237 378.954 99.8974V82.5869C378.954 82.267 378.984 81.9767 379.044 81.7168C379.124 81.4369 379.294 81.2166 379.554 81.0566C379.814 80.8766 380.224 80.7871 380.784 80.7871C381.204 80.7871 381.514 80.817 381.714 80.8769C381.934 80.9169 382.104 80.987 382.224 81.0869C382.344 81.1669 382.464 81.277 382.584 81.417L389.559 91.165L396.564 81.3867C396.704 81.2269 396.844 81.1072 396.984 81.0273C397.124 80.9473 397.304 80.8866 397.524 80.8466C397.744 80.8067 398.035 80.7871 398.395 80.7871ZM357.068 84.2666C356.168 84.2666 355.318 84.4466 354.518 84.8066C353.718 85.1666 353.008 85.6769 352.388 86.3369C351.788 86.9769 351.318 87.7269 350.978 88.5869C350.638 89.4469 350.468 90.3574 350.468 91.3174C350.468 92.2771 350.638 93.187 350.978 94.0468C351.338 94.9068 351.818 95.6569 352.418 96.2968C353.018 96.9368 353.708 97.4368 354.488 97.7968C355.288 98.1568 356.148 98.3369 357.068 98.3369C357.988 98.3368 358.848 98.1567 359.647 97.7968C360.447 97.4368 361.148 96.9368 361.748 96.2968C362.368 95.6569 362.848 94.917 363.188 94.0771C363.527 93.2172 363.698 92.2972 363.698 91.3174C363.698 90.3374 363.518 89.4269 363.158 88.5869C362.818 87.7269 362.338 86.9769 361.718 86.3369C361.118 85.677 360.418 85.1666 359.618 84.8066C358.838 84.4467 357.988 84.2666 357.068 84.2666ZM276.216 93.207H282.509L279.355 86.5468L276.216 93.207ZM249.367 91.2871H253.927C254.547 91.2871 255.106 91.1667 255.606 90.9267C256.126 90.6667 256.547 90.2871 256.867 89.7871C257.187 89.2671 257.347 88.6168 257.347 87.8369C257.347 87.137 257.196 86.537 256.896 86.0371C256.616 85.5171 256.216 85.1169 255.696 84.8369C255.196 84.557 254.596 84.417 253.896 84.417H249.367V91.2871Z" fill="#2E2E2E"/>
<defs>
<linearGradient id="paint0_linear_13_344" x1="28.7957" y1="45.8734" x2="38.4654" y2="42.7379" gradientUnits="userSpaceOnUse">
<stop stop-color="white"/>
<stop offset="1" stop-color="#999999"/>
</linearGradient>
<linearGradient id="paint1_linear_13_344" x1="75.5058" y1="45.8734" x2="65.8361" y2="42.7379" gradientUnits="userSpaceOnUse">
<stop stop-color="white"/>
<stop offset="1" stop-color="#999999"/>
</linearGradient>
</defs>
</svg>
