<?xml version="1.0" encoding="UTF-8"?>
<svg xmlns="http://www.w3.org/2000/svg" version="1.1" xmlns:xlink="http://www.w3.org/1999/xlink" viewBox="0 0 408 290">
  <defs>
    <style>
      .cls-1 {
        fill: url(#Gradiente_sem_nome_2);
      }

      .cls-2, .cls-3 {
        fill: #fff;
      }

      .cls-3 {
        fill-rule: evenodd;
      }

      .cls-4 {
        fill: url(#Gradiente_sem_nome);
      }

      .cls-5 {
        fill: #1e4ed8;
      }
    </style>
    <linearGradient id="Gradiente_sem_nome" data-name="Gradiente sem nome" x1="178" y1="209.4" x2="190.3" y2="213.4" gradientTransform="translate(0 290) scale(1 -1)" gradientUnits="userSpaceOnUse">
      <stop offset="0" stop-color="#1e4ed8"/>
      <stop offset="1" stop-color="#010d2d"/>
    </linearGradient>
    <linearGradient id="Gradiente_sem_nome_2" data-name="Gradiente sem nome 2" x1="230" y1="209.4" x2="217.8" y2="213.4" gradientTransform="translate(0 290) scale(1 -1)" gradientUnits="userSpaceOnUse">
      <stop offset="0" stop-color="#1e4ed8"/>
      <stop offset="1" stop-color="#010d2d"/>
    </linearGradient>
  </defs>
  <!-- Generator: Adobe Illustrator 28.7.1, SVG Export Plug-In . SVG Version: 1.2.0 Build 142)  -->
  <g>
    <g id="Camada_1">
      <g>
        <path class="cls-2" d="M138,32.9c0-6.9,5.9-10.6,12.5-12.5,43.1-12.5,65.4-11.3,107.1,0,6.7,1.8,12.5,5.6,12.5,12.5l-10.4,90.6c0,4.5-2.4,8.6-6.3,10.8-.5.3-1.1.6-1.6,1l-41.6,28.7c-.5.4-1.1.7-1.7.9-2.9,1.1-6.1,1.1-9,0-.6-.2-1.1-.6-1.7-.9l-41.6-28.7c-.5-.4-1.1-.7-1.6-1-3.9-2.2-6.3-6.3-6.3-10.8l-10.4-90.6Z"/>
        <path class="cls-4" d="M160.8,36.6h0s25.9,39.7,25.9,39.7c-2.2-2.8-6.9-1-6.5,2.7l4.2,46.1c.3,3.2-3.4,5.2-6,3.2l-11.1-8.7c-.8-.6-1.3-1.5-1.4-2.5l-8.6-76.3c-.2-1.8.9-3.4,2.6-4l.9-.3h0Z"/>
        <path class="cls-1" d="M247.2,36.6h0s-25.9,39.7-25.9,39.7c2.2-2.8,6.9-1,6.5,2.7l-4.2,46.1c-.3,3.2,3.4,5.2,6,3.2l11.1-8.7c.8-.6,1.3-1.5,1.4-2.5l8.6-76.3c.2-1.8-.9-3.4-2.6-4l-.9-.3h0Z"/>
        <path class="cls-5" d="M226.9,32.7c1-1.1,2.5-1.5,3.9-1.1l16.5,5c-12,20.5-25,41-40.2,61.5-1.5,2.2-4.7,2.2-6.2,0-15.1-19.9-28.2-40.5-40.2-61.5l16.5-5c1.4-.4,2.9,0,3.9,1.1l20.1,23c1.5,1.7,4.1,1.7,5.6,0l20.1-23Z"/>
        <path class="cls-2" d="M150,192.2c2.2,0,4.1.2,5.8.6,1.7.4,3.1.9,4.2,1.4,1.1.5,2,1.1,2.7,1.6.7.5,1.2.9,1.4,1.2,1.4,1.3,2.1,2.4,2.3,3.3.1.9-.4,2.1-1.6,3.8-1.2,1.7-2.5,2.7-3.7,2.9-1.2.2-2.5-.2-4.1-1.3-.6-.5-1.2-1-1.8-1.5-.6-.4-1.3-.8-2.1-1-.8-.3-1.9-.4-3.2-.4s-1.5.1-2.2.4c-.7.2-1.3.5-1.8.9-.5.4-.9.9-1.2,1.5-.3.5-.4,1.2-.4,1.9,0,1.1.4,2.1,1.1,2.7.8.7,1.8,1.3,3,1.7,1.3.4,2.7.8,4.2,1.2,1.6.3,3.2.8,4.8,1.3,1.5.5,2.9,1.1,4.3,1.9,1.4.7,2.6,1.6,3.7,2.7,1.1,1.1,2,2.4,2.6,4.1.7,1.6,1,3.6,1,6s-.6,5.5-1.7,7.6c-1.1,2.1-2.6,3.9-4.5,5.2-1.9,1.3-3.9,2.3-6.1,2.9-2.2.6-4.3,1-6.4,1s-4.9-.3-6.9-1c-1.9-.6-3.6-1.4-5-2.3-1.3-.9-2.4-1.9-3.2-2.7-.8-.9-1.3-1.6-1.6-2-.8-1.1-1.4-2-1.6-2.8-.2-.8,0-1.7.3-2.5.4-.8,1.2-1.8,2.2-2.7,1-.9,2-1.4,2.9-1.4.9,0,1.9.1,2.7.7.9.5,1.8,1.3,2.6,2.3,1.2,1.4,2.3,2.4,3.5,3,1.2.5,2.4.8,3.7.8s3-.2,4.1-.6c1.1-.4,2-1,2.6-1.9.6-.9.9-2,.9-3.3s-.4-2-1.3-2.6c-.8-.7-1.9-1.3-3.3-1.8-1.3-.5-2.8-1-4.5-1.4-1.6-.5-3.3-1.1-4.9-1.7-1.1-.4-2.2-.9-3.3-1.5-1-.6-2-1.3-3-2-.9-.7-1.8-1.6-2.4-2.7-.6-1-1.2-2.2-1.6-3.6-.3-1.3-.5-2.9-.5-4.6,0-2.9.7-5.5,2.1-7.8,1.4-2.3,3.4-4,5.9-5.3,2.6-1.3,5.5-2,8.8-2ZM92.8,193c.7,0,1.4.1,2.1.4.6.2,1.2.6,1.7,1.1.5.5,1,1.1,1.3,1.8l19.6,40.6c.6,1.2.9,2.3,1,3.2,0,.8-.2,1.6-.8,2.3-.5.6-1.5,1.3-2.7,1.9-2,.9-3.5,1.2-4.6.8-1.1-.3-2.1-1.5-3-3.5l-4.3-9h-20.4l-4.3,9c-1,1.9-2,3.1-3.1,3.4-1,.4-2.5.1-4.5-.8-1.3-.6-2.2-1.2-2.8-1.9,0,0-.1-.1-.2-.2-.2.7-.7,1.3-1.4,1.8-.8.5-2.1.8-3.9.8s-3.1-.3-3.9-.8-1.3-1.3-1.5-2.1c-.2-.9-.3-1.8-.3-2.7v-26.4l-11,15.6c-.2.2-.5.6-.8,1-.3.4-.8.7-1.5,1-.6.3-1.4.4-2.4.4s-2-.1-2.6-.4c-.6-.3-1.1-.6-1.4-1-.3-.4-.6-.7-.9-1l-11-15.6v26.5c0,.9,0,1.8-.3,2.7-.2.8-.7,1.5-1.5,2.1-.7.5-2,.8-3.9.8s-3.1-.3-3.9-.8c-.7-.5-1.2-1.2-1.4-2.1-.2-.9-.3-1.8-.3-2.8v-40.5c0-.9,0-1.8.3-2.6.2-.8.7-1.5,1.5-2.1.8-.5,2.1-.8,3.9-.8s2.2,0,2.8.2c.6.1,1.1.4,1.4.7.3.2.6.5,1,.9l16.1,21.8,16.2-21.8c.4-.5.8-.9,1.2-1.1.4-.2.9-.4,1.5-.5.6,0,1.5-.1,2.7-.1,1.8,0,3.1.3,3.9.8.8.5,1.3,1.3,1.5,2.1.2.8.3,1.7.3,2.7v38.2s0,0,0-.1l19.5-40.5c.5-1,1.2-1.8,2.1-2.4,1-.6,2-.9,3-.9ZM124.7,193c1.9,0,3.2.3,3.9.8.8.5,1.3,1.2,1.4,2.1.2.8.3,1.8.3,2.8v40.5c0,.9,0,1.9-.3,2.7-.2.8-.7,1.5-1.5,2.1-.7.5-2.1.7-3.9.7s-3.1-.2-3.9-.7c-.8-.5-1.3-1.3-1.5-2.1-.1-.9-.2-1.8-.2-2.7v-40.5c0-1,0-1.9.2-2.7.2-.8.7-1.5,1.5-2.1.8-.5,2.1-.8,3.9-.8ZM87.1,223.1h11.3l-5.7-11.9-5.6,11.9Z"/>
        <path class="cls-3" d="M197.6,192.2c2.2,0,4.1.2,5.8.6,1.7.4,3.1.9,4.2,1.4,1.1.5,2,1.1,2.7,1.6.7.5,1.2.9,1.4,1.2,1.4,1.3,2.1,2.4,2.3,3.3.1.9-.4,2.1-1.6,3.8-1.2,1.7-2.5,2.7-3.7,2.9-1.2.2-2.5-.2-4.1-1.3-.6-.5-1.2-1-1.8-1.5-.6-.4-1.3-.8-2.1-1-.8-.3-1.9-.4-3.2-.4s-1.5.1-2.2.4c-.7.2-1.3.5-1.8.9-.5.4-.9.9-1.2,1.5-.3.5-.4,1.2-.4,1.9,0,1.1.4,2.1,1.1,2.7.8.7,1.8,1.3,3,1.7,1.3.4,2.7.8,4.2,1.2,1.6.3,3.2.8,4.8,1.3,1.5.5,2.9,1.1,4.3,1.9,1.4.7,2.6,1.6,3.7,2.7,1.1,1.1,2,2.4,2.6,4.1.7,1.6,1,3.6,1,6s-.6,5.5-1.7,7.6c-1.1,2.1-2.6,3.9-4.5,5.2-1.9,1.3-3.9,2.3-6.1,2.9-2.2.6-4.3,1-6.4,1s-4.9-.3-6.9-1c-1.9-.6-3.6-1.4-5-2.3-1.3-.9-2.4-1.9-3.2-2.7-.8-.9-1.3-1.6-1.6-2-.8-1.1-1.4-2-1.6-2.8-.2-.8,0-1.7.3-2.5.4-.8,1.2-1.8,2.2-2.7,1-.9,2-1.4,2.9-1.4.9,0,1.9.1,2.7.7.9.5,1.8,1.3,2.6,2.3,1.2,1.4,2.3,2.4,3.5,3,1.2.5,2.4.8,3.7.8s3-.2,4.1-.6,2-1,2.6-1.9c.6-.9.9-2,.9-3.3s-.4-2-1.3-2.6c-.8-.7-1.9-1.3-3.3-1.8-1.3-.5-2.8-1-4.5-1.4-1.6-.5-3.3-1.1-4.9-1.7-1.1-.4-2.2-.9-3.3-1.5-1-.6-2-1.3-3-2-.9-.7-1.8-1.6-2.4-2.7-.6-1-1.2-2.2-1.6-3.6-.3-1.3-.5-2.9-.5-4.6,0-2.9.7-5.5,2.1-7.8,1.4-2.3,3.4-4,5.9-5.3,2.6-1.3,5.5-2,8.8-2ZM284.5,192.5c3.6,0,6.9.7,10,2.1,3.2,1.3,5.9,3.2,8.2,5.6,2.3,2.4,4.1,5.2,5.5,8.4,1.4,3.2,2.1,6.7,2.1,10.4s-.7,7-2,10.2c-1.3,3.2-3.1,6-5.4,8.4-2.3,2.4-5,4.3-8.1,5.7-3,1.4-6.2,2.1-9.7,2.1s-6.9-.7-10.1-2c-3.1-1.4-5.9-3.3-8.2-5.6-2.3-2.4-4.2-5.2-5.6-8.4-1.3-3.2-2-6.6-2-10.2s.6-7.2,1.9-10.4c1.3-3.3,3.1-6.1,5.4-8.6,2.3-2.5,5-4.4,8.1-5.8,3.1-1.4,6.3-2.1,9.9-2.1ZM244,192.5c2.5,0,4.7.3,6.6.9,1.9.6,3.4,1.2,4.6,1.9,1.2.6,1.9,1,2.2,1.3.9.5,1.7,1.2,2.5,1.9.8.7,1.2,1.6,1.3,2.7,0,.6-.1,1.2-.4,1.8-.2.5-.5,1.1-1,1.8-.8,1.1-1.6,2-2.3,2.5-.7.5-1.4.7-2.1.7s-1.2-.1-1.7-.4c-.5-.3-1.1-.7-1.9-1.2-.3-.2-.8-.5-1.5-.9-.6-.4-1.5-.7-2.6-1-1.1-.3-2.5-.5-4.1-.5s-3.5.3-5.3,1c-1.7.6-3.3,1.5-4.8,2.7-1.5,1.2-2.7,2.8-3.6,4.7-.9,1.9-1.3,4.1-1.3,6.6s.4,4.9,1.3,6.7c.9,1.9,2.1,3.4,3.6,4.7,1.5,1.2,3.1,2.2,4.8,2.8,1.8.6,3.5.9,5.2.9s2.7-.1,3.8-.4c1.1-.3,2-.6,2.7-1,.8-.4,1.5-.8,2-1.2.5-.3,1.1-.7,1.6-1,.6-.3,1.2-.4,1.8-.4s1.4.3,2.1.8c.7.5,1.5,1.4,2.2,2.6.4.6.8,1.3,1,1.9.2.6.3,1.2.3,1.8,0,1-.4,1.9-1.2,2.6-.8.6-1.6,1.2-2.5,1.8-.4.2-1.2.6-2.3,1.3-1.1.6-2.6,1.2-4.5,1.8-1.9.6-4.1.9-6.7.9s-4.5-.3-6.9-1c-2.4-.7-4.8-1.7-7.1-3.1-2.3-1.4-4.4-3.1-6.4-5.3-1.9-2.2-3.4-4.7-4.5-7.6-1.1-2.9-1.6-6.2-1.6-9.9s.5-6.7,1.6-9.5c1.1-2.8,2.6-5.3,4.5-7.3,1.9-2.1,4-3.8,6.3-5.1,2.3-1.4,4.7-2.4,7.2-3,2.5-.7,4.8-1,7-1ZM333.2,193c2,0,4.1.4,6.2,1.1,2.1.7,4.1,1.9,5.9,3.4,1.8,1.5,3.2,3.4,4.3,5.7,1.1,2.3,1.6,5,1.6,8.1s-.3,4.1-1,6c-.6,1.9-1.5,3.7-2.7,5.3-1,1.3-2.2,2.5-3.6,3.5l6.4,9.2c.8,1.2,1.4,2.2,1.6,3,.2.8.1,1.6-.4,2.4-.4.7-1.3,1.6-2.6,2.5-1.8,1.3-3.3,1.9-4.4,1.6-1.1-.3-2.2-1.3-3.4-2.9l-8.8-12.7h-8.9v9.9c0,.9-.1,1.9-.3,2.7-.2.8-.7,1.5-1.5,2.1-.8.5-2.1.8-3.9.8s-3.1-.3-3.9-.8c-.8-.5-1.3-1.3-1.5-2.1-.1-.9-.2-1.8-.2-2.7v-40.5c0-.9,0-1.8.2-2.7.2-.8.7-1.5,1.5-2.1.8-.5,2.1-.8,3.9-.8h15.4ZM388.4,193c1,0,1.9,0,2.7.3.8.1,1.5.6,2.1,1.4.5.8.8,2.1.8,4s-.3,3.1-.8,3.9c-.5.8-1.3,1.3-2.1,1.5-.8.1-1.8.2-2.7.2h-22.4v9.6h15.3c1,0,1.9,0,2.6.2.8.1,1.4.6,1.9,1.3.4.7.7,1.9.7,3.5s-.2,2.6-.7,3.3c-.4.7-1.1,1.1-1.9,1.3-.8.1-1.7.2-2.7.2h-15.1v9.9h22.5c1,0,1.9.1,2.7.3.8.2,1.5.7,2.1,1.5.5.7.8,2,.8,3.9s-.3,3.1-.8,3.9c-.5.8-1.3,1.3-2.1,1.4-.8.2-1.8.3-2.7.3h-28.1c-1.8,0-3.1-.2-3.9-.7-.8-.5-1.3-1.3-1.5-2.1-.1-.9-.2-1.8-.2-2.7v-40.5c0-2.2.4-3.7,1.3-4.4.8-.8,2.3-1.2,4.5-1.2h28ZM284.7,203.7c-1.9,0-3.8.4-5.5,1.2-1.7.8-3.2,1.9-4.5,3.3-1.3,1.4-2.3,3-3.1,4.9-.7,1.8-1.1,3.8-1.1,5.9s.4,4,1.1,5.9c.8,1.8,1.8,3.4,3.1,4.8,1.3,1.4,2.8,2.5,4.5,3.3,1.7.8,3.5,1.2,5.5,1.2s3.8-.4,5.6-1.2c1.7-.8,3.2-1.9,4.5-3.2,1.3-1.4,2.3-3,3-4.8.7-1.9,1.1-3.9,1.1-6.1s-.4-4-1.1-5.9c-.7-1.9-1.8-3.5-3.1-4.9-1.3-1.4-2.8-2.5-4.5-3.3-1.7-.8-3.5-1.2-5.5-1.2ZM323.5,218.2h10.3c.7,0,1.4-.1,2.1-.4.7-.3,1.4-.7,2-1.3.6-.5,1.1-1.3,1.5-2.1.4-.9.6-1.9.6-3.2s-.3-2.7-.9-3.7c-.5-1-1.3-1.8-2.4-2.4-1-.6-2.2-.9-3.6-.9h-9.6v13.9Z"/>
        <path class="cls-2" d="M261.8,257.2c1.5,0,2.8.3,4.1.8,1.3.5,2.4,1.3,3.3,2.3.9,1,1.7,2.1,2.2,3.4.5,1.3.8,2.7.8,4.2s-.3,2.8-.8,4.1c-.5,1.3-1.2,2.4-2.2,3.4-.9,1-2,1.8-3.2,2.3-1.2.5-2.5.8-3.9.8s-2.8-.3-4.1-.8c-1.2-.6-2.3-1.3-3.3-2.3-1-1-1.7-2.1-2.2-3.4-.5-1.3-.8-2.6-.8-4.1s.3-2.9.8-4.2c.5-1.3,1.3-2.5,2.2-3.4.9-1,2-1.8,3.2-2.3s2.5-.8,3.9-.8ZM184.3,257.3c.2,0,.5,0,.7.1.2,0,.4.2.5.4.2.2.3.4.4.6l8.3,17.3c.2.4.3.7.3,1,0,.3,0,.5-.2.8-.2.2-.5.4-.9.6-.6.3-1.1.4-1.5.2-.3-.1-.7-.5-1-1.2l-2.1-4.4h-9.2l-2.1,4.4c-.3.6-.6,1-1,1.1-.4.1-.9,0-1.5-.2-.4-.2-.7-.4-.9-.6-.2-.2-.3-.5-.2-.8,0-.3.2-.7.4-1.1l8.2-17.2c.2-.3.4-.6.7-.8.3-.2.7-.3,1-.3ZM76.4,257.3c.6,0,1,0,1.2.2.3.2.4.4.5.7,0,.3.1.6.1.9v15.9h9.2c.3,0,.6,0,.8,0,.2,0,.4.2.6.4.1.2.2.6.2,1.1s0,.9-.2,1.1c-.1.2-.3.4-.6.4-.2,0-.5.1-.8.1h-10.9c-.6,0-1,0-1.3-.3-.3-.2-.4-.4-.5-.7,0-.3,0-.6,0-.9v-17.3c0-.3,0-.6,0-.9,0-.3.2-.5.5-.7.3-.2.7-.2,1.3-.2ZM102.4,257.3c.6,0,1,0,1.2.2.3.2.4.4.5.7,0,.3.1.6.1.9v17.3c0,.3,0,.6-.1.9,0,.3-.2.5-.5.6-.3.2-.7.3-1.2.3s-1,0-1.2-.3c-.3-.2-.4-.4-.5-.7,0-.3,0-.6,0-.9v-17.3c0-.3,0-.6,0-.9,0-.3.2-.5.5-.7.3-.2.7-.2,1.3-.2ZM331.6,257.3c.3,0,.6,0,.9.1.3,0,.5.2.7.5.2.2.2.6.2,1.2s0,1-.3,1.2c-.2.3-.4.4-.7.5-.3,0-.6,0-.9,0h-9.9v5h6.8c.3,0,.6,0,.9.1.2,0,.4.2.6.4.1.2.2.6.2,1.1s0,.9-.2,1.1c-.1.2-.3.4-.6.4-.3,0-.6,0-.9,0h-6.8v5.4h10c.3,0,.6,0,.9.1.3,0,.5.2.7.5s.2.7.2,1.2,0,1-.3,1.2c-.2.3-.4.4-.7.5-.3,0-.6.1-.9.1h-11.8c-.6,0-1,0-1.2-.3-.3-.2-.4-.4-.5-.7s0-.6,0-.9v-17.3c0-.7.1-1.1.4-1.4.3-.3.8-.4,1.5-.4h11.7ZM136.1,257.3c.5,0,.9,0,1.2.3.3.2.4.4.5.7,0,.3.1.6.1.9v17.3c0,.3,0,.6-.1.9,0,.3-.2.5-.5.7s-.7.2-1.2.2-.9,0-1.2-.3c-.3-.2-.4-.4-.5-.7,0-.3,0-.6,0-.9v-12.9l-5.5,7.9c0,0-.2.2-.3.3-.1.1-.3.2-.5.3-.2.1-.5.2-.8.2s-.6,0-.8-.2-.4-.2-.5-.3c-.1-.1-.2-.2-.3-.4l-5.4-7.9v12.9c0,.3,0,.6-.1.9,0,.3-.2.5-.5.7-.3.2-.7.2-1.2.2s-.9,0-1.2-.2-.4-.4-.5-.7c0-.3,0-.6,0-.9v-17.3c0-.3,0-.6,0-.9,0-.3.2-.5.5-.7.3-.2.7-.3,1.2-.3s.7,0,.9,0c.2,0,.4.1.5.2.1,0,.2.2.4.3l7,9.7,7-9.8c.1-.2.3-.3.4-.4s.3-.1.5-.2c.2,0,.5,0,.9,0ZM158.8,257.3c.9,0,1.7.2,2.6.4.8.3,1.6.8,2.2,1.4.7.6,1.2,1.3,1.6,2.2.4.9.6,1.9.6,3.1s-.2,2.2-.6,3.1c-.4.9-.9,1.6-1.6,2.2-.7.6-1.4,1-2.3,1.3-.8.3-1.7.5-2.6.5h-4.5v5c0,.3,0,.6-.1.9,0,.3-.2.5-.5.7-.2.2-.6.2-1.2.2s-1,0-1.2-.2c-.3-.2-.4-.4-.5-.7,0-.3,0-.6,0-.9v-17.3c0-.3,0-.6,0-.9,0-.3.2-.5.5-.7.3-.2.7-.3,1.2-.3h6.4ZM238.1,257.3c.6,0,1,0,1.2.3.3.2.4.4.5.7,0,.3.1.6.1.9v17.3c0,.3,0,.6-.2.9,0,.3-.3.5-.5.6-.3.2-.7.3-1.2.3s-.8,0-1.1-.1c-.2,0-.5-.2-.7-.5l-10.2-14v12.8c0,.3,0,.6-.1.9,0,.3-.2.5-.5.6-.3.2-.7.3-1.2.3s-.9,0-1.2-.3c-.2-.2-.4-.4-.5-.7,0-.3,0-.6,0-.9v-17.4c0-.3,0-.6.1-.8,0-.3.3-.5.5-.6.3-.2.7-.2,1.2-.2s1,0,1.2.2c.2.1.5.3.7.5l10,14v-13.1c0-.3,0-.6.1-.8,0-.3.2-.5.5-.6s.7-.2,1.2-.2ZM303.3,257.3c.5,0,.9,0,1.2.3.3.2.4.4.5.7,0,.3.1.6.1.9v17.3c0,.3,0,.6-.1.9,0,.3-.2.5-.5.7-.3.2-.7.2-1.2.2s-.9,0-1.2-.3c-.3-.2-.4-.4-.5-.7,0-.3,0-.6,0-.9v-12.9l-5.5,7.9c0,0-.2.2-.3.3-.1.1-.3.2-.5.3-.2.1-.5.2-.8.2s-.6,0-.8-.2c-.2-.1-.4-.2-.5-.3-.1-.1-.2-.2-.3-.4l-5.4-7.9v12.9c0,.3,0,.6-.1.9,0,.3-.2.5-.5.7-.3.2-.7.2-1.2.2s-.9,0-1.2-.2c-.3-.2-.4-.4-.5-.7,0-.3,0-.6,0-.9v-17.3c0-.3,0-.6,0-.9,0-.3.2-.5.5-.7.3-.2.7-.3,1.2-.3s.7,0,.9,0c.2,0,.4.1.5.2.1,0,.2.2.4.3l7,9.7,7-9.8c.1-.2.3-.3.4-.4.1,0,.3-.1.5-.2.2,0,.5,0,.9,0ZM262,260.8c-.9,0-1.8.2-2.6.5s-1.5.9-2.1,1.5c-.6.6-1.1,1.4-1.4,2.2-.3.9-.5,1.8-.5,2.7s.2,1.9.5,2.7c.4.9.8,1.6,1.4,2.2.6.6,1.3,1.1,2.1,1.5.8.4,1.7.5,2.6.5s1.8-.2,2.6-.5c.8-.4,1.5-.9,2.1-1.5.6-.6,1.1-1.4,1.4-2.2.3-.9.5-1.8.5-2.8s-.2-1.9-.5-2.7c-.3-.9-.8-1.6-1.4-2.2-.6-.7-1.3-1.2-2.1-1.5-.8-.4-1.6-.5-2.5-.5ZM181.1,269.8h6.3l-3.2-6.7-3.1,6.7ZM154.3,267.8h4.6c.6,0,1.2-.1,1.7-.4.5-.3.9-.6,1.3-1.1.3-.5.5-1.2.5-1.9s-.1-1.3-.4-1.8c-.3-.5-.7-.9-1.2-1.2-.5-.3-1.1-.4-1.8-.4h-4.5v6.9Z"/>
      </g>
    </g>
  </g>
</svg>