<svg width="576" height="424" viewBox="0 0 576 424" fill="none" xmlns="http://www.w3.org/2000/svg">
<rect width="576" height="424" rx="15" fill="#E5E5EC"/>
<rect x="50.4487" y="61.6924" width="227.204" height="300.615" rx="15" fill="white"/>
<rect x="296" y="61.6924" width="227.204" height="300.615" rx="15" fill="white"/>
<path d="M119.369 97.9375V87.4375H121.169V96.5275H125.849V97.9375H119.369ZM127.601 97.9375V87.4375H129.401V97.9375H127.601ZM131.512 97.9375V87.4375H133.642L137.002 94.2175L140.332 87.4375H142.477V97.9375H140.677V90.5275L137.707 96.4675H136.297L133.312 90.5425V97.9375H131.512ZM144.608 97.9375V87.4375H148.388C149.228 87.4375 149.923 87.5825 150.473 87.8725C151.023 88.1525 151.433 88.5325 151.703 89.0125C151.973 89.4925 152.108 90.0425 152.108 90.6625C152.108 91.2425 151.978 91.7775 151.718 92.2675C151.458 92.7475 151.053 93.1375 150.503 93.4375C149.953 93.7275 149.248 93.8725 148.388 93.8725H146.408V97.9375H144.608ZM146.408 92.4025H148.283C148.993 92.4025 149.503 92.2475 149.813 91.9375C150.123 91.6175 150.278 91.1925 150.278 90.6625C150.278 90.1125 150.123 89.6825 149.813 89.3725C149.503 89.0625 148.993 88.9075 148.283 88.9075H146.408V92.4025ZM151.814 97.9375L155.654 87.4375H157.664L161.504 97.9375H159.599L156.644 89.5375L153.689 97.9375H151.814ZM153.524 95.4625L154.004 94.0375H159.179L159.659 95.4625H153.524ZM166.61 97.9375V87.4375H168.41L173.465 95.0275V87.4375H175.265V97.9375H173.465L168.41 90.3625V97.9375H166.61ZM182.162 98.1175C181.152 98.1175 180.257 97.8925 179.477 97.4425C178.707 96.9825 178.102 96.3475 177.662 95.5375C177.222 94.7175 177.002 93.7675 177.002 92.6875C177.002 91.6175 177.222 90.6775 177.662 89.8675C178.102 89.0475 178.707 88.4075 179.477 87.9475C180.257 87.4875 181.152 87.2575 182.162 87.2575C183.192 87.2575 184.097 87.4875 184.877 87.9475C185.657 88.4075 186.262 89.0475 186.692 89.8675C187.122 90.6775 187.337 91.6175 187.337 92.6875C187.337 93.7675 187.122 94.7175 186.692 95.5375C186.262 96.3475 185.657 96.9825 184.877 97.4425C184.097 97.8925 183.192 98.1175 182.162 98.1175ZM182.177 96.4975C182.847 96.4975 183.432 96.3475 183.932 96.0475C184.432 95.7375 184.817 95.2975 185.087 94.7275C185.357 94.1575 185.492 93.4775 185.492 92.6875C185.492 91.8975 185.357 91.2175 185.087 90.6475C184.817 90.0775 184.432 89.6425 183.932 89.3425C183.432 89.0325 182.847 88.8775 182.177 88.8775C181.507 88.8775 180.922 89.0325 180.422 89.3425C179.922 89.6425 179.532 90.0775 179.252 90.6475C178.982 91.2175 178.847 91.8975 178.847 92.6875C178.847 93.4775 178.982 94.1575 179.252 94.7275C179.532 95.2975 179.922 95.7375 180.422 96.0475C180.922 96.3475 181.507 96.4975 182.177 96.4975ZM189.095 97.9375V87.4375H191.225L194.585 94.2175L197.915 87.4375H200.06V97.9375H198.26V90.5275L195.29 96.4675H193.88L190.895 90.5425V97.9375H189.095ZM202.191 97.9375V87.4375H208.971V88.8925H203.991V91.9075H208.521V93.3325H203.991V96.4825H208.971V97.9375H202.191Z" fill="#101C2E"/>
<path d="M372.893 98.1175C371.853 98.1175 370.953 97.8925 370.193 97.4425C369.443 96.9825 368.863 96.3475 368.453 95.5375C368.053 94.7175 367.853 93.7725 367.853 92.7025C367.853 91.6225 368.053 90.6775 368.453 89.8675C368.863 89.0475 369.443 88.4075 370.193 87.9475C370.953 87.4875 371.853 87.2575 372.893 87.2575C374.143 87.2575 375.163 87.5675 375.953 88.1875C376.743 88.7975 377.243 89.6625 377.453 90.7825H375.473C375.333 90.1925 375.048 89.7275 374.618 89.3875C374.188 89.0475 373.608 88.8775 372.878 88.8775C372.218 88.8775 371.648 89.0325 371.168 89.3425C370.698 89.6425 370.333 90.0825 370.073 90.6625C369.823 91.2325 369.698 91.9125 369.698 92.7025C369.698 93.4925 369.823 94.1725 370.073 94.7425C370.333 95.3025 370.698 95.7375 371.168 96.0475C371.648 96.3475 372.218 96.4975 372.878 96.4975C373.608 96.4975 374.188 96.3425 374.618 96.0325C375.048 95.7125 375.333 95.2725 375.473 94.7125H377.453C377.253 95.7725 376.753 96.6075 375.953 97.2175C375.163 97.8175 374.143 98.1175 372.893 98.1175ZM378.378 97.9375L382.218 87.4375H384.228L388.068 97.9375H386.163L383.208 89.5375L380.253 97.9375H378.378ZM380.088 95.4625L380.568 94.0375H385.743L386.223 95.4625H380.088ZM389.512 97.9375V87.4375H392.902C394.122 87.4375 395.127 87.6525 395.917 88.0825C396.717 88.5125 397.307 89.1225 397.687 89.9125C398.077 90.6925 398.272 91.6225 398.272 92.7025C398.272 93.7625 398.077 94.6875 397.687 95.4775C397.307 96.2575 396.717 96.8625 395.917 97.2925C395.127 97.7225 394.122 97.9375 392.902 97.9375H389.512ZM391.312 96.4075H392.812C393.722 96.4075 394.437 96.2625 394.957 95.9725C395.487 95.6725 395.862 95.2475 396.082 94.6975C396.312 94.1375 396.427 93.4725 396.427 92.7025C396.427 91.9225 396.312 91.2575 396.082 90.7075C395.862 90.1475 395.487 89.7175 394.957 89.4175C394.437 89.1075 393.722 88.9525 392.812 88.9525H391.312V96.4075ZM398.651 97.9375L402.491 87.4375H404.501L408.341 97.9375H406.436L403.481 89.5375L400.526 97.9375H398.651ZM400.361 95.4625L400.841 94.0375H406.016L406.496 95.4625H400.361ZM413.31 98.1175C412.55 98.1175 411.875 97.9825 411.285 97.7125C410.695 97.4425 410.235 97.0575 409.905 96.5575C409.575 96.0575 409.405 95.4625 409.395 94.7725H411.3C411.3 95.1225 411.38 95.4375 411.54 95.7175C411.71 95.9875 411.94 96.2025 412.23 96.3625C412.53 96.5225 412.89 96.6025 413.31 96.6025C413.67 96.6025 413.98 96.5475 414.24 96.4375C414.51 96.3175 414.715 96.1525 414.855 95.9425C415.005 95.7225 415.08 95.4675 415.08 95.1775C415.08 94.8475 415 94.5775 414.84 94.3675C414.69 94.1475 414.48 93.9625 414.21 93.8125C413.94 93.6625 413.63 93.5325 413.28 93.4225C412.93 93.3025 412.56 93.1775 412.17 93.0475C411.34 92.7675 410.715 92.4125 410.295 91.9825C409.875 91.5425 409.665 90.9575 409.665 90.2275C409.665 89.6175 409.81 89.0925 410.1 88.6525C410.39 88.2125 410.795 87.8725 411.315 87.6325C411.845 87.3825 412.455 87.2575 413.145 87.2575C413.845 87.2575 414.455 87.3825 414.975 87.6325C415.505 87.8825 415.92 88.2325 416.22 88.6825C416.53 89.1225 416.69 89.6525 416.7 90.2725H414.78C414.77 90.0125 414.7 89.7725 414.57 89.5525C414.44 89.3225 414.25 89.1375 414 88.9975C413.76 88.8475 413.465 88.7725 413.115 88.7725C412.815 88.7625 412.545 88.8125 412.305 88.9225C412.075 89.0225 411.89 89.1725 411.75 89.3725C411.62 89.5625 411.555 89.8025 411.555 90.0925C411.555 90.3725 411.615 90.6075 411.735 90.7975C411.865 90.9775 412.05 91.1325 412.29 91.2625C412.53 91.3825 412.81 91.4975 413.13 91.6075C413.45 91.7175 413.8 91.8375 414.18 91.9675C414.7 92.1375 415.17 92.3475 415.59 92.5975C416.02 92.8375 416.36 93.1525 416.61 93.5425C416.86 93.9325 416.985 94.4375 416.985 95.0575C416.985 95.5975 416.845 96.1025 416.565 96.5725C416.285 97.0325 415.875 97.4075 415.335 97.6975C414.795 97.9775 414.12 98.1175 413.31 98.1175ZM421.034 97.9375V88.8925H417.944V87.4375H425.909V88.8925H422.819V97.9375H421.034ZM427.393 97.9375V87.4375H431.158C431.988 87.4375 432.673 87.5825 433.213 87.8725C433.763 88.1525 434.168 88.5325 434.428 89.0125C434.698 89.4825 434.833 90.0175 434.833 90.6175C434.833 91.1775 434.703 91.6975 434.443 92.1775C434.183 92.6575 433.778 93.0425 433.228 93.3325C432.678 93.6225 431.973 93.7675 431.113 93.7675H429.193V97.9375H427.393ZM432.868 97.9375L430.663 93.3025H432.613L434.923 97.9375H432.868ZM429.193 92.4325H431.038C431.708 92.4325 432.198 92.2725 432.508 91.9525C432.828 91.6225 432.988 91.1925 432.988 90.6625C432.988 90.1425 432.833 89.7275 432.523 89.4175C432.213 89.0975 431.718 88.9375 431.038 88.9375H429.193V92.4325ZM441.48 98.1175C440.47 98.1175 439.575 97.8925 438.795 97.4425C438.025 96.9825 437.42 96.3475 436.98 95.5375C436.54 94.7175 436.32 93.7675 436.32 92.6875C436.32 91.6175 436.54 90.6775 436.98 89.8675C437.42 89.0475 438.025 88.4075 438.795 87.9475C439.575 87.4875 440.47 87.2575 441.48 87.2575C442.51 87.2575 443.415 87.4875 444.195 87.9475C444.975 88.4075 445.58 89.0475 446.01 89.8675C446.44 90.6775 446.655 91.6175 446.655 92.6875C446.655 93.7675 446.44 94.7175 446.01 95.5375C445.58 96.3475 444.975 96.9825 444.195 97.4425C443.415 97.8925 442.51 98.1175 441.48 98.1175ZM441.495 96.4975C442.165 96.4975 442.75 96.3475 443.25 96.0475C443.75 95.7375 444.135 95.2975 444.405 94.7275C444.675 94.1575 444.81 93.4775 444.81 92.6875C444.81 91.8975 444.675 91.2175 444.405 90.6475C444.135 90.0775 443.75 89.6425 443.25 89.3425C442.75 89.0325 442.165 88.8775 441.495 88.8775C440.825 88.8775 440.24 89.0325 439.74 89.3425C439.24 89.6425 438.85 90.0775 438.57 90.6475C438.3 91.2175 438.165 91.8975 438.165 92.6875C438.165 93.4775 438.3 94.1575 438.57 94.7275C438.85 95.2975 439.24 95.7375 439.74 96.0475C440.24 96.3475 440.825 96.4975 441.495 96.4975Z" fill="#101C2E"/>
<path d="M107.951 134.507C107.343 134.507 106.803 134.399 106.331 134.183C105.859 133.967 105.491 133.659 105.227 133.259C104.963 132.859 104.827 132.383 104.819 131.831H106.343C106.343 132.111 106.407 132.363 106.535 132.587C106.671 132.803 106.855 132.975 107.087 133.103C107.327 133.231 107.615 133.295 107.951 133.295C108.239 133.295 108.487 133.251 108.695 133.163C108.911 133.067 109.075 132.935 109.187 132.767C109.307 132.591 109.367 132.387 109.367 132.155C109.367 131.891 109.303 131.675 109.175 131.507C109.055 131.331 108.887 131.183 108.671 131.063C108.455 130.943 108.207 130.839 107.927 130.751C107.647 130.655 107.351 130.555 107.039 130.451C106.375 130.227 105.875 129.943 105.539 129.599C105.203 129.247 105.035 128.779 105.035 128.195C105.035 127.707 105.151 127.287 105.383 126.935C105.615 126.583 105.939 126.311 106.355 126.119C106.779 125.919 107.267 125.819 107.819 125.819C108.379 125.819 108.867 125.919 109.283 126.119C109.707 126.319 110.039 126.599 110.279 126.959C110.527 127.311 110.655 127.735 110.663 128.231H109.127C109.119 128.023 109.063 127.831 108.959 127.655C108.855 127.471 108.703 127.323 108.503 127.211C108.311 127.091 108.075 127.031 107.795 127.031C107.555 127.023 107.339 127.063 107.147 127.151C106.963 127.231 106.815 127.351 106.703 127.511C106.599 127.663 106.547 127.855 106.547 128.087C106.547 128.311 106.595 128.499 106.691 128.651C106.795 128.795 106.943 128.919 107.135 129.023C107.327 129.119 107.551 129.211 107.807 129.299C108.063 129.387 108.343 129.483 108.647 129.587C109.063 129.723 109.439 129.891 109.775 130.091C110.119 130.283 110.391 130.535 110.591 130.847C110.791 131.159 110.891 131.563 110.891 132.059C110.891 132.491 110.779 132.895 110.555 133.271C110.331 133.639 110.003 133.939 109.571 134.171C109.139 134.395 108.599 134.507 107.951 134.507ZM112.292 134.363V125.963H117.716V127.127H113.732V129.539H117.356V130.679H113.732V133.199H117.716V134.363H112.292ZM119.229 134.363V125.963H122.241C122.905 125.963 123.453 126.079 123.885 126.311C124.325 126.535 124.649 126.839 124.857 127.223C125.073 127.599 125.181 128.027 125.181 128.507C125.181 128.955 125.077 129.371 124.869 129.755C124.661 130.139 124.337 130.447 123.897 130.679C123.457 130.911 122.893 131.027 122.205 131.027H120.669V134.363H119.229ZM123.609 134.363L121.845 130.655H123.405L125.253 134.363H123.609ZM120.669 129.959H122.145C122.681 129.959 123.073 129.831 123.321 129.575C123.577 129.311 123.705 128.967 123.705 128.543C123.705 128.127 123.581 127.795 123.333 127.547C123.085 127.291 122.689 127.163 122.145 127.163H120.669V129.959ZM128.802 134.363L125.718 125.963H127.266L129.678 132.887L132.126 125.963H133.65L130.554 134.363H128.802ZM134.71 134.363V125.963H136.15V134.363H134.71ZM141.571 134.507C140.739 134.507 140.019 134.327 139.411 133.967C138.811 133.599 138.347 133.091 138.019 132.443C137.699 131.787 137.539 131.031 137.539 130.175C137.539 129.311 137.699 128.555 138.019 127.907C138.347 127.251 138.811 126.739 139.411 126.371C140.019 126.003 140.739 125.819 141.571 125.819C142.571 125.819 143.387 126.067 144.019 126.563C144.651 127.051 145.051 127.743 145.219 128.639H143.635C143.523 128.167 143.295 127.795 142.951 127.523C142.607 127.251 142.143 127.115 141.559 127.115C141.031 127.115 140.575 127.239 140.191 127.487C139.815 127.727 139.523 128.079 139.315 128.543C139.115 128.999 139.015 129.543 139.015 130.175C139.015 130.807 139.115 131.351 139.315 131.807C139.523 132.255 139.815 132.603 140.191 132.851C140.575 133.091 141.031 133.211 141.559 133.211C142.143 133.211 142.607 133.087 142.951 132.839C143.295 132.583 143.523 132.231 143.635 131.783H145.219C145.059 132.631 144.659 133.299 144.019 133.787C143.387 134.267 142.571 134.507 141.571 134.507ZM140.395 137.531V136.691H141.691C141.923 136.691 142.095 136.655 142.207 136.583C142.319 136.511 142.375 136.391 142.375 136.223C142.375 136.079 142.319 135.971 142.207 135.899C142.095 135.827 141.923 135.791 141.691 135.791H140.995V134.303H141.895V135.011C142.175 135.011 142.431 135.051 142.663 135.131C142.903 135.219 143.095 135.355 143.239 135.539C143.383 135.731 143.455 135.971 143.455 136.259C143.455 136.539 143.383 136.771 143.239 136.955C143.103 137.147 142.915 137.291 142.675 137.387C142.443 137.483 142.187 137.531 141.907 137.531H140.395ZM150.456 134.507C149.648 134.507 148.932 134.327 148.308 133.967C147.692 133.599 147.208 133.091 146.856 132.443C146.504 131.787 146.328 131.027 146.328 130.163C146.328 129.307 146.504 128.555 146.856 127.907C147.208 127.251 147.692 126.739 148.308 126.371C148.932 126.003 149.648 125.819 150.456 125.819C151.28 125.819 152.004 126.003 152.628 126.371C153.252 126.739 153.736 127.251 154.08 127.907C154.424 128.555 154.596 129.307 154.596 130.163C154.596 131.027 154.424 131.787 154.08 132.443C153.736 133.091 153.252 133.599 152.628 133.967C152.004 134.327 151.28 134.507 150.456 134.507ZM150.468 133.211C151.004 133.211 151.472 133.091 151.872 132.851C152.272 132.603 152.58 132.251 152.796 131.795C153.012 131.339 153.12 130.795 153.12 130.163C153.12 129.531 153.012 128.987 152.796 128.531C152.58 128.075 152.272 127.727 151.872 127.487C151.472 127.239 151.004 127.115 150.468 127.115C149.932 127.115 149.464 127.239 149.064 127.487C148.664 127.727 148.352 128.075 148.128 128.531C147.912 128.987 147.804 129.531 147.804 130.163C147.804 130.795 147.912 131.339 148.128 131.795C148.352 132.251 148.664 132.603 149.064 132.851C149.464 133.091 149.932 133.211 150.468 133.211ZM158.38 134.363L161.452 125.963H163.06L166.132 134.363H164.608L162.244 127.643L159.88 134.363H158.38ZM159.748 132.383L160.132 131.243H164.272L164.656 132.383H159.748ZM167.288 134.363V125.963H170C170.976 125.963 171.78 126.135 172.412 126.479C173.052 126.823 173.524 127.311 173.828 127.943C174.14 128.567 174.296 129.311 174.296 130.175C174.296 131.023 174.14 131.763 173.828 132.395C173.524 133.019 173.052 133.503 172.412 133.847C171.78 134.191 170.976 134.363 170 134.363H167.288ZM168.728 133.139H169.928C170.656 133.139 171.228 133.023 171.644 132.791C172.068 132.551 172.368 132.211 172.544 131.771C172.728 131.323 172.82 130.791 172.82 130.175C172.82 129.551 172.728 129.019 172.544 128.579C172.368 128.131 172.068 127.787 171.644 127.547C171.228 127.299 170.656 127.175 169.928 127.175H168.728V133.139ZM181.594 135.623L178.606 130.943H180.262L183.298 135.623H181.594ZM179.53 134.507C178.722 134.507 178.006 134.327 177.382 133.967C176.766 133.599 176.282 133.091 175.93 132.443C175.578 131.787 175.402 131.027 175.402 130.163C175.402 129.307 175.578 128.555 175.93 127.907C176.282 127.251 176.766 126.739 177.382 126.371C178.006 126.003 178.722 125.819 179.53 125.819C180.354 125.819 181.078 126.003 181.702 126.371C182.326 126.739 182.81 127.251 183.154 127.907C183.498 128.555 183.67 129.307 183.67 130.163C183.67 131.027 183.498 131.787 183.154 132.443C182.81 133.091 182.326 133.599 181.702 133.967C181.078 134.327 180.354 134.507 179.53 134.507ZM179.542 133.211C180.078 133.211 180.546 133.091 180.946 132.851C181.346 132.603 181.654 132.251 181.87 131.795C182.086 131.339 182.194 130.795 182.194 130.163C182.194 129.531 182.086 128.987 181.87 128.531C181.654 128.075 181.346 127.727 180.946 127.487C180.546 127.239 180.078 127.115 179.542 127.115C179.006 127.115 178.538 127.239 178.138 127.487C177.738 127.727 177.426 128.075 177.202 128.531C176.986 128.987 176.878 129.531 176.878 130.163C176.878 130.795 176.986 131.339 177.202 131.795C177.426 132.251 177.738 132.603 178.138 132.851C178.538 133.091 179.006 133.211 179.542 133.211ZM188.257 134.507C187.649 134.507 187.097 134.387 186.601 134.147C186.113 133.907 185.721 133.539 185.425 133.043C185.137 132.547 184.993 131.923 184.993 131.171V125.963H186.433V131.183C186.433 131.639 186.509 132.015 186.661 132.311C186.813 132.607 187.025 132.831 187.297 132.983C187.577 133.127 187.905 133.199 188.281 133.199C188.665 133.199 188.993 133.127 189.265 132.983C189.545 132.831 189.757 132.607 189.901 132.311C190.053 132.015 190.129 131.639 190.129 131.183V125.963H191.569V131.171C191.569 131.923 191.421 132.547 191.125 133.043C190.829 133.539 190.429 133.907 189.925 134.147C189.421 134.387 188.865 134.507 188.257 134.507ZM193.186 134.363V125.963H194.626V134.363H193.186ZM196.315 134.363V125.963H199.327C199.991 125.963 200.539 126.079 200.971 126.311C201.411 126.535 201.735 126.839 201.943 127.223C202.159 127.599 202.267 128.027 202.267 128.507C202.267 128.955 202.163 129.371 201.955 129.755C201.747 130.139 201.423 130.447 200.983 130.679C200.543 130.911 199.979 131.027 199.291 131.027H197.755V134.363H196.315ZM200.695 134.363L198.931 130.655H200.491L202.339 134.363H200.695ZM197.755 129.959H199.231C199.767 129.959 200.159 129.831 200.407 129.575C200.663 129.311 200.791 128.967 200.791 128.543C200.791 128.127 200.667 127.795 200.419 127.547C200.171 127.291 199.775 127.163 199.231 127.163H197.755V129.959ZM203.756 134.363V125.963H205.196V134.363H203.756ZM206.885 134.363V125.963H209.597C210.573 125.963 211.377 126.135 212.009 126.479C212.649 126.823 213.121 127.311 213.425 127.943C213.737 128.567 213.893 129.311 213.893 130.175C213.893 131.023 213.737 131.763 213.425 132.395C213.121 133.019 212.649 133.503 212.009 133.847C211.377 134.191 210.573 134.363 209.597 134.363H206.885ZM208.325 133.139H209.525C210.253 133.139 210.825 133.023 211.241 132.791C211.665 132.551 211.965 132.211 212.141 131.771C212.325 131.323 212.417 130.791 212.417 130.175C212.417 129.551 212.325 129.019 212.141 128.579C211.965 128.131 211.665 127.787 211.241 127.547C210.825 127.299 210.253 127.175 209.525 127.175H208.325V133.139ZM219.127 134.507C218.319 134.507 217.603 134.327 216.979 133.967C216.363 133.599 215.879 133.091 215.527 132.443C215.175 131.787 214.999 131.027 214.999 130.163C214.999 129.307 215.175 128.555 215.527 127.907C215.879 127.251 216.363 126.739 216.979 126.371C217.603 126.003 218.319 125.819 219.127 125.819C219.951 125.819 220.675 126.003 221.299 126.371C221.923 126.739 222.407 127.251 222.751 127.907C223.095 128.555 223.267 129.307 223.267 130.163C223.267 131.027 223.095 131.787 222.751 132.443C222.407 133.091 221.923 133.599 221.299 133.967C220.675 134.327 219.951 134.507 219.127 134.507ZM219.139 133.211C219.675 133.211 220.143 133.091 220.543 132.851C220.943 132.603 221.251 132.251 221.467 131.795C221.683 131.339 221.791 130.795 221.791 130.163C221.791 129.531 221.683 128.987 221.467 128.531C221.251 128.075 220.943 127.727 220.543 127.487C220.143 127.239 219.675 127.115 219.139 127.115C218.603 127.115 218.135 127.239 217.735 127.487C217.335 127.727 217.023 128.075 216.799 128.531C216.583 128.987 216.475 129.531 216.475 130.163C216.475 130.795 216.583 131.339 216.799 131.795C217.023 132.251 217.335 132.603 217.735 132.851C218.135 133.091 218.603 133.211 219.139 133.211Z" fill="#4B9857"/>
<path d="M86.1881 237.026V228.626H89.2121C89.8841 228.626 90.4401 228.742 90.8801 228.974C91.3201 229.198 91.6481 229.502 91.8641 229.886C92.0801 230.27 92.1881 230.71 92.1881 231.206C92.1881 231.67 92.0841 232.098 91.8761 232.49C91.6681 232.874 91.3441 233.186 90.9041 233.426C90.4641 233.658 89.9001 233.774 89.2121 233.774H87.6281V237.026H86.1881ZM87.6281 232.598H89.1281C89.6961 232.598 90.1041 232.474 90.3521 232.226C90.6001 231.97 90.7241 231.63 90.7241 231.206C90.7241 230.766 90.6001 230.422 90.3521 230.174C90.1041 229.926 89.6961 229.802 89.1281 229.802H87.6281V232.598ZM91.9525 237.026L95.0245 228.626H96.6325L99.7045 237.026H98.1805L95.8165 230.306L93.4525 237.026H91.9525ZM93.3205 235.046L93.7045 233.906H97.8445L98.2285 235.046H93.3205ZM104.04 237.17C103.248 237.17 102.552 236.99 101.952 236.63C101.36 236.27 100.9 235.77 100.572 235.13C100.244 234.482 100.08 233.726 100.08 232.862C100.08 232.006 100.248 231.25 100.584 230.594C100.92 229.93 101.4 229.414 102.024 229.046C102.656 228.67 103.404 228.482 104.268 228.482C105.244 228.482 106.052 228.718 106.692 229.19C107.34 229.654 107.76 230.302 107.952 231.134H106.332C106.212 230.718 105.976 230.394 105.624 230.162C105.272 229.93 104.816 229.814 104.256 229.814C103.688 229.814 103.2 229.938 102.792 230.186C102.392 230.426 102.084 230.778 101.868 231.242C101.66 231.698 101.556 232.242 101.556 232.874C101.556 233.506 101.66 234.05 101.868 234.506C102.084 234.962 102.388 235.31 102.78 235.55C103.172 235.782 103.632 235.898 104.16 235.898C104.944 235.898 105.536 235.678 105.936 235.238C106.336 234.798 106.572 234.226 106.644 233.522H104.472V232.43H108.096V237.026H106.776L106.656 235.874C106.472 236.146 106.26 236.382 106.02 236.582C105.78 236.774 105.496 236.922 105.168 237.026C104.848 237.122 104.472 237.17 104.04 237.17ZM109.097 237.026L112.169 228.626H113.777L116.849 237.026H115.325L112.961 230.306L110.597 237.026H109.097ZM110.465 235.046L110.849 233.906H114.989L115.373 235.046H110.465ZM118.005 237.026V228.626H119.709L122.397 234.05L125.061 228.626H126.777V237.026H125.337V231.098L122.961 235.85H121.833L119.445 231.11V237.026H118.005ZM128.481 237.026V228.626H133.905V229.79H129.921V232.202H133.545V233.342H129.921V235.862H133.905V237.026H128.481ZM135.419 237.026V228.626H136.859L140.903 234.698V228.626H142.343V237.026H140.903L136.859 230.966V237.026H135.419ZM145.988 237.026V229.79H143.516V228.626H149.888V229.79H147.416V237.026H145.988ZM154.575 237.17C153.767 237.17 153.051 236.99 152.427 236.63C151.811 236.262 151.327 235.754 150.975 235.106C150.623 234.45 150.447 233.69 150.447 232.826C150.447 231.97 150.623 231.218 150.975 230.57C151.327 229.914 151.811 229.402 152.427 229.034C153.051 228.666 153.767 228.482 154.575 228.482C155.399 228.482 156.123 228.666 156.747 229.034C157.371 229.402 157.855 229.914 158.199 230.57C158.543 231.218 158.715 231.97 158.715 232.826C158.715 233.69 158.543 234.45 158.199 235.106C157.855 235.754 157.371 236.262 156.747 236.63C156.123 236.99 155.399 237.17 154.575 237.17ZM154.587 235.874C155.123 235.874 155.591 235.754 155.991 235.514C156.391 235.266 156.699 234.914 156.915 234.458C157.131 234.002 157.239 233.458 157.239 232.826C157.239 232.194 157.131 231.65 156.915 231.194C156.699 230.738 156.391 230.39 155.991 230.15C155.591 229.902 155.123 229.778 154.587 229.778C154.051 229.778 153.583 229.902 153.183 230.15C152.783 230.39 152.471 230.738 152.247 231.194C152.031 231.65 151.923 232.194 151.923 232.826C151.923 233.458 152.031 234.002 152.247 234.458C152.471 234.914 152.783 235.266 153.183 235.514C153.583 235.754 154.051 235.874 154.587 235.874ZM166.783 237.17C165.951 237.17 165.231 236.99 164.623 236.63C164.023 236.262 163.559 235.754 163.231 235.106C162.911 234.45 162.751 233.694 162.751 232.838C162.751 231.974 162.911 231.218 163.231 230.57C163.559 229.914 164.023 229.402 164.623 229.034C165.231 228.666 165.951 228.482 166.783 228.482C167.783 228.482 168.599 228.73 169.231 229.226C169.863 229.714 170.263 230.406 170.431 231.302H168.847C168.735 230.83 168.507 230.458 168.163 230.186C167.819 229.914 167.355 229.778 166.771 229.778C166.243 229.778 165.787 229.902 165.403 230.15C165.027 230.39 164.735 230.742 164.527 231.206C164.327 231.662 164.227 232.206 164.227 232.838C164.227 233.47 164.327 234.014 164.527 234.47C164.735 234.918 165.027 235.266 165.403 235.514C165.787 235.754 166.243 235.874 166.771 235.874C167.355 235.874 167.819 235.75 168.163 235.502C168.507 235.246 168.735 234.894 168.847 234.446H170.431C170.271 235.294 169.871 235.962 169.231 236.45C168.599 236.93 167.783 237.17 166.783 237.17ZM175.668 237.17C174.86 237.17 174.144 236.99 173.52 236.63C172.904 236.262 172.42 235.754 172.068 235.106C171.716 234.45 171.54 233.69 171.54 232.826C171.54 231.97 171.716 231.218 172.068 230.57C172.42 229.914 172.904 229.402 173.52 229.034C174.144 228.666 174.86 228.482 175.668 228.482C176.492 228.482 177.216 228.666 177.84 229.034C178.464 229.402 178.948 229.914 179.292 230.57C179.636 231.218 179.808 231.97 179.808 232.826C179.808 233.69 179.636 234.45 179.292 235.106C178.948 235.754 178.464 236.262 177.84 236.63C177.216 236.99 176.492 237.17 175.668 237.17ZM175.68 235.874C176.216 235.874 176.684 235.754 177.084 235.514C177.484 235.266 177.792 234.914 178.008 234.458C178.224 234.002 178.332 233.458 178.332 232.826C178.332 232.194 178.224 231.65 178.008 231.194C177.792 230.738 177.484 230.39 177.084 230.15C176.684 229.902 176.216 229.778 175.68 229.778C175.144 229.778 174.676 229.902 174.276 230.15C173.876 230.39 173.564 230.738 173.34 231.194C173.124 231.65 173.016 232.194 173.016 232.826C173.016 233.458 173.124 234.002 173.34 234.458C173.564 234.914 173.876 235.266 174.276 235.514C174.676 235.754 175.144 235.874 175.68 235.874ZM181.215 237.026V228.626H182.655L186.699 234.698V228.626H188.139V237.026H186.699L182.655 230.966V237.026H181.215ZM189.829 237.026V228.626H195.193V229.79H191.269V232.25H194.473V233.39H191.269V237.026H189.829ZM196.426 237.026V228.626H197.866V237.026H196.426ZM199.555 237.026V228.626H202.567C203.231 228.626 203.779 228.742 204.211 228.974C204.651 229.198 204.975 229.502 205.183 229.886C205.399 230.262 205.507 230.69 205.507 231.17C205.507 231.618 205.403 232.034 205.195 232.418C204.987 232.802 204.663 233.11 204.223 233.342C203.783 233.574 203.219 233.69 202.531 233.69H200.995V237.026H199.555ZM203.935 237.026L202.171 233.318H203.731L205.579 237.026H203.935ZM200.995 232.622H202.471C203.007 232.622 203.399 232.494 203.647 232.238C203.903 231.974 204.031 231.63 204.031 231.206C204.031 230.79 203.907 230.458 203.659 230.21C203.411 229.954 203.015 229.826 202.471 229.826H200.995V232.622ZM206.997 237.026V228.626H208.701L211.389 234.05L214.053 228.626H215.769V237.026H214.329V231.098L211.953 235.85H210.825L208.437 231.11V237.026H206.997ZM216.921 237.026L219.993 228.626H221.601L224.673 237.026H223.149L220.785 230.306L218.421 237.026H216.921ZM218.289 235.046L218.673 233.906H222.813L223.197 235.046H218.289ZM225.829 237.026V228.626H228.541C229.517 228.626 230.321 228.798 230.953 229.142C231.593 229.486 232.065 229.974 232.369 230.606C232.681 231.23 232.837 231.974 232.837 232.838C232.837 233.686 232.681 234.426 232.369 235.058C232.065 235.682 231.593 236.166 230.953 236.51C230.321 236.854 229.517 237.026 228.541 237.026H225.829ZM227.269 235.802H228.469C229.197 235.802 229.769 235.686 230.185 235.454C230.609 235.214 230.909 234.874 231.085 234.434C231.269 233.986 231.361 233.454 231.361 232.838C231.361 232.214 231.269 231.682 231.085 231.242C230.909 230.794 230.609 230.45 230.185 230.21C229.769 229.962 229.197 229.838 228.469 229.838H227.269V235.802ZM238.071 237.17C237.263 237.17 236.547 236.99 235.923 236.63C235.307 236.262 234.823 235.754 234.471 235.106C234.119 234.45 233.943 233.69 233.943 232.826C233.943 231.97 234.119 231.218 234.471 230.57C234.823 229.914 235.307 229.402 235.923 229.034C236.547 228.666 237.263 228.482 238.071 228.482C238.895 228.482 239.619 228.666 240.243 229.034C240.867 229.402 241.351 229.914 241.695 230.57C242.039 231.218 242.211 231.97 242.211 232.826C242.211 233.69 242.039 234.45 241.695 235.106C241.351 235.754 240.867 236.262 240.243 236.63C239.619 236.99 238.895 237.17 238.071 237.17ZM238.083 235.874C238.619 235.874 239.087 235.754 239.487 235.514C239.887 235.266 240.195 234.914 240.411 234.458C240.627 234.002 240.735 233.458 240.735 232.826C240.735 232.194 240.627 231.65 240.411 231.194C240.195 230.738 239.887 230.39 239.487 230.15C239.087 229.902 238.619 229.778 238.083 229.778C237.547 229.778 237.079 229.902 236.679 230.15C236.279 230.39 235.967 230.738 235.743 231.194C235.527 231.65 235.419 232.194 235.419 232.826C235.419 233.458 235.527 234.002 235.743 234.458C235.967 234.914 236.279 235.266 236.679 235.514C237.079 235.754 237.547 235.874 238.083 235.874Z" fill="#4B9857"/>
<rect x="80.6118" y="147.787" width="61.7031" height="4.94238" fill="#E5E5F1"/>
<rect x="80.6118" y="175.49" width="61.7031" height="4.94238" fill="#E5E5F1"/>
<rect x="80.6118" y="273.242" width="18.5031" height="4.94238" fill="#E5E5F1"/>
<rect x="157.26" y="273.242" width="18.5031" height="4.94238" fill="#E5E5F1"/>
<rect x="195.428" y="273.242" width="18.5031" height="4.94238" fill="#E5E5F1"/>
<rect x="233.598" y="273.242" width="18.5031" height="4.94238" fill="#E5E5F1"/>
<rect x="80.6118" y="299.774" width="18.5031" height="4.94238" fill="#E5E5F1"/>
<rect x="80.6118" y="314.838" width="18.5031" height="4.94238" fill="#E5E5F1"/>
<rect x="80.6118" y="328.69" width="18.5031" height="4.94238" fill="#E5E5F1"/>
<rect x="157.26" y="314.838" width="18.5031" height="4.94238" fill="#E5E5F1"/>
<rect x="157.26" y="299.774" width="18.5031" height="4.94238" fill="#E5E5F1"/>
<rect x="157.26" y="328.69" width="18.5031" height="4.94238" fill="#E5E5F1"/>
<rect x="195.428" y="314.838" width="18.5031" height="4.94238" fill="#E5E5F1"/>
<rect x="195.428" y="328.69" width="18.5031" height="4.94238" fill="#E5E5F1"/>
<rect x="233.598" y="314.838" width="18.5031" height="4.94238" fill="#E5E5F1"/>
<rect x="233.598" y="328.69" width="18.5031" height="4.94238" fill="#E5E5F1"/>
<rect x="195.428" y="299.774" width="18.5031" height="4.94238" fill="#E5E5F1"/>
<rect x="233.598" y="299.774" width="18.5031" height="4.94238" fill="#E5E5F1"/>
<rect x="77.5259" y="252.598" width="175.05" height="1.34473" fill="#101C2E" fill-opacity="0.25"/>
<rect x="80.6118" y="288.307" width="171.489" height="1.34473" fill="#101C2E" fill-opacity="0.25"/>
<rect x="80.6118" y="161.638" width="92.301" height="4.94238" fill="#E5E5F1"/>
<rect x="322.816" y="123.363" width="61.7031" height="4.94238" fill="#E5E5F1"/>
<rect x="322.816" y="151.066" width="30.9917" height="4.94238" fill="#E5E5F1"/>
<rect x="417.967" y="123.363" width="46.7046" height="4.94238" fill="#E5E5F1"/>
<rect x="417.967" y="151.066" width="57.8347" height="4.94238" fill="#E5E5F1"/>
<rect x="322.816" y="196.179" width="18.5031" height="4.94238" fill="#E5E5F1"/>
<rect x="399.464" y="196.179" width="18.5031" height="4.94238" fill="#E5E5F1"/>
<rect x="437.633" y="196.179" width="56.6721" height="4.94238" fill="#E5E5F1"/>
<rect x="322.816" y="305.013" width="18.5031" height="4.94238" fill="#E5E5F1"/>
<rect x="399.464" y="305.013" width="18.5031" height="4.94238" fill="#E5E5F1"/>
<rect x="437.633" y="305.013" width="56.6721" height="4.94238" fill="#E5E5F1"/>
<rect x="322.816" y="235.35" width="33.7466" height="4.94238" fill="#E5E5F1"/>
<rect x="322.816" y="250.415" width="48.4135" height="4.94238" fill="#E5E5F1"/>
<rect x="322.816" y="264.266" width="40.7866" height="4.94238" fill="#E5E5F1"/>
<rect x="322.816" y="278.118" width="25.5331" height="4.94238" fill="#E5E5F1"/>
<rect x="402.03" y="250.415" width="43.1206" height="4.94238" fill="#E5E5F1"/>
<rect x="402.03" y="235.35" width="50.1603" height="4.94238" fill="#E5E5F1"/>
<rect x="402.03" y="264.266" width="29.3337" height="4.94238" fill="#E5E5F1"/>
<rect x="463.34" y="250.415" width="30.9651" height="4.94238" fill="#E5E5F1"/>
<rect x="402.03" y="278.118" width="47.2273" height="4.94238" fill="#E5E5F1"/>
<rect x="463.34" y="264.266" width="30.9651" height="4.94238" fill="#E5E5F1"/>
<rect x="463.34" y="235.35" width="30.9651" height="4.94238" fill="#E5E5F1"/>
<rect x="463.34" y="278.118" width="21.4114" height="4.94238" fill="#E5E5F1"/>
<rect x="322.816" y="137.214" width="37.4813" height="4.94238" fill="#E5E5F1"/>
<rect x="322.816" y="210.031" width="171.489" height="1.34473" fill="#101C2E" fill-opacity="0.25"/>
<rect x="417.967" y="137.214" width="37.4813" height="4.94238" fill="#E5E5F1"/>
</svg>
