<svg width="264" height="44" viewBox="0 0 264 44" fill="none" xmlns="http://www.w3.org/2000/svg">
<rect width="263.2" height="44" rx="7.51522" fill="white"/>
<rect x="8" y="8" width="28" height="28" rx="3.3401" fill="#101C2E"/>
<mask id="mask0_241_683" style="mask-type:alpha" maskUnits="userSpaceOnUse" x="12" y="12" width="20" height="20">
<rect x="12" y="12" width="20" height="20" fill="#D9D9D9"/>
</mask>
<g mask="url(#mask0_241_683)">
<path d="M15.7501 29.0833V21.102L14.0701 22.3889L13.4424 21.5556L15.7501 19.7916V17.502H16.7972V18.9829L22.0001 15.0208L30.5578 21.5641L29.9301 22.3845L28.2501 21.102V29.0833H15.7501ZM16.7972 28.0362H21.108V24.3824H22.8922V28.0362H27.203V20.3066L22.0001 16.3391L16.7972 20.3066V28.0362ZM15.7501 16.4872C15.7501 15.9153 15.9438 15.4286 16.3313 15.0272C16.7187 14.6259 17.2176 14.4252 17.828 14.4252C18.157 14.4252 18.4111 14.3256 18.5903 14.1264C18.7695 13.9271 18.859 13.6884 18.859 13.4102H19.9061C19.9061 13.9764 19.7143 14.4617 19.3307 14.866C18.9471 15.2702 18.4462 15.4722 17.828 15.4722C17.5072 15.4722 17.2552 15.5698 17.072 15.7649C16.8888 15.9602 16.7972 16.201 16.7972 16.4872H15.7501Z" fill="white"/>
</g>
<path d="M44.336 19L47.42 10.6H48.728L51.812 19H50.528L48.068 12.04L45.596 19H44.336ZM45.728 16.924L46.064 15.964H50.012L50.348 16.924H45.728ZM52.5313 19V10.36H53.7313V19H52.5313ZM57.1814 19.144C56.7094 19.144 56.2974 19.048 55.9454 18.856C55.6014 18.664 55.3334 18.376 55.1414 17.992C54.9574 17.608 54.8654 17.124 54.8654 16.54V12.952H56.0654V16.408C56.0654 16.976 56.1894 17.404 56.4374 17.692C56.6854 17.98 57.0414 18.124 57.5054 18.124C57.8174 18.124 58.0974 18.048 58.3454 17.896C58.6014 17.744 58.8014 17.524 58.9454 17.236C59.0894 16.948 59.1614 16.596 59.1614 16.18V12.952H60.3614V19H59.2934L59.2094 17.968C59.0254 18.336 58.7574 18.624 58.4054 18.832C58.0534 19.04 57.6454 19.144 57.1814 19.144ZM64.0469 21.784C63.4949 21.784 63.0069 21.712 62.5829 21.568C62.1589 21.432 61.8309 21.22 61.5989 20.932C61.3669 20.644 61.2509 20.292 61.2509 19.876C61.2509 19.66 61.2989 19.44 61.3949 19.216C61.4909 19 61.6469 18.792 61.8629 18.592C62.0789 18.392 62.3709 18.212 62.7389 18.052L63.4109 18.592C63.0029 18.744 62.7269 18.924 62.5829 19.132C62.4469 19.348 62.3789 19.556 62.3789 19.756C62.3789 19.996 62.4509 20.196 62.5949 20.356C62.7389 20.516 62.9349 20.636 63.1829 20.716C63.4389 20.796 63.7269 20.836 64.0469 20.836C64.3589 20.836 64.6309 20.792 64.8629 20.704C65.0949 20.616 65.2749 20.492 65.4029 20.332C65.5309 20.172 65.5949 19.984 65.5949 19.768C65.5949 19.512 65.4989 19.296 65.3069 19.12C65.1149 18.952 64.7469 18.852 64.2029 18.82C63.7469 18.788 63.3589 18.744 63.0389 18.688C62.7269 18.632 62.4589 18.564 62.2349 18.484C62.0189 18.404 61.8349 18.316 61.6829 18.22C61.5389 18.124 61.4149 18.024 61.3109 17.92V17.644L62.5109 16.408L63.4829 16.744L62.1749 17.956L62.4269 17.416C62.5149 17.472 62.5989 17.528 62.6789 17.584C62.7589 17.632 62.8669 17.676 63.0029 17.716C63.1389 17.756 63.3229 17.792 63.5549 17.824C63.7869 17.856 64.0909 17.888 64.4669 17.92C65.0109 17.96 65.4469 18.056 65.7749 18.208C66.1109 18.36 66.3549 18.564 66.5069 18.82C66.6589 19.076 66.7349 19.38 66.7349 19.732C66.7349 20.076 66.6389 20.404 66.4469 20.716C66.2629 21.028 65.9709 21.284 65.5709 21.484C65.1789 21.684 64.6709 21.784 64.0469 21.784ZM64.0469 17.14C63.5349 17.14 63.0989 17.044 62.7389 16.852C62.3869 16.66 62.1149 16.4 61.9229 16.072C61.7389 15.744 61.6469 15.38 61.6469 14.98C61.6469 14.572 61.7389 14.208 61.9229 13.888C62.1149 13.56 62.3909 13.3 62.7509 13.108C63.1109 12.908 63.5429 12.808 64.0469 12.808C64.5509 12.808 64.9789 12.908 65.3309 13.108C65.6909 13.3 65.9629 13.56 66.1469 13.888C66.3389 14.208 66.4349 14.572 66.4349 14.98C66.4349 15.38 66.3389 15.744 66.1469 16.072C65.9629 16.4 65.6909 16.66 65.3309 16.852C64.9789 17.044 64.5509 17.14 64.0469 17.14ZM64.0469 16.18C64.4389 16.18 64.7509 16.08 64.9829 15.88C65.2149 15.672 65.3309 15.372 65.3309 14.98C65.3309 14.588 65.2149 14.292 64.9829 14.092C64.7509 13.884 64.4389 13.78 64.0469 13.78C63.6549 13.78 63.3389 13.884 63.0989 14.092C62.8589 14.292 62.7389 14.588 62.7389 14.98C62.7389 15.372 62.8589 15.672 63.0989 15.88C63.3389 16.08 63.6549 16.18 64.0469 16.18ZM65.0309 13.9L64.7429 12.952H67.2269V13.78L65.0309 13.9ZM70.2331 19.144C69.7611 19.144 69.3491 19.048 68.9971 18.856C68.6531 18.664 68.3851 18.376 68.1931 17.992C68.0091 17.608 67.9171 17.124 67.9171 16.54V12.952H69.1171V16.408C69.1171 16.976 69.2411 17.404 69.4891 17.692C69.7371 17.98 70.0931 18.124 70.5571 18.124C70.8691 18.124 71.1491 18.048 71.3971 17.896C71.6531 17.744 71.8531 17.524 71.9971 17.236C72.1411 16.948 72.2131 16.596 72.2131 16.18V12.952H73.4131V19H72.3451L72.2611 17.968C72.0771 18.336 71.8091 18.624 71.4571 18.832C71.1051 19.04 70.6971 19.144 70.2331 19.144ZM77.3746 19.144C76.7986 19.144 76.2866 19.012 75.8386 18.748C75.3906 18.484 75.0386 18.116 74.7826 17.644C74.5346 17.172 74.4106 16.624 74.4106 16C74.4106 15.36 74.5346 14.804 74.7826 14.332C75.0386 13.852 75.3906 13.48 75.8386 13.216C76.2866 12.944 76.8066 12.808 77.3986 12.808C77.9906 12.808 78.4986 12.94 78.9226 13.204C79.3466 13.468 79.6746 13.82 79.9066 14.26C80.1386 14.692 80.2546 15.172 80.2546 15.7C80.2546 15.78 80.2506 15.868 80.2426 15.964C80.2426 16.052 80.2386 16.152 80.2306 16.264H75.2866V15.412H79.0546C79.0306 14.908 78.8626 14.516 78.5506 14.236C78.2386 13.948 77.8506 13.804 77.3866 13.804C77.0586 13.804 76.7586 13.88 76.4866 14.032C76.2146 14.176 75.9946 14.392 75.8266 14.68C75.6666 14.96 75.5866 15.316 75.5866 15.748V16.084C75.5866 16.532 75.6666 16.912 75.8266 17.224C75.9946 17.528 76.2146 17.76 76.4866 17.92C76.7586 18.072 77.0546 18.148 77.3746 18.148C77.7586 18.148 78.0746 18.064 78.3226 17.896C78.5706 17.728 78.7546 17.5 78.8746 17.212H80.0746C79.9706 17.58 79.7946 17.912 79.5466 18.208C79.2986 18.496 78.9906 18.724 78.6226 18.892C78.2626 19.06 77.8466 19.144 77.3746 19.144ZM81.1703 19V10.36H82.3703V19H81.1703Z" fill="#15191E"/>
<path d="M44.6 34V28.4H45.272V34H44.6ZM46.2746 34V28.4H47.0586L49.0346 32.312L51.0186 28.4H51.8106V34H51.1386V29.6L49.2906 33.216H48.7866L46.9466 29.616V34H46.2746ZM55.2968 34.096C54.7581 34.096 54.2834 33.976 53.8728 33.736C53.4674 33.4907 53.1501 33.152 52.9208 32.72C52.6968 32.2827 52.5848 31.776 52.5848 31.2C52.5848 30.6293 52.6968 30.128 52.9208 29.696C53.1501 29.2587 53.4674 28.9173 53.8728 28.672C54.2834 28.4267 54.7581 28.304 55.2968 28.304C55.8461 28.304 56.3234 28.4267 56.7288 28.672C57.1341 28.9173 57.4488 29.2587 57.6728 29.696C57.9021 30.128 58.0168 30.6293 58.0168 31.2C58.0168 31.776 57.9021 32.2827 57.6728 32.72C57.4488 33.152 57.1341 33.4907 56.7288 33.736C56.3234 33.976 55.8461 34.096 55.2968 34.096ZM55.2968 33.504C55.7021 33.504 56.0568 33.4133 56.3608 33.232C56.6701 33.0453 56.9074 32.7813 57.0728 32.44C57.2434 32.0933 57.3288 31.68 57.3288 31.2C57.3288 30.72 57.2434 30.3093 57.0728 29.968C56.9074 29.6213 56.6701 29.3573 56.3608 29.176C56.0568 28.9947 55.7021 28.904 55.2968 28.904C54.8968 28.904 54.5421 28.9947 54.2328 29.176C53.9288 29.3573 53.6914 29.6213 53.5208 29.968C53.3554 30.3093 53.2728 30.72 53.2728 31.2C53.2728 31.68 53.3554 32.0933 53.5208 32.44C53.6914 32.7813 53.9288 33.0453 54.2328 33.232C54.5421 33.4133 54.8968 33.504 55.2968 33.504ZM58.7957 34V28.4H60.7637C61.1583 28.4 61.4837 28.464 61.7397 28.592C62.001 28.7147 62.1957 28.8853 62.3237 29.104C62.4517 29.3173 62.5157 29.5573 62.5157 29.824C62.5157 30.112 62.4517 30.352 62.3237 30.544C62.201 30.736 62.0383 30.8827 61.8357 30.984C61.6383 31.0853 61.4277 31.1467 61.2037 31.168L61.3157 31.088C61.5557 31.0933 61.777 31.1573 61.9797 31.28C62.1823 31.4027 62.3423 31.568 62.4597 31.776C62.5823 31.984 62.6437 32.216 62.6437 32.472C62.6437 32.7547 62.5743 33.0133 62.4357 33.248C62.297 33.4773 62.0917 33.6613 61.8197 33.8C61.553 33.9333 61.2223 34 60.8277 34H58.7957ZM59.4677 33.44H60.7557C61.1343 33.44 61.4277 33.352 61.6357 33.176C61.849 32.9947 61.9557 32.744 61.9557 32.424C61.9557 32.1093 61.8463 31.8587 61.6277 31.672C61.4143 31.48 61.1183 31.384 60.7397 31.384H59.4677V33.44ZM59.4677 30.848H60.7157C61.0783 30.848 61.353 30.7627 61.5397 30.592C61.7317 30.4213 61.8277 30.1893 61.8277 29.896C61.8277 29.6133 61.7317 29.3867 61.5397 29.216C61.353 29.0453 61.0703 28.96 60.6917 28.96H59.4677V30.848ZM63.4156 34V28.4H64.0876V34H63.4156ZM65.0902 34V28.4H65.7622V33.464H68.3702V34H65.0902ZM69.1085 34V28.4H69.7805V34H69.1085ZM70.4231 34L72.4871 28.4H73.1991L75.2551 34H74.5431L72.8391 29.24L71.1271 34H70.4231ZM71.3671 32.56L71.5591 32.016H74.0951L74.2871 32.56H71.3671ZM72.0631 28.056L71.9911 27.568L73.5991 26.552L73.6951 27.128L72.0631 28.056ZM75.8952 34V28.4H77.7032C78.1405 28.4 78.4979 28.4747 78.7752 28.624C79.0525 28.768 79.2579 28.9627 79.3912 29.208C79.5245 29.4533 79.5912 29.7307 79.5912 30.04C79.5912 30.3387 79.5219 30.6133 79.3832 30.864C79.2499 31.1147 79.0419 31.3147 78.7592 31.464C78.4765 31.6133 78.1139 31.688 77.6712 31.688H76.5672V34H75.8952ZM78.8552 34L77.6232 31.496H78.3752L79.6472 34H78.8552ZM76.5672 31.16H77.6552C78.0819 31.16 78.3939 31.056 78.5912 30.848C78.7939 30.64 78.8952 30.3733 78.8952 30.048C78.8952 29.7173 78.7965 29.456 78.5992 29.264C78.4072 29.0667 78.0899 28.968 77.6472 28.968H76.5672V31.16ZM80.4448 34V28.4H81.1168V34H80.4448ZM81.7594 34L83.8234 28.4H84.5354L86.5914 34H85.8794L84.1754 29.24L82.4634 34H81.7594ZM82.7034 32.56L82.8954 32.016H85.4314L85.6234 32.56H82.7034Z" fill="#707070"/>
<rect x="196.84" y="13.8203" width="58.3597" height="16.3597" rx="6.6802" fill="#FF4000"/>
<circle cx="209.02" cy="22.0001" r="4.17984" fill="white"/>
<mask id="mask1_241_683" style="mask-type:alpha" maskUnits="userSpaceOnUse" x="206" y="19" width="6" height="6">
<rect x="206.218" y="19.1982" width="5.60402" height="5.60402" fill="#D9D9D9"/>
</mask>
<g mask="url(#mask1_241_683)">
<path d="M208.448 23.4011L207.117 22.0702L207.45 21.7374L208.448 22.7356L210.591 20.5933L210.923 20.926L208.448 23.4011Z" fill="#FF4000"/>
</g>
<path d="M217.367 24L219.077 19.3239H219.972L221.683 24H220.834L219.518 20.2591L218.202 24H217.367ZM218.129 22.8978L218.343 22.2631H220.647L220.861 22.8978H218.129ZM222.099 25.4696V20.6332H222.813L222.9 21.1208C222.972 21.0229 223.056 20.9316 223.154 20.8469C223.257 20.7579 223.379 20.6866 223.522 20.6332C223.669 20.5797 223.836 20.553 224.023 20.553C224.339 20.553 224.617 20.631 224.858 20.7868C225.103 20.9427 225.294 21.1542 225.432 21.4214C225.57 21.6842 225.639 21.9848 225.639 22.3233C225.639 22.6617 225.568 22.9646 225.425 23.2318C225.287 23.4945 225.096 23.7016 224.851 23.853C224.61 24.0045 224.334 24.0802 224.023 24.0802C223.769 24.0802 223.546 24.0334 223.355 23.9399C223.168 23.8419 223.016 23.7038 222.9 23.5257V25.4696H222.099ZM223.856 23.3854C224.043 23.3854 224.21 23.3409 224.357 23.2518C224.504 23.1627 224.617 23.0381 224.697 22.8777C224.782 22.7174 224.824 22.5326 224.824 22.3233C224.824 22.1095 224.782 21.9225 224.697 21.7621C224.617 21.6018 224.504 21.4771 224.357 21.388C224.21 21.299 224.043 21.2544 223.856 21.2544C223.664 21.2544 223.495 21.299 223.348 21.388C223.205 21.4771 223.092 21.6018 223.007 21.7621C222.927 21.9225 222.887 22.1073 222.887 22.3166C222.887 22.5304 222.927 22.7174 223.007 22.8777C223.092 23.0336 223.205 23.1583 223.348 23.2518C223.495 23.3409 223.664 23.3854 223.856 23.3854ZM226.217 24V20.6332H226.932L227.005 21.2611C227.085 21.1142 227.186 20.9895 227.306 20.887C227.426 20.7801 227.566 20.6978 227.727 20.6399C227.891 20.582 228.072 20.553 228.268 20.553V21.4014H227.987C227.854 21.4014 227.727 21.4192 227.606 21.4548C227.486 21.486 227.382 21.5395 227.292 21.6152C227.208 21.6864 227.141 21.7866 227.092 21.9158C227.043 22.0405 227.019 22.1986 227.019 22.3901V24H226.217ZM230.17 24.0802C229.849 24.0802 229.56 24.0067 229.301 23.8597C229.047 23.7083 228.847 23.5012 228.7 23.2385C228.558 22.9712 228.486 22.6662 228.486 22.3233C228.486 21.9714 228.56 21.6642 228.707 21.4014C228.854 21.1342 229.054 20.9271 229.308 20.7801C229.566 20.6287 229.856 20.553 230.176 20.553C230.497 20.553 230.784 20.6287 231.038 20.7801C231.296 20.9271 231.497 21.132 231.639 21.3947C231.786 21.6575 231.86 21.9648 231.86 22.3166C231.86 22.6684 231.786 22.9757 231.639 23.2385C231.492 23.5012 231.29 23.7083 231.031 23.8597C230.778 24.0067 230.49 24.0802 230.17 24.0802ZM230.17 23.3921C230.33 23.3921 230.475 23.352 230.604 23.2719C230.738 23.1917 230.844 23.0715 230.925 22.9111C231.005 22.7508 231.045 22.5526 231.045 22.3166C231.045 22.0806 231.005 21.8846 230.925 21.7287C230.849 21.5684 230.744 21.4482 230.611 21.368C230.481 21.2878 230.337 21.2478 230.176 21.2478C230.021 21.2478 229.876 21.2878 229.742 21.368C229.609 21.4482 229.502 21.5684 229.422 21.7287C229.341 21.8846 229.301 22.0806 229.301 22.3166C229.301 22.5526 229.341 22.7508 229.422 22.9111C229.502 23.0715 229.606 23.1917 229.736 23.2719C229.869 23.352 230.014 23.3921 230.17 23.3921ZM233.203 24L231.96 20.6332H232.802L233.691 23.2385L234.579 20.6332H235.407L234.165 24H233.203ZM236.706 24.0802C236.43 24.0802 236.201 24.0334 236.018 23.9399C235.835 23.8464 235.7 23.7217 235.611 23.5658C235.521 23.4099 235.477 23.2407 235.477 23.0581C235.477 22.8443 235.53 22.6595 235.637 22.5036C235.749 22.3478 235.911 22.2275 236.125 22.1429C236.339 22.0538 236.601 22.0093 236.913 22.0093H237.762C237.762 21.8312 237.737 21.6842 237.688 21.5684C237.639 21.4482 237.563 21.3591 237.461 21.3012C237.359 21.2433 237.227 21.2144 237.067 21.2144C236.884 21.2144 236.728 21.2567 236.599 21.3413C236.47 21.4214 236.39 21.5461 236.359 21.7154H235.57C235.597 21.4749 235.677 21.27 235.811 21.1008C235.945 20.9271 236.12 20.7935 236.339 20.7C236.561 20.602 236.804 20.553 237.067 20.553C237.383 20.553 237.652 20.6087 237.875 20.72C238.098 20.8269 238.267 20.9828 238.383 21.1876C238.503 21.388 238.563 21.6308 238.563 21.9158V24H237.882L237.802 23.4589C237.757 23.548 237.699 23.6304 237.628 23.7061C237.561 23.7818 237.483 23.8486 237.394 23.9065C237.305 23.9599 237.203 24.0022 237.087 24.0334C236.976 24.0646 236.849 24.0802 236.706 24.0802ZM236.886 23.4455C237.016 23.4455 237.129 23.4233 237.227 23.3787C237.33 23.3298 237.416 23.263 237.488 23.1783C237.563 23.0893 237.621 22.9913 237.661 22.8844C237.701 22.7775 237.728 22.664 237.742 22.5437V22.5304H237C236.844 22.5304 236.715 22.5504 236.613 22.5905C236.51 22.6261 236.437 22.6795 236.392 22.7508C236.348 22.8221 236.325 22.9044 236.325 22.998C236.325 23.0915 236.348 23.1717 236.392 23.2385C236.437 23.3053 236.501 23.3565 236.586 23.3921C236.67 23.4277 236.771 23.4455 236.886 23.4455ZM240.716 24.0802C240.404 24.0802 240.126 24.0045 239.881 23.853C239.636 23.7016 239.444 23.4923 239.306 23.2251C239.173 22.9579 239.106 22.6551 239.106 22.3166C239.106 21.9781 239.175 21.6775 239.313 21.4148C239.451 21.1476 239.642 20.9382 239.887 20.7868C240.137 20.631 240.417 20.553 240.729 20.553C240.983 20.553 241.203 20.602 241.39 20.7C241.582 20.7935 241.733 20.9271 241.845 21.1008V19.1903H242.646V24H241.925L241.845 23.5123C241.773 23.6103 241.687 23.7038 241.584 23.7929C241.482 23.8775 241.359 23.9466 241.217 24C241.074 24.0534 240.907 24.0802 240.716 24.0802ZM240.883 23.3854C241.074 23.3854 241.243 23.3409 241.39 23.2518C241.537 23.1583 241.651 23.0314 241.731 22.871C241.811 22.7107 241.851 22.5259 241.851 22.3166C241.851 22.1073 241.811 21.9225 241.731 21.7621C241.651 21.6018 241.537 21.4771 241.39 21.388C241.243 21.299 241.074 21.2544 240.883 21.2544C240.7 21.2544 240.535 21.299 240.388 21.388C240.241 21.4771 240.126 21.6018 240.041 21.7621C239.961 21.9225 239.921 22.1073 239.921 22.3166C239.921 22.5259 239.961 22.7107 240.041 22.871C240.126 23.0314 240.241 23.1583 240.388 23.2518C240.535 23.3409 240.7 23.3854 240.883 23.3854ZM244.907 24.0802C244.587 24.0802 244.297 24.0067 244.039 23.8597C243.785 23.7083 243.585 23.5012 243.438 23.2385C243.295 22.9712 243.224 22.6662 243.224 22.3233C243.224 21.9714 243.297 21.6642 243.444 21.4014C243.591 21.1342 243.792 20.9271 244.046 20.7801C244.304 20.6287 244.593 20.553 244.914 20.553C245.235 20.553 245.522 20.6287 245.776 20.7801C246.034 20.9271 246.235 21.132 246.377 21.3947C246.524 21.6575 246.597 21.9648 246.597 22.3166C246.597 22.6684 246.524 22.9757 246.377 23.2385C246.23 23.5012 246.027 23.7083 245.769 23.8597C245.515 24.0067 245.228 24.0802 244.907 24.0802ZM244.907 23.3921C245.068 23.3921 245.212 23.352 245.342 23.2719C245.475 23.1917 245.582 23.0715 245.662 22.9111C245.742 22.7508 245.783 22.5526 245.783 22.3166C245.783 22.0806 245.742 21.8846 245.662 21.7287C245.587 21.5684 245.482 21.4482 245.348 21.368C245.219 21.2878 245.074 21.2478 244.914 21.2478C244.758 21.2478 244.613 21.2878 244.48 21.368C244.346 21.4482 244.239 21.5684 244.159 21.7287C244.079 21.8846 244.039 22.0806 244.039 22.3166C244.039 22.5526 244.079 22.7508 244.159 22.9111C244.239 23.0715 244.344 23.1917 244.473 23.2719C244.607 23.352 244.752 23.3921 244.907 23.3921Z" fill="white"/>
</svg>
