<svg width="262" height="143" viewBox="0 0 262 143" fill="none" xmlns="http://www.w3.org/2000/svg">
<path d="M19.8099 0.169882C19.9901 0.147875 20.1706 0.12962 20.3516 0.115366C23.1959 -0.115699 29.6211 0.0708539 32.6541 0.0761054L57.0384 0.0956078L135.136 0.0933603L207.515 0.091109L230.05 0.0896094C233.73 0.0891093 239.535 -0.0604338 243.073 0.282912C247.33 0.673271 251.363 2.36825 254.623 5.13652C258.77 8.70477 261.375 14.116 261.52 19.5258C261.693 25.9438 261.608 32.4342 261.608 38.8522L261.61 76.1967V106.484C261.61 113.415 262 121.252 260.803 127.988C260.49 129.755 257.835 134.149 256.48 135.598C252.203 140.173 247.683 142.075 241.605 142.484C236.243 142.713 230.075 142.572 224.665 142.567L195.98 142.555L106.733 142.555L48.1399 142.562L29.7771 142.574C21.8651 142.577 13.7204 143.343 7.27014 137.749C2.71714 133.841 0.380146 128.577 0.170146 122.607C-0.0743539 115.667 0.0373972 108.67 0.0431472 101.711L0.0426437 62.9459L0.0343963 33.6793C0.0341463 29.3405 -0.173356 20.8697 0.433894 16.8723C1.02464 13.2085 2.6349 9.78507 5.08065 6.99404C9.10315 2.35599 13.8531 0.605504 19.8099 0.169882Z" fill="#F6F6F5"/>
<path d="M122.518 93.8083V84.0083H125.598C126.354 84.0083 126.98 84.1343 127.474 84.3863C127.969 84.6289 128.333 84.9649 128.566 85.3943C128.8 85.8143 128.916 86.2949 128.916 86.8363C128.916 87.3683 128.8 87.8489 128.566 88.2783C128.333 88.7076 127.969 89.0483 127.474 89.3003C126.989 89.5523 126.364 89.6783 125.598 89.6783H123.498V93.8083H122.518ZM123.498 88.8383H125.584C126.424 88.8383 127.022 88.6609 127.376 88.3063C127.731 87.9423 127.908 87.4523 127.908 86.8363C127.908 86.2016 127.731 85.7116 127.376 85.3663C127.022 85.0116 126.424 84.8343 125.584 84.8343H123.498V88.8383ZM130.459 93.8083V86.7523H131.355L131.425 88.1103C131.575 87.7836 131.775 87.5083 132.027 87.2843C132.279 87.0603 132.583 86.8876 132.937 86.7663C133.292 86.6449 133.693 86.5843 134.141 86.5843V87.6063H133.763C133.465 87.6063 133.175 87.6483 132.895 87.7323C132.615 87.8069 132.368 87.9376 132.153 88.1243C131.939 88.3109 131.766 88.5629 131.635 88.8803C131.505 89.1976 131.439 89.5943 131.439 90.0703V93.8083H130.459ZM138.325 93.9763C137.681 93.9763 137.098 93.8269 136.575 93.5283C136.062 93.2203 135.656 92.7909 135.357 92.2403C135.058 91.6803 134.909 91.0316 134.909 90.2943C134.909 89.5289 135.058 88.8709 135.357 88.3203C135.665 87.7696 136.08 87.3449 136.603 87.0463C137.126 86.7383 137.709 86.5843 138.353 86.5843C139.025 86.5843 139.618 86.7383 140.131 87.0463C140.644 87.3449 141.05 87.7696 141.349 88.3203C141.648 88.8709 141.797 89.5289 141.797 90.2943C141.797 91.0316 141.643 91.6803 141.335 92.2403C141.036 92.7909 140.626 93.2203 140.103 93.5283C139.59 93.8269 138.997 93.9763 138.325 93.9763ZM138.339 93.1363C138.778 93.1363 139.179 93.0289 139.543 92.8143C139.916 92.5996 140.215 92.2823 140.439 91.8623C140.672 91.4329 140.789 90.9056 140.789 90.2803C140.789 89.6456 140.677 89.1183 140.453 88.6983C140.229 88.2783 139.93 87.9656 139.557 87.7603C139.193 87.5456 138.792 87.4383 138.353 87.4383C137.933 87.4383 137.536 87.5456 137.163 87.7603C136.79 87.9749 136.486 88.2923 136.253 88.7123C136.029 89.1229 135.917 89.6456 135.917 90.2803C135.917 90.9056 136.029 91.4329 136.253 91.8623C136.477 92.2823 136.771 92.5996 137.135 92.8143C137.508 93.0289 137.91 93.1363 138.339 93.1363ZM146.583 93.9763C145.93 93.9763 145.346 93.8223 144.833 93.5143C144.32 93.2063 143.914 92.7769 143.615 92.2263C143.316 91.6663 143.167 91.0223 143.167 90.2943C143.167 89.5383 143.316 88.8896 143.615 88.3483C143.914 87.7976 144.32 87.3683 144.833 87.0603C145.356 86.7429 145.939 86.5843 146.583 86.5843C147.404 86.5843 148.086 86.7989 148.627 87.2283C149.178 87.6483 149.528 88.2083 149.677 88.9083H148.697C148.594 88.4416 148.347 88.0823 147.955 87.8303C147.572 87.5689 147.11 87.4383 146.569 87.4383C146.149 87.4383 145.757 87.5456 145.393 87.7603C145.029 87.9656 144.735 88.2783 144.511 88.6983C144.287 89.1183 144.175 89.6503 144.175 90.2943C144.175 90.7703 144.24 91.1856 144.371 91.5403C144.502 91.8949 144.679 92.1936 144.903 92.4363C145.127 92.6696 145.384 92.8469 145.673 92.9683C145.962 93.0896 146.261 93.1503 146.569 93.1503C146.924 93.1503 147.246 93.0943 147.535 92.9823C147.834 92.8609 148.086 92.6883 148.291 92.4643C148.496 92.2403 148.632 91.9696 148.697 91.6523H149.677C149.537 92.3336 149.192 92.8936 148.641 93.3323C148.09 93.7616 147.404 93.9763 146.583 93.9763ZM154.388 93.9763C153.734 93.9763 153.156 93.8223 152.652 93.5143C152.157 93.2063 151.765 92.7769 151.476 92.2263C151.196 91.6663 151.056 91.0129 151.056 90.2663C151.056 89.5196 151.196 88.8709 151.476 88.3203C151.756 87.7696 152.148 87.3449 152.652 87.0463C153.165 86.7383 153.753 86.5843 154.416 86.5843C155.097 86.5843 155.671 86.7383 156.138 87.0463C156.614 87.3543 156.973 87.7556 157.216 88.2503C157.468 88.7449 157.594 89.2863 157.594 89.8743C157.594 89.9676 157.594 90.0656 157.594 90.1683C157.594 90.2616 157.589 90.3736 157.58 90.5043H151.798V89.6783H156.642C156.623 88.9596 156.399 88.4043 155.97 88.0123C155.55 87.6203 155.018 87.4243 154.374 87.4243C153.954 87.4243 153.562 87.5223 153.198 87.7183C152.843 87.9049 152.554 88.1849 152.33 88.5583C152.115 88.9223 152.008 89.3843 152.008 89.9443V90.3083C152.008 90.9429 152.12 91.4703 152.344 91.8903C152.568 92.3103 152.862 92.6229 153.226 92.8283C153.599 93.0336 153.986 93.1363 154.388 93.1363C154.92 93.1363 155.358 93.0196 155.704 92.7863C156.049 92.5436 156.296 92.2123 156.446 91.7923H157.412C157.29 92.2029 157.094 92.5763 156.824 92.9123C156.562 93.2483 156.226 93.5096 155.816 93.6963C155.405 93.8829 154.929 93.9763 154.388 93.9763ZM161.788 93.9763C161.228 93.9763 160.733 93.8829 160.304 93.6963C159.884 93.5096 159.543 93.2436 159.282 92.8983C159.03 92.5436 158.876 92.1236 158.82 91.6383H159.828C159.884 91.9089 159.991 92.1563 160.15 92.3803C160.318 92.6043 160.542 92.7863 160.822 92.9263C161.102 93.0569 161.433 93.1223 161.816 93.1223C162.17 93.1223 162.46 93.0709 162.684 92.9683C162.917 92.8563 163.09 92.7116 163.202 92.5343C163.323 92.3476 163.384 92.1423 163.384 91.9183C163.384 91.6103 163.309 91.3723 163.16 91.2043C163.02 91.0269 162.814 90.8963 162.544 90.8123C162.273 90.7283 161.946 90.6489 161.564 90.5743C161.246 90.5183 160.943 90.4436 160.654 90.3503C160.364 90.2569 160.103 90.1356 159.87 89.9863C159.646 89.8369 159.468 89.6503 159.338 89.4263C159.207 89.1929 159.142 88.9223 159.142 88.6143C159.142 88.2129 159.24 87.8629 159.436 87.5643C159.641 87.2563 159.93 87.0183 160.304 86.8503C160.677 86.6729 161.116 86.5843 161.62 86.5843C162.338 86.5843 162.926 86.7663 163.384 87.1303C163.841 87.4849 164.107 88.0076 164.182 88.6983H163.202C163.164 88.3156 163.006 88.0123 162.726 87.7883C162.446 87.5643 162.068 87.4523 161.592 87.4523C161.125 87.4523 160.766 87.5503 160.514 87.7463C160.271 87.9329 160.15 88.1896 160.15 88.5163C160.15 88.7216 160.215 88.8989 160.346 89.0483C160.476 89.1976 160.668 89.3283 160.92 89.4403C161.181 89.5429 161.498 89.6316 161.872 89.7063C162.32 89.7903 162.73 89.9023 163.104 90.0423C163.486 90.1729 163.794 90.3783 164.028 90.6583C164.27 90.9289 164.392 91.3163 164.392 91.8203C164.401 92.2403 164.298 92.6136 164.084 92.9403C163.869 93.2669 163.566 93.5236 163.174 93.7103C162.782 93.8876 162.32 93.9763 161.788 93.9763ZM168.719 93.9763C168.159 93.9763 167.665 93.8829 167.235 93.6963C166.815 93.5096 166.475 93.2436 166.213 92.8983C165.961 92.5436 165.807 92.1236 165.751 91.6383H166.759C166.815 91.9089 166.923 92.1563 167.081 92.3803C167.249 92.6043 167.473 92.7863 167.753 92.9263C168.033 93.0569 168.365 93.1223 168.747 93.1223C169.102 93.1223 169.391 93.0709 169.615 92.9683C169.849 92.8563 170.021 92.7116 170.133 92.5343C170.255 92.3476 170.315 92.1423 170.315 91.9183C170.315 91.6103 170.241 91.3723 170.091 91.2043C169.951 91.0269 169.746 90.8963 169.475 90.8123C169.205 90.7283 168.878 90.6489 168.495 90.5743C168.178 90.5183 167.875 90.4436 167.585 90.3503C167.296 90.2569 167.035 90.1356 166.801 89.9863C166.577 89.8369 166.4 89.6503 166.269 89.4263C166.139 89.1929 166.073 88.9223 166.073 88.6143C166.073 88.2129 166.171 87.8629 166.367 87.5643C166.573 87.2563 166.862 87.0183 167.235 86.8503C167.609 86.6729 168.047 86.5843 168.551 86.5843C169.27 86.5843 169.858 86.7663 170.315 87.1303C170.773 87.4849 171.039 88.0076 171.113 88.6983H170.133C170.096 88.3156 169.937 88.0123 169.657 87.7883C169.377 87.5643 168.999 87.4523 168.523 87.4523C168.057 87.4523 167.697 87.5503 167.445 87.7463C167.203 87.9329 167.081 88.1896 167.081 88.5163C167.081 88.7216 167.147 88.8989 167.277 89.0483C167.408 89.1976 167.599 89.3283 167.851 89.4403C168.113 89.5429 168.43 89.6316 168.803 89.7063C169.251 89.7903 169.662 89.9023 170.035 90.0423C170.418 90.1729 170.726 90.3783 170.959 90.6583C171.202 90.9289 171.323 91.3163 171.323 91.8203C171.333 92.2403 171.23 92.6136 171.015 92.9403C170.801 93.2669 170.497 93.5236 170.105 93.7103C169.713 93.8876 169.251 93.9763 168.719 93.9763ZM176.169 93.9763C175.525 93.9763 174.942 93.8269 174.419 93.5283C173.906 93.2203 173.5 92.7909 173.201 92.2403C172.902 91.6803 172.753 91.0316 172.753 90.2943C172.753 89.5289 172.902 88.8709 173.201 88.3203C173.509 87.7696 173.924 87.3449 174.447 87.0463C174.97 86.7383 175.553 86.5843 176.197 86.5843C176.869 86.5843 177.462 86.7383 177.975 87.0463C178.488 87.3449 178.894 87.7696 179.193 88.3203C179.492 88.8709 179.641 89.5289 179.641 90.2943C179.641 91.0316 179.487 91.6803 179.179 92.2403C178.88 92.7909 178.47 93.2203 177.947 93.5283C177.434 93.8269 176.841 93.9763 176.169 93.9763ZM176.183 93.1363C176.622 93.1363 177.023 93.0289 177.387 92.8143C177.76 92.5996 178.059 92.2823 178.283 91.8623C178.516 91.4329 178.633 90.9056 178.633 90.2803C178.633 89.6456 178.521 89.1183 178.297 88.6983C178.073 88.2783 177.774 87.9656 177.401 87.7603C177.037 87.5456 176.636 87.4383 176.197 87.4383C175.777 87.4383 175.38 87.5456 175.007 87.7603C174.634 87.9749 174.33 88.2923 174.097 88.7123C173.873 89.1229 173.761 89.6456 173.761 90.2803C173.761 90.9056 173.873 91.4329 174.097 91.8623C174.321 92.2823 174.615 92.5996 174.979 92.8143C175.352 93.0289 175.754 93.1363 176.183 93.1363ZM185.314 93.8083V86.7523H186.28V93.8083H185.314ZM185.804 85.0863C185.608 85.0863 185.44 85.0209 185.3 84.8903C185.16 84.7503 185.09 84.5776 185.09 84.3723C185.09 84.1576 185.156 83.9896 185.286 83.8683C185.426 83.7376 185.594 83.6723 185.79 83.6723C185.986 83.6723 186.154 83.7376 186.294 83.8683C186.434 83.9896 186.504 84.1576 186.504 84.3723C186.504 84.5776 186.434 84.7503 186.294 84.8903C186.164 85.0209 186 85.0863 185.804 85.0863ZM188.414 93.8083V86.7523H189.31L189.366 88.0123C189.59 87.5643 189.912 87.2143 190.332 86.9623C190.762 86.7103 191.238 86.5843 191.76 86.5843C192.302 86.5843 192.773 86.6916 193.174 86.9063C193.576 87.1209 193.888 87.4476 194.112 87.8863C194.336 88.3156 194.448 88.8663 194.448 89.5383V93.8083H193.468V89.6503C193.468 88.9036 193.305 88.3483 192.978 87.9843C192.652 87.6203 192.185 87.4383 191.578 87.4383C191.168 87.4383 190.794 87.5409 190.458 87.7463C190.132 87.9423 189.87 88.2316 189.674 88.6143C189.488 88.9969 189.394 89.4683 189.394 90.0283V93.8083H188.414ZM196.443 93.8083V86.7523H197.409V93.8083H196.443ZM196.933 85.0863C196.737 85.0863 196.569 85.0209 196.429 84.8903C196.289 84.7503 196.219 84.5776 196.219 84.3723C196.219 84.1576 196.284 83.9896 196.415 83.8683C196.555 83.7376 196.723 83.6723 196.919 83.6723C197.115 83.6723 197.283 83.7376 197.423 83.8683C197.563 83.9896 197.633 84.1576 197.633 84.3723C197.633 84.5776 197.563 84.7503 197.423 84.8903C197.292 85.0209 197.129 85.0863 196.933 85.0863ZM202.651 93.9763C201.998 93.9763 201.415 93.8223 200.901 93.5143C200.388 93.2063 199.982 92.7769 199.683 92.2263C199.385 91.6663 199.235 91.0223 199.235 90.2943C199.235 89.5383 199.385 88.8896 199.683 88.3483C199.982 87.7976 200.388 87.3683 200.901 87.0603C201.424 86.7429 202.007 86.5843 202.651 86.5843C203.473 86.5843 204.154 86.7989 204.695 87.2283C205.246 87.6483 205.596 88.2083 205.745 88.9083H204.765C204.663 88.4416 204.415 88.0823 204.023 87.8303C203.641 87.5689 203.179 87.4383 202.637 87.4383C202.217 87.4383 201.825 87.5456 201.461 87.7603C201.097 87.9656 200.803 88.2783 200.579 88.6983C200.355 89.1183 200.243 89.6503 200.243 90.2943C200.243 90.7703 200.309 91.1856 200.439 91.5403C200.57 91.8949 200.747 92.1936 200.971 92.4363C201.195 92.6696 201.452 92.8469 201.741 92.9683C202.031 93.0896 202.329 93.1503 202.637 93.1503C202.992 93.1503 203.314 93.0943 203.603 92.9823C203.902 92.8609 204.154 92.6883 204.359 92.4643C204.565 92.2403 204.7 91.9696 204.765 91.6523H205.745C205.605 92.3336 205.26 92.8936 204.709 93.3323C204.159 93.7616 203.473 93.9763 202.651 93.9763ZM207.572 93.8083V86.7523H208.538V93.8083H207.572ZM208.062 85.0863C207.866 85.0863 207.698 85.0209 207.558 84.8903C207.418 84.7503 207.348 84.5776 207.348 84.3723C207.348 84.1576 207.413 83.9896 207.544 83.8683C207.684 83.7376 207.852 83.6723 208.048 83.6723C208.244 83.6723 208.412 83.7376 208.552 83.8683C208.692 83.9896 208.762 84.1576 208.762 84.3723C208.762 84.5776 208.692 84.7503 208.552 84.8903C208.421 85.0209 208.258 85.0863 208.062 85.0863ZM212.926 93.9763C212.357 93.9763 211.881 93.8736 211.498 93.6683C211.125 93.4629 210.845 93.1969 210.658 92.8703C210.481 92.5436 210.392 92.1843 210.392 91.7923C210.392 91.3069 210.514 90.8963 210.756 90.5603C211.008 90.2243 211.358 89.9723 211.806 89.8043C212.254 89.6363 212.777 89.5523 213.374 89.5523H215.278C215.278 89.0949 215.208 88.7076 215.068 88.3903C214.928 88.0729 214.723 87.8349 214.452 87.6763C214.182 87.5083 213.841 87.4243 213.43 87.4243C212.954 87.4243 212.544 87.5456 212.198 87.7883C211.853 88.0309 211.638 88.3856 211.554 88.8523H210.532C210.588 88.3576 210.756 87.9423 211.036 87.6063C211.326 87.2703 211.68 87.0183 212.1 86.8503C212.52 86.6729 212.964 86.5843 213.43 86.5843C214.084 86.5843 214.616 86.7103 215.026 86.9623C215.437 87.2049 215.745 87.5409 215.95 87.9703C216.156 88.3996 216.258 88.8943 216.258 89.4543V93.8083H215.362L215.306 92.5203C215.222 92.7163 215.106 92.9029 214.956 93.0803C214.816 93.2576 214.648 93.4116 214.452 93.5423C214.266 93.6729 214.046 93.7756 213.794 93.8503C213.542 93.9343 213.253 93.9763 212.926 93.9763ZM213.038 93.1223C213.384 93.1223 213.692 93.0523 213.962 92.9123C214.242 92.7629 214.48 92.5716 214.676 92.3383C214.872 92.1049 215.022 91.8436 215.124 91.5543C215.227 91.2556 215.278 90.9476 215.278 90.6303V90.3783H213.444C212.95 90.3783 212.553 90.4389 212.254 90.5603C211.956 90.6816 211.741 90.8449 211.61 91.0503C211.48 91.2556 211.414 91.4936 211.414 91.7643C211.414 92.0349 211.475 92.2729 211.596 92.4783C211.718 92.6743 211.9 92.8329 212.142 92.9543C212.394 93.0663 212.693 93.1223 213.038 93.1223ZM221.19 93.9763C220.508 93.9763 219.911 93.8176 219.398 93.5003C218.894 93.1736 218.502 92.7303 218.222 92.1703C217.942 91.6103 217.802 90.9756 217.802 90.2663C217.802 89.5569 217.942 88.9269 218.222 88.3763C218.502 87.8163 218.898 87.3776 219.412 87.0603C219.925 86.7429 220.522 86.5843 221.204 86.5843C221.801 86.5843 222.324 86.7149 222.772 86.9763C223.229 87.2283 223.579 87.5876 223.822 88.0543V83.7283H224.802V93.8083H223.906L223.822 92.5343C223.672 92.7769 223.476 93.0103 223.234 93.2343C223 93.4583 222.711 93.6403 222.366 93.7803C222.03 93.9109 221.638 93.9763 221.19 93.9763ZM221.274 93.1223C221.768 93.1223 222.198 93.0056 222.562 92.7723C222.935 92.5389 223.224 92.2076 223.43 91.7783C223.644 91.3489 223.752 90.8496 223.752 90.2803C223.752 89.7109 223.644 89.2116 223.43 88.7823C223.224 88.3529 222.935 88.0216 222.562 87.7883C222.198 87.5549 221.768 87.4383 221.274 87.4383C220.788 87.4383 220.359 87.5549 219.986 87.7883C219.612 88.0216 219.318 88.3529 219.104 88.7823C218.898 89.2023 218.796 89.7016 218.796 90.2803C218.796 90.8589 218.903 91.3629 219.118 91.7923C219.332 92.2123 219.626 92.5389 220 92.7723C220.373 93.0056 220.798 93.1223 221.274 93.1223ZM229.899 93.9763C229.255 93.9763 228.672 93.8269 228.149 93.5283C227.636 93.2203 227.23 92.7909 226.931 92.2403C226.633 91.6803 226.483 91.0316 226.483 90.2943C226.483 89.5289 226.633 88.8709 226.931 88.3203C227.239 87.7696 227.655 87.3449 228.177 87.0463C228.7 86.7383 229.283 86.5843 229.927 86.5843C230.599 86.5843 231.192 86.7383 231.705 87.0463C232.219 87.3449 232.625 87.7696 232.923 88.3203C233.222 88.8709 233.371 89.5289 233.371 90.2943C233.371 91.0316 233.217 91.6803 232.909 92.2403C232.611 92.7909 232.2 93.2203 231.677 93.5283C231.164 93.8269 230.571 93.9763 229.899 93.9763ZM229.913 93.1363C230.352 93.1363 230.753 93.0289 231.117 92.8143C231.491 92.5996 231.789 92.2823 232.013 91.8623C232.247 91.4329 232.363 90.9056 232.363 90.2803C232.363 89.6456 232.251 89.1183 232.027 88.6983C231.803 88.2783 231.505 87.9656 231.131 87.7603C230.767 87.5456 230.366 87.4383 229.927 87.4383C229.507 87.4383 229.111 87.5456 228.737 87.7603C228.364 87.9749 228.061 88.2923 227.827 88.7123C227.603 89.1229 227.491 89.6456 227.491 90.2803C227.491 90.9056 227.603 91.4329 227.827 91.8623C228.051 92.2823 228.345 92.5996 228.709 92.8143C229.083 93.0289 229.484 93.1363 229.913 93.1363Z" fill="#A0A0A0"/>
<path d="M126.142 75.7985L136.15 53.1905H122.326V50.5985H139.246V52.8665L129.346 75.7985H126.142ZM155.688 76.2305C153.936 76.2305 152.424 75.8225 151.152 75.0065C149.88 74.1665 148.896 73.0385 148.2 71.6225C147.504 70.2065 147.156 68.6225 147.156 66.8705C147.156 65.0945 147.504 63.4985 148.2 62.0825C148.896 60.6665 149.904 59.5505 151.224 58.7345C152.544 57.9185 154.128 57.5105 155.976 57.5105C157.584 57.5105 158.928 57.8465 160.008 58.5185C161.112 59.1905 161.952 59.9825 162.528 60.8945V50.4185H165.552V75.7985H162.996L162.708 72.4865H162.6C162.12 73.2785 161.532 73.9505 160.836 74.5025C160.14 75.0545 159.36 75.4865 158.496 75.7985C157.632 76.0865 156.696 76.2305 155.688 76.2305ZM156.3 73.6025C157.548 73.6025 158.628 73.3265 159.54 72.7745C160.476 72.1985 161.196 71.4065 161.7 70.3985C162.204 69.3905 162.456 68.2145 162.456 66.8705C162.456 65.5265 162.204 64.3505 161.7 63.3425C161.196 62.3345 160.476 61.5545 159.54 61.0025C158.628 60.4265 157.548 60.1385 156.3 60.1385C155.076 60.1385 154.008 60.4265 153.096 61.0025C152.184 61.5545 151.476 62.3345 150.972 63.3425C150.468 64.3505 150.216 65.5265 150.216 66.8705C150.216 68.2145 150.468 69.3905 150.972 70.3985C151.476 71.4065 152.184 72.1985 153.096 72.7745C154.008 73.3265 155.076 73.6025 156.3 73.6025ZM168.611 75.7985V57.9425H171.635V75.7985H168.611ZM170.123 54.2705C169.523 54.2705 169.019 54.0785 168.611 53.6945C168.227 53.2865 168.035 52.7705 168.035 52.1465C168.035 51.5705 168.227 51.0905 168.611 50.7065C169.019 50.2985 169.523 50.0945 170.123 50.0945C170.699 50.0945 171.191 50.2985 171.599 50.7065C172.007 51.0905 172.211 51.5825 172.211 52.1825C172.211 52.7585 172.007 53.2505 171.599 53.6585C171.191 54.0665 170.699 54.2705 170.123 54.2705ZM180.608 76.2305C179.168 76.2305 177.956 75.9785 176.972 75.4745C176.012 74.9705 175.292 74.2985 174.812 73.4585C174.356 72.6185 174.128 71.7065 174.128 70.7225C174.128 69.4985 174.44 68.4665 175.064 67.6265C175.712 66.7865 176.612 66.1505 177.764 65.7185C178.94 65.2625 180.32 65.0345 181.904 65.0345H186.728C186.728 63.8825 186.548 62.9225 186.188 62.1545C185.828 61.3865 185.312 60.8225 184.64 60.4625C183.968 60.0785 183.164 59.8865 182.228 59.8865C181.052 59.8865 180.032 60.1865 179.168 60.7865C178.304 61.3865 177.776 62.2985 177.584 63.5225H174.488C174.632 62.2265 175.064 61.1345 175.784 60.2465C176.504 59.3585 177.416 58.6865 178.52 58.2305C179.648 57.7505 180.884 57.5105 182.228 57.5105C183.932 57.5105 185.336 57.8225 186.44 58.4465C187.568 59.0465 188.396 59.8985 188.924 61.0025C189.476 62.0825 189.752 63.3545 189.752 64.8185V75.7985H187.196L186.944 72.7025H186.836C186.524 73.2545 186.152 73.7465 185.72 74.1785C185.288 74.6105 184.808 74.9825 184.28 75.2945C183.776 75.5825 183.212 75.8105 182.588 75.9785C181.964 76.1465 181.304 76.2305 180.608 76.2305ZM181.112 73.6745C182.024 73.6745 182.816 73.5065 183.488 73.1705C184.184 72.8105 184.772 72.3305 185.252 71.7305C185.732 71.1305 186.092 70.4585 186.332 69.7145C186.596 68.9465 186.728 68.1665 186.728 67.3745H182.156C180.98 67.3745 180.032 67.5185 179.312 67.8065C178.592 68.0705 178.076 68.4425 177.764 68.9225C177.452 69.4025 177.296 69.9545 177.296 70.5785C177.296 71.2025 177.44 71.7545 177.728 72.2345C178.04 72.6905 178.484 73.0505 179.06 73.3145C179.636 73.5545 180.32 73.6745 181.112 73.6745ZM198.823 76.2305C197.407 76.2305 196.135 75.9905 195.007 75.5105C193.879 75.0065 192.967 74.3105 192.271 73.4225C191.599 72.5105 191.179 71.4425 191.011 70.2185H194.107C194.251 70.8185 194.503 71.3945 194.863 71.9465C195.223 72.4985 195.727 72.9545 196.375 73.3145C197.047 73.6505 197.875 73.8185 198.859 73.8185C199.723 73.8185 200.431 73.6985 200.983 73.4585C201.535 73.1945 201.943 72.8585 202.207 72.4505C202.471 72.0185 202.603 71.5625 202.603 71.0825C202.603 70.4345 202.423 69.9185 202.063 69.5345C201.727 69.1505 201.211 68.8265 200.515 68.5625C199.843 68.2985 199.039 68.0465 198.103 67.8065C197.383 67.6145 196.651 67.3985 195.907 67.1585C195.163 66.8945 194.479 66.5825 193.855 66.2225C193.255 65.8625 192.763 65.3945 192.379 64.8185C192.019 64.2425 191.839 63.5225 191.839 62.6585C191.839 61.6985 192.103 60.8345 192.631 60.0665C193.159 59.2745 193.903 58.6505 194.863 58.1945C195.847 57.7385 196.999 57.5105 198.319 57.5105C200.215 57.5105 201.763 57.9785 202.963 58.9145C204.187 59.8505 204.895 61.2065 205.087 62.9825H202.099C202.003 61.9985 201.619 61.2425 200.947 60.7145C200.299 60.1625 199.411 59.8865 198.283 59.8865C197.179 59.8865 196.327 60.1265 195.727 60.6065C195.151 61.0865 194.863 61.6865 194.863 62.4065C194.863 62.8865 195.007 63.2945 195.295 63.6305C195.607 63.9425 196.075 64.2185 196.699 64.4585C197.347 64.6745 198.151 64.9265 199.111 65.2145C200.215 65.5265 201.259 65.8745 202.243 66.2585C203.251 66.6425 204.067 67.1705 204.691 67.8425C205.339 68.5145 205.663 69.4385 205.663 70.6145C205.687 71.6945 205.411 72.6665 204.835 73.5305C204.283 74.3705 203.491 75.0305 202.459 75.5105C201.451 75.9905 200.239 76.2305 198.823 76.2305Z" fill="#101C2E"/>
<path d="M64.0306 31.4191C86.0469 29.6684 105.316 46.096 107.076 68.1176C108.837 90.1393 92.4224 109.421 70.4079 111.192C48.3789 112.964 29.0871 96.5326 27.3254 74.4967C25.5639 52.4608 42.0001 33.1711 64.0306 31.4191Z" fill="#FB520F"/>
<path d="M54.5699 48.7043C57.7806 48.2739 58.4559 50.5577 58.4898 53.1916C64.1209 53.0218 70.3979 53.1577 76.0523 53.1789C76.0526 51.9173 75.9269 50.595 76.8365 49.6106C77.3956 49.0171 78.1699 48.6727 78.9849 48.6555C79.7851 48.6427 80.5563 48.9572 81.1187 49.5266C82.1569 50.5714 82.0645 51.8359 82.0465 53.1721C85.3791 53.1379 89.6873 52.4496 90.232 56.9543C90.3805 58.1833 90.3225 59.5221 90.3219 60.7649L90.315 67.0823L90.3326 88.3811C90.3297 90.0702 90.3982 91.5729 89.1021 92.7834C87.6496 94.1398 86.1502 93.9152 84.3121 93.9094L83.106 93.9153L58.9156 93.9143L51.7818 93.9153C49.2105 93.9145 46.1937 94.4459 44.7525 91.9787C43.8734 90.4735 44.0925 88.4664 44.0914 86.7698L44.0963 80.3108L44.1051 58.0657C44.1597 52.5042 48.2905 53.138 52.3267 53.1809C52.2952 50.8198 52.1898 49.8166 54.5699 48.7043ZM45.5162 82.012L45.5308 87.1565C45.5329 88.4188 45.4086 90.0942 45.8619 91.3176C45.9887 91.6594 46.6181 92.1313 46.9303 92.3342C47.3323 92.5956 47.9423 92.5561 48.4097 92.5881C51.4714 92.5602 54.5308 92.5512 57.5924 92.553L77.6969 92.5618C79.6275 92.5564 81.5583 92.5623 83.4888 92.5793C85.0782 92.5887 86.8747 92.9021 88.1275 91.8518C89.1421 90.5591 88.8686 88.8147 88.8687 87.217L88.8629 81.6116L88.859 64.3225L61.7047 64.3039C56.4307 64.3172 50.7593 64.4218 45.5084 64.2864L45.5162 82.012ZM58.5806 54.4534C58.5082 55.9691 58.5249 57.3075 57.3111 58.4485C55.9945 59.686 54.2894 59.4566 53.1138 58.1584C52.1337 57.0761 52.3044 55.8467 52.3004 54.4895L50.6441 54.4954C48.2282 54.4821 47.3093 54.1232 45.6627 56.1311C45.4623 57.5585 45.4744 61.4681 45.5396 63.0539L88.8736 63.052C88.8799 61.4457 88.8778 59.8389 88.8678 58.2327C88.8661 57.0998 88.9444 56.2233 88.0748 55.3108C86.9589 54.14 83.766 54.5708 82.0377 54.5383C82.0385 55.2387 82.0832 56.1636 81.9517 56.8381C81.4811 59.2512 78.4646 59.9857 76.816 58.2063C75.8417 57.1543 76.0319 55.8609 76.0387 54.5266L64.4478 54.5403C62.8108 54.5396 60.1671 54.5989 58.5806 54.4534ZM54.9918 49.9631C53.4591 50.5381 53.6271 51.4821 53.6129 52.9807C53.6 54.3318 53.5344 55.8457 53.9205 57.135C54.1911 57.9364 55.0756 57.9142 55.7681 57.9123C56.3116 57.7112 56.5197 57.61 56.9303 57.1907C57.2757 55.498 57.0716 53.4749 57.065 51.7463C57.0611 50.731 56.5731 50.1653 55.566 49.9983C55.3764 49.967 55.1836 49.9548 54.9918 49.9631ZM78.8062 49.9778C77.3664 50.3992 77.2509 51.3609 77.4 52.7639C77.636 54.9857 76.4575 57.9495 79.4947 57.8811C81.4353 57.1163 80.4897 53.7769 80.7095 52.0344C80.8784 50.6954 80.1211 50.055 78.8062 49.9778Z" fill="#F6F5F5"/>
<path d="M78.2061 69.4012C79.982 69.4394 81.7817 69.4023 83.5797 69.4417C83.6111 71.1369 83.6232 72.8323 83.6157 74.5277C82.1131 74.435 79.7466 74.5036 78.1805 74.501C78.1331 72.8861 78.1919 71.0332 78.2061 69.4012Z" fill="white"/>
<path d="M71.2639 69.3861C73.044 69.4347 75.0034 69.3962 76.7978 69.3986C76.8136 71.1041 76.8131 72.8097 76.7964 74.5153C75.0889 74.4355 73.002 74.4901 71.2666 74.4899L71.2639 69.3861Z" fill="white"/>
<path d="M64.4503 75.7558C65.1256 75.8572 69.0003 75.8164 69.8884 75.8265L69.9178 80.9426C68.1017 80.925 66.2855 80.9232 64.4694 80.9372C64.4036 79.3135 64.4506 77.401 64.4503 75.7558Z" fill="white"/>
<path d="M71.2557 75.7558C71.931 75.8572 75.8057 75.8164 76.6938 75.8265L76.7232 80.9426C74.9071 80.925 73.091 80.9232 71.2749 80.9372C71.209 79.3135 71.256 77.401 71.2557 75.7558Z" fill="white"/>
<path d="M64.4664 69.4178C66.1051 69.4905 68.2303 69.4151 69.9047 69.4037C69.911 70.117 70.0183 74.1901 69.7936 74.4808C68.0818 74.4851 66.1517 74.4495 64.4586 74.536C64.4448 72.8582 64.5276 71.0836 64.4664 69.4178Z" fill="white"/>
<path d="M57.5699 75.7492C59.2163 75.8162 61.378 75.7551 63.0575 75.7636C63.0777 77.4874 63.0849 79.2113 63.0792 80.9352L57.6005 80.9171C57.5124 79.3007 57.5521 77.3711 57.5699 75.7492Z" fill="white"/>
<path d="M56.0565 75.8029L56.1671 75.8924C56.262 77.4124 56.2092 79.3762 56.2091 80.9291C54.486 80.9106 52.7627 80.9087 51.0396 80.9233L50.8789 80.8842C50.6968 80.5194 50.8052 76.5242 50.8131 75.8227C52.4811 75.8646 54.371 75.8112 56.0565 75.8029Z" fill="white"/>
</svg>
