<svg width="264" height="28" viewBox="0 0 264 28" fill="none" xmlns="http://www.w3.org/2000/svg">
<rect width="263.2" height="28" rx="7.51321" fill="white"/>
<circle cx="10.973" cy="13.9999" r="4.97301" fill="#FF4000"/>
<mask id="mask0_241_730" style="mask-type:alpha" maskUnits="userSpaceOnUse" x="7" y="10" width="8" height="8">
<rect x="7.63916" y="10.666" width="6.66745" height="6.66745" fill="#D9D9D9"/>
</mask>
<g mask="url(#mask0_241_730)">
<path d="M10.2925 15.6664L8.70898 14.0828L9.10486 13.687L10.2925 14.8746L12.8414 12.3257L13.2373 12.7216L10.2925 15.6664Z" fill="white"/>
</g>
<path d="M27.5698 18.144C26.9538 18.144 26.4138 18.036 25.9498 17.82C25.4858 17.596 25.1258 17.284 24.8698 16.884C24.6138 16.484 24.4858 16.016 24.4858 15.48H25.7458C25.7538 15.784 25.8258 16.064 25.9618 16.32C26.1058 16.568 26.3098 16.768 26.5738 16.92C26.8458 17.064 27.1778 17.136 27.5698 17.136C27.9058 17.136 28.1938 17.08 28.4338 16.968C28.6818 16.856 28.8698 16.704 28.9978 16.512C29.1258 16.312 29.1898 16.084 29.1898 15.828C29.1898 15.532 29.1218 15.288 28.9858 15.096C28.8498 14.904 28.6658 14.748 28.4338 14.628C28.2098 14.5 27.9458 14.388 27.6418 14.292C27.3458 14.196 27.0338 14.092 26.7058 13.98C26.0418 13.764 25.5458 13.484 25.2178 13.14C24.8978 12.796 24.7378 12.348 24.7378 11.796C24.7378 11.324 24.8498 10.916 25.0738 10.572C25.2978 10.22 25.6098 9.948 26.0098 9.756C26.4178 9.556 26.8978 9.456 27.4498 9.456C27.9938 9.456 28.4698 9.556 28.8778 9.756C29.2858 9.956 29.6058 10.232 29.8378 10.584C30.0698 10.936 30.1858 11.348 30.1858 11.82H28.9138C28.9138 11.604 28.8578 11.392 28.7458 11.184C28.6338 10.976 28.4658 10.808 28.2418 10.68C28.0178 10.544 27.7418 10.476 27.4138 10.476C27.1418 10.468 26.8978 10.512 26.6818 10.608C26.4658 10.704 26.2978 10.844 26.1778 11.028C26.0578 11.212 25.9978 11.432 25.9978 11.688C25.9978 11.944 26.0498 12.152 26.1538 12.312C26.2658 12.464 26.4258 12.596 26.6338 12.708C26.8418 12.82 27.0818 12.924 27.3538 13.02C27.6338 13.108 27.9418 13.208 28.2778 13.32C28.6938 13.456 29.0618 13.624 29.3818 13.824C29.7098 14.016 29.9658 14.268 30.1498 14.58C30.3418 14.884 30.4378 15.276 30.4378 15.756C30.4378 16.172 30.3298 16.56 30.1138 16.92C29.8978 17.28 29.5778 17.576 29.1538 17.808C28.7298 18.032 28.2018 18.144 27.5698 18.144ZM33.3914 18.144C32.8954 18.144 32.4834 18.06 32.1554 17.892C31.8274 17.724 31.5834 17.5 31.4234 17.22C31.2634 16.932 31.1834 16.624 31.1834 16.296C31.1834 15.896 31.2874 15.556 31.4954 15.276C31.7034 14.988 31.9994 14.768 32.3834 14.616C32.7674 14.464 33.2274 14.388 33.7634 14.388H35.3354C35.3354 14.036 35.2834 13.744 35.1794 13.512C35.0754 13.28 34.9194 13.108 34.7114 12.996C34.5114 12.876 34.2554 12.816 33.9434 12.816C33.5834 12.816 33.2754 12.904 33.0194 13.08C32.7634 13.248 32.6034 13.5 32.5394 13.836H31.3394C31.3874 13.412 31.5314 13.052 31.7714 12.756C32.0194 12.452 32.3354 12.22 32.7194 12.06C33.1034 11.892 33.5114 11.808 33.9434 11.808C34.5114 11.808 34.9874 11.908 35.3714 12.108C35.7554 12.308 36.0434 12.592 36.2354 12.96C36.4354 13.32 36.5354 13.752 36.5354 14.256V18H35.4914L35.3954 16.98C35.3074 17.14 35.2034 17.292 35.0834 17.436C34.9634 17.58 34.8194 17.704 34.6514 17.808C34.4914 17.912 34.3034 17.992 34.0874 18.048C33.8794 18.112 33.6474 18.144 33.3914 18.144ZM33.6194 17.172C33.8754 17.172 34.1074 17.12 34.3154 17.016C34.5234 16.912 34.6994 16.772 34.8434 16.596C34.9954 16.412 35.1074 16.208 35.1794 15.984C35.2594 15.752 35.3034 15.516 35.3114 15.276V15.24H33.8834C33.5394 15.24 33.2594 15.284 33.0434 15.372C32.8354 15.452 32.6834 15.564 32.5874 15.708C32.4914 15.852 32.4434 16.02 32.4434 16.212C32.4434 16.412 32.4874 16.584 32.5754 16.728C32.6714 16.864 32.8074 16.972 32.9834 17.052C33.1594 17.132 33.3714 17.172 33.6194 17.172ZM39.8697 18.144C39.3977 18.144 38.9857 18.048 38.6337 17.856C38.2897 17.664 38.0217 17.376 37.8297 16.992C37.6457 16.608 37.5537 16.124 37.5537 15.54V11.952H38.7537V15.408C38.7537 15.976 38.8777 16.404 39.1257 16.692C39.3737 16.98 39.7297 17.124 40.1937 17.124C40.5057 17.124 40.7857 17.048 41.0337 16.896C41.2897 16.744 41.4897 16.524 41.6337 16.236C41.7777 15.948 41.8497 15.596 41.8497 15.18V11.952H43.0497V18H41.9817L41.8977 16.968C41.7137 17.336 41.4457 17.624 41.0937 17.832C40.7417 18.04 40.3337 18.144 39.8697 18.144ZM39.0777 11.436L38.9577 10.608L41.4417 9.084L41.5977 10.068L39.0777 11.436ZM46.9632 18.144C46.3872 18.144 45.8792 18.008 45.4392 17.736C44.9992 17.456 44.6552 17.08 44.4072 16.608C44.1672 16.128 44.0472 15.584 44.0472 14.976C44.0472 14.36 44.1672 13.816 44.4072 13.344C44.6552 12.872 44.9992 12.5 45.4392 12.228C45.8872 11.948 46.3992 11.808 46.9752 11.808C47.4472 11.808 47.8632 11.904 48.2232 12.096C48.5832 12.28 48.8632 12.544 49.0632 12.888V9.36H50.2632V18H49.1832L49.0632 17.064C48.9432 17.248 48.7872 17.424 48.5952 17.592C48.4032 17.752 48.1712 17.884 47.8992 17.988C47.6272 18.092 47.3152 18.144 46.9632 18.144ZM47.1552 17.1C47.5312 17.1 47.8632 17.012 48.1512 16.836C48.4392 16.66 48.6592 16.412 48.8112 16.092C48.9712 15.772 49.0512 15.4 49.0512 14.976C49.0512 14.552 48.9712 14.184 48.8112 13.872C48.6592 13.552 48.4392 13.304 48.1512 13.128C47.8632 12.944 47.5312 12.852 47.1552 12.852C46.7952 12.852 46.4712 12.944 46.1832 13.128C45.8952 13.304 45.6712 13.552 45.5112 13.872C45.3512 14.184 45.2712 14.552 45.2712 14.976C45.2712 15.4 45.3512 15.772 45.5112 16.092C45.6712 16.412 45.8952 16.66 46.1832 16.836C46.4712 17.012 46.7952 17.1 47.1552 17.1ZM54.2227 18.144C53.6467 18.144 53.1347 18.012 52.6867 17.748C52.2387 17.484 51.8867 17.116 51.6307 16.644C51.3827 16.172 51.2587 15.624 51.2587 15C51.2587 14.36 51.3827 13.804 51.6307 13.332C51.8867 12.852 52.2387 12.48 52.6867 12.216C53.1347 11.944 53.6547 11.808 54.2467 11.808C54.8387 11.808 55.3467 11.94 55.7707 12.204C56.1947 12.468 56.5227 12.82 56.7547 13.26C56.9867 13.692 57.1027 14.172 57.1027 14.7C57.1027 14.78 57.0987 14.868 57.0907 14.964C57.0907 15.052 57.0867 15.152 57.0787 15.264H52.1347V14.412H55.9027C55.8787 13.908 55.7107 13.516 55.3987 13.236C55.0867 12.948 54.6987 12.804 54.2347 12.804C53.9067 12.804 53.6067 12.88 53.3347 13.032C53.0627 13.176 52.8427 13.392 52.6747 13.68C52.5147 13.96 52.4347 14.316 52.4347 14.748V15.084C52.4347 15.532 52.5147 15.912 52.6747 16.224C52.8427 16.528 53.0627 16.76 53.3347 16.92C53.6067 17.072 53.9027 17.148 54.2227 17.148C54.6067 17.148 54.9227 17.064 55.1707 16.896C55.4187 16.728 55.6027 16.5 55.7227 16.212H56.9227C56.8187 16.58 56.6427 16.912 56.3947 17.208C56.1467 17.496 55.8387 17.724 55.4707 17.892C55.1107 18.06 54.6947 18.144 54.2227 18.144ZM60.7315 18V9.6H65.9515V10.584H61.9315V13.308H65.2915V14.268H61.9315V18H60.7315ZM68.3167 18.144C67.8207 18.144 67.4087 18.06 67.0807 17.892C66.7527 17.724 66.5087 17.5 66.3487 17.22C66.1887 16.932 66.1087 16.624 66.1087 16.296C66.1087 15.896 66.2127 15.556 66.4207 15.276C66.6287 14.988 66.9247 14.768 67.3087 14.616C67.6927 14.464 68.1527 14.388 68.6887 14.388H70.2607C70.2607 14.036 70.2087 13.744 70.1047 13.512C70.0007 13.28 69.8447 13.108 69.6367 12.996C69.4367 12.876 69.1807 12.816 68.8687 12.816C68.5087 12.816 68.2007 12.904 67.9447 13.08C67.6887 13.248 67.5287 13.5 67.4647 13.836H66.2647C66.3127 13.412 66.4567 13.052 66.6967 12.756C66.9447 12.452 67.2607 12.22 67.6447 12.06C68.0287 11.892 68.4367 11.808 68.8687 11.808C69.4367 11.808 69.9127 11.908 70.2967 12.108C70.6807 12.308 70.9687 12.592 71.1607 12.96C71.3607 13.32 71.4607 13.752 71.4607 14.256V18H70.4167L70.3207 16.98C70.2327 17.14 70.1287 17.292 70.0087 17.436C69.8887 17.58 69.7447 17.704 69.5767 17.808C69.4167 17.912 69.2287 17.992 69.0127 18.048C68.8047 18.112 68.5727 18.144 68.3167 18.144ZM68.5447 17.172C68.8007 17.172 69.0327 17.12 69.2407 17.016C69.4487 16.912 69.6247 16.772 69.7687 16.596C69.9207 16.412 70.0327 16.208 70.1047 15.984C70.1847 15.752 70.2287 15.516 70.2367 15.276V15.24H68.8087C68.4647 15.24 68.1847 15.284 67.9687 15.372C67.7607 15.452 67.6087 15.564 67.5127 15.708C67.4167 15.852 67.3687 16.02 67.3687 16.212C67.3687 16.412 67.4127 16.584 67.5007 16.728C67.5967 16.864 67.7327 16.972 67.9087 17.052C68.0847 17.132 68.2967 17.172 68.5447 17.172ZM72.5749 18V11.952H73.6549L73.7389 12.804C73.9309 12.492 74.1869 12.248 74.5069 12.072C74.8269 11.896 75.1869 11.808 75.5869 11.808C75.8909 11.808 76.1669 11.852 76.4149 11.94C76.6629 12.02 76.8829 12.144 77.0749 12.312C77.2669 12.48 77.4229 12.688 77.5429 12.936C77.7589 12.584 78.0469 12.308 78.4069 12.108C78.7749 11.908 79.1629 11.808 79.5709 11.808C80.0589 11.808 80.4789 11.908 80.8309 12.108C81.1829 12.3 81.4509 12.592 81.6349 12.984C81.8189 13.368 81.9109 13.848 81.9109 14.424V18H80.7229V14.544C80.7229 13.984 80.6069 13.56 80.3749 13.272C80.1509 12.984 79.8189 12.84 79.3789 12.84C79.0829 12.84 78.8189 12.916 78.5869 13.068C78.3549 13.22 78.1709 13.44 78.0349 13.728C77.9069 14.016 77.8429 14.368 77.8429 14.784V18H76.6429V14.544C76.6429 13.984 76.5269 13.56 76.2949 13.272C76.0709 12.984 75.7389 12.84 75.2989 12.84C75.0189 12.84 74.7629 12.916 74.5309 13.068C74.2989 13.22 74.1149 13.44 73.9789 13.728C73.8429 14.016 73.7749 14.368 73.7749 14.784V18H72.5749ZM83.1283 18V11.952H84.3283V18H83.1283ZM83.7403 10.812C83.5083 10.812 83.3163 10.74 83.1643 10.596C83.0203 10.452 82.9483 10.268 82.9483 10.044C82.9483 9.828 83.0203 9.652 83.1643 9.516C83.3163 9.372 83.5083 9.3 83.7403 9.3C83.9643 9.3 84.1523 9.372 84.3043 9.516C84.4563 9.652 84.5323 9.828 84.5323 10.044C84.5323 10.268 84.4563 10.452 84.3043 10.596C84.1523 10.74 83.9643 10.812 83.7403 10.812ZM85.6269 18V9.36H86.8269V18H85.6269ZM88.1411 18V11.952H89.3411V18H88.1411ZM88.7531 10.812C88.5211 10.812 88.3291 10.74 88.1771 10.596C88.0331 10.452 87.9611 10.268 87.9611 10.044C87.9611 9.828 88.0331 9.652 88.1771 9.516C88.3291 9.372 88.5211 9.3 88.7531 9.3C88.9771 9.3 89.1651 9.372 89.3171 9.516C89.4691 9.652 89.5451 9.828 89.5451 10.044C89.5451 10.268 89.4691 10.452 89.3171 10.596C89.1651 10.74 88.9771 10.812 88.7531 10.812ZM92.6437 18.144C92.1477 18.144 91.7357 18.06 91.4077 17.892C91.0797 17.724 90.8357 17.5 90.6757 17.22C90.5157 16.932 90.4357 16.624 90.4357 16.296C90.4357 15.896 90.5397 15.556 90.7477 15.276C90.9557 14.988 91.2517 14.768 91.6357 14.616C92.0197 14.464 92.4797 14.388 93.0157 14.388H94.5877C94.5877 14.036 94.5357 13.744 94.4317 13.512C94.3277 13.28 94.1717 13.108 93.9637 12.996C93.7637 12.876 93.5077 12.816 93.1957 12.816C92.8357 12.816 92.5277 12.904 92.2717 13.08C92.0157 13.248 91.8557 13.5 91.7917 13.836H90.5917C90.6397 13.412 90.7837 13.052 91.0237 12.756C91.2717 12.452 91.5877 12.22 91.9717 12.06C92.3557 11.892 92.7637 11.808 93.1957 11.808C93.7637 11.808 94.2397 11.908 94.6237 12.108C95.0077 12.308 95.2957 12.592 95.4877 12.96C95.6877 13.32 95.7877 13.752 95.7877 14.256V18H94.7437L94.6477 16.98C94.5597 17.14 94.4557 17.292 94.3357 17.436C94.2157 17.58 94.0717 17.704 93.9037 17.808C93.7437 17.912 93.5557 17.992 93.3397 18.048C93.1317 18.112 92.8997 18.144 92.6437 18.144ZM92.8717 17.172C93.1277 17.172 93.3597 17.12 93.5677 17.016C93.7757 16.912 93.9517 16.772 94.0957 16.596C94.2477 16.412 94.3597 16.208 94.4317 15.984C94.5117 15.752 94.5557 15.516 94.5637 15.276V15.24H93.1357C92.7917 15.24 92.5117 15.284 92.2957 15.372C92.0877 15.452 91.9357 15.564 91.8397 15.708C91.7437 15.852 91.6957 16.02 91.6957 16.212C91.6957 16.412 91.7397 16.584 91.8277 16.728C91.9237 16.864 92.0597 16.972 92.2357 17.052C92.4117 17.132 92.6237 17.172 92.8717 17.172ZM96.902 18V11.952H97.982L98.09 13.092C98.226 12.82 98.402 12.592 98.618 12.408C98.834 12.216 99.086 12.068 99.374 11.964C99.67 11.86 100.006 11.808 100.382 11.808V13.08H99.95C99.702 13.08 99.466 13.112 99.242 13.176C99.018 13.232 98.818 13.332 98.642 13.476C98.474 13.62 98.342 13.816 98.246 14.064C98.15 14.312 98.102 14.62 98.102 14.988V18H96.902Z" fill="#15191E"/>
</svg>
