<svg width="264" height="28" viewBox="0 0 264 28" fill="none" xmlns="http://www.w3.org/2000/svg">
<rect width="263.2" height="28" rx="7.51321" fill="white"/>
<circle cx="10.973" cy="13.9999" r="4.97301" fill="#FF4000"/>
<mask id="mask0_241_737" style="mask-type:alpha" maskUnits="userSpaceOnUse" x="7" y="10" width="8" height="8">
<rect x="7.63916" y="10.666" width="6.66745" height="6.66745" fill="#D9D9D9"/>
</mask>
<g mask="url(#mask0_241_737)">
<path d="M10.2925 15.6664L8.70898 14.0828L9.10486 13.687L10.2925 14.8746L12.8414 12.3257L13.2373 12.7216L10.2925 15.6664Z" fill="white"/>
</g>
<path d="M28.6018 18.144C27.7938 18.144 27.0818 17.964 26.4658 17.604C25.8578 17.236 25.3778 16.728 25.0258 16.08C24.6818 15.424 24.5098 14.664 24.5098 13.8C24.5098 12.944 24.6818 12.192 25.0258 11.544C25.3778 10.888 25.8578 10.376 26.4658 10.008C27.0818 9.64 27.7938 9.456 28.6018 9.456C29.4258 9.456 30.1458 9.64 30.7618 10.008C31.3778 10.376 31.8538 10.888 32.1898 11.544C32.5338 12.192 32.7058 12.944 32.7058 13.8C32.7058 14.664 32.5338 15.424 32.1898 16.08C31.8538 16.728 31.3778 17.236 30.7618 17.604C30.1458 17.964 29.4258 18.144 28.6018 18.144ZM28.6138 17.076C29.1898 17.076 29.6938 16.944 30.1258 16.68C30.5578 16.416 30.8898 16.04 31.1218 15.552C31.3618 15.064 31.4818 14.48 31.4818 13.8C31.4818 13.12 31.3618 12.536 31.1218 12.048C30.8898 11.56 30.5578 11.188 30.1258 10.932C29.6938 10.668 29.1898 10.536 28.6138 10.536C28.0378 10.536 27.5338 10.668 27.1018 10.932C26.6698 11.188 26.3338 11.56 26.0938 12.048C25.8538 12.536 25.7338 13.12 25.7338 13.8C25.7338 14.48 25.8538 15.064 26.0938 15.552C26.3338 16.04 26.6698 16.416 27.1018 16.68C27.5338 16.944 28.0378 17.076 28.6138 17.076ZM33.6725 20.64V11.952H34.7525L34.8725 12.888C35.0005 12.704 35.1605 12.532 35.3525 12.372C35.5445 12.204 35.7725 12.068 36.0365 11.964C36.3085 11.86 36.6245 11.808 36.9845 11.808C37.5605 11.808 38.0645 11.948 38.4965 12.228C38.9365 12.508 39.2765 12.888 39.5165 13.368C39.7645 13.84 39.8885 14.38 39.8885 14.988C39.8885 15.596 39.7645 16.14 39.5165 16.62C39.2685 17.092 38.9245 17.464 38.4845 17.736C38.0525 18.008 37.5485 18.144 36.9725 18.144C36.5005 18.144 36.0845 18.052 35.7245 17.868C35.3645 17.676 35.0805 17.412 34.8725 17.076V20.64H33.6725ZM36.7805 17.1C37.1485 17.1 37.4725 17.012 37.7525 16.836C38.0405 16.66 38.2645 16.412 38.4245 16.092C38.5925 15.772 38.6765 15.4 38.6765 14.976C38.6765 14.552 38.5925 14.184 38.4245 13.872C38.2645 13.552 38.0405 13.304 37.7525 13.128C37.4725 12.944 37.1485 12.852 36.7805 12.852C36.4045 12.852 36.0725 12.944 35.7845 13.128C35.5045 13.304 35.2845 13.552 35.1245 13.872C34.9645 14.184 34.8845 14.552 34.8845 14.976C34.8845 15.4 34.9645 15.772 35.1245 16.092C35.2845 16.412 35.5045 16.66 35.7845 16.836C36.0725 17.012 36.4045 17.1 36.7805 17.1ZM43.6323 18.144C43.0643 18.144 42.5523 18.012 42.0963 17.748C41.6483 17.484 41.2923 17.116 41.0283 16.644C40.7723 16.164 40.6443 15.612 40.6443 14.988C40.6443 14.348 40.7763 13.792 41.0403 13.32C41.3043 12.84 41.6643 12.468 42.1203 12.204C42.5763 11.94 43.0883 11.808 43.6563 11.808C44.2323 11.808 44.7443 11.94 45.1923 12.204C45.6403 12.468 45.9923 12.836 46.2483 13.308C46.5123 13.78 46.6443 14.336 46.6443 14.976C46.6443 15.616 46.5123 16.172 46.2483 16.644C45.9923 17.116 45.6363 17.484 45.1803 17.748C44.7243 18.012 44.2083 18.144 43.6323 18.144ZM43.6323 17.112C43.9603 17.112 44.2563 17.032 44.5203 16.872C44.7923 16.712 45.0083 16.476 45.1683 16.164C45.3363 15.844 45.4203 15.448 45.4203 14.976C45.4203 14.504 45.3403 14.112 45.1803 13.8C45.0203 13.48 44.8043 13.24 44.5323 13.08C44.2683 12.92 43.9763 12.84 43.6563 12.84C43.3363 12.84 43.0403 12.92 42.7683 13.08C42.4963 13.24 42.2763 13.48 42.1083 13.8C41.9483 14.112 41.8683 14.504 41.8683 14.976C41.8683 15.448 41.9483 15.844 42.1083 16.164C42.2763 16.476 42.4923 16.712 42.7563 16.872C43.0283 17.032 43.3203 17.112 43.6323 17.112ZM47.6385 18V11.952H48.7185L48.8265 13.092C48.9625 12.82 49.1385 12.592 49.3545 12.408C49.5705 12.216 49.8225 12.068 50.1105 11.964C50.4065 11.86 50.7425 11.808 51.1185 11.808V13.08H50.6865C50.4385 13.08 50.2025 13.112 49.9785 13.176C49.7545 13.232 49.5545 13.332 49.3785 13.476C49.2105 13.62 49.0785 13.816 48.9825 14.064C48.8865 14.312 48.8385 14.62 48.8385 14.988V18H47.6385ZM54.2991 18C53.9151 18 53.5831 17.94 53.3031 17.82C53.0231 17.7 52.8071 17.5 52.6551 17.22C52.5031 16.94 52.4271 16.56 52.4271 16.08V12.972H51.3831V11.952H52.4271L52.5711 10.44H53.6271V11.952H55.3431V12.972H53.6271V16.092C53.6271 16.436 53.6991 16.672 53.8431 16.8C53.9871 16.92 54.2351 16.98 54.5871 16.98H55.2831V18H54.2991ZM58.469 18.144C57.997 18.144 57.585 18.048 57.233 17.856C56.889 17.664 56.621 17.376 56.429 16.992C56.245 16.608 56.153 16.124 56.153 15.54V11.952H57.353V15.408C57.353 15.976 57.477 16.404 57.725 16.692C57.973 16.98 58.329 17.124 58.793 17.124C59.105 17.124 59.385 17.048 59.633 16.896C59.889 16.744 60.089 16.524 60.233 16.236C60.377 15.948 60.449 15.596 60.449 15.18V11.952H61.649V18H60.581L60.497 16.968C60.313 17.336 60.045 17.624 59.693 17.832C59.341 18.04 58.933 18.144 58.469 18.144ZM62.8746 18V11.952H63.9546L64.0266 12.984C64.2186 12.624 64.4906 12.34 64.8426 12.132C65.1946 11.916 65.5986 11.808 66.0546 11.808C66.5346 11.808 66.9466 11.904 67.2906 12.096C67.6346 12.288 67.9026 12.58 68.0946 12.972C68.2866 13.356 68.3826 13.84 68.3826 14.424V18H67.1826V14.544C67.1826 13.984 67.0586 13.56 66.8106 13.272C66.5626 12.984 66.2026 12.84 65.7306 12.84C65.4186 12.84 65.1386 12.916 64.8906 13.068C64.6426 13.212 64.4426 13.428 64.2906 13.716C64.1466 14.004 64.0746 14.356 64.0746 14.772V18H62.8746ZM69.5842 18V11.952H70.7842V18H69.5842ZM70.1962 10.812C69.9642 10.812 69.7722 10.74 69.6202 10.596C69.4762 10.452 69.4042 10.268 69.4042 10.044C69.4042 9.828 69.4762 9.652 69.6202 9.516C69.7722 9.372 69.9642 9.3 70.1962 9.3C70.4202 9.3 70.6082 9.372 70.7602 9.516C70.9122 9.652 70.9882 9.828 70.9882 10.044C70.9882 10.268 70.9122 10.452 70.7602 10.596C70.6082 10.74 70.4202 10.812 70.1962 10.812ZM74.7708 18.144C74.1948 18.144 73.6868 18.008 73.2468 17.736C72.8068 17.456 72.4628 17.08 72.2148 16.608C71.9748 16.128 71.8548 15.584 71.8548 14.976C71.8548 14.36 71.9748 13.816 72.2148 13.344C72.4628 12.872 72.8068 12.5 73.2468 12.228C73.6948 11.948 74.2068 11.808 74.7828 11.808C75.2548 11.808 75.6708 11.904 76.0308 12.096C76.3908 12.28 76.6708 12.544 76.8708 12.888V9.36H78.0708V18H76.9908L76.8708 17.064C76.7508 17.248 76.5948 17.424 76.4028 17.592C76.2108 17.752 75.9788 17.884 75.7068 17.988C75.4348 18.092 75.1228 18.144 74.7708 18.144ZM74.9628 17.1C75.3388 17.1 75.6708 17.012 75.9588 16.836C76.2468 16.66 76.4668 16.412 76.6188 16.092C76.7788 15.772 76.8588 15.4 76.8588 14.976C76.8588 14.552 76.7788 14.184 76.6188 13.872C76.4668 13.552 76.2468 13.304 75.9588 13.128C75.6708 12.944 75.3388 12.852 74.9628 12.852C74.6028 12.852 74.2788 12.944 73.9908 13.128C73.7028 13.304 73.4788 13.552 73.3188 13.872C73.1588 14.184 73.0788 14.552 73.0788 14.976C73.0788 15.4 73.1588 15.772 73.3188 16.092C73.4788 16.412 73.7028 16.66 73.9908 16.836C74.2788 17.012 74.6028 17.1 74.9628 17.1ZM81.2983 18.144C80.8023 18.144 80.3903 18.06 80.0623 17.892C79.7343 17.724 79.4903 17.5 79.3303 17.22C79.1703 16.932 79.0903 16.624 79.0903 16.296C79.0903 15.896 79.1943 15.556 79.4023 15.276C79.6103 14.988 79.9063 14.768 80.2903 14.616C80.6743 14.464 81.1343 14.388 81.6703 14.388H83.2423C83.2423 14.036 83.1903 13.744 83.0863 13.512C82.9823 13.28 82.8263 13.108 82.6183 12.996C82.4183 12.876 82.1623 12.816 81.8503 12.816C81.4903 12.816 81.1823 12.904 80.9263 13.08C80.6703 13.248 80.5103 13.5 80.4463 13.836H79.2463C79.2943 13.412 79.4383 13.052 79.6783 12.756C79.9263 12.452 80.2423 12.22 80.6263 12.06C81.0103 11.892 81.4183 11.808 81.8503 11.808C82.4183 11.808 82.8943 11.908 83.2783 12.108C83.6623 12.308 83.9503 12.592 84.1423 12.96C84.3423 13.32 84.4423 13.752 84.4423 14.256V18H83.3983L83.3023 16.98C83.2143 17.14 83.1103 17.292 82.9903 17.436C82.8703 17.58 82.7263 17.704 82.5583 17.808C82.3983 17.912 82.2103 17.992 81.9943 18.048C81.7863 18.112 81.5543 18.144 81.2983 18.144ZM81.5263 17.172C81.7823 17.172 82.0143 17.12 82.2223 17.016C82.4303 16.912 82.6063 16.772 82.7503 16.596C82.9023 16.412 83.0143 16.208 83.0863 15.984C83.1663 15.752 83.2103 15.516 83.2183 15.276V15.24H81.7903C81.4463 15.24 81.1663 15.284 80.9503 15.372C80.7423 15.452 80.5903 15.564 80.4943 15.708C80.3983 15.852 80.3503 16.02 80.3503 16.212C80.3503 16.412 80.3943 16.584 80.4823 16.728C80.5783 16.864 80.7143 16.972 80.8903 17.052C81.0663 17.132 81.2783 17.172 81.5263 17.172ZM88.2445 18.144C87.6685 18.144 87.1605 18.008 86.7205 17.736C86.2805 17.456 85.9365 17.08 85.6885 16.608C85.4485 16.128 85.3285 15.584 85.3285 14.976C85.3285 14.36 85.4485 13.816 85.6885 13.344C85.9365 12.872 86.2805 12.5 86.7205 12.228C87.1685 11.948 87.6805 11.808 88.2565 11.808C88.7285 11.808 89.1445 11.904 89.5045 12.096C89.8645 12.28 90.1445 12.544 90.3445 12.888V9.36H91.5445V18H90.4645L90.3445 17.064C90.2245 17.248 90.0685 17.424 89.8765 17.592C89.6845 17.752 89.4525 17.884 89.1805 17.988C88.9085 18.092 88.5965 18.144 88.2445 18.144ZM88.4365 17.1C88.8125 17.1 89.1445 17.012 89.4325 16.836C89.7205 16.66 89.9405 16.412 90.0925 16.092C90.2525 15.772 90.3325 15.4 90.3325 14.976C90.3325 14.552 90.2525 14.184 90.0925 13.872C89.9405 13.552 89.7205 13.304 89.4325 13.128C89.1445 12.944 88.8125 12.852 88.4365 12.852C88.0765 12.852 87.7525 12.944 87.4645 13.128C87.1765 13.304 86.9525 13.552 86.7925 13.872C86.6325 14.184 86.5525 14.552 86.5525 14.976C86.5525 15.4 86.6325 15.772 86.7925 16.092C86.9525 16.412 87.1765 16.66 87.4645 16.836C87.7525 17.012 88.0765 17.1 88.4365 17.1ZM95.5041 18.144C94.9281 18.144 94.4161 18.012 93.9681 17.748C93.5201 17.484 93.1681 17.116 92.9121 16.644C92.6641 16.172 92.5401 15.624 92.5401 15C92.5401 14.36 92.6641 13.804 92.9121 13.332C93.1681 12.852 93.5201 12.48 93.9681 12.216C94.4161 11.944 94.9361 11.808 95.5281 11.808C96.1201 11.808 96.6281 11.94 97.0521 12.204C97.4761 12.468 97.8041 12.82 98.0361 13.26C98.2681 13.692 98.3841 14.172 98.3841 14.7C98.3841 14.78 98.3801 14.868 98.3721 14.964C98.3721 15.052 98.3681 15.152 98.3601 15.264H93.4161V14.412H97.1841C97.1601 13.908 96.9921 13.516 96.6801 13.236C96.3681 12.948 95.9801 12.804 95.5161 12.804C95.1881 12.804 94.8881 12.88 94.6161 13.032C94.3441 13.176 94.1241 13.392 93.9561 13.68C93.7961 13.96 93.7161 14.316 93.7161 14.748V15.084C93.7161 15.532 93.7961 15.912 93.9561 16.224C94.1241 16.528 94.3441 16.76 94.6161 16.92C94.8881 17.072 95.1841 17.148 95.5041 17.148C95.8881 17.148 96.2041 17.064 96.4521 16.896C96.7001 16.728 96.8841 16.5 97.0041 16.212H98.2041C98.1001 16.58 97.9241 16.912 97.6761 17.208C97.4281 17.496 97.1201 17.724 96.7521 17.892C96.3921 18.06 95.9761 18.144 95.5041 18.144ZM101.64 18.144C101.128 18.144 100.68 18.06 100.296 17.892C99.9119 17.724 99.6079 17.488 99.3839 17.184C99.1599 16.88 99.0239 16.524 98.9759 16.116H100.2C100.24 16.308 100.316 16.484 100.428 16.644C100.548 16.804 100.708 16.932 100.908 17.028C101.116 17.124 101.36 17.172 101.64 17.172C101.904 17.172 102.12 17.136 102.288 17.064C102.464 16.984 102.592 16.88 102.672 16.752C102.752 16.616 102.792 16.472 102.792 16.32C102.792 16.096 102.736 15.928 102.624 15.816C102.52 15.696 102.36 15.604 102.144 15.54C101.936 15.468 101.684 15.404 101.388 15.348C101.108 15.3 100.836 15.236 100.572 15.156C100.316 15.068 100.084 14.96 99.8759 14.832C99.6759 14.704 99.5159 14.544 99.3959 14.352C99.2759 14.152 99.2159 13.908 99.2159 13.62C99.2159 13.276 99.3079 12.968 99.4919 12.696C99.6759 12.416 99.9359 12.2 100.272 12.048C100.616 11.888 101.02 11.808 101.484 11.808C102.156 11.808 102.696 11.968 103.104 12.288C103.512 12.608 103.752 13.06 103.824 13.644H102.66C102.628 13.372 102.508 13.164 102.3 13.02C102.092 12.868 101.816 12.792 101.472 12.792C101.128 12.792 100.864 12.86 100.68 12.996C100.496 13.132 100.404 13.312 100.404 13.536C100.404 13.68 100.456 13.808 100.56 13.92C100.664 14.032 100.816 14.128 101.016 14.208C101.224 14.28 101.476 14.348 101.772 14.412C102.196 14.492 102.576 14.592 102.912 14.712C103.248 14.832 103.516 15.008 103.716 15.24C103.916 15.472 104.016 15.804 104.016 16.236C104.024 16.612 103.928 16.944 103.728 17.232C103.536 17.52 103.26 17.744 102.9 17.904C102.548 18.064 102.128 18.144 101.64 18.144Z" fill="#15191E"/>
</svg>
