<svg width="576" height="424" viewBox="0 0 576 424" fill="none" xmlns="http://www.w3.org/2000/svg">
<rect width="576" height="424" rx="15" fill="#E5E5EC"/>
<path d="M50.4487 76.6924C50.4487 68.4081 57.1645 61.6924 65.4487 61.6924H508.204C516.489 61.6924 523.204 68.4081 523.204 76.6924V424H50.4487V76.6924Z" fill="white"/>
<path d="M213.602 105.939V95.439H217.382C218.222 95.439 218.917 95.584 219.467 95.874C220.017 96.154 220.427 96.534 220.697 97.014C220.967 97.494 221.102 98.044 221.102 98.664C221.102 99.244 220.972 99.779 220.712 100.269C220.452 100.749 220.047 101.139 219.497 101.439C218.947 101.729 218.242 101.874 217.382 101.874H215.402V105.939H213.602ZM215.402 100.404H217.277C217.987 100.404 218.497 100.249 218.807 99.939C219.117 99.619 219.272 99.194 219.272 98.664C219.272 98.114 219.117 97.684 218.807 97.374C218.497 97.064 217.987 96.909 217.277 96.909H215.402V100.404ZM222.655 105.939V95.439H226.42C227.25 95.439 227.935 95.584 228.475 95.874C229.025 96.154 229.43 96.534 229.69 97.014C229.96 97.484 230.095 98.019 230.095 98.619C230.095 99.179 229.965 99.699 229.705 100.179C229.445 100.659 229.04 101.044 228.49 101.334C227.94 101.624 227.235 101.769 226.375 101.769H224.455V105.939H222.655ZM228.13 105.939L225.925 101.304H227.875L230.185 105.939H228.13ZM224.455 100.434H226.3C226.97 100.434 227.46 100.274 227.77 99.954C228.09 99.624 228.25 99.194 228.25 98.664C228.25 98.144 228.095 97.729 227.785 97.419C227.475 97.099 226.98 96.939 226.3 96.939H224.455V100.434ZM236.742 106.119C235.732 106.119 234.837 105.894 234.057 105.444C233.287 104.984 232.682 104.349 232.242 103.539C231.802 102.719 231.582 101.769 231.582 100.689C231.582 99.619 231.802 98.679 232.242 97.869C232.682 97.049 233.287 96.409 234.057 95.949C234.837 95.489 235.732 95.259 236.742 95.259C237.772 95.259 238.677 95.489 239.457 95.949C240.237 96.409 240.842 97.049 241.272 97.869C241.702 98.679 241.917 99.619 241.917 100.689C241.917 101.769 241.702 102.719 241.272 103.539C240.842 104.349 240.237 104.984 239.457 105.444C238.677 105.894 237.772 106.119 236.742 106.119ZM236.757 104.499C237.427 104.499 238.012 104.349 238.512 104.049C239.012 103.739 239.397 103.299 239.667 102.729C239.937 102.159 240.072 101.479 240.072 100.689C240.072 99.899 239.937 99.219 239.667 98.649C239.397 98.079 239.012 97.644 238.512 97.344C238.012 97.034 237.427 96.879 236.757 96.879C236.087 96.879 235.502 97.034 235.002 97.344C234.502 97.644 234.112 98.079 233.832 98.649C233.562 99.219 233.427 99.899 233.427 100.689C233.427 101.479 233.562 102.159 233.832 102.729C234.112 103.299 234.502 103.739 235.002 104.049C235.502 104.349 236.087 104.499 236.757 104.499ZM248.341 106.119C247.301 106.119 246.401 105.894 245.641 105.444C244.891 104.984 244.311 104.349 243.901 103.539C243.501 102.719 243.301 101.774 243.301 100.704C243.301 99.624 243.501 98.679 243.901 97.869C244.311 97.049 244.891 96.409 245.641 95.949C246.401 95.489 247.301 95.259 248.341 95.259C249.591 95.259 250.611 95.569 251.401 96.189C252.191 96.799 252.691 97.664 252.901 98.784H250.921C250.781 98.194 250.496 97.729 250.066 97.389C249.636 97.049 249.056 96.879 248.326 96.879C247.666 96.879 247.096 97.034 246.616 97.344C246.146 97.644 245.781 98.084 245.521 98.664C245.271 99.234 245.146 99.914 245.146 100.704C245.146 101.494 245.271 102.174 245.521 102.744C245.781 103.304 246.146 103.739 246.616 104.049C247.096 104.349 247.666 104.499 248.326 104.499C249.056 104.499 249.636 104.344 250.066 104.034C250.496 103.714 250.781 103.274 250.921 102.714H252.901C252.701 103.774 252.201 104.609 251.401 105.219C250.611 105.819 249.591 106.119 248.341 106.119ZM254.662 105.939V95.439H261.442V96.894H256.462V99.909H260.992V101.334H256.462V104.484H261.442V105.939H254.662ZM266.859 106.119C266.099 106.119 265.424 105.984 264.834 105.714C264.244 105.444 263.784 105.059 263.454 104.559C263.124 104.059 262.954 103.464 262.944 102.774H264.849C264.849 103.124 264.929 103.439 265.089 103.719C265.259 103.989 265.489 104.204 265.779 104.364C266.079 104.524 266.439 104.604 266.859 104.604C267.219 104.604 267.529 104.549 267.789 104.439C268.059 104.319 268.264 104.154 268.404 103.944C268.554 103.724 268.629 103.469 268.629 103.179C268.629 102.849 268.549 102.579 268.389 102.369C268.239 102.149 268.029 101.964 267.759 101.814C267.489 101.664 267.179 101.534 266.829 101.424C266.479 101.304 266.109 101.179 265.719 101.049C264.889 100.769 264.264 100.414 263.844 99.984C263.424 99.544 263.214 98.959 263.214 98.229C263.214 97.619 263.359 97.094 263.649 96.654C263.939 96.214 264.344 95.874 264.864 95.634C265.394 95.384 266.004 95.259 266.694 95.259C267.394 95.259 268.004 95.384 268.524 95.634C269.054 95.884 269.469 96.234 269.769 96.684C270.079 97.124 270.239 97.654 270.249 98.274H268.329C268.319 98.014 268.249 97.774 268.119 97.554C267.989 97.324 267.799 97.139 267.549 96.999C267.309 96.849 267.014 96.774 266.664 96.774C266.364 96.764 266.094 96.814 265.854 96.924C265.624 97.024 265.439 97.174 265.299 97.374C265.169 97.564 265.104 97.804 265.104 98.094C265.104 98.374 265.164 98.609 265.284 98.799C265.414 98.979 265.599 99.134 265.839 99.264C266.079 99.384 266.359 99.499 266.679 99.609C266.999 99.719 267.349 99.839 267.729 99.969C268.249 100.139 268.719 100.349 269.139 100.599C269.569 100.839 269.909 101.154 270.159 101.544C270.409 101.934 270.534 102.439 270.534 103.059C270.534 103.599 270.394 104.104 270.114 104.574C269.834 105.034 269.424 105.409 268.884 105.699C268.344 105.979 267.669 106.119 266.859 106.119ZM275.809 106.119C275.049 106.119 274.374 105.984 273.784 105.714C273.194 105.444 272.734 105.059 272.404 104.559C272.074 104.059 271.904 103.464 271.894 102.774H273.799C273.799 103.124 273.879 103.439 274.039 103.719C274.209 103.989 274.439 104.204 274.729 104.364C275.029 104.524 275.389 104.604 275.809 104.604C276.169 104.604 276.479 104.549 276.739 104.439C277.009 104.319 277.214 104.154 277.354 103.944C277.504 103.724 277.579 103.469 277.579 103.179C277.579 102.849 277.499 102.579 277.339 102.369C277.189 102.149 276.979 101.964 276.709 101.814C276.439 101.664 276.129 101.534 275.779 101.424C275.429 101.304 275.059 101.179 274.669 101.049C273.839 100.769 273.214 100.414 272.794 99.984C272.374 99.544 272.164 98.959 272.164 98.229C272.164 97.619 272.309 97.094 272.599 96.654C272.889 96.214 273.294 95.874 273.814 95.634C274.344 95.384 274.954 95.259 275.644 95.259C276.344 95.259 276.954 95.384 277.474 95.634C278.004 95.884 278.419 96.234 278.719 96.684C279.029 97.124 279.189 97.654 279.199 98.274H277.279C277.269 98.014 277.199 97.774 277.069 97.554C276.939 97.324 276.749 97.139 276.499 96.999C276.259 96.849 275.964 96.774 275.614 96.774C275.314 96.764 275.044 96.814 274.804 96.924C274.574 97.024 274.389 97.174 274.249 97.374C274.119 97.564 274.054 97.804 274.054 98.094C274.054 98.374 274.114 98.609 274.234 98.799C274.364 98.979 274.549 99.134 274.789 99.264C275.029 99.384 275.309 99.499 275.629 99.609C275.949 99.719 276.299 99.839 276.679 99.969C277.199 100.139 277.669 100.349 278.089 100.599C278.519 100.839 278.859 101.154 279.109 101.544C279.359 101.934 279.484 102.439 279.484 103.059C279.484 103.599 279.344 104.104 279.064 104.574C278.784 105.034 278.374 105.409 277.834 105.699C277.294 105.979 276.619 106.119 275.809 106.119ZM286.019 106.119C285.009 106.119 284.114 105.894 283.334 105.444C282.564 104.984 281.959 104.349 281.519 103.539C281.079 102.719 280.859 101.769 280.859 100.689C280.859 99.619 281.079 98.679 281.519 97.869C281.959 97.049 282.564 96.409 283.334 95.949C284.114 95.489 285.009 95.259 286.019 95.259C287.049 95.259 287.954 95.489 288.734 95.949C289.514 96.409 290.119 97.049 290.549 97.869C290.979 98.679 291.194 99.619 291.194 100.689C291.194 101.769 290.979 102.719 290.549 103.539C290.119 104.349 289.514 104.984 288.734 105.444C287.954 105.894 287.049 106.119 286.019 106.119ZM286.034 104.499C286.704 104.499 287.289 104.349 287.789 104.049C288.289 103.739 288.674 103.299 288.944 102.729C289.214 102.159 289.349 101.479 289.349 100.689C289.349 99.899 289.214 99.219 288.944 98.649C288.674 98.079 288.289 97.644 287.789 97.344C287.289 97.034 286.704 96.879 286.034 96.879C285.364 96.879 284.779 97.034 284.279 97.344C283.779 97.644 283.389 98.079 283.109 98.649C282.839 99.219 282.704 99.899 282.704 100.689C282.704 101.479 282.839 102.159 283.109 102.729C283.389 103.299 283.779 103.739 284.279 104.049C284.779 104.349 285.364 104.499 286.034 104.499ZM299.285 106.119C298.615 106.119 298.03 105.994 297.53 105.744C297.04 105.484 296.66 105.114 296.39 104.634C296.12 104.144 295.985 103.554 295.985 102.864H297.785C297.785 103.194 297.835 103.484 297.935 103.734C298.035 103.984 298.19 104.179 298.4 104.319C298.62 104.449 298.9 104.514 299.24 104.514C299.58 104.514 299.85 104.449 300.05 104.319C300.25 104.189 300.395 104.009 300.485 103.779C300.585 103.539 300.635 103.264 300.635 102.954V95.439H302.435V102.954C302.435 103.974 302.15 104.759 301.58 105.309C301.02 105.849 300.255 106.119 299.285 106.119ZM308.53 106.119C307.77 106.119 307.08 105.969 306.46 105.669C305.85 105.369 305.36 104.909 304.99 104.289C304.63 103.669 304.45 102.889 304.45 101.949V95.439H306.25V101.964C306.25 102.534 306.345 103.004 306.535 103.374C306.725 103.744 306.99 104.024 307.33 104.214C307.68 104.394 308.09 104.484 308.56 104.484C309.04 104.484 309.45 104.394 309.79 104.214C310.14 104.024 310.405 103.744 310.585 103.374C310.775 103.004 310.87 102.534 310.87 101.964V95.439H312.67V101.949C312.67 102.889 312.485 103.669 312.115 104.289C311.745 104.909 311.245 105.369 310.615 105.669C309.985 105.969 309.29 106.119 308.53 106.119ZM314.691 105.939V95.439H318.456C319.286 95.439 319.971 95.584 320.511 95.874C321.061 96.154 321.466 96.534 321.726 97.014C321.996 97.484 322.131 98.019 322.131 98.619C322.131 99.179 322.001 99.699 321.741 100.179C321.481 100.659 321.076 101.044 320.526 101.334C319.976 101.624 319.271 101.769 318.411 101.769H316.491V105.939H314.691ZM320.166 105.939L317.961 101.304H319.911L322.221 105.939H320.166ZM316.491 100.434H318.336C319.006 100.434 319.496 100.274 319.806 99.954C320.126 99.624 320.286 99.194 320.286 98.664C320.286 98.144 320.131 97.729 319.821 97.419C319.511 97.099 319.016 96.939 318.336 96.939H316.491V100.434ZM323.993 105.939V95.439H325.793V105.939H323.993ZM323.333 94.794L323.168 93.579L326.378 91.689L326.588 93.099L323.333 94.794ZM327.904 105.939V95.439H331.294C332.514 95.439 333.519 95.654 334.309 96.084C335.109 96.514 335.699 97.124 336.079 97.914C336.469 98.694 336.664 99.624 336.664 100.704C336.664 101.764 336.469 102.689 336.079 103.479C335.699 104.259 335.109 104.864 334.309 105.294C333.519 105.724 332.514 105.939 331.294 105.939H327.904ZM329.704 104.409H331.204C332.114 104.409 332.829 104.264 333.349 103.974C333.879 103.674 334.254 103.249 334.474 102.699C334.704 102.139 334.819 101.474 334.819 100.704C334.819 99.924 334.704 99.259 334.474 98.709C334.254 98.149 333.879 97.719 333.349 97.419C332.829 97.109 332.114 96.954 331.204 96.954H329.704V104.409ZM338.422 105.939V95.439H340.222V105.939H338.422ZM346.998 106.119C345.958 106.119 345.058 105.894 344.298 105.444C343.548 104.984 342.968 104.349 342.558 103.539C342.158 102.719 341.958 101.774 341.958 100.704C341.958 99.624 342.158 98.679 342.558 97.869C342.968 97.049 343.548 96.409 344.298 95.949C345.058 95.489 345.958 95.259 346.998 95.259C348.248 95.259 349.268 95.569 350.058 96.189C350.848 96.799 351.348 97.664 351.558 98.784H349.578C349.438 98.194 349.153 97.729 348.723 97.389C348.293 97.049 347.713 96.879 346.983 96.879C346.323 96.879 345.753 97.034 345.273 97.344C344.803 97.644 344.438 98.084 344.178 98.664C343.928 99.234 343.803 99.914 343.803 100.704C343.803 101.494 343.928 102.174 344.178 102.744C344.438 103.304 344.803 103.739 345.273 104.049C345.753 104.349 346.323 104.499 346.983 104.499C347.713 104.499 348.293 104.344 348.723 104.034C349.153 103.714 349.438 103.274 349.578 102.714H351.558C351.358 103.774 350.858 104.609 350.058 105.219C349.268 105.819 348.248 106.119 346.998 106.119ZM358.104 106.119C357.094 106.119 356.199 105.894 355.419 105.444C354.649 104.984 354.044 104.349 353.604 103.539C353.164 102.719 352.944 101.769 352.944 100.689C352.944 99.619 353.164 98.679 353.604 97.869C354.044 97.049 354.649 96.409 355.419 95.949C356.199 95.489 357.094 95.259 358.104 95.259C359.134 95.259 360.039 95.489 360.819 95.949C361.599 96.409 362.204 97.049 362.634 97.869C363.064 98.679 363.279 99.619 363.279 100.689C363.279 101.769 363.064 102.719 362.634 103.539C362.204 104.349 361.599 104.984 360.819 105.444C360.039 105.894 359.134 106.119 358.104 106.119ZM358.119 104.499C358.789 104.499 359.374 104.349 359.874 104.049C360.374 103.739 360.759 103.299 361.029 102.729C361.299 102.159 361.434 101.479 361.434 100.689C361.434 99.899 361.299 99.219 361.029 98.649C360.759 98.079 360.374 97.644 359.874 97.344C359.374 97.034 358.789 96.879 358.119 96.879C357.449 96.879 356.864 97.034 356.364 97.344C355.864 97.644 355.474 98.079 355.194 98.649C354.924 99.219 354.789 99.899 354.789 100.689C354.789 101.479 354.924 102.159 355.194 102.729C355.474 103.299 355.864 103.739 356.364 104.049C356.864 104.349 357.449 104.499 358.119 104.499Z" fill="#101C2E"/>
<path d="M90.278 134.363V125.963H95.702V127.127H91.718V129.539H95.342V130.679H91.718V133.199H95.702V134.363H90.278ZM97.1675 134.363V128.315H98.4395L98.5595 129.143C98.7515 128.839 99.0035 128.603 99.3155 128.435C99.6355 128.259 99.9995 128.171 100.407 128.171C100.711 128.171 100.983 128.211 101.223 128.291C101.471 128.371 101.687 128.491 101.871 128.651C102.063 128.811 102.219 129.011 102.339 129.251C102.563 128.915 102.855 128.651 103.215 128.459C103.575 128.267 103.967 128.171 104.391 128.171C104.895 128.171 105.323 128.275 105.675 128.483C106.027 128.683 106.295 128.983 106.479 129.383C106.663 129.775 106.755 130.259 106.755 130.835V134.363H105.327V130.979C105.327 130.467 105.223 130.075 105.015 129.803C104.807 129.531 104.499 129.395 104.091 129.395C103.811 129.395 103.563 129.463 103.347 129.599C103.139 129.735 102.975 129.935 102.855 130.199C102.735 130.455 102.675 130.771 102.675 131.147V134.363H101.247V130.979C101.247 130.467 101.143 130.075 100.935 129.803C100.727 129.531 100.415 129.395 99.9995 129.395C99.7355 129.395 99.4955 129.463 99.2795 129.599C99.0715 129.735 98.9075 129.935 98.7875 130.199C98.6675 130.455 98.6075 130.771 98.6075 131.147V134.363H97.1675ZM111.207 134.363V128.315H112.479L112.587 129.323C112.771 128.971 113.035 128.691 113.379 128.483C113.723 128.275 114.131 128.171 114.603 128.171C115.091 128.171 115.507 128.275 115.851 128.483C116.195 128.683 116.459 128.979 116.643 129.371C116.835 129.763 116.931 130.251 116.931 130.835V134.363H115.491V130.967C115.491 130.463 115.379 130.075 115.155 129.803C114.931 129.531 114.599 129.395 114.159 129.395C113.871 129.395 113.611 129.463 113.379 129.599C113.155 129.735 112.975 129.935 112.839 130.199C112.711 130.455 112.647 130.767 112.647 131.135V134.363H111.207ZM121.269 134.507C120.693 134.507 120.173 134.375 119.709 134.111C119.253 133.839 118.893 133.467 118.629 132.995C118.373 132.515 118.245 131.967 118.245 131.351C118.245 130.719 118.377 130.167 118.641 129.695C118.905 129.215 119.265 128.843 119.721 128.579C120.185 128.307 120.705 128.171 121.281 128.171C121.857 128.171 122.373 128.307 122.829 128.579C123.293 128.843 123.653 129.211 123.909 129.683C124.173 130.155 124.305 130.707 124.305 131.339C124.305 131.971 124.173 132.523 123.909 132.995C123.645 133.467 123.281 133.839 122.817 134.111C122.361 134.375 121.845 134.507 121.269 134.507ZM121.269 133.271C121.557 133.271 121.817 133.199 122.049 133.055C122.289 132.911 122.481 132.695 122.625 132.407C122.769 132.119 122.841 131.763 122.841 131.339C122.841 130.915 122.769 130.563 122.625 130.283C122.489 129.995 122.301 129.779 122.061 129.635C121.829 129.491 121.569 129.419 121.281 129.419C121.001 129.419 120.741 129.491 120.501 129.635C120.261 129.779 120.069 129.995 119.925 130.283C119.781 130.563 119.709 130.915 119.709 131.339C119.709 131.763 119.781 132.119 119.925 132.407C120.069 132.695 120.257 132.911 120.489 133.055C120.729 133.199 120.989 133.271 121.269 133.271ZM125.714 134.363V128.315H126.986L127.106 129.143C127.298 128.839 127.55 128.603 127.862 128.435C128.182 128.259 128.546 128.171 128.954 128.171C129.258 128.171 129.53 128.211 129.77 128.291C130.018 128.371 130.234 128.491 130.418 128.651C130.61 128.811 130.766 129.011 130.886 129.251C131.11 128.915 131.402 128.651 131.762 128.459C132.122 128.267 132.514 128.171 132.938 128.171C133.442 128.171 133.87 128.275 134.222 128.483C134.574 128.683 134.842 128.983 135.026 129.383C135.21 129.775 135.302 130.259 135.302 130.835V134.363H133.874V130.979C133.874 130.467 133.77 130.075 133.562 129.803C133.354 129.531 133.046 129.395 132.638 129.395C132.358 129.395 132.11 129.463 131.894 129.599C131.686 129.735 131.522 129.935 131.402 130.199C131.282 130.455 131.222 130.771 131.222 131.147V134.363H129.794V130.979C129.794 130.467 129.69 130.075 129.482 129.803C129.274 129.531 128.962 129.395 128.546 129.395C128.282 129.395 128.042 129.463 127.826 129.599C127.618 129.735 127.454 129.935 127.334 130.199C127.214 130.455 127.154 130.771 127.154 131.147V134.363H125.714ZM139.656 134.507C139.056 134.507 138.528 134.379 138.072 134.123C137.616 133.859 137.26 133.491 137.004 133.019C136.748 132.547 136.62 132.003 136.62 131.387C136.62 130.747 136.744 130.187 136.992 129.707C137.248 129.227 137.604 128.851 138.06 128.579C138.524 128.307 139.06 128.171 139.668 128.171C140.26 128.171 140.776 128.303 141.216 128.567C141.656 128.831 141.996 129.187 142.236 129.635C142.476 130.075 142.596 130.571 142.596 131.123C142.596 131.203 142.596 131.291 142.596 131.387C142.596 131.483 142.588 131.583 142.572 131.687H137.652V130.763H141.144C141.128 130.323 140.98 129.979 140.7 129.731C140.42 129.475 140.072 129.347 139.656 129.347C139.36 129.347 139.088 129.415 138.84 129.551C138.592 129.687 138.396 129.891 138.252 130.163C138.108 130.427 138.036 130.763 138.036 131.171V131.519C138.036 131.895 138.104 132.219 138.24 132.491C138.384 132.763 138.576 132.971 138.816 133.115C139.064 133.251 139.34 133.319 139.644 133.319C139.98 133.319 140.256 133.247 140.472 133.103C140.696 132.959 140.86 132.767 140.964 132.527H142.428C142.316 132.903 142.132 133.243 141.876 133.547C141.62 133.843 141.304 134.079 140.928 134.255C140.552 134.423 140.128 134.507 139.656 134.507ZM149.543 134.507C148.983 134.507 148.483 134.371 148.043 134.099C147.603 133.827 147.259 133.451 147.011 132.971C146.771 132.491 146.651 131.947 146.651 131.339C146.651 130.731 146.775 130.191 147.023 129.719C147.271 129.239 147.615 128.863 148.055 128.591C148.503 128.311 149.007 128.171 149.567 128.171C150.023 128.171 150.419 128.259 150.755 128.435C151.099 128.603 151.371 128.843 151.571 129.155V125.723H153.011V134.363H151.715L151.571 133.487C151.443 133.663 151.287 133.831 151.103 133.991C150.919 134.143 150.699 134.267 150.443 134.363C150.187 134.459 149.887 134.507 149.543 134.507ZM149.843 133.259C150.187 133.259 150.491 133.179 150.755 133.019C151.019 132.851 151.223 132.623 151.367 132.335C151.511 132.047 151.583 131.715 151.583 131.339C151.583 130.963 151.511 130.631 151.367 130.343C151.223 130.055 151.019 129.831 150.755 129.671C150.491 129.511 150.187 129.431 149.843 129.431C149.515 129.431 149.219 129.511 148.955 129.671C148.691 129.831 148.483 130.055 148.331 130.343C148.187 130.631 148.115 130.963 148.115 131.339C148.115 131.715 148.187 132.047 148.331 132.335C148.483 132.623 148.691 132.851 148.955 133.019C149.219 133.179 149.515 133.259 149.843 133.259ZM157.445 134.507C156.845 134.507 156.317 134.379 155.861 134.123C155.405 133.859 155.049 133.491 154.793 133.019C154.537 132.547 154.409 132.003 154.409 131.387C154.409 130.747 154.533 130.187 154.781 129.707C155.037 129.227 155.393 128.851 155.849 128.579C156.313 128.307 156.849 128.171 157.457 128.171C158.049 128.171 158.565 128.303 159.005 128.567C159.445 128.831 159.785 129.187 160.025 129.635C160.265 130.075 160.385 130.571 160.385 131.123C160.385 131.203 160.385 131.291 160.385 131.387C160.385 131.483 160.377 131.583 160.361 131.687H155.441V130.763H158.933C158.917 130.323 158.769 129.979 158.489 129.731C158.209 129.475 157.861 129.347 157.445 129.347C157.149 129.347 156.877 129.415 156.629 129.551C156.381 129.687 156.185 129.891 156.041 130.163C155.897 130.427 155.825 130.763 155.825 131.171V131.519C155.825 131.895 155.893 132.219 156.029 132.491C156.173 132.763 156.365 132.971 156.605 133.115C156.853 133.251 157.129 133.319 157.433 133.319C157.769 133.319 158.045 133.247 158.261 133.103C158.485 132.959 158.649 132.767 158.753 132.527H160.217C160.105 132.903 159.921 133.243 159.665 133.547C159.409 133.843 159.093 134.079 158.717 134.255C158.341 134.423 157.917 134.507 157.445 134.507ZM166.828 134.507C166.292 134.507 165.824 134.407 165.424 134.207C165.032 133.999 164.728 133.703 164.512 133.319C164.296 132.927 164.188 132.455 164.188 131.903H165.628C165.628 132.167 165.668 132.399 165.748 132.599C165.828 132.799 165.952 132.955 166.12 133.067C166.296 133.171 166.52 133.223 166.792 133.223C167.064 133.223 167.28 133.171 167.44 133.067C167.6 132.963 167.716 132.819 167.788 132.635C167.868 132.443 167.908 132.223 167.908 131.975V125.963H169.348V131.975C169.348 132.791 169.12 133.419 168.664 133.859C168.216 134.291 167.604 134.507 166.828 134.507ZM173.816 134.507C173.24 134.507 172.72 134.375 172.256 134.111C171.8 133.839 171.44 133.467 171.176 132.995C170.92 132.515 170.792 131.967 170.792 131.351C170.792 130.719 170.924 130.167 171.188 129.695C171.452 129.215 171.812 128.843 172.268 128.579C172.732 128.307 173.252 128.171 173.828 128.171C174.404 128.171 174.92 128.307 175.376 128.579C175.84 128.843 176.2 129.211 176.456 129.683C176.72 130.155 176.852 130.707 176.852 131.339C176.852 131.971 176.72 132.523 176.456 132.995C176.192 133.467 175.828 133.839 175.364 134.111C174.908 134.375 174.392 134.507 173.816 134.507ZM173.816 133.271C174.104 133.271 174.364 133.199 174.596 133.055C174.836 132.911 175.028 132.695 175.172 132.407C175.316 132.119 175.388 131.763 175.388 131.339C175.388 130.915 175.316 130.563 175.172 130.283C175.036 129.995 174.848 129.779 174.608 129.635C174.376 129.491 174.116 129.419 173.828 129.419C173.548 129.419 173.288 129.491 173.048 129.635C172.808 129.779 172.616 129.995 172.472 130.283C172.328 130.563 172.256 130.915 172.256 131.339C172.256 131.763 172.328 132.119 172.472 132.407C172.616 132.695 172.804 132.911 173.036 133.055C173.276 133.199 173.536 133.271 173.816 133.271ZM180.277 134.507C179.781 134.507 179.369 134.423 179.041 134.255C178.713 134.087 178.469 133.863 178.309 133.583C178.149 133.303 178.069 132.999 178.069 132.671C178.069 132.287 178.165 131.955 178.357 131.675C178.557 131.395 178.849 131.179 179.233 131.027C179.617 130.867 180.089 130.787 180.649 130.787H182.173C182.173 130.467 182.129 130.203 182.041 129.995C181.953 129.779 181.817 129.619 181.633 129.515C181.449 129.411 181.213 129.359 180.925 129.359C180.597 129.359 180.317 129.435 180.085 129.587C179.853 129.731 179.709 129.955 179.653 130.259H178.237C178.285 129.827 178.429 129.459 178.669 129.155C178.909 128.843 179.225 128.603 179.617 128.435C180.017 128.259 180.453 128.171 180.925 128.171C181.493 128.171 181.977 128.271 182.377 128.471C182.777 128.663 183.081 128.943 183.289 129.311C183.505 129.671 183.613 130.107 183.613 130.619V134.363H182.389L182.245 133.391C182.165 133.551 182.061 133.699 181.933 133.835C181.813 133.971 181.673 134.091 181.513 134.195C181.353 134.291 181.169 134.367 180.961 134.423C180.761 134.479 180.533 134.507 180.277 134.507ZM180.601 133.367C180.833 133.367 181.037 133.327 181.213 133.247C181.397 133.159 181.553 133.039 181.681 132.887C181.817 132.727 181.921 132.551 181.993 132.359C182.065 132.167 182.113 131.963 182.137 131.747V131.723H180.805C180.525 131.723 180.293 131.759 180.109 131.831C179.925 131.895 179.793 131.991 179.713 132.119C179.633 132.247 179.593 132.395 179.593 132.563C179.593 132.731 179.633 132.875 179.713 132.995C179.793 133.115 179.909 133.207 180.061 133.271C180.213 133.335 180.393 133.367 180.601 133.367ZM181.549 127.523C181.325 127.523 181.133 127.479 180.973 127.391C180.821 127.295 180.677 127.203 180.541 127.115C180.405 127.019 180.257 126.971 180.097 126.971C179.961 126.971 179.845 127.015 179.749 127.103C179.661 127.191 179.605 127.327 179.581 127.511H178.801C178.873 127.015 179.029 126.651 179.269 126.419C179.509 126.187 179.805 126.071 180.157 126.071C180.381 126.071 180.569 126.119 180.721 126.215C180.881 126.303 181.029 126.395 181.165 126.491C181.301 126.579 181.449 126.623 181.609 126.623C181.745 126.623 181.857 126.579 181.945 126.491C182.041 126.395 182.101 126.259 182.125 126.083H182.917C182.845 126.571 182.685 126.935 182.437 127.175C182.197 127.407 181.901 127.523 181.549 127.523ZM187.972 134.507C187.396 134.507 186.876 134.375 186.412 134.111C185.956 133.839 185.596 133.467 185.332 132.995C185.076 132.515 184.948 131.967 184.948 131.351C184.948 130.719 185.08 130.167 185.344 129.695C185.608 129.215 185.968 128.843 186.424 128.579C186.888 128.307 187.408 128.171 187.984 128.171C188.56 128.171 189.076 128.307 189.532 128.579C189.996 128.843 190.356 129.211 190.612 129.683C190.876 130.155 191.008 130.707 191.008 131.339C191.008 131.971 190.876 132.523 190.612 132.995C190.348 133.467 189.984 133.839 189.52 134.111C189.064 134.375 188.548 134.507 187.972 134.507ZM187.972 133.271C188.26 133.271 188.52 133.199 188.752 133.055C188.992 132.911 189.184 132.695 189.328 132.407C189.472 132.119 189.544 131.763 189.544 131.339C189.544 130.915 189.472 130.563 189.328 130.283C189.192 129.995 189.004 129.779 188.764 129.635C188.532 129.491 188.272 129.419 187.984 129.419C187.704 129.419 187.444 129.491 187.204 129.635C186.964 129.779 186.772 129.995 186.628 130.283C186.484 130.563 186.412 130.915 186.412 131.339C186.412 131.763 186.484 132.119 186.628 132.407C186.772 132.695 186.96 132.911 187.192 133.055C187.432 133.199 187.692 133.271 187.972 133.271ZM198.035 134.507C197.475 134.507 196.975 134.371 196.535 134.099C196.095 133.827 195.751 133.451 195.503 132.971C195.263 132.491 195.143 131.947 195.143 131.339C195.143 130.731 195.267 130.191 195.515 129.719C195.763 129.239 196.107 128.863 196.547 128.591C196.995 128.311 197.499 128.171 198.059 128.171C198.515 128.171 198.911 128.259 199.247 128.435C199.591 128.603 199.863 128.843 200.063 129.155V125.723H201.503V134.363H200.207L200.063 133.487C199.935 133.663 199.779 133.831 199.595 133.991C199.411 134.143 199.191 134.267 198.935 134.363C198.679 134.459 198.379 134.507 198.035 134.507ZM198.335 133.259C198.679 133.259 198.983 133.179 199.247 133.019C199.511 132.851 199.715 132.623 199.859 132.335C200.003 132.047 200.075 131.715 200.075 131.339C200.075 130.963 200.003 130.631 199.859 130.343C199.715 130.055 199.511 129.831 199.247 129.671C198.983 129.511 198.679 129.431 198.335 129.431C198.007 129.431 197.711 129.511 197.447 129.671C197.183 129.831 196.975 130.055 196.823 130.343C196.679 130.631 196.607 130.963 196.607 131.339C196.607 131.715 196.679 132.047 196.823 132.335C196.975 132.623 197.183 132.851 197.447 133.019C197.711 133.179 198.007 133.259 198.335 133.259ZM205.121 134.507C204.625 134.507 204.213 134.423 203.885 134.255C203.557 134.087 203.313 133.863 203.153 133.583C202.993 133.303 202.913 132.999 202.913 132.671C202.913 132.287 203.009 131.955 203.201 131.675C203.401 131.395 203.693 131.179 204.077 131.027C204.461 130.867 204.933 130.787 205.493 130.787H207.017C207.017 130.467 206.973 130.203 206.885 129.995C206.797 129.779 206.661 129.619 206.477 129.515C206.293 129.411 206.057 129.359 205.769 129.359C205.441 129.359 205.161 129.435 204.929 129.587C204.697 129.731 204.553 129.955 204.497 130.259H203.081C203.129 129.827 203.273 129.459 203.513 129.155C203.753 128.843 204.069 128.603 204.461 128.435C204.861 128.259 205.297 128.171 205.769 128.171C206.337 128.171 206.821 128.271 207.221 128.471C207.621 128.663 207.925 128.943 208.133 129.311C208.349 129.671 208.457 130.107 208.457 130.619V134.363H207.233L207.089 133.391C207.009 133.551 206.905 133.699 206.777 133.835C206.657 133.971 206.517 134.091 206.357 134.195C206.197 134.291 206.013 134.367 205.805 134.423C205.605 134.479 205.377 134.507 205.121 134.507ZM205.445 133.367C205.677 133.367 205.881 133.327 206.057 133.247C206.241 133.159 206.397 133.039 206.525 132.887C206.661 132.727 206.765 132.551 206.837 132.359C206.909 132.167 206.957 131.963 206.981 131.747V131.723H205.649C205.369 131.723 205.137 131.759 204.953 131.831C204.769 131.895 204.637 131.991 204.557 132.119C204.477 132.247 204.437 132.395 204.437 132.563C204.437 132.731 204.477 132.875 204.557 132.995C204.637 133.115 204.753 133.207 204.905 133.271C205.057 133.335 205.237 133.367 205.445 133.367ZM215.793 134.507C215.185 134.507 214.645 134.399 214.173 134.183C213.701 133.967 213.333 133.659 213.069 133.259C212.805 132.859 212.669 132.383 212.661 131.831H214.185C214.185 132.111 214.249 132.363 214.377 132.587C214.513 132.803 214.697 132.975 214.929 133.103C215.169 133.231 215.457 133.295 215.793 133.295C216.081 133.295 216.329 133.251 216.537 133.163C216.753 133.067 216.917 132.935 217.029 132.767C217.149 132.591 217.209 132.387 217.209 132.155C217.209 131.891 217.145 131.675 217.017 131.507C216.897 131.331 216.729 131.183 216.513 131.063C216.297 130.943 216.049 130.839 215.769 130.751C215.489 130.655 215.193 130.555 214.881 130.451C214.217 130.227 213.717 129.943 213.381 129.599C213.045 129.247 212.877 128.779 212.877 128.195C212.877 127.707 212.993 127.287 213.225 126.935C213.457 126.583 213.781 126.311 214.197 126.119C214.621 125.919 215.109 125.819 215.661 125.819C216.221 125.819 216.709 125.919 217.125 126.119C217.549 126.319 217.881 126.599 218.121 126.959C218.369 127.311 218.497 127.735 218.505 128.231H216.969C216.961 128.023 216.905 127.831 216.801 127.655C216.697 127.471 216.545 127.323 216.345 127.211C216.153 127.091 215.917 127.031 215.637 127.031C215.397 127.023 215.181 127.063 214.989 127.151C214.805 127.231 214.657 127.351 214.545 127.511C214.441 127.663 214.389 127.855 214.389 128.087C214.389 128.311 214.437 128.499 214.533 128.651C214.637 128.795 214.785 128.919 214.977 129.023C215.169 129.119 215.393 129.211 215.649 129.299C215.905 129.387 216.185 129.483 216.489 129.587C216.905 129.723 217.281 129.891 217.617 130.091C217.961 130.283 218.233 130.535 218.433 130.847C218.633 131.159 218.733 131.563 218.733 132.059C218.733 132.491 218.621 132.895 218.397 133.271C218.173 133.639 217.845 133.939 217.413 134.171C216.981 134.395 216.441 134.507 215.793 134.507ZM220.145 134.363V128.315H221.585V134.363H220.145ZM220.865 127.355C220.601 127.355 220.381 127.275 220.205 127.115C220.037 126.947 219.953 126.743 219.953 126.503C219.953 126.255 220.037 126.055 220.205 125.903C220.381 125.743 220.601 125.663 220.865 125.663C221.129 125.663 221.345 125.743 221.513 125.903C221.689 126.055 221.777 126.255 221.777 126.503C221.777 126.743 221.689 126.947 221.513 127.115C221.345 127.275 221.129 127.355 220.865 127.355ZM223.249 134.363V125.723H224.689V134.363H223.249ZM227.952 134.363L225.72 128.315H227.232L228.828 132.995L230.424 128.315H231.912L229.68 134.363H227.952ZM234.605 134.507C234.109 134.507 233.697 134.423 233.369 134.255C233.041 134.087 232.797 133.863 232.637 133.583C232.477 133.303 232.397 132.999 232.397 132.671C232.397 132.287 232.493 131.955 232.685 131.675C232.885 131.395 233.177 131.179 233.561 131.027C233.945 130.867 234.417 130.787 234.977 130.787H236.501C236.501 130.467 236.457 130.203 236.369 129.995C236.281 129.779 236.145 129.619 235.961 129.515C235.777 129.411 235.541 129.359 235.253 129.359C234.925 129.359 234.645 129.435 234.413 129.587C234.181 129.731 234.037 129.955 233.981 130.259H232.565C232.613 129.827 232.757 129.459 232.997 129.155C233.237 128.843 233.553 128.603 233.945 128.435C234.345 128.259 234.781 128.171 235.253 128.171C235.821 128.171 236.305 128.271 236.705 128.471C237.105 128.663 237.409 128.943 237.617 129.311C237.833 129.671 237.941 130.107 237.941 130.619V134.363H236.717L236.573 133.391C236.493 133.551 236.389 133.699 236.261 133.835C236.141 133.971 236.001 134.091 235.841 134.195C235.681 134.291 235.497 134.367 235.289 134.423C235.089 134.479 234.861 134.507 234.605 134.507ZM234.929 133.367C235.161 133.367 235.365 133.327 235.541 133.247C235.725 133.159 235.881 133.039 236.009 132.887C236.145 132.727 236.249 132.551 236.321 132.359C236.393 132.167 236.441 131.963 236.465 131.747V131.723H235.133C234.853 131.723 234.621 131.759 234.437 131.831C234.253 131.895 234.121 131.991 234.041 132.119C233.961 132.247 233.921 132.395 233.921 132.563C233.921 132.731 233.961 132.875 234.041 132.995C234.121 133.115 234.237 133.207 234.389 133.271C234.541 133.335 234.721 133.367 234.929 133.367Z" fill="#2D3A4E"/>
<rect x="89.8633" y="155.1" width="369.807" height="4.94238" fill="#E5E5F1"/>
<rect x="89.8633" y="182.803" width="237.509" height="4.94238" fill="#E5E5F1"/>
<rect x="89.8633" y="214.685" width="355.287" height="4.94238" fill="#E5E5F1"/>
<rect x="89.8633" y="242.388" width="343.553" height="4.94238" fill="#E5E5F1"/>
<rect x="89.8633" y="288.121" width="343.553" height="4.94238" fill="#E5E5F1"/>
<rect x="89.8633" y="315.824" width="360.541" height="4.94238" fill="#E5E5F1"/>
<rect x="89.8633" y="168.952" width="355.287" height="4.94238" fill="#E5E5F1"/>
<rect x="89.8633" y="228.536" width="355.287" height="4.94238" fill="#E5E5F1"/>
<rect x="89.8633" y="256.239" width="355.287" height="4.94238" fill="#E5E5F1"/>
<rect x="89.8633" y="301.972" width="355.287" height="4.94238" fill="#E5E5F1"/>
<rect x="89.8633" y="329.675" width="355.287" height="4.94238" fill="#E5E5F1"/>
</svg>
