<svg width="264" height="28" viewBox="0 0 264 28" fill="none" xmlns="http://www.w3.org/2000/svg">
<rect width="263.2" height="28" rx="7.51321" fill="white"/>
<circle cx="10.973" cy="13.9999" r="4.97301" fill="#FF4000"/>
<mask id="mask0_241_723" style="mask-type:alpha" maskUnits="userSpaceOnUse" x="7" y="10" width="8" height="8">
<rect x="7.63916" y="10.666" width="6.66745" height="6.66745" fill="#D9D9D9"/>
</mask>
<g mask="url(#mask0_241_723)">
<path d="M10.2925 15.6664L8.70898 14.0828L9.10486 13.687L10.2925 14.8746L12.8414 12.3257L13.2373 12.7216L10.2925 15.6664Z" fill="white"/>
</g>
<path d="M24.8218 18V9.6H30.1258V10.584H26.0218V13.272H29.7658V14.232H26.0218V17.016H30.1258V18H24.8218ZM31.1999 18V11.952H32.2799L32.3639 12.804C32.5559 12.492 32.8119 12.248 33.1319 12.072C33.4519 11.896 33.8119 11.808 34.2119 11.808C34.5159 11.808 34.7919 11.852 35.0399 11.94C35.2879 12.02 35.5079 12.144 35.6999 12.312C35.8919 12.48 36.0479 12.688 36.1679 12.936C36.3839 12.584 36.6719 12.308 37.0319 12.108C37.3999 11.908 37.7879 11.808 38.1959 11.808C38.6839 11.808 39.1039 11.908 39.4559 12.108C39.8079 12.3 40.0759 12.592 40.2599 12.984C40.4439 13.368 40.5359 13.848 40.5359 14.424V18H39.3479V14.544C39.3479 13.984 39.2319 13.56 38.9999 13.272C38.7759 12.984 38.4439 12.84 38.0039 12.84C37.7079 12.84 37.4439 12.916 37.2119 13.068C36.9799 13.22 36.7959 13.44 36.6599 13.728C36.5319 14.016 36.4679 14.368 36.4679 14.784V18H35.2679V14.544C35.2679 13.984 35.1519 13.56 34.9199 13.272C34.6959 12.984 34.3639 12.84 33.9239 12.84C33.6439 12.84 33.3879 12.916 33.1559 13.068C32.9239 13.22 32.7399 13.44 32.6039 13.728C32.4679 14.016 32.3999 14.368 32.3999 14.784V18H31.1999ZM44.4052 18.144C43.8292 18.144 43.3172 18.012 42.8692 17.748C42.4212 17.484 42.0692 17.116 41.8132 16.644C41.5652 16.172 41.4412 15.624 41.4412 15C41.4412 14.36 41.5652 13.804 41.8132 13.332C42.0692 12.852 42.4212 12.48 42.8692 12.216C43.3172 11.944 43.8372 11.808 44.4292 11.808C45.0212 11.808 45.5292 11.94 45.9532 12.204C46.3772 12.468 46.7052 12.82 46.9372 13.26C47.1692 13.692 47.2852 14.172 47.2852 14.7C47.2852 14.78 47.2812 14.868 47.2732 14.964C47.2732 15.052 47.2692 15.152 47.2612 15.264H42.3172V14.412H46.0852C46.0612 13.908 45.8932 13.516 45.5812 13.236C45.2692 12.948 44.8812 12.804 44.4172 12.804C44.0892 12.804 43.7892 12.88 43.5172 13.032C43.2452 13.176 43.0252 13.392 42.8572 13.68C42.6972 13.96 42.6172 14.316 42.6172 14.748V15.084C42.6172 15.532 42.6972 15.912 42.8572 16.224C43.0252 16.528 43.2452 16.76 43.5172 16.92C43.7892 17.072 44.0852 17.148 44.4052 17.148C44.7892 17.148 45.1052 17.064 45.3532 16.896C45.6012 16.728 45.7852 16.5 45.9052 16.212H47.1052C47.0012 16.58 46.8252 16.912 46.5772 17.208C46.3292 17.496 46.0212 17.724 45.6532 17.892C45.2932 18.06 44.8772 18.144 44.4052 18.144ZM48.201 18V11.952H49.281L49.389 13.092C49.525 12.82 49.701 12.592 49.917 12.408C50.133 12.216 50.385 12.068 50.673 11.964C50.969 11.86 51.305 11.808 51.681 11.808V13.08H51.249C51.001 13.08 50.765 13.112 50.541 13.176C50.317 13.232 50.117 13.332 49.941 13.476C49.773 13.62 49.641 13.816 49.545 14.064C49.449 14.312 49.401 14.62 49.401 14.988V18H48.201ZM54.685 20.784C54.133 20.784 53.645 20.712 53.221 20.568C52.797 20.432 52.469 20.22 52.237 19.932C52.005 19.644 51.889 19.292 51.889 18.876C51.889 18.66 51.937 18.44 52.033 18.216C52.129 18 52.285 17.792 52.501 17.592C52.717 17.392 53.009 17.212 53.377 17.052L54.049 17.592C53.641 17.744 53.365 17.924 53.221 18.132C53.085 18.348 53.017 18.556 53.017 18.756C53.017 18.996 53.089 19.196 53.233 19.356C53.377 19.516 53.573 19.636 53.821 19.716C54.077 19.796 54.365 19.836 54.685 19.836C54.997 19.836 55.269 19.792 55.501 19.704C55.733 19.616 55.913 19.492 56.041 19.332C56.169 19.172 56.233 18.984 56.233 18.768C56.233 18.512 56.137 18.296 55.945 18.12C55.753 17.952 55.385 17.852 54.841 17.82C54.385 17.788 53.997 17.744 53.677 17.688C53.365 17.632 53.097 17.564 52.873 17.484C52.657 17.404 52.473 17.316 52.321 17.22C52.177 17.124 52.053 17.024 51.949 16.92V16.644L53.149 15.408L54.121 15.744L52.813 16.956L53.065 16.416C53.153 16.472 53.237 16.528 53.317 16.584C53.397 16.632 53.505 16.676 53.641 16.716C53.777 16.756 53.961 16.792 54.193 16.824C54.425 16.856 54.729 16.888 55.105 16.92C55.649 16.96 56.085 17.056 56.413 17.208C56.749 17.36 56.993 17.564 57.145 17.82C57.297 18.076 57.373 18.38 57.373 18.732C57.373 19.076 57.277 19.404 57.085 19.716C56.901 20.028 56.609 20.284 56.209 20.484C55.817 20.684 55.309 20.784 54.685 20.784ZM54.685 16.14C54.173 16.14 53.737 16.044 53.377 15.852C53.025 15.66 52.753 15.4 52.561 15.072C52.377 14.744 52.285 14.38 52.285 13.98C52.285 13.572 52.377 13.208 52.561 12.888C52.753 12.56 53.029 12.3 53.389 12.108C53.749 11.908 54.181 11.808 54.685 11.808C55.189 11.808 55.617 11.908 55.969 12.108C56.329 12.3 56.601 12.56 56.785 12.888C56.977 13.208 57.073 13.572 57.073 13.98C57.073 14.38 56.977 14.744 56.785 15.072C56.601 15.4 56.329 15.66 55.969 15.852C55.617 16.044 55.189 16.14 54.685 16.14ZM54.685 15.18C55.077 15.18 55.389 15.08 55.621 14.88C55.853 14.672 55.969 14.372 55.969 13.98C55.969 13.588 55.853 13.292 55.621 13.092C55.389 12.884 55.077 12.78 54.685 12.78C54.293 12.78 53.977 12.884 53.737 13.092C53.497 13.292 53.377 13.588 53.377 13.98C53.377 14.372 53.497 14.672 53.737 14.88C53.977 15.08 54.293 15.18 54.685 15.18ZM55.669 12.9L55.381 11.952H57.865V12.78L55.669 12.9ZM61.153 18.144C60.577 18.144 60.065 18.012 59.617 17.748C59.169 17.484 58.817 17.116 58.561 16.644C58.313 16.172 58.189 15.624 58.189 15C58.189 14.36 58.313 13.804 58.561 13.332C58.817 12.852 59.169 12.48 59.617 12.216C60.065 11.944 60.585 11.808 61.177 11.808C61.769 11.808 62.277 11.94 62.701 12.204C63.125 12.468 63.453 12.82 63.685 13.26C63.917 13.692 64.033 14.172 64.033 14.7C64.033 14.78 64.029 14.868 64.021 14.964C64.021 15.052 64.017 15.152 64.009 15.264H59.065V14.412H62.833C62.809 13.908 62.641 13.516 62.329 13.236C62.017 12.948 61.629 12.804 61.165 12.804C60.837 12.804 60.537 12.88 60.265 13.032C59.993 13.176 59.773 13.392 59.605 13.68C59.445 13.96 59.365 14.316 59.365 14.748V15.084C59.365 15.532 59.445 15.912 59.605 16.224C59.773 16.528 59.993 16.76 60.265 16.92C60.537 17.072 60.833 17.148 61.153 17.148C61.537 17.148 61.853 17.064 62.101 16.896C62.349 16.728 62.533 16.5 62.653 16.212H63.853C63.749 16.58 63.573 16.912 63.325 17.208C63.077 17.496 62.769 17.724 62.401 17.892C62.041 18.06 61.625 18.144 61.153 18.144ZM59.449 11.4V10.5L61.129 9.528L62.821 10.5V11.4L61.129 10.404L59.449 11.4ZM64.9488 18V11.952H66.0288L66.1008 12.984C66.2928 12.624 66.5648 12.34 66.9168 12.132C67.2688 11.916 67.6728 11.808 68.1288 11.808C68.6088 11.808 69.0208 11.904 69.3648 12.096C69.7088 12.288 69.9768 12.58 70.1688 12.972C70.3608 13.356 70.4568 13.84 70.4568 14.424V18H69.2568V14.544C69.2568 13.984 69.1328 13.56 68.8848 13.272C68.6368 12.984 68.2768 12.84 67.8048 12.84C67.4928 12.84 67.2128 12.916 66.9648 13.068C66.7168 13.212 66.5168 13.428 66.3648 13.716C66.2208 14.004 66.1488 14.356 66.1488 14.772V18H64.9488ZM74.3704 18.144C73.7864 18.144 73.2664 18.012 72.8104 17.748C72.3544 17.476 71.9944 17.104 71.7304 16.632C71.4744 16.16 71.3464 15.612 71.3464 14.988C71.3464 14.356 71.4744 13.804 71.7304 13.332C71.9944 12.852 72.3544 12.48 72.8104 12.216C73.2664 11.944 73.7864 11.808 74.3704 11.808C75.1064 11.808 75.7224 12 76.2184 12.384C76.7144 12.768 77.0304 13.288 77.1664 13.944H75.9184C75.8384 13.592 75.6544 13.32 75.3664 13.128C75.0864 12.936 74.7504 12.84 74.3584 12.84C74.0384 12.84 73.7424 12.924 73.4704 13.092C73.1984 13.252 72.9784 13.492 72.8104 13.812C72.6504 14.124 72.5704 14.512 72.5704 14.976C72.5704 15.32 72.6184 15.628 72.7144 15.9C72.8104 16.164 72.9384 16.388 73.0984 16.572C73.2664 16.756 73.4584 16.896 73.6744 16.992C73.8904 17.08 74.1184 17.124 74.3584 17.124C74.6224 17.124 74.8584 17.084 75.0664 17.004C75.2824 16.916 75.4624 16.788 75.6064 16.62C75.7584 16.452 75.8624 16.252 75.9184 16.02H77.1664C77.0304 16.66 76.7144 17.176 76.2184 17.568C75.7224 17.952 75.1064 18.144 74.3704 18.144ZM78.2371 18V11.952H79.4371V18H78.2371ZM78.8491 10.812C78.6171 10.812 78.4251 10.74 78.2731 10.596C78.1291 10.452 78.0571 10.268 78.0571 10.044C78.0571 9.828 78.1291 9.652 78.2731 9.516C78.4251 9.372 78.6171 9.3 78.8491 9.3C79.0731 9.3 79.2611 9.372 79.4131 9.516C79.5651 9.652 79.6411 9.828 79.6411 10.044C79.6411 10.268 79.5651 10.452 79.4131 10.596C79.2611 10.74 79.0731 10.812 78.8491 10.812ZM82.7397 18.144C82.2437 18.144 81.8317 18.06 81.5037 17.892C81.1757 17.724 80.9317 17.5 80.7717 17.22C80.6117 16.932 80.5317 16.624 80.5317 16.296C80.5317 15.896 80.6357 15.556 80.8437 15.276C81.0517 14.988 81.3477 14.768 81.7317 14.616C82.1157 14.464 82.5757 14.388 83.1117 14.388H84.6837C84.6837 14.036 84.6317 13.744 84.5277 13.512C84.4237 13.28 84.2677 13.108 84.0597 12.996C83.8597 12.876 83.6037 12.816 83.2917 12.816C82.9317 12.816 82.6237 12.904 82.3677 13.08C82.1117 13.248 81.9517 13.5 81.8877 13.836H80.6877C80.7357 13.412 80.8797 13.052 81.1197 12.756C81.3677 12.452 81.6837 12.22 82.0677 12.06C82.4517 11.892 82.8597 11.808 83.2917 11.808C83.8597 11.808 84.3357 11.908 84.7197 12.108C85.1037 12.308 85.3917 12.592 85.5837 12.96C85.7837 13.32 85.8837 13.752 85.8837 14.256V18H84.8397L84.7437 16.98C84.6557 17.14 84.5517 17.292 84.4317 17.436C84.3117 17.58 84.1677 17.704 83.9997 17.808C83.8397 17.912 83.6517 17.992 83.4357 18.048C83.2277 18.112 82.9957 18.144 82.7397 18.144ZM82.9677 17.172C83.2237 17.172 83.4557 17.12 83.6637 17.016C83.8717 16.912 84.0477 16.772 84.1917 16.596C84.3437 16.412 84.4557 16.208 84.5277 15.984C84.6077 15.752 84.6517 15.516 84.6597 15.276V15.24H83.2317C82.8877 15.24 82.6077 15.284 82.3917 15.372C82.1837 15.452 82.0317 15.564 81.9357 15.708C81.8397 15.852 81.7917 16.02 81.7917 16.212C81.7917 16.412 81.8357 16.584 81.9237 16.728C82.0197 16.864 82.1557 16.972 82.3317 17.052C82.5077 17.132 82.7197 17.172 82.9677 17.172ZM89.338 18.144C88.826 18.144 88.378 18.06 87.994 17.892C87.61 17.724 87.306 17.488 87.082 17.184C86.858 16.88 86.722 16.524 86.674 16.116H87.898C87.938 16.308 88.014 16.484 88.126 16.644C88.246 16.804 88.406 16.932 88.606 17.028C88.814 17.124 89.058 17.172 89.338 17.172C89.602 17.172 89.818 17.136 89.986 17.064C90.162 16.984 90.29 16.88 90.37 16.752C90.45 16.616 90.49 16.472 90.49 16.32C90.49 16.096 90.434 15.928 90.322 15.816C90.218 15.696 90.058 15.604 89.842 15.54C89.634 15.468 89.382 15.404 89.086 15.348C88.806 15.3 88.534 15.236 88.27 15.156C88.014 15.068 87.782 14.96 87.574 14.832C87.374 14.704 87.214 14.544 87.094 14.352C86.974 14.152 86.914 13.908 86.914 13.62C86.914 13.276 87.006 12.968 87.19 12.696C87.374 12.416 87.634 12.2 87.97 12.048C88.314 11.888 88.718 11.808 89.182 11.808C89.854 11.808 90.394 11.968 90.802 12.288C91.21 12.608 91.45 13.06 91.522 13.644H90.358C90.326 13.372 90.206 13.164 89.998 13.02C89.79 12.868 89.514 12.792 89.17 12.792C88.826 12.792 88.562 12.86 88.378 12.996C88.194 13.132 88.102 13.312 88.102 13.536C88.102 13.68 88.154 13.808 88.258 13.92C88.362 14.032 88.514 14.128 88.714 14.208C88.922 14.28 89.174 14.348 89.47 14.412C89.894 14.492 90.274 14.592 90.61 14.712C90.946 14.832 91.214 15.008 91.414 15.24C91.614 15.472 91.714 15.804 91.714 16.236C91.722 16.612 91.626 16.944 91.426 17.232C91.234 17.52 90.958 17.744 90.598 17.904C90.246 18.064 89.826 18.144 89.338 18.144Z" fill="#15191E"/>
</svg>
