<svg width="576" height="424" viewBox="0 0 576 424" fill="none" xmlns="http://www.w3.org/2000/svg">
<rect width="576" height="424" rx="15" fill="#E5E5EC"/>
<rect x="50.4487" y="61.6924" width="227.204" height="300.615" rx="15" fill="white"/>
<path d="M103.79 98.1175C102.75 98.1175 101.85 97.8925 101.09 97.4425C100.34 96.9825 99.7598 96.3475 99.3498 95.5375C98.9498 94.7175 98.7498 93.7725 98.7498 92.7025C98.7498 91.6225 98.9498 90.6775 99.3498 89.8675C99.7598 89.0475 100.34 88.4075 101.09 87.9475C101.85 87.4875 102.75 87.2575 103.79 87.2575C105.04 87.2575 106.06 87.5675 106.85 88.1875C107.64 88.7975 108.14 89.6625 108.35 90.7825H106.37C106.23 90.1925 105.945 89.7275 105.515 89.3875C105.085 89.0475 104.505 88.8775 103.775 88.8775C103.115 88.8775 102.545 89.0325 102.065 89.3425C101.595 89.6425 101.23 90.0825 100.97 90.6625C100.72 91.2325 100.595 91.9125 100.595 92.7025C100.595 93.4925 100.72 94.1725 100.97 94.7425C101.23 95.3025 101.595 95.7375 102.065 96.0475C102.545 96.3475 103.115 96.4975 103.775 96.4975C104.505 96.4975 105.085 96.3425 105.515 96.0325C105.945 95.7125 106.23 95.2725 106.37 94.7125H108.35C108.15 95.7725 107.65 96.6075 106.85 97.2175C106.06 97.8175 105.04 98.1175 103.79 98.1175ZM114.896 98.1175C113.886 98.1175 112.991 97.8925 112.211 97.4425C111.441 96.9825 110.836 96.3475 110.396 95.5375C109.956 94.7175 109.736 93.7675 109.736 92.6875C109.736 91.6175 109.956 90.6775 110.396 89.8675C110.836 89.0475 111.441 88.4075 112.211 87.9475C112.991 87.4875 113.886 87.2575 114.896 87.2575C115.926 87.2575 116.831 87.4875 117.611 87.9475C118.391 88.4075 118.996 89.0475 119.426 89.8675C119.856 90.6775 120.071 91.6175 120.071 92.6875C120.071 93.7675 119.856 94.7175 119.426 95.5375C118.996 96.3475 118.391 96.9825 117.611 97.4425C116.831 97.8925 115.926 98.1175 114.896 98.1175ZM114.911 96.4975C115.581 96.4975 116.166 96.3475 116.666 96.0475C117.166 95.7375 117.551 95.2975 117.821 94.7275C118.091 94.1575 118.226 93.4775 118.226 92.6875C118.226 91.8975 118.091 91.2175 117.821 90.6475C117.551 90.0775 117.166 89.6425 116.666 89.3425C116.166 89.0325 115.581 88.8775 114.911 88.8775C114.241 88.8775 113.656 89.0325 113.156 89.3425C112.656 89.6425 112.266 90.0775 111.986 90.6475C111.716 91.2175 111.581 91.8975 111.581 92.6875C111.581 93.4775 111.716 94.1575 111.986 94.7275C112.266 95.2975 112.656 95.7375 113.156 96.0475C113.656 96.3475 114.241 96.4975 114.911 96.4975ZM121.83 97.9375V87.4375H123.63L128.685 95.0275V87.4375H130.485V97.9375H128.685L123.63 90.3625V97.9375H121.83ZM136.121 98.1175C135.361 98.1175 134.686 97.9825 134.096 97.7125C133.506 97.4425 133.046 97.0575 132.716 96.5575C132.386 96.0575 132.216 95.4625 132.206 94.7725H134.111C134.111 95.1225 134.191 95.4375 134.351 95.7175C134.521 95.9875 134.751 96.2025 135.041 96.3625C135.341 96.5225 135.701 96.6025 136.121 96.6025C136.481 96.6025 136.791 96.5475 137.051 96.4375C137.321 96.3175 137.526 96.1525 137.666 95.9425C137.816 95.7225 137.891 95.4675 137.891 95.1775C137.891 94.8475 137.811 94.5775 137.651 94.3675C137.501 94.1475 137.291 93.9625 137.021 93.8125C136.751 93.6625 136.441 93.5325 136.091 93.4225C135.741 93.3025 135.371 93.1775 134.981 93.0475C134.151 92.7675 133.526 92.4125 133.106 91.9825C132.686 91.5425 132.476 90.9575 132.476 90.2275C132.476 89.6175 132.621 89.0925 132.911 88.6525C133.201 88.2125 133.606 87.8725 134.126 87.6325C134.656 87.3825 135.266 87.2575 135.956 87.2575C136.656 87.2575 137.266 87.3825 137.786 87.6325C138.316 87.8825 138.731 88.2325 139.031 88.6825C139.341 89.1225 139.501 89.6525 139.511 90.2725H137.591C137.581 90.0125 137.511 89.7725 137.381 89.5525C137.251 89.3225 137.061 89.1375 136.811 88.9975C136.571 88.8475 136.276 88.7725 135.926 88.7725C135.626 88.7625 135.356 88.8125 135.116 88.9225C134.886 89.0225 134.701 89.1725 134.561 89.3725C134.431 89.5625 134.366 89.8025 134.366 90.0925C134.366 90.3725 134.426 90.6075 134.546 90.7975C134.676 90.9775 134.861 91.1325 135.101 91.2625C135.341 91.3825 135.621 91.4975 135.941 91.6075C136.261 91.7175 136.611 91.8375 136.991 91.9675C137.511 92.1375 137.981 92.3475 138.401 92.5975C138.831 92.8375 139.171 93.1525 139.421 93.5425C139.671 93.9325 139.796 94.4375 139.796 95.0575C139.796 95.5975 139.656 96.1025 139.376 96.5725C139.096 97.0325 138.686 97.4075 138.146 97.6975C137.606 97.9775 136.931 98.1175 136.121 98.1175ZM145.522 98.1175C144.762 98.1175 144.072 97.9675 143.452 97.6675C142.842 97.3675 142.352 96.9075 141.982 96.2875C141.622 95.6675 141.442 94.8875 141.442 93.9475V87.4375H143.242V93.9625C143.242 94.5325 143.337 95.0025 143.527 95.3725C143.717 95.7425 143.982 96.0225 144.322 96.2125C144.672 96.3925 145.082 96.4825 145.552 96.4825C146.032 96.4825 146.442 96.3925 146.782 96.2125C147.132 96.0225 147.397 95.7425 147.577 95.3725C147.767 95.0025 147.862 94.5325 147.862 93.9625V87.4375H149.662V93.9475C149.662 94.8875 149.477 95.6675 149.107 96.2875C148.737 96.9075 148.237 97.3675 147.607 97.6675C146.977 97.9675 146.282 98.1175 145.522 98.1175ZM151.683 97.9375V87.4375H153.483V96.5275H158.163V97.9375H151.683ZM160.632 97.9375V88.8925H157.542V87.4375H165.507V88.8925H162.417V97.9375H160.632ZM165.173 97.9375L169.013 87.4375H171.023L174.863 97.9375H172.958L170.003 89.5375L167.048 97.9375H165.173ZM166.883 95.4625L167.363 94.0375H172.538L173.018 95.4625H166.883ZM179.969 97.9375V87.4375H183.359C184.579 87.4375 185.584 87.6525 186.374 88.0825C187.174 88.5125 187.764 89.1225 188.144 89.9125C188.534 90.6925 188.729 91.6225 188.729 92.7025C188.729 93.7625 188.534 94.6875 188.144 95.4775C187.764 96.2575 187.174 96.8625 186.374 97.2925C185.584 97.7225 184.579 97.9375 183.359 97.9375H179.969ZM181.769 96.4075H183.269C184.179 96.4075 184.894 96.2625 185.414 95.9725C185.944 95.6725 186.319 95.2475 186.539 94.6975C186.769 94.1375 186.884 93.4725 186.884 92.7025C186.884 91.9225 186.769 91.2575 186.539 90.7075C186.319 90.1475 185.944 89.7175 185.414 89.4175C184.894 89.1075 184.179 88.9525 183.269 88.9525H181.769V96.4075ZM190.487 97.9375V87.4375H197.267V88.8925H192.287V91.9075H196.817V93.3325H192.287V96.4825H197.267V97.9375H190.487ZM207.486 98.1175C206.446 98.1175 205.546 97.8925 204.786 97.4425C204.036 96.9825 203.456 96.3475 203.046 95.5375C202.646 94.7175 202.446 93.7725 202.446 92.7025C202.446 91.6225 202.646 90.6775 203.046 89.8675C203.456 89.0475 204.036 88.4075 204.786 87.9475C205.546 87.4875 206.446 87.2575 207.486 87.2575C208.736 87.2575 209.756 87.5675 210.546 88.1875C211.336 88.7975 211.836 89.6625 212.046 90.7825H210.066C209.926 90.1925 209.641 89.7275 209.211 89.3875C208.781 89.0475 208.201 88.8775 207.471 88.8775C206.811 88.8775 206.241 89.0325 205.761 89.3425C205.291 89.6425 204.926 90.0825 204.666 90.6625C204.416 91.2325 204.291 91.9125 204.291 92.7025C204.291 93.4925 204.416 94.1725 204.666 94.7425C204.926 95.3025 205.291 95.7375 205.761 96.0475C206.241 96.3475 206.811 96.4975 207.471 96.4975C208.201 96.4975 208.781 96.3425 209.211 96.0325C209.641 95.7125 209.926 95.2725 210.066 94.7125H212.046C211.846 95.7725 211.346 96.6075 210.546 97.2175C209.756 97.8175 208.736 98.1175 207.486 98.1175ZM213.807 97.9375V87.4375H217.587C218.427 87.4375 219.122 87.5825 219.672 87.8725C220.222 88.1525 220.632 88.5325 220.902 89.0125C221.172 89.4925 221.307 90.0425 221.307 90.6625C221.307 91.2425 221.177 91.7775 220.917 92.2675C220.657 92.7475 220.252 93.1375 219.702 93.4375C219.152 93.7275 218.447 93.8725 217.587 93.8725H215.607V97.9375H213.807ZM215.607 92.4025H217.482C218.192 92.4025 218.702 92.2475 219.012 91.9375C219.322 91.6175 219.477 91.1925 219.477 90.6625C219.477 90.1125 219.322 89.6825 219.012 89.3725C218.702 89.0625 218.192 88.9075 217.482 88.9075H215.607V92.4025ZM222.86 97.9375V87.4375H229.565V88.8925H224.66V91.9675H228.665V93.3925H224.66V97.9375H222.86Z" fill="#101C2E"/>
<path d="M81.7702 134.363V125.963H84.7822C85.4462 125.963 85.9942 126.079 86.4262 126.311C86.8662 126.535 87.1902 126.839 87.3982 127.223C87.6142 127.599 87.7222 128.027 87.7222 128.507C87.7222 128.955 87.6182 129.371 87.4102 129.755C87.2022 130.139 86.8782 130.447 86.4382 130.679C85.9982 130.911 85.4342 131.027 84.7462 131.027H83.2102V134.363H81.7702ZM86.1502 134.363L84.3862 130.655H85.9462L87.7942 134.363H86.1502ZM83.2102 129.959H84.6862C85.2222 129.959 85.6142 129.831 85.8622 129.575C86.1182 129.311 86.2462 128.967 86.2462 128.543C86.2462 128.127 86.1222 127.795 85.8742 127.547C85.6262 127.291 85.2302 127.163 84.6862 127.163H83.2102V129.959ZM89.2116 134.363V125.963H94.6356V127.127H90.6516V129.539H94.2756V130.679H90.6516V133.199H94.6356V134.363H89.2116ZM98.9691 134.507C98.3611 134.507 97.8211 134.399 97.3491 134.183C96.8771 133.967 96.5091 133.659 96.2451 133.259C95.9811 132.859 95.8451 132.383 95.8371 131.831H97.3611C97.3611 132.111 97.4251 132.363 97.5531 132.587C97.6891 132.803 97.8731 132.975 98.1051 133.103C98.3451 133.231 98.6331 133.295 98.9691 133.295C99.2571 133.295 99.5051 133.251 99.7131 133.163C99.9291 133.067 100.093 132.935 100.205 132.767C100.325 132.591 100.385 132.387 100.385 132.155C100.385 131.891 100.321 131.675 100.193 131.507C100.073 131.331 99.9051 131.183 99.6891 131.063C99.4731 130.943 99.2251 130.839 98.9451 130.751C98.6651 130.655 98.3691 130.555 98.0571 130.451C97.3931 130.227 96.8931 129.943 96.5571 129.599C96.2211 129.247 96.0531 128.779 96.0531 128.195C96.0531 127.707 96.1691 127.287 96.4011 126.935C96.6331 126.583 96.9571 126.311 97.3731 126.119C97.7971 125.919 98.2851 125.819 98.8371 125.819C99.3971 125.819 99.8851 125.919 100.301 126.119C100.725 126.319 101.057 126.599 101.297 126.959C101.545 127.311 101.673 127.735 101.681 128.231H100.145C100.137 128.023 100.081 127.831 99.9771 127.655C99.8731 127.471 99.7211 127.323 99.5211 127.211C99.3291 127.091 99.0931 127.031 98.8131 127.031C98.5731 127.023 98.3571 127.063 98.1651 127.151C97.9811 127.231 97.8331 127.351 97.7211 127.511C97.6171 127.663 97.5651 127.855 97.5651 128.087C97.5651 128.311 97.6131 128.499 97.7091 128.651C97.8131 128.795 97.9611 128.919 98.1531 129.023C98.3451 129.119 98.5691 129.211 98.8251 129.299C99.0811 129.387 99.3611 129.483 99.6651 129.587C100.081 129.723 100.457 129.891 100.793 130.091C101.137 130.283 101.409 130.535 101.609 130.847C101.809 131.159 101.909 131.563 101.909 132.059C101.909 132.491 101.797 132.895 101.573 133.271C101.349 133.639 101.021 133.939 100.589 134.171C100.157 134.395 99.6171 134.507 98.9691 134.507ZM105.148 134.363V127.127H102.676V125.963H109.048V127.127H106.576V134.363H105.148ZM110.235 134.363V125.963H113.247C113.911 125.963 114.459 126.079 114.891 126.311C115.331 126.535 115.655 126.839 115.863 127.223C116.079 127.599 116.187 128.027 116.187 128.507C116.187 128.955 116.083 129.371 115.875 129.755C115.667 130.139 115.343 130.447 114.903 130.679C114.463 130.911 113.899 131.027 113.211 131.027H111.675V134.363H110.235ZM114.615 134.363L112.851 130.655H114.411L116.259 134.363H114.615ZM111.675 129.959H113.151C113.687 129.959 114.079 129.831 114.327 129.575C114.583 129.311 114.711 128.967 114.711 128.543C114.711 128.127 114.587 127.795 114.339 127.547C114.091 127.291 113.695 127.163 113.151 127.163H111.675V129.959ZM117.676 134.363V125.963H119.116V134.363H117.676ZM124.537 134.507C123.705 134.507 122.985 134.327 122.377 133.967C121.777 133.599 121.313 133.091 120.985 132.443C120.665 131.787 120.505 131.031 120.505 130.175C120.505 129.311 120.665 128.555 120.985 127.907C121.313 127.251 121.777 126.739 122.377 126.371C122.985 126.003 123.705 125.819 124.537 125.819C125.537 125.819 126.353 126.067 126.985 126.563C127.617 127.051 128.017 127.743 128.185 128.639H126.601C126.489 128.167 126.261 127.795 125.917 127.523C125.573 127.251 125.109 127.115 124.525 127.115C123.997 127.115 123.541 127.239 123.157 127.487C122.781 127.727 122.489 128.079 122.281 128.543C122.081 128.999 121.981 129.543 121.981 130.175C121.981 130.807 122.081 131.351 122.281 131.807C122.489 132.255 122.781 132.603 123.157 132.851C123.541 133.091 123.997 133.211 124.525 133.211C125.109 133.211 125.573 133.087 125.917 132.839C126.261 132.583 126.489 132.231 126.601 131.783H128.185C128.025 132.631 127.625 133.299 126.985 133.787C126.353 134.267 125.537 134.507 124.537 134.507ZM123.361 137.531V136.691H124.657C124.889 136.691 125.061 136.655 125.173 136.583C125.285 136.511 125.341 136.391 125.341 136.223C125.341 136.079 125.285 135.971 125.173 135.899C125.061 135.827 124.889 135.791 124.657 135.791H123.961V134.303H124.861V135.011C125.141 135.011 125.397 135.051 125.629 135.131C125.869 135.219 126.061 135.355 126.205 135.539C126.349 135.731 126.421 135.971 126.421 136.259C126.421 136.539 126.349 136.771 126.205 136.955C126.069 137.147 125.881 137.291 125.641 137.387C125.409 137.483 125.153 137.531 124.873 137.531H123.361ZM133.422 134.507C132.614 134.507 131.898 134.327 131.274 133.967C130.658 133.599 130.174 133.091 129.822 132.443C129.47 131.787 129.294 131.027 129.294 130.163C129.294 129.307 129.47 128.555 129.822 127.907C130.174 127.251 130.658 126.739 131.274 126.371C131.898 126.003 132.614 125.819 133.422 125.819C134.246 125.819 134.97 126.003 135.594 126.371C136.218 126.739 136.702 127.251 137.046 127.907C137.39 128.555 137.562 129.307 137.562 130.163C137.562 131.027 137.39 131.787 137.046 132.443C136.702 133.091 136.218 133.599 135.594 133.967C134.97 134.327 134.246 134.507 133.422 134.507ZM133.434 133.211C133.97 133.211 134.438 133.091 134.838 132.851C135.238 132.603 135.546 132.251 135.762 131.795C135.978 131.339 136.086 130.795 136.086 130.163C136.086 129.531 135.978 128.987 135.762 128.531C135.546 128.075 135.238 127.727 134.838 127.487C134.438 127.239 133.97 127.115 133.434 127.115C132.898 127.115 132.43 127.239 132.03 127.487C131.63 127.727 131.318 128.075 131.094 128.531C130.878 128.987 130.77 129.531 130.77 130.163C130.77 130.795 130.878 131.339 131.094 131.795C131.318 132.251 131.63 132.603 132.03 132.851C132.43 133.091 132.898 133.211 133.434 133.211ZM134.202 125.339C133.978 125.339 133.786 125.295 133.626 125.207C133.474 125.111 133.33 125.019 133.194 124.931C133.058 124.835 132.91 124.787 132.75 124.787C132.614 124.787 132.498 124.831 132.402 124.919C132.314 125.007 132.258 125.143 132.234 125.327H131.454C131.526 124.831 131.682 124.467 131.922 124.235C132.162 123.995 132.458 123.875 132.81 123.875C133.034 123.875 133.222 123.923 133.374 124.019C133.534 124.107 133.682 124.199 133.818 124.295C133.954 124.383 134.102 124.427 134.262 124.427C134.398 124.427 134.51 124.383 134.598 124.295C134.694 124.207 134.754 124.071 134.778 123.887H135.57C135.498 124.383 135.338 124.751 135.09 124.991C134.85 125.223 134.554 125.339 134.202 125.339ZM138.969 134.363V125.963H144.393V127.127H140.409V129.539H144.033V130.679H140.409V133.199H144.393V134.363H138.969ZM148.727 134.507C148.119 134.507 147.579 134.399 147.107 134.183C146.635 133.967 146.267 133.659 146.003 133.259C145.739 132.859 145.603 132.383 145.595 131.831H147.119C147.119 132.111 147.183 132.363 147.311 132.587C147.447 132.803 147.631 132.975 147.863 133.103C148.103 133.231 148.391 133.295 148.727 133.295C149.015 133.295 149.263 133.251 149.471 133.163C149.687 133.067 149.851 132.935 149.963 132.767C150.083 132.591 150.143 132.387 150.143 132.155C150.143 131.891 150.079 131.675 149.951 131.507C149.831 131.331 149.663 131.183 149.447 131.063C149.231 130.943 148.983 130.839 148.703 130.751C148.423 130.655 148.127 130.555 147.815 130.451C147.151 130.227 146.651 129.943 146.315 129.599C145.979 129.247 145.811 128.779 145.811 128.195C145.811 127.707 145.927 127.287 146.159 126.935C146.391 126.583 146.715 126.311 147.131 126.119C147.555 125.919 148.043 125.819 148.595 125.819C149.155 125.819 149.643 125.919 150.059 126.119C150.483 126.319 150.815 126.599 151.055 126.959C151.303 127.311 151.431 127.735 151.439 128.231H149.903C149.895 128.023 149.839 127.831 149.735 127.655C149.631 127.471 149.479 127.323 149.279 127.211C149.087 127.091 148.851 127.031 148.571 127.031C148.331 127.023 148.115 127.063 147.923 127.151C147.739 127.231 147.591 127.351 147.479 127.511C147.375 127.663 147.323 127.855 147.323 128.087C147.323 128.311 147.371 128.499 147.467 128.651C147.571 128.795 147.719 128.919 147.911 129.023C148.103 129.119 148.327 129.211 148.583 129.299C148.839 129.387 149.119 129.483 149.423 129.587C149.839 129.723 150.215 129.891 150.551 130.091C150.895 130.283 151.167 130.535 151.367 130.847C151.567 131.159 151.667 131.563 151.667 132.059C151.667 132.491 151.555 132.895 151.331 133.271C151.107 133.639 150.779 133.939 150.347 134.171C149.915 134.395 149.375 134.507 148.727 134.507ZM155.997 134.363V125.963H161.421V127.127H157.437V129.539H161.061V130.679H157.437V133.199H161.421V134.363H155.997ZM162.934 134.363V125.963H164.374L168.418 132.035V125.963H169.858V134.363H168.418L164.374 128.303V134.363H162.934ZM175.279 134.507C174.447 134.507 173.727 134.327 173.119 133.967C172.519 133.599 172.055 133.091 171.727 132.443C171.407 131.787 171.247 131.031 171.247 130.175C171.247 129.311 171.407 128.555 171.727 127.907C172.055 127.251 172.519 126.739 173.119 126.371C173.727 126.003 174.447 125.819 175.279 125.819C176.279 125.819 177.095 126.067 177.727 126.563C178.359 127.051 178.759 127.743 178.927 128.639H177.343C177.231 128.167 177.003 127.795 176.659 127.523C176.315 127.251 175.851 127.115 175.267 127.115C174.739 127.115 174.283 127.239 173.899 127.487C173.523 127.727 173.231 128.079 173.023 128.543C172.823 128.999 172.723 129.543 172.723 130.175C172.723 130.807 172.823 131.351 173.023 131.807C173.231 132.255 173.523 132.603 173.899 132.851C174.283 133.091 174.739 133.211 175.267 133.211C175.851 133.211 176.315 133.087 176.659 132.839C177.003 132.583 177.231 132.231 177.343 131.783H178.927C178.767 132.631 178.367 133.299 177.727 133.787C177.095 134.267 176.279 134.507 175.279 134.507ZM184.165 134.507C183.357 134.507 182.641 134.327 182.017 133.967C181.401 133.599 180.917 133.091 180.565 132.443C180.213 131.787 180.037 131.027 180.037 130.163C180.037 129.307 180.213 128.555 180.565 127.907C180.917 127.251 181.401 126.739 182.017 126.371C182.641 126.003 183.357 125.819 184.165 125.819C184.989 125.819 185.713 126.003 186.337 126.371C186.961 126.739 187.445 127.251 187.789 127.907C188.133 128.555 188.305 129.307 188.305 130.163C188.305 131.027 188.133 131.787 187.789 132.443C187.445 133.091 186.961 133.599 186.337 133.967C185.713 134.327 184.989 134.507 184.165 134.507ZM184.177 133.211C184.713 133.211 185.181 133.091 185.581 132.851C185.981 132.603 186.289 132.251 186.505 131.795C186.721 131.339 186.829 130.795 186.829 130.163C186.829 129.531 186.721 128.987 186.505 128.531C186.289 128.075 185.981 127.727 185.581 127.487C185.181 127.239 184.713 127.115 184.177 127.115C183.641 127.115 183.173 127.239 182.773 127.487C182.373 127.727 182.061 128.075 181.837 128.531C181.621 128.987 181.513 129.531 181.513 130.163C181.513 130.795 181.621 131.339 181.837 131.795C182.061 132.251 182.373 132.603 182.773 132.851C183.173 133.091 183.641 133.211 184.177 133.211ZM189.712 134.363V125.963H191.152L195.196 132.035V125.963H196.636V134.363H195.196L191.152 128.303V134.363H189.712ZM200.281 134.363V127.127H197.809V125.963H204.181V127.127H201.709V134.363H200.281ZM205.368 134.363V125.963H208.38C209.044 125.963 209.592 126.079 210.024 126.311C210.464 126.535 210.788 126.839 210.996 127.223C211.212 127.599 211.32 128.027 211.32 128.507C211.32 128.955 211.216 129.371 211.008 129.755C210.8 130.139 210.476 130.447 210.036 130.679C209.596 130.911 209.032 131.027 208.344 131.027H206.808V134.363H205.368ZM209.748 134.363L207.984 130.655H209.544L211.392 134.363H209.748ZM206.808 129.959H208.284C208.82 129.959 209.212 129.831 209.46 129.575C209.716 129.311 209.844 128.967 209.844 128.543C209.844 128.127 209.72 127.795 209.472 127.547C209.224 127.291 208.828 127.163 208.284 127.163H206.808V129.959ZM212.257 134.363L215.329 125.963H216.937L220.009 134.363H218.485L216.121 127.643L213.757 134.363H212.257ZM213.625 132.383L214.009 131.243H218.149L218.533 132.383H213.625ZM221.165 134.363V125.963H223.877C224.853 125.963 225.657 126.135 226.289 126.479C226.929 126.823 227.401 127.311 227.705 127.943C228.017 128.567 228.173 129.311 228.173 130.175C228.173 131.023 228.017 131.763 227.705 132.395C227.401 133.019 226.929 133.503 226.289 133.847C225.657 134.191 224.853 134.363 223.877 134.363H221.165ZM222.605 133.139H223.805C224.533 133.139 225.105 133.023 225.521 132.791C225.945 132.551 226.245 132.211 226.421 131.771C226.605 131.323 226.697 130.791 226.697 130.175C226.697 129.551 226.605 129.019 226.421 128.579C226.245 128.131 225.945 127.787 225.521 127.547C225.105 127.299 224.533 127.175 223.805 127.175H222.605V133.139ZM228.476 134.363L231.548 125.963H233.156L236.228 134.363H234.704L232.34 127.643L229.976 134.363H228.476ZM229.844 132.383L230.228 131.243H234.368L234.752 132.383H229.844ZM240.203 134.507C239.595 134.507 239.055 134.399 238.583 134.183C238.111 133.967 237.743 133.659 237.479 133.259C237.215 132.859 237.079 132.383 237.071 131.831H238.595C238.595 132.111 238.659 132.363 238.787 132.587C238.923 132.803 239.107 132.975 239.339 133.103C239.579 133.231 239.867 133.295 240.203 133.295C240.491 133.295 240.739 133.251 240.947 133.163C241.163 133.067 241.327 132.935 241.439 132.767C241.559 132.591 241.619 132.387 241.619 132.155C241.619 131.891 241.555 131.675 241.427 131.507C241.307 131.331 241.139 131.183 240.923 131.063C240.707 130.943 240.459 130.839 240.179 130.751C239.899 130.655 239.603 130.555 239.291 130.451C238.627 130.227 238.127 129.943 237.791 129.599C237.455 129.247 237.287 128.779 237.287 128.195C237.287 127.707 237.403 127.287 237.635 126.935C237.867 126.583 238.191 126.311 238.607 126.119C239.031 125.919 239.519 125.819 240.071 125.819C240.631 125.819 241.119 125.919 241.535 126.119C241.959 126.319 242.291 126.599 242.531 126.959C242.779 127.311 242.907 127.735 242.915 128.231H241.379C241.371 128.023 241.315 127.831 241.211 127.655C241.107 127.471 240.955 127.323 240.755 127.211C240.563 127.091 240.327 127.031 240.047 127.031C239.807 127.023 239.591 127.063 239.399 127.151C239.215 127.231 239.067 127.351 238.955 127.511C238.851 127.663 238.799 127.855 238.799 128.087C238.799 128.311 238.847 128.499 238.943 128.651C239.047 128.795 239.195 128.919 239.387 129.023C239.579 129.119 239.803 129.211 240.059 129.299C240.315 129.387 240.595 129.483 240.899 129.587C241.315 129.723 241.691 129.891 242.027 130.091C242.371 130.283 242.643 130.535 242.843 130.847C243.043 131.159 243.143 131.563 243.143 132.059C243.143 132.491 243.031 132.895 242.807 133.271C242.583 133.639 242.255 133.939 241.823 134.171C241.391 134.395 240.851 134.507 240.203 134.507ZM244.832 131.723L244.664 125.963H246.212L246.056 131.723H244.832ZM245.444 134.423C245.18 134.423 244.96 134.339 244.784 134.171C244.616 134.003 244.532 133.803 244.532 133.571C244.532 133.323 244.616 133.115 244.784 132.947C244.96 132.779 245.18 132.695 245.444 132.695C245.716 132.695 245.932 132.779 246.092 132.947C246.26 133.115 246.344 133.323 246.344 133.571C246.344 133.803 246.26 134.003 246.092 134.171C245.932 134.339 245.716 134.423 245.444 134.423Z" fill="#FF4000"/>
<rect x="80.6118" y="147.787" width="61.7031" height="4.94238" fill="#E5E5F1"/>
<rect x="80.6118" y="175.49" width="61.7031" height="4.94238" fill="#E5E5F1"/>
<rect x="80.6118" y="233.242" width="18.5031" height="4.94238" fill="#E5E5F1"/>
<rect x="157.26" y="233.242" width="18.5031" height="4.94238" fill="#E5E5F1"/>
<rect x="195.428" y="233.242" width="18.5031" height="4.94238" fill="#E5E5F1"/>
<rect x="233.598" y="233.242" width="18.5031" height="4.94238" fill="#E5E5F1"/>
<rect x="80.6118" y="259.774" width="18.5031" height="4.94238" fill="#E5E5F1"/>
<rect x="80.6118" y="274.838" width="18.5031" height="4.94238" fill="#E5E5F1"/>
<rect x="80.6118" y="288.69" width="18.5031" height="4.94238" fill="#E5E5F1"/>
<rect x="80.6118" y="302.542" width="18.5031" height="4.94238" fill="#E5E5F1"/>
<rect x="157.26" y="274.838" width="18.5031" height="4.94238" fill="#E5E5F1"/>
<rect x="157.26" y="259.774" width="18.5031" height="4.94238" fill="#E5E5F1"/>
<rect x="157.26" y="288.69" width="18.5031" height="4.94238" fill="#E5E5F1"/>
<rect x="195.428" y="274.838" width="18.5031" height="4.94238" fill="#E5E5F1"/>
<rect x="157.26" y="302.542" width="18.5031" height="4.94238" fill="#E5E5F1"/>
<rect x="195.428" y="288.69" width="18.5031" height="4.94238" fill="#E5E5F1"/>
<rect x="233.598" y="274.838" width="18.5031" height="4.94238" fill="#E5E5F1"/>
<rect x="233.598" y="288.69" width="18.5031" height="4.94238" fill="#E5E5F1"/>
<rect x="195.428" y="259.774" width="18.5031" height="4.94238" fill="#E5E5F1"/>
<rect x="195.428" y="302.542" width="18.5031" height="4.94238" fill="#E5E5F1"/>
<rect x="233.598" y="259.774" width="18.5031" height="4.94238" fill="#E5E5F1"/>
<rect x="233.598" y="302.542" width="18.5031" height="4.94238" fill="#E5E5F1"/>
<rect x="68.106" y="212.598" width="193.89" height="1.34473" fill="#101C2E" fill-opacity="0.25"/>
<rect x="80.6118" y="248.307" width="171.489" height="1.34473" fill="#101C2E" fill-opacity="0.25"/>
<rect x="80.6118" y="161.638" width="92.301" height="4.94238" fill="#E5E5F1"/>
<rect x="296" y="61.6924" width="227.204" height="300.615" rx="15" fill="white"/>
<path d="M363 98.1175C362.24 98.1175 361.565 97.9825 360.975 97.7125C360.385 97.4425 359.925 97.0575 359.595 96.5575C359.265 96.0575 359.095 95.4625 359.085 94.7725H360.99C360.99 95.1225 361.07 95.4375 361.23 95.7175C361.4 95.9875 361.63 96.2025 361.92 96.3625C362.22 96.5225 362.58 96.6025 363 96.6025C363.36 96.6025 363.67 96.5475 363.93 96.4375C364.2 96.3175 364.405 96.1525 364.545 95.9425C364.695 95.7225 364.77 95.4675 364.77 95.1775C364.77 94.8475 364.69 94.5775 364.53 94.3675C364.38 94.1475 364.17 93.9625 363.9 93.8125C363.63 93.6625 363.32 93.5325 362.97 93.4225C362.62 93.3025 362.25 93.1775 361.86 93.0475C361.03 92.7675 360.405 92.4125 359.985 91.9825C359.565 91.5425 359.355 90.9575 359.355 90.2275C359.355 89.6175 359.5 89.0925 359.79 88.6525C360.08 88.2125 360.485 87.8725 361.005 87.6325C361.535 87.3825 362.145 87.2575 362.835 87.2575C363.535 87.2575 364.145 87.3825 364.665 87.6325C365.195 87.8825 365.61 88.2325 365.91 88.6825C366.22 89.1225 366.38 89.6525 366.39 90.2725H364.47C364.46 90.0125 364.39 89.7725 364.26 89.5525C364.13 89.3225 363.94 89.1375 363.69 88.9975C363.45 88.8475 363.155 88.7725 362.805 88.7725C362.505 88.7625 362.235 88.8125 361.995 88.9225C361.765 89.0225 361.58 89.1725 361.44 89.3725C361.31 89.5625 361.245 89.8025 361.245 90.0925C361.245 90.3725 361.305 90.6075 361.425 90.7975C361.555 90.9775 361.74 91.1325 361.98 91.2625C362.22 91.3825 362.5 91.4975 362.82 91.6075C363.14 91.7175 363.49 91.8375 363.87 91.9675C364.39 92.1375 364.86 92.3475 365.28 92.5975C365.71 92.8375 366.05 93.1525 366.3 93.5425C366.55 93.9325 366.675 94.4375 366.675 95.0575C366.675 95.5975 366.535 96.1025 366.255 96.5725C365.975 97.0325 365.565 97.4075 365.025 97.6975C364.485 97.9775 363.81 98.1175 363 98.1175ZM373.091 98.1175C372.051 98.1175 371.151 97.8925 370.391 97.4425C369.641 96.9825 369.061 96.3475 368.651 95.5375C368.251 94.7175 368.051 93.7725 368.051 92.7025C368.051 91.6225 368.251 90.6775 368.651 89.8675C369.061 89.0475 369.641 88.4075 370.391 87.9475C371.151 87.4875 372.051 87.2575 373.091 87.2575C374.341 87.2575 375.361 87.5675 376.151 88.1875C376.941 88.7975 377.441 89.6625 377.651 90.7825H375.671C375.531 90.1925 375.246 89.7275 374.816 89.3875C374.386 89.0475 373.806 88.8775 373.076 88.8775C372.416 88.8775 371.846 89.0325 371.366 89.3425C370.896 89.6425 370.531 90.0825 370.271 90.6625C370.021 91.2325 369.896 91.9125 369.896 92.7025C369.896 93.4925 370.021 94.1725 370.271 94.7425C370.531 95.3025 370.896 95.7375 371.366 96.0475C371.846 96.3475 372.416 96.4975 373.076 96.4975C373.806 96.4975 374.386 96.3425 374.816 96.0325C375.246 95.7125 375.531 95.2725 375.671 94.7125H377.651C377.451 95.7725 376.951 96.6075 376.151 97.2175C375.361 97.8175 374.341 98.1175 373.091 98.1175ZM384.197 98.1175C383.187 98.1175 382.292 97.8925 381.512 97.4425C380.742 96.9825 380.137 96.3475 379.697 95.5375C379.257 94.7175 379.037 93.7675 379.037 92.6875C379.037 91.6175 379.257 90.6775 379.697 89.8675C380.137 89.0475 380.742 88.4075 381.512 87.9475C382.292 87.4875 383.187 87.2575 384.197 87.2575C385.227 87.2575 386.132 87.4875 386.912 87.9475C387.692 88.4075 388.297 89.0475 388.727 89.8675C389.157 90.6775 389.372 91.6175 389.372 92.6875C389.372 93.7675 389.157 94.7175 388.727 95.5375C388.297 96.3475 387.692 96.9825 386.912 97.4425C386.132 97.8925 385.227 98.1175 384.197 98.1175ZM384.212 96.4975C384.882 96.4975 385.467 96.3475 385.967 96.0475C386.467 95.7375 386.852 95.2975 387.122 94.7275C387.392 94.1575 387.527 93.4775 387.527 92.6875C387.527 91.8975 387.392 91.2175 387.122 90.6475C386.852 90.0775 386.467 89.6425 385.967 89.3425C385.467 89.0325 384.882 88.8775 384.212 88.8775C383.542 88.8775 382.957 89.0325 382.457 89.3425C381.957 89.6425 381.567 90.0775 381.287 90.6475C381.017 91.2175 380.882 91.8975 380.882 92.6875C380.882 93.4775 381.017 94.1575 381.287 94.7275C381.567 95.2975 381.957 95.7375 382.457 96.0475C382.957 96.3475 383.542 96.4975 384.212 96.4975ZM391.131 97.9375V87.4375H394.896C395.726 87.4375 396.411 87.5825 396.951 87.8725C397.501 88.1525 397.906 88.5325 398.166 89.0125C398.436 89.4825 398.571 90.0175 398.571 90.6175C398.571 91.1775 398.441 91.6975 398.181 92.1775C397.921 92.6575 397.516 93.0425 396.966 93.3325C396.416 93.6225 395.711 93.7675 394.851 93.7675H392.931V97.9375H391.131ZM396.606 97.9375L394.401 93.3025H396.351L398.661 97.9375H396.606ZM392.931 92.4325H394.776C395.446 92.4325 395.936 92.2725 396.246 91.9525C396.566 91.6225 396.726 91.1925 396.726 90.6625C396.726 90.1425 396.571 89.7275 396.261 89.4175C395.951 89.0975 395.456 88.9375 394.776 88.9375H392.931V92.4325ZM400.432 97.9375V87.4375H407.212V88.8925H402.232V91.9075H406.762V93.3325H402.232V96.4825H407.212V97.9375H400.432ZM412.766 97.9375V87.4375H416.876C417.616 87.4375 418.231 87.5525 418.721 87.7825C419.221 88.0125 419.596 88.3325 419.846 88.7425C420.096 89.1425 420.221 89.6075 420.221 90.1375C420.221 90.6675 420.106 91.1125 419.876 91.4725C419.646 91.8325 419.341 92.1075 418.961 92.2975C418.591 92.4875 418.186 92.6025 417.746 92.6425L417.971 92.4775C418.441 92.4875 418.861 92.6125 419.231 92.8525C419.611 93.0925 419.911 93.4075 420.131 93.7975C420.351 94.1775 420.461 94.6025 420.461 95.0725C420.461 95.6225 420.326 96.1175 420.056 96.5575C419.796 96.9875 419.411 97.3275 418.901 97.5775C418.391 97.8175 417.766 97.9375 417.026 97.9375H412.766ZM414.566 96.4675H416.756C417.346 96.4675 417.806 96.3275 418.136 96.0475C418.466 95.7675 418.631 95.3775 418.631 94.8775C418.631 94.3775 418.461 93.9825 418.121 93.6925C417.781 93.3925 417.316 93.2425 416.726 93.2425H414.566V96.4675ZM414.566 91.8775H416.621C417.201 91.8775 417.641 91.7475 417.941 91.4875C418.241 91.2175 418.391 90.8475 418.391 90.3775C418.391 89.9175 418.241 89.5575 417.941 89.2975C417.641 89.0275 417.196 88.8925 416.606 88.8925H414.566V91.8775ZM421.393 97.9375L425.233 87.4375H427.243L431.083 97.9375H429.178L426.223 89.5375L423.268 97.9375H421.393ZM423.103 95.4625L423.583 94.0375H428.758L429.238 95.4625H423.103ZM432.527 97.9375V87.4375H434.327V97.9375H432.527ZM435.898 97.9375L439.168 92.6275L435.868 87.4375H437.938L440.323 91.2025L442.528 87.4375H444.568L441.298 92.7025L444.628 97.9375H442.558L440.143 94.1275L437.938 97.9375H435.898ZM450.232 98.1175C449.222 98.1175 448.327 97.8925 447.547 97.4425C446.777 96.9825 446.172 96.3475 445.732 95.5375C445.292 94.7175 445.072 93.7675 445.072 92.6875C445.072 91.6175 445.292 90.6775 445.732 89.8675C446.172 89.0475 446.777 88.4075 447.547 87.9475C448.327 87.4875 449.222 87.2575 450.232 87.2575C451.262 87.2575 452.167 87.4875 452.947 87.9475C453.727 88.4075 454.332 89.0475 454.762 89.8675C455.192 90.6775 455.407 91.6175 455.407 92.6875C455.407 93.7675 455.192 94.7175 454.762 95.5375C454.332 96.3475 453.727 96.9825 452.947 97.4425C452.167 97.8925 451.262 98.1175 450.232 98.1175ZM450.247 96.4975C450.917 96.4975 451.502 96.3475 452.002 96.0475C452.502 95.7375 452.887 95.2975 453.157 94.7275C453.427 94.1575 453.562 93.4775 453.562 92.6875C453.562 91.8975 453.427 91.2175 453.157 90.6475C452.887 90.0775 452.502 89.6425 452.002 89.3425C451.502 89.0325 450.917 88.8775 450.247 88.8775C449.577 88.8775 448.992 89.0325 448.492 89.3425C447.992 89.6425 447.602 90.0775 447.322 90.6475C447.052 91.2175 446.917 91.8975 446.917 92.6875C446.917 93.4775 447.052 94.1575 447.322 94.7275C447.602 95.2975 447.992 95.7375 448.492 96.0475C448.992 96.3475 449.577 96.4975 450.247 96.4975Z" fill="#101C2E"/>
<rect x="322.816" y="123.363" width="61.7031" height="4.94238" fill="#E5E5F1"/>
<rect x="322.816" y="151.066" width="30.9917" height="4.94238" fill="#E5E5F1"/>
<rect x="417.967" y="123.363" width="46.7046" height="4.94238" fill="#E5E5F1"/>
<rect x="322.816" y="270.5" width="18.5031" height="4.94238" fill="#E5E5F1"/>
<rect x="399.464" y="270.5" width="18.5031" height="4.94238" fill="#E5E5F1"/>
<rect x="437.633" y="270.5" width="56.6721" height="4.94238" fill="#E5E5F1"/>
<rect x="322.816" y="309.671" width="33.7466" height="4.94238" fill="#E5E5F1"/>
<rect x="322.816" y="324.735" width="48.4135" height="4.94238" fill="#E5E5F1"/>
<rect x="402.03" y="309.671" width="50.1603" height="4.94238" fill="#E5E5F1"/>
<rect x="463.34" y="324.735" width="30.9651" height="4.94238" fill="#E5E5F1"/>
<rect x="463.34" y="309.671" width="30.9651" height="4.94238" fill="#E5E5F1"/>
<rect x="322.816" y="137.214" width="37.4813" height="4.94238" fill="#E5E5F1"/>
<rect x="322.816" y="284.352" width="171.489" height="1.34473" fill="#101C2E" fill-opacity="0.25"/>
<rect x="417.967" y="137.214" width="37.4813" height="4.94238" fill="#E5E5F1"/>
<path d="M459.192 235.714C460.613 235.714 461.771 234.561 461.701 233.142C461.265 224.311 458.589 215.721 453.906 208.189C449.223 200.656 442.703 194.455 434.977 190.157C433.735 189.466 432.189 189.995 431.56 191.269C430.932 192.544 431.459 194.08 432.697 194.777C439.564 198.646 445.36 204.188 449.536 210.905C453.712 217.622 456.117 225.272 456.549 233.142C456.626 234.561 457.771 235.714 459.192 235.714Z" fill="#DDDDDD"/>
<path d="M430.956 190.976C431.567 189.694 431.025 188.152 429.714 187.605C423.906 185.18 417.7 183.825 411.396 183.611C405.092 183.398 398.809 184.331 392.85 186.357C391.505 186.814 390.86 188.315 391.383 189.636C391.907 190.958 393.4 191.597 394.748 191.147C400.046 189.377 405.625 188.564 411.222 188.754C416.819 188.943 422.33 190.132 427.497 192.256C428.812 192.796 430.345 192.259 430.956 190.976Z" fill="#DDDDDD"/>
<path d="M390.625 189.944C390.08 188.632 388.571 188.004 387.287 188.613C379.05 192.521 371.981 198.521 366.788 206.014C365.978 207.182 366.352 208.772 367.559 209.523C368.765 210.274 370.346 209.9 371.162 208.737C375.78 202.15 382.014 196.859 389.264 193.372C390.544 192.756 391.17 191.256 390.625 189.944Z" fill="#DDDDDD"/>
<path d="M367.197 210.113C365.981 209.379 364.393 209.768 363.72 211.019C360.063 217.818 357.962 225.345 357.568 233.056C357.496 234.475 358.652 235.629 360.073 235.632C361.494 235.634 362.64 234.483 362.721 233.065C363.103 226.288 364.95 219.675 368.132 213.68C368.798 212.425 368.414 210.847 367.197 210.113Z" fill="#FF4840"/>
<circle cx="363.349" cy="217.89" r="5.84858" fill="#FF4840"/>
<circle cx="363.349" cy="217.89" r="3.02915" fill="white"/>
<path d="M405.343 218.389C404.999 218.389 404.686 218.329 404.403 218.207C404.12 218.081 403.892 217.891 403.72 217.639C403.554 217.381 403.465 217.058 403.455 216.668H404.35C404.355 216.845 404.395 217.007 404.471 217.154C404.552 217.295 404.666 217.409 404.812 217.495C404.959 217.576 405.136 217.616 405.343 217.616C405.54 217.616 405.707 217.578 405.843 217.502C405.985 217.427 406.091 217.323 406.162 217.192C406.232 217.06 406.268 216.914 406.268 216.752C406.268 216.555 406.22 216.393 406.124 216.267C406.028 216.135 405.896 216.037 405.729 215.971C405.563 215.905 405.373 215.872 405.161 215.872H404.767V215.122H405.161C405.439 215.122 405.666 215.059 405.843 214.932C406.02 214.801 406.108 214.611 406.108 214.364C406.108 214.157 406.04 213.99 405.904 213.863C405.772 213.737 405.583 213.674 405.335 213.674C405.077 213.674 404.873 213.75 404.721 213.901C404.575 214.053 404.494 214.24 404.479 214.462H403.584C403.599 214.144 403.68 213.869 403.827 213.636C403.978 213.398 404.183 213.217 404.441 213.09C404.698 212.964 404.999 212.901 405.343 212.901C405.702 212.901 406.005 212.964 406.253 213.09C406.5 213.217 406.687 213.386 406.814 213.598C406.945 213.81 407.011 214.043 407.011 214.296C407.011 214.493 406.973 214.672 406.897 214.834C406.821 214.996 406.717 215.132 406.586 215.243C406.46 215.349 406.311 215.428 406.139 215.478C406.336 215.519 406.51 215.597 406.662 215.713C406.819 215.829 406.94 215.979 407.026 216.161C407.117 216.337 407.162 216.545 407.162 216.782C407.162 217.07 407.091 217.338 406.95 217.586C406.814 217.828 406.609 218.023 406.336 218.169C406.068 218.316 405.737 218.389 405.343 218.389ZM409.881 218.389C409.537 218.389 409.224 218.329 408.941 218.207C408.658 218.081 408.431 217.891 408.259 217.639C408.092 217.381 408.003 217.058 407.993 216.668H408.888C408.893 216.845 408.933 217.007 409.009 217.154C409.09 217.295 409.204 217.409 409.35 217.495C409.497 217.576 409.674 217.616 409.881 217.616C410.078 217.616 410.245 217.578 410.381 217.502C410.523 217.427 410.629 217.323 410.7 217.192C410.771 217.06 410.806 216.914 410.806 216.752C410.806 216.555 410.758 216.393 410.662 216.267C410.566 216.135 410.434 216.037 410.268 215.971C410.101 215.905 409.911 215.872 409.699 215.872H409.305V215.122H409.699C409.977 215.122 410.204 215.059 410.381 214.932C410.558 214.801 410.647 214.611 410.647 214.364C410.647 214.157 410.578 213.99 410.442 213.863C410.311 213.737 410.121 213.674 409.873 213.674C409.616 213.674 409.411 213.75 409.259 213.901C409.113 214.053 409.032 214.24 409.017 214.462H408.122C408.137 214.144 408.218 213.869 408.365 213.636C408.516 213.398 408.721 213.217 408.979 213.09C409.237 212.964 409.537 212.901 409.881 212.901C410.24 212.901 410.543 212.964 410.791 213.09C411.038 213.217 411.225 213.386 411.352 213.598C411.483 213.81 411.549 214.043 411.549 214.296C411.549 214.493 411.511 214.672 411.435 214.834C411.359 214.996 411.256 215.132 411.124 215.243C410.998 215.349 410.849 215.428 410.677 215.478C410.874 215.519 411.048 215.597 411.2 215.713C411.357 215.829 411.478 215.979 411.564 216.161C411.655 216.337 411.7 216.545 411.7 216.782C411.7 217.07 411.63 217.338 411.488 217.586C411.352 217.828 411.147 218.023 410.874 218.169C410.606 218.316 410.275 218.389 409.881 218.389ZM412.569 218.298V217.639C412.908 217.371 413.232 217.103 413.54 216.835C413.848 216.567 414.126 216.302 414.374 216.039C414.621 215.776 414.816 215.519 414.957 215.266C415.099 215.013 415.17 214.771 415.17 214.538C415.17 214.387 415.142 214.245 415.086 214.114C415.031 213.982 414.942 213.876 414.821 213.795C414.705 213.714 414.548 213.674 414.351 213.674C414.159 213.674 413.995 213.717 413.858 213.803C413.727 213.889 413.628 214.005 413.563 214.152C413.497 214.293 413.464 214.455 413.464 214.637H412.585C412.595 214.253 412.678 213.932 412.835 213.674C412.991 213.416 413.204 213.224 413.472 213.098C413.739 212.966 414.04 212.901 414.374 212.901C414.733 212.901 415.038 212.966 415.291 213.098C415.544 213.229 415.738 213.414 415.875 213.651C416.011 213.889 416.079 214.169 416.079 214.493C416.079 214.73 416.034 214.965 415.943 215.198C415.857 215.425 415.736 215.648 415.579 215.865C415.422 216.077 415.246 216.284 415.048 216.486C414.856 216.684 414.657 216.873 414.45 217.055C414.242 217.232 414.043 217.396 413.851 217.548H416.224V218.298H412.569Z" fill="#101C2E"/>
<path d="M402.158 224.793L403.548 219.957H404.093L402.703 224.793H402.158ZM405.101 224.232V220.969L404.423 221.141V220.724L405.307 220.34H405.668V224.232H405.101ZM407.998 224.299C407.653 224.299 407.357 224.215 407.109 224.048C406.86 223.878 406.669 223.643 406.536 223.342C406.402 223.039 406.336 222.686 406.336 222.286C406.336 221.886 406.402 221.536 406.536 221.235C406.669 220.932 406.86 220.696 407.109 220.529C407.357 220.359 407.653 220.274 407.998 220.274C408.343 220.274 408.637 220.359 408.882 220.529C409.13 220.696 409.319 220.932 409.449 221.235C409.582 221.536 409.649 221.886 409.649 222.286C409.649 222.686 409.582 223.039 409.449 223.342C409.319 223.643 409.13 223.878 408.882 224.048C408.637 224.215 408.343 224.299 407.998 224.299ZM407.998 223.804C408.206 223.804 408.391 223.743 408.554 223.62C408.721 223.498 408.85 223.324 408.943 223.098C409.036 222.872 409.082 222.601 409.082 222.286C409.082 221.971 409.036 221.701 408.943 221.474C408.85 221.248 408.721 221.076 408.554 220.957C408.391 220.835 408.206 220.774 407.998 220.774C407.787 220.774 407.598 220.835 407.431 220.957C407.264 221.076 407.134 221.248 407.042 221.474C406.949 221.701 406.903 221.971 406.903 222.286C406.903 222.601 406.949 222.872 407.042 223.098C407.134 223.324 407.264 223.498 407.431 223.62C407.598 223.743 407.787 223.804 407.998 223.804ZM411.836 224.299C411.492 224.299 411.195 224.215 410.947 224.048C410.699 223.878 410.508 223.643 410.374 223.342C410.241 223.039 410.174 222.686 410.174 222.286C410.174 221.886 410.241 221.536 410.374 221.235C410.508 220.932 410.699 220.696 410.947 220.529C411.195 220.359 411.492 220.274 411.836 220.274C412.181 220.274 412.476 220.359 412.72 220.529C412.969 220.696 413.158 220.932 413.287 221.235C413.421 221.536 413.488 221.886 413.488 222.286C413.488 222.686 413.421 223.039 413.287 223.342C413.158 223.643 412.969 223.878 412.72 224.048C412.476 224.215 412.181 224.299 411.836 224.299ZM411.836 223.804C412.044 223.804 412.229 223.743 412.392 223.62C412.559 223.498 412.689 223.324 412.781 223.098C412.874 222.872 412.92 222.601 412.92 222.286C412.92 221.971 412.874 221.701 412.781 221.474C412.689 221.248 412.559 221.076 412.392 220.957C412.229 220.835 412.044 220.774 411.836 220.774C411.625 220.774 411.436 220.835 411.269 220.957C411.103 221.076 410.973 221.248 410.88 221.474C410.788 221.701 410.741 221.971 410.741 222.286C410.741 222.601 410.788 222.872 410.88 223.098C410.973 223.324 411.103 223.498 411.269 223.62C411.436 223.743 411.625 223.804 411.836 223.804ZM415.675 224.299C415.33 224.299 415.034 224.215 414.785 224.048C414.537 223.878 414.346 223.643 414.213 223.342C414.079 223.039 414.012 222.686 414.012 222.286C414.012 221.886 414.079 221.536 414.213 221.235C414.346 220.932 414.537 220.696 414.785 220.529C415.034 220.359 415.33 220.274 415.675 220.274C416.019 220.274 416.314 220.359 416.559 220.529C416.807 220.696 416.996 220.932 417.126 221.235C417.259 221.536 417.326 221.886 417.326 222.286C417.326 222.686 417.259 223.039 417.126 223.342C416.996 223.643 416.807 223.878 416.559 224.048C416.314 224.215 416.019 224.299 415.675 224.299ZM415.675 223.804C415.882 223.804 416.068 223.743 416.231 223.62C416.397 223.498 416.527 223.324 416.62 223.098C416.713 222.872 416.759 222.601 416.759 222.286C416.759 221.971 416.713 221.701 416.62 221.474C416.527 221.248 416.397 221.076 416.231 220.957C416.068 220.835 415.882 220.774 415.675 220.774C415.463 220.774 415.274 220.835 415.108 220.957C414.941 221.076 414.811 221.248 414.719 221.474C414.626 221.701 414.58 221.971 414.58 222.286C414.58 222.601 414.626 222.872 414.719 223.098C414.811 223.324 414.941 223.498 415.108 223.62C415.274 223.743 415.463 223.804 415.675 223.804Z" fill="#101C2E"/>
</svg>
