<svg width="264" height="44" viewBox="0 0 264 44" fill="none" xmlns="http://www.w3.org/2000/svg">
<rect width="263.2" height="44" rx="7.51522" fill="white"/>
<rect x="8" y="8" width="28" height="28" rx="3.3401" fill="#101C2E"/>
<mask id="mask0_241_668" style="mask-type:alpha" maskUnits="userSpaceOnUse" x="12" y="12" width="20" height="20">
<rect x="12" y="12" width="20" height="20" fill="#D9D9D9"/>
</mask>
<g mask="url(#mask0_241_668)">
<path d="M16.9155 26.5646V19.714H17.9626V26.5646H16.9155ZM21.516 26.5646V19.714H22.5628V26.5646H21.516ZM14.3076 29.0752V28.0282H29.6922V29.0752H14.3076ZM26.0372 26.5646V19.714H27.0843V26.5646H26.0372ZM14.3076 18.2505V17.3382L21.9999 13.29L29.6922 17.3382V18.2505H14.3076ZM16.8172 17.2034H27.1826L21.9999 14.4834L16.8172 17.2034Z" fill="white"/>
</g>
<path d="M44.876 19V10.6H50.096V11.584H46.076V14.308H49.436V15.268H46.076V19H44.876ZM50.9864 19V12.952H52.1864V19H50.9864ZM51.5984 11.812C51.3664 11.812 51.1744 11.74 51.0224 11.596C50.8784 11.452 50.8064 11.268 50.8064 11.044C50.8064 10.828 50.8784 10.652 51.0224 10.516C51.1744 10.372 51.3664 10.3 51.5984 10.3C51.8224 10.3 52.0104 10.372 52.1624 10.516C52.3144 10.652 52.3904 10.828 52.3904 11.044C52.3904 11.268 52.3144 11.452 52.1624 11.596C52.0104 11.74 51.8224 11.812 51.5984 11.812ZM53.4849 19V12.952H54.5649L54.6369 13.984C54.8289 13.624 55.1009 13.34 55.4529 13.132C55.8049 12.916 56.2089 12.808 56.6649 12.808C57.1449 12.808 57.5569 12.904 57.9009 13.096C58.2449 13.288 58.5129 13.58 58.7049 13.972C58.8969 14.356 58.9929 14.84 58.9929 15.424V19H57.7929V15.544C57.7929 14.984 57.6689 14.56 57.4209 14.272C57.1729 13.984 56.8129 13.84 56.3409 13.84C56.0289 13.84 55.7489 13.916 55.5009 14.068C55.2529 14.212 55.0529 14.428 54.9009 14.716C54.7569 15.004 54.6849 15.356 54.6849 15.772V19H53.4849ZM62.1143 19.144C61.6183 19.144 61.2063 19.06 60.8783 18.892C60.5503 18.724 60.3063 18.5 60.1463 18.22C59.9863 17.932 59.9063 17.624 59.9063 17.296C59.9063 16.896 60.0103 16.556 60.2183 16.276C60.4263 15.988 60.7223 15.768 61.1063 15.616C61.4903 15.464 61.9503 15.388 62.4863 15.388H64.0583C64.0583 15.036 64.0063 14.744 63.9023 14.512C63.7983 14.28 63.6423 14.108 63.4343 13.996C63.2343 13.876 62.9783 13.816 62.6663 13.816C62.3063 13.816 61.9983 13.904 61.7423 14.08C61.4863 14.248 61.3263 14.5 61.2623 14.836H60.0623C60.1103 14.412 60.2543 14.052 60.4943 13.756C60.7423 13.452 61.0583 13.22 61.4423 13.06C61.8263 12.892 62.2343 12.808 62.6663 12.808C63.2343 12.808 63.7103 12.908 64.0943 13.108C64.4783 13.308 64.7663 13.592 64.9583 13.96C65.1583 14.32 65.2583 14.752 65.2583 15.256V19H64.2143L64.1183 17.98C64.0303 18.14 63.9263 18.292 63.8063 18.436C63.6863 18.58 63.5423 18.704 63.3743 18.808C63.2143 18.912 63.0263 18.992 62.8103 19.048C62.6023 19.112 62.3703 19.144 62.1143 19.144ZM62.3423 18.172C62.5983 18.172 62.8303 18.12 63.0383 18.016C63.2463 17.912 63.4223 17.772 63.5663 17.596C63.7183 17.412 63.8303 17.208 63.9023 16.984C63.9823 16.752 64.0263 16.516 64.0343 16.276V16.24H62.6063C62.2623 16.24 61.9823 16.284 61.7663 16.372C61.5583 16.452 61.4063 16.564 61.3103 16.708C61.2143 16.852 61.1663 17.02 61.1663 17.212C61.1663 17.412 61.2103 17.584 61.2983 17.728C61.3943 17.864 61.5303 17.972 61.7063 18.052C61.8823 18.132 62.0943 18.172 62.3423 18.172ZM66.3725 19V12.952H67.4525L67.5245 13.984C67.7165 13.624 67.9885 13.34 68.3405 13.132C68.6925 12.916 69.0965 12.808 69.5525 12.808C70.0325 12.808 70.4445 12.904 70.7885 13.096C71.1325 13.288 71.4005 13.58 71.5925 13.972C71.7845 14.356 71.8805 14.84 71.8805 15.424V19H70.6805V15.544C70.6805 14.984 70.5565 14.56 70.3085 14.272C70.0605 13.984 69.7005 13.84 69.2285 13.84C68.9165 13.84 68.6365 13.916 68.3885 14.068C68.1405 14.212 67.9405 14.428 67.7885 14.716C67.6445 15.004 67.5725 15.356 67.5725 15.772V19H66.3725ZM75.794 19.144C75.21 19.144 74.69 19.012 74.234 18.748C73.778 18.476 73.418 18.104 73.154 17.632C72.898 17.16 72.77 16.612 72.77 15.988C72.77 15.356 72.898 14.804 73.154 14.332C73.418 13.852 73.778 13.48 74.234 13.216C74.69 12.944 75.21 12.808 75.794 12.808C76.53 12.808 77.146 13 77.642 13.384C78.138 13.768 78.454 14.288 78.59 14.944H77.342C77.262 14.592 77.078 14.32 76.79 14.128C76.51 13.936 76.174 13.84 75.782 13.84C75.462 13.84 75.166 13.924 74.894 14.092C74.622 14.252 74.402 14.492 74.234 14.812C74.074 15.124 73.994 15.512 73.994 15.976C73.994 16.32 74.042 16.628 74.138 16.9C74.234 17.164 74.362 17.388 74.522 17.572C74.69 17.756 74.882 17.896 75.098 17.992C75.314 18.08 75.542 18.124 75.782 18.124C76.046 18.124 76.282 18.084 76.49 18.004C76.706 17.916 76.886 17.788 77.03 17.62C77.182 17.452 77.286 17.252 77.342 17.02H78.59C78.454 17.66 78.138 18.176 77.642 18.568C77.146 18.952 76.53 19.144 75.794 19.144ZM79.6606 19V12.952H80.8606V19H79.6606ZM80.2726 11.812C80.0406 11.812 79.8486 11.74 79.6966 11.596C79.5526 11.452 79.4806 11.268 79.4806 11.044C79.4806 10.828 79.5526 10.652 79.6966 10.516C79.8486 10.372 80.0406 10.3 80.2726 10.3C80.4966 10.3 80.6846 10.372 80.8366 10.516C80.9886 10.652 81.0646 10.828 81.0646 11.044C81.0646 11.268 80.9886 11.452 80.8366 11.596C80.6846 11.74 80.4966 11.812 80.2726 11.812ZM84.163 19.144C83.667 19.144 83.255 19.06 82.927 18.892C82.599 18.724 82.355 18.5 82.195 18.22C82.035 17.932 81.955 17.624 81.955 17.296C81.955 16.896 82.059 16.556 82.267 16.276C82.475 15.988 82.771 15.768 83.155 15.616C83.539 15.464 83.999 15.388 84.535 15.388H86.107C86.107 15.036 86.055 14.744 85.951 14.512C85.847 14.28 85.691 14.108 85.483 13.996C85.283 13.876 85.027 13.816 84.715 13.816C84.355 13.816 84.047 13.904 83.791 14.08C83.535 14.248 83.375 14.5 83.311 14.836H82.111C82.159 14.412 82.303 14.052 82.543 13.756C82.791 13.452 83.107 13.22 83.491 13.06C83.875 12.892 84.283 12.808 84.715 12.808C85.283 12.808 85.759 12.908 86.143 13.108C86.527 13.308 86.815 13.592 87.007 13.96C87.207 14.32 87.307 14.752 87.307 15.256V19H86.263L86.167 17.98C86.079 18.14 85.975 18.292 85.855 18.436C85.735 18.58 85.591 18.704 85.423 18.808C85.263 18.912 85.075 18.992 84.859 19.048C84.651 19.112 84.419 19.144 84.163 19.144ZM84.391 18.172C84.647 18.172 84.879 18.12 85.087 18.016C85.295 17.912 85.471 17.772 85.615 17.596C85.767 17.412 85.879 17.208 85.951 16.984C86.031 16.752 86.075 16.516 86.083 16.276V16.24H84.655C84.311 16.24 84.031 16.284 83.815 16.372C83.607 16.452 83.455 16.564 83.359 16.708C83.263 16.852 83.215 17.02 83.215 17.212C83.215 17.412 83.259 17.584 83.347 17.728C83.443 17.864 83.579 17.972 83.755 18.052C83.931 18.132 84.143 18.172 84.391 18.172ZM88.4212 19V12.952H89.5012L89.5852 13.804C89.7772 13.492 90.0332 13.248 90.3532 13.072C90.6732 12.896 91.0332 12.808 91.4332 12.808C91.7372 12.808 92.0132 12.852 92.2612 12.94C92.5092 13.02 92.7292 13.144 92.9212 13.312C93.1132 13.48 93.2692 13.688 93.3892 13.936C93.6052 13.584 93.8932 13.308 94.2532 13.108C94.6212 12.908 95.0092 12.808 95.4172 12.808C95.9052 12.808 96.3252 12.908 96.6772 13.108C97.0292 13.3 97.2972 13.592 97.4812 13.984C97.6652 14.368 97.7572 14.848 97.7572 15.424V19H96.5692V15.544C96.5692 14.984 96.4532 14.56 96.2212 14.272C95.9972 13.984 95.6652 13.84 95.2252 13.84C94.9292 13.84 94.6652 13.916 94.4332 14.068C94.2012 14.22 94.0172 14.44 93.8812 14.728C93.7532 15.016 93.6892 15.368 93.6892 15.784V19H92.4892V15.544C92.4892 14.984 92.3732 14.56 92.1412 14.272C91.9172 13.984 91.5852 13.84 91.1452 13.84C90.8652 13.84 90.6092 13.916 90.3772 14.068C90.1452 14.22 89.9612 14.44 89.8252 14.728C89.6892 15.016 89.6212 15.368 89.6212 15.784V19H88.4212ZM101.626 19.144C101.05 19.144 100.538 19.012 100.09 18.748C99.6424 18.484 99.2904 18.116 99.0344 17.644C98.7864 17.172 98.6624 16.624 98.6624 16C98.6624 15.36 98.7864 14.804 99.0344 14.332C99.2904 13.852 99.6424 13.48 100.09 13.216C100.538 12.944 101.058 12.808 101.65 12.808C102.242 12.808 102.75 12.94 103.174 13.204C103.598 13.468 103.926 13.82 104.158 14.26C104.39 14.692 104.506 15.172 104.506 15.7C104.506 15.78 104.502 15.868 104.494 15.964C104.494 16.052 104.49 16.152 104.482 16.264H99.5384V15.412H103.306C103.282 14.908 103.114 14.516 102.802 14.236C102.49 13.948 102.102 13.804 101.638 13.804C101.31 13.804 101.01 13.88 100.738 14.032C100.466 14.176 100.246 14.392 100.078 14.68C99.9184 14.96 99.8384 15.316 99.8384 15.748V16.084C99.8384 16.532 99.9184 16.912 100.078 17.224C100.246 17.528 100.466 17.76 100.738 17.92C101.01 18.072 101.306 18.148 101.626 18.148C102.01 18.148 102.326 18.064 102.574 17.896C102.822 17.728 103.006 17.5 103.126 17.212H104.326C104.222 17.58 104.046 17.912 103.798 18.208C103.55 18.496 103.242 18.724 102.874 18.892C102.514 19.06 102.098 19.144 101.626 19.144ZM105.422 19V12.952H106.502L106.574 13.984C106.766 13.624 107.038 13.34 107.39 13.132C107.742 12.916 108.146 12.808 108.602 12.808C109.082 12.808 109.494 12.904 109.838 13.096C110.182 13.288 110.45 13.58 110.642 13.972C110.834 14.356 110.93 14.84 110.93 15.424V19H109.73V15.544C109.73 14.984 109.606 14.56 109.358 14.272C109.11 13.984 108.75 13.84 108.278 13.84C107.966 13.84 107.686 13.916 107.438 14.068C107.19 14.212 106.99 14.428 106.838 14.716C106.694 15.004 106.622 15.356 106.622 15.772V19H105.422ZM114.544 19C114.16 19 113.828 18.94 113.548 18.82C113.268 18.7 113.052 18.5 112.9 18.22C112.748 17.94 112.672 17.56 112.672 17.08V13.972H111.628V12.952H112.672L112.816 11.44H113.872V12.952H115.588V13.972H113.872V17.092C113.872 17.436 113.944 17.672 114.088 17.8C114.232 17.92 114.48 17.98 114.832 17.98H115.528V19H114.544ZM119.089 19.144C118.521 19.144 118.009 19.012 117.553 18.748C117.105 18.484 116.749 18.116 116.485 17.644C116.229 17.164 116.101 16.612 116.101 15.988C116.101 15.348 116.233 14.792 116.497 14.32C116.761 13.84 117.121 13.468 117.577 13.204C118.033 12.94 118.545 12.808 119.113 12.808C119.689 12.808 120.201 12.94 120.649 13.204C121.097 13.468 121.449 13.836 121.705 14.308C121.969 14.78 122.101 15.336 122.101 15.976C122.101 16.616 121.969 17.172 121.705 17.644C121.449 18.116 121.093 18.484 120.637 18.748C120.181 19.012 119.665 19.144 119.089 19.144ZM119.089 18.112C119.417 18.112 119.713 18.032 119.977 17.872C120.249 17.712 120.465 17.476 120.625 17.164C120.793 16.844 120.877 16.448 120.877 15.976C120.877 15.504 120.797 15.112 120.637 14.8C120.477 14.48 120.261 14.24 119.989 14.08C119.725 13.92 119.433 13.84 119.113 13.84C118.793 13.84 118.497 13.92 118.225 14.08C117.953 14.24 117.733 14.48 117.565 14.8C117.405 15.112 117.325 15.504 117.325 15.976C117.325 16.448 117.405 16.844 117.565 17.164C117.733 17.476 117.949 17.712 118.213 17.872C118.485 18.032 118.777 18.112 119.089 18.112Z" fill="#15191E"/>
<path d="M44.6 34V28.4H46.568C46.9627 28.4 47.288 28.464 47.544 28.592C47.8053 28.7147 48 28.8853 48.128 29.104C48.256 29.3173 48.32 29.5573 48.32 29.824C48.32 30.112 48.256 30.352 48.128 30.544C48.0053 30.736 47.8427 30.8827 47.64 30.984C47.4427 31.0853 47.232 31.1467 47.008 31.168L47.12 31.088C47.36 31.0933 47.5813 31.1573 47.784 31.28C47.9867 31.4027 48.1467 31.568 48.264 31.776C48.3867 31.984 48.448 32.216 48.448 32.472C48.448 32.7547 48.3787 33.0133 48.24 33.248C48.1013 33.4773 47.896 33.6613 47.624 33.8C47.3573 33.9333 47.0267 34 46.632 34H44.6ZM45.272 33.44H46.56C46.9387 33.44 47.232 33.352 47.44 33.176C47.6533 32.9947 47.76 32.744 47.76 32.424C47.76 32.1093 47.6507 31.8587 47.432 31.672C47.2187 31.48 46.9227 31.384 46.544 31.384H45.272V33.44ZM45.272 30.848H46.52C46.8827 30.848 47.1573 30.7627 47.344 30.592C47.536 30.4213 47.632 30.1893 47.632 29.896C47.632 29.6133 47.536 29.3867 47.344 29.216C47.1573 29.0453 46.8747 28.96 46.496 28.96H45.272V30.848ZM48.7662 34L50.8302 28.4H51.5422L53.5982 34H52.8862L51.1822 29.24L49.4702 34H48.7662ZM49.7102 32.56L49.9022 32.016H52.4382L52.6302 32.56H49.7102ZM54.2383 34V28.4H54.9103L57.8943 32.888V28.4H58.5663V34H57.8943L54.9103 29.512V34H54.2383ZM62.0011 34.096C61.4571 34.096 60.9851 33.976 60.5851 33.736C60.1904 33.4907 59.8864 33.152 59.6731 32.72C59.4598 32.2827 59.3531 31.776 59.3531 31.2C59.3531 30.624 59.4598 30.12 59.6731 29.688C59.8864 29.2507 60.1904 28.912 60.5851 28.672C60.9851 28.4267 61.4571 28.304 62.0011 28.304C62.6411 28.304 63.1611 28.456 63.5611 28.76C63.9611 29.064 64.2171 29.4933 64.3291 30.048H63.5851C63.4998 29.7013 63.3264 29.424 63.0651 29.216C62.8038 29.0027 62.4491 28.896 62.0011 28.896C61.6011 28.896 61.2544 28.9893 60.9611 29.176C60.6678 29.3573 60.4411 29.6213 60.2811 29.968C60.1211 30.3093 60.0411 30.72 60.0411 31.2C60.0411 31.68 60.1211 32.0933 60.2811 32.44C60.4411 32.7813 60.6678 33.0453 60.9611 33.232C61.2544 33.4133 61.6011 33.504 62.0011 33.504C62.4491 33.504 62.8038 33.4027 63.0651 33.2C63.3264 32.992 63.4998 32.7173 63.5851 32.376H64.3291C64.2171 32.9147 63.9611 33.336 63.5611 33.64C63.1611 33.944 62.6411 34.096 62.0011 34.096ZM67.5991 34.096C67.0604 34.096 66.5857 33.976 66.1751 33.736C65.7697 33.4907 65.4524 33.152 65.2231 32.72C64.9991 32.2827 64.8871 31.776 64.8871 31.2C64.8871 30.6293 64.9991 30.128 65.2231 29.696C65.4524 29.2587 65.7697 28.9173 66.1751 28.672C66.5857 28.4267 67.0604 28.304 67.5991 28.304C68.1484 28.304 68.6257 28.4267 69.0311 28.672C69.4364 28.9173 69.7511 29.2587 69.9751 29.696C70.2044 30.128 70.3191 30.6293 70.3191 31.2C70.3191 31.776 70.2044 32.2827 69.9751 32.72C69.7511 33.152 69.4364 33.4907 69.0311 33.736C68.6257 33.976 68.1484 34.096 67.5991 34.096ZM67.5991 33.504C68.0044 33.504 68.3591 33.4133 68.6631 33.232C68.9724 33.0453 69.2097 32.7813 69.3751 32.44C69.5457 32.0933 69.6311 31.68 69.6311 31.2C69.6311 30.72 69.5457 30.3093 69.3751 29.968C69.2097 29.6213 68.9724 29.3573 68.6631 29.176C68.3591 28.9947 68.0044 28.904 67.5991 28.904C67.1991 28.904 66.8444 28.9947 66.5351 29.176C66.2311 29.3573 65.9937 29.6213 65.8231 29.968C65.6577 30.3093 65.5751 30.72 65.5751 31.2C65.5751 31.68 65.6577 32.0933 65.8231 32.44C65.9937 32.7813 66.2311 33.0453 66.5351 33.232C66.8444 33.4133 67.1991 33.504 67.5991 33.504Z" fill="#707070"/>
<rect x="196.84" y="13.8203" width="58.3597" height="16.3597" rx="6.6802" fill="#FF4000"/>
<circle cx="209.02" cy="22.0001" r="4.17984" fill="white"/>
<mask id="mask1_241_668" style="mask-type:alpha" maskUnits="userSpaceOnUse" x="206" y="19" width="6" height="6">
<rect x="206.218" y="19.1982" width="5.60402" height="5.60402" fill="#D9D9D9"/>
</mask>
<g mask="url(#mask1_241_668)">
<path d="M208.448 23.4011L207.117 22.0702L207.45 21.7374L208.448 22.7356L210.591 20.5933L210.923 20.926L208.448 23.4011Z" fill="#FF4000"/>
</g>
<path d="M217.367 24L219.077 19.3239H219.972L221.683 24H220.834L219.518 20.2591L218.202 24H217.367ZM218.129 22.8978L218.343 22.2631H220.647L220.861 22.8978H218.129ZM222.099 25.4696V20.6332H222.813L222.9 21.1208C222.972 21.0229 223.056 20.9316 223.154 20.8469C223.257 20.7579 223.379 20.6866 223.522 20.6332C223.669 20.5797 223.836 20.553 224.023 20.553C224.339 20.553 224.617 20.631 224.858 20.7868C225.103 20.9427 225.294 21.1542 225.432 21.4214C225.57 21.6842 225.639 21.9848 225.639 22.3233C225.639 22.6617 225.568 22.9646 225.425 23.2318C225.287 23.4945 225.096 23.7016 224.851 23.853C224.61 24.0045 224.334 24.0802 224.023 24.0802C223.769 24.0802 223.546 24.0334 223.355 23.9399C223.168 23.8419 223.016 23.7038 222.9 23.5257V25.4696H222.099ZM223.856 23.3854C224.043 23.3854 224.21 23.3409 224.357 23.2518C224.504 23.1627 224.617 23.0381 224.697 22.8777C224.782 22.7174 224.824 22.5326 224.824 22.3233C224.824 22.1095 224.782 21.9225 224.697 21.7621C224.617 21.6018 224.504 21.4771 224.357 21.388C224.21 21.299 224.043 21.2544 223.856 21.2544C223.664 21.2544 223.495 21.299 223.348 21.388C223.205 21.4771 223.092 21.6018 223.007 21.7621C222.927 21.9225 222.887 22.1073 222.887 22.3166C222.887 22.5304 222.927 22.7174 223.007 22.8777C223.092 23.0336 223.205 23.1583 223.348 23.2518C223.495 23.3409 223.664 23.3854 223.856 23.3854ZM226.217 24V20.6332H226.932L227.005 21.2611C227.085 21.1142 227.186 20.9895 227.306 20.887C227.426 20.7801 227.566 20.6978 227.727 20.6399C227.891 20.582 228.072 20.553 228.268 20.553V21.4014H227.987C227.854 21.4014 227.727 21.4192 227.606 21.4548C227.486 21.486 227.382 21.5395 227.292 21.6152C227.208 21.6864 227.141 21.7866 227.092 21.9158C227.043 22.0405 227.019 22.1986 227.019 22.3901V24H226.217ZM230.17 24.0802C229.849 24.0802 229.56 24.0067 229.301 23.8597C229.047 23.7083 228.847 23.5012 228.7 23.2385C228.558 22.9712 228.486 22.6662 228.486 22.3233C228.486 21.9714 228.56 21.6642 228.707 21.4014C228.854 21.1342 229.054 20.9271 229.308 20.7801C229.566 20.6287 229.856 20.553 230.176 20.553C230.497 20.553 230.784 20.6287 231.038 20.7801C231.296 20.9271 231.497 21.132 231.639 21.3947C231.786 21.6575 231.86 21.9648 231.86 22.3166C231.86 22.6684 231.786 22.9757 231.639 23.2385C231.492 23.5012 231.29 23.7083 231.031 23.8597C230.778 24.0067 230.49 24.0802 230.17 24.0802ZM230.17 23.3921C230.33 23.3921 230.475 23.352 230.604 23.2719C230.738 23.1917 230.844 23.0715 230.925 22.9111C231.005 22.7508 231.045 22.5526 231.045 22.3166C231.045 22.0806 231.005 21.8846 230.925 21.7287C230.849 21.5684 230.744 21.4482 230.611 21.368C230.481 21.2878 230.337 21.2478 230.176 21.2478C230.021 21.2478 229.876 21.2878 229.742 21.368C229.609 21.4482 229.502 21.5684 229.422 21.7287C229.341 21.8846 229.301 22.0806 229.301 22.3166C229.301 22.5526 229.341 22.7508 229.422 22.9111C229.502 23.0715 229.606 23.1917 229.736 23.2719C229.869 23.352 230.014 23.3921 230.17 23.3921ZM233.203 24L231.96 20.6332H232.802L233.691 23.2385L234.579 20.6332H235.407L234.165 24H233.203ZM236.706 24.0802C236.43 24.0802 236.201 24.0334 236.018 23.9399C235.835 23.8464 235.7 23.7217 235.611 23.5658C235.521 23.4099 235.477 23.2407 235.477 23.0581C235.477 22.8443 235.53 22.6595 235.637 22.5036C235.749 22.3478 235.911 22.2275 236.125 22.1429C236.339 22.0538 236.601 22.0093 236.913 22.0093H237.762C237.762 21.8312 237.737 21.6842 237.688 21.5684C237.639 21.4482 237.563 21.3591 237.461 21.3012C237.359 21.2433 237.227 21.2144 237.067 21.2144C236.884 21.2144 236.728 21.2567 236.599 21.3413C236.47 21.4214 236.39 21.5461 236.359 21.7154H235.57C235.597 21.4749 235.677 21.27 235.811 21.1008C235.945 20.9271 236.12 20.7935 236.339 20.7C236.561 20.602 236.804 20.553 237.067 20.553C237.383 20.553 237.652 20.6087 237.875 20.72C238.098 20.8269 238.267 20.9828 238.383 21.1876C238.503 21.388 238.563 21.6308 238.563 21.9158V24H237.882L237.802 23.4589C237.757 23.548 237.699 23.6304 237.628 23.7061C237.561 23.7818 237.483 23.8486 237.394 23.9065C237.305 23.9599 237.203 24.0022 237.087 24.0334C236.976 24.0646 236.849 24.0802 236.706 24.0802ZM236.886 23.4455C237.016 23.4455 237.129 23.4233 237.227 23.3787C237.33 23.3298 237.416 23.263 237.488 23.1783C237.563 23.0893 237.621 22.9913 237.661 22.8844C237.701 22.7775 237.728 22.664 237.742 22.5437V22.5304H237C236.844 22.5304 236.715 22.5504 236.613 22.5905C236.51 22.6261 236.437 22.6795 236.392 22.7508C236.348 22.8221 236.325 22.9044 236.325 22.998C236.325 23.0915 236.348 23.1717 236.392 23.2385C236.437 23.3053 236.501 23.3565 236.586 23.3921C236.67 23.4277 236.771 23.4455 236.886 23.4455ZM240.716 24.0802C240.404 24.0802 240.126 24.0045 239.881 23.853C239.636 23.7016 239.444 23.4923 239.306 23.2251C239.173 22.9579 239.106 22.6551 239.106 22.3166C239.106 21.9781 239.175 21.6775 239.313 21.4148C239.451 21.1476 239.642 20.9382 239.887 20.7868C240.137 20.631 240.417 20.553 240.729 20.553C240.983 20.553 241.203 20.602 241.39 20.7C241.582 20.7935 241.733 20.9271 241.845 21.1008V19.1903H242.646V24H241.925L241.845 23.5123C241.773 23.6103 241.687 23.7038 241.584 23.7929C241.482 23.8775 241.359 23.9466 241.217 24C241.074 24.0534 240.907 24.0802 240.716 24.0802ZM240.883 23.3854C241.074 23.3854 241.243 23.3409 241.39 23.2518C241.537 23.1583 241.651 23.0314 241.731 22.871C241.811 22.7107 241.851 22.5259 241.851 22.3166C241.851 22.1073 241.811 21.9225 241.731 21.7621C241.651 21.6018 241.537 21.4771 241.39 21.388C241.243 21.299 241.074 21.2544 240.883 21.2544C240.7 21.2544 240.535 21.299 240.388 21.388C240.241 21.4771 240.126 21.6018 240.041 21.7621C239.961 21.9225 239.921 22.1073 239.921 22.3166C239.921 22.5259 239.961 22.7107 240.041 22.871C240.126 23.0314 240.241 23.1583 240.388 23.2518C240.535 23.3409 240.7 23.3854 240.883 23.3854ZM244.907 24.0802C244.587 24.0802 244.297 24.0067 244.039 23.8597C243.785 23.7083 243.585 23.5012 243.438 23.2385C243.295 22.9712 243.224 22.6662 243.224 22.3233C243.224 21.9714 243.297 21.6642 243.444 21.4014C243.591 21.1342 243.792 20.9271 244.046 20.7801C244.304 20.6287 244.593 20.553 244.914 20.553C245.235 20.553 245.522 20.6287 245.776 20.7801C246.034 20.9271 246.235 21.132 246.377 21.3947C246.524 21.6575 246.597 21.9648 246.597 22.3166C246.597 22.6684 246.524 22.9757 246.377 23.2385C246.23 23.5012 246.027 23.7083 245.769 23.8597C245.515 24.0067 245.228 24.0802 244.907 24.0802ZM244.907 23.3921C245.068 23.3921 245.212 23.352 245.342 23.2719C245.475 23.1917 245.582 23.0715 245.662 22.9111C245.742 22.7508 245.783 22.5526 245.783 22.3166C245.783 22.0806 245.742 21.8846 245.662 21.7287C245.587 21.5684 245.482 21.4482 245.348 21.368C245.219 21.2878 245.074 21.2478 244.914 21.2478C244.758 21.2478 244.613 21.2878 244.48 21.368C244.346 21.4482 244.239 21.5684 244.159 21.7287C244.079 21.8846 244.039 22.0806 244.039 22.3166C244.039 22.5526 244.079 22.7508 244.159 22.9111C244.239 23.0715 244.344 23.1917 244.473 23.2719C244.607 23.352 244.752 23.3921 244.907 23.3921Z" fill="white"/>
</svg>
