<svg width="760" height="504" viewBox="0 0 760 504" fill="none" xmlns="http://www.w3.org/2000/svg">
<rect width="759.31" height="504" fill="#101C2E" fill-opacity="0.1"/>
<path d="M51.89 70V49H54.41V70H51.89ZM57.0388 70V55.12H59.2888L59.4988 57.67H59.5288C60.0288 56.77 60.7188 56.06 61.5988 55.54C62.4788 55.02 63.4888 54.76 64.6288 54.76C65.8088 54.76 66.8288 55 67.6888 55.48C68.5488 55.94 69.2088 56.66 69.6688 57.64C70.1488 58.6 70.3888 59.82 70.3888 61.3V70H67.8688V61.57C67.8688 60.03 67.5388 58.87 66.8788 58.09C66.2188 57.31 65.2688 56.92 64.0288 56.92C63.1688 56.92 62.3988 57.13 61.7188 57.55C61.0588 57.97 60.5288 58.58 60.1288 59.38C59.7488 60.16 59.5588 61.13 59.5588 62.29V70H57.0388ZM77.6009 70.36C76.3809 70.36 75.3609 70.15 74.5409 69.73C73.7409 69.31 73.1409 68.75 72.7409 68.05C72.3609 67.35 72.1709 66.59 72.1709 65.77C72.1709 64.75 72.4309 63.89 72.9509 63.19C73.4909 62.49 74.2409 61.96 75.2009 61.6C76.1809 61.22 77.3309 61.03 78.6509 61.03H82.6709C82.6709 60.09 82.5209 59.31 82.2209 58.69C81.9209 58.07 81.4909 57.61 80.9309 57.31C80.3709 56.99 79.7009 56.83 78.9209 56.83C77.9409 56.83 77.0909 57.08 76.3709 57.58C75.6509 58.06 75.2109 58.79 75.0509 59.77H72.4709C72.5909 58.69 72.9509 57.78 73.5509 57.04C74.1509 56.3 74.9209 55.74 75.8609 55.36C76.8209 54.96 77.8409 54.76 78.9209 54.76C80.3009 54.76 81.4509 55.02 82.3709 55.54C83.3109 56.04 84.0109 56.75 84.4709 57.67C84.9509 58.57 85.1909 59.63 85.1909 60.85V70H82.9709L82.7909 67.36H82.7609C82.5209 67.82 82.2309 68.23 81.8909 68.59C81.5709 68.95 81.2009 69.26 80.7809 69.52C80.3609 69.78 79.8809 69.98 79.3409 70.12C78.8209 70.28 78.2409 70.36 77.6009 70.36ZM78.0209 68.23C78.7609 68.23 79.4109 68.09 79.9709 67.81C80.5509 67.51 81.0409 67.11 81.4409 66.61C81.8409 66.11 82.1409 65.55 82.3409 64.93C82.5609 64.31 82.6709 63.67 82.6709 63.01V62.98H78.8609C77.8809 62.98 77.0909 63.1 76.4909 63.34C75.8909 63.56 75.4609 63.87 75.2009 64.27C74.9409 64.67 74.8109 65.13 74.8109 65.65C74.8109 66.17 74.9309 66.63 75.1709 67.03C75.4309 67.41 75.8009 67.71 76.2809 67.93C76.7609 68.13 77.3409 68.23 78.0209 68.23ZM94.1019 70.36C92.6419 70.36 91.3619 70.02 90.2619 69.34C89.1819 68.66 88.3419 67.73 87.7419 66.55C87.1419 65.37 86.8419 64.03 86.8419 62.53C86.8419 61.05 87.1419 59.73 87.7419 58.57C88.3419 57.39 89.1919 56.46 90.2919 55.78C91.4119 55.1 92.7319 54.76 94.2519 54.76C95.5319 54.76 96.6319 55.03 97.5519 55.57C98.4719 56.09 99.1819 56.77 99.6819 57.61V48.61H102.202V70H99.9819L99.7419 67.39H99.7119C99.3519 67.97 98.9019 68.48 98.3619 68.92C97.8219 69.36 97.1919 69.71 96.4719 69.97C95.7719 70.23 94.9819 70.36 94.1019 70.36ZM94.4919 68.17C95.5119 68.17 96.4019 67.94 97.1619 67.48C97.9419 67 98.5419 66.34 98.9619 65.5C99.3819 64.66 99.5919 63.68 99.5919 62.56C99.5919 61.44 99.3819 60.46 98.9619 59.62C98.5419 58.78 97.9419 58.13 97.1619 57.67C96.4019 57.19 95.5119 56.95 94.4919 56.95C93.4919 56.95 92.6019 57.19 91.8219 57.67C91.0619 58.13 90.4719 58.78 90.0519 59.62C89.6319 60.46 89.4219 61.44 89.4219 62.56C89.4219 63.68 89.6319 64.66 90.0519 65.5C90.4719 66.34 91.0619 67 91.8219 67.48C92.6019 67.94 93.4919 68.17 94.4919 68.17ZM105.112 70V55.12H107.632V70H105.112ZM106.372 51.94C105.872 51.94 105.452 51.78 105.112 51.46C104.792 51.12 104.632 50.7 104.632 50.2C104.632 49.7 104.792 49.29 105.112 48.97C105.452 48.65 105.872 48.49 106.372 48.49C106.852 48.49 107.262 48.65 107.602 48.97C107.942 49.29 108.112 49.7 108.112 50.2C108.112 50.7 107.942 51.12 107.602 51.46C107.262 51.78 106.852 51.94 106.372 51.94ZM110.431 70V55.12H112.681L112.891 57.4H112.951C113.431 56.54 114.071 55.89 114.871 55.45C115.691 54.99 116.601 54.76 117.601 54.76C118.381 54.76 119.081 54.87 119.701 55.09C120.341 55.31 120.901 55.64 121.381 56.08C121.861 56.5 122.251 57.04 122.551 57.7H122.581C123.121 56.76 123.831 56.04 124.711 55.54C125.611 55.02 126.611 54.76 127.711 54.76C128.871 54.76 129.881 55 130.741 55.48C131.601 55.94 132.271 56.66 132.751 57.64C133.231 58.6 133.471 59.82 133.471 61.3V70H130.981V61.57C130.981 60.03 130.671 58.87 130.051 58.09C129.431 57.31 128.521 56.92 127.321 56.92C126.541 56.92 125.841 57.11 125.221 57.49C124.601 57.87 124.111 58.44 123.751 59.2C123.391 59.96 123.211 60.9 123.211 62.02V70H120.691V61.57C120.691 60.03 120.381 58.87 119.761 58.09C119.141 57.31 118.251 56.92 117.091 56.92C116.351 56.92 115.661 57.13 115.021 57.55C114.401 57.97 113.901 58.58 113.521 59.38C113.141 60.16 112.951 61.13 112.951 62.29V70H110.431ZM135.771 76.39V55.12H137.991L138.231 57.73H138.261C138.641 57.15 139.091 56.64 139.611 56.2C140.151 55.76 140.771 55.41 141.471 55.15C142.191 54.89 142.991 54.76 143.871 54.76C145.331 54.76 146.601 55.1 147.681 55.78C148.761 56.46 149.601 57.39 150.201 58.57C150.801 59.75 151.101 61.09 151.101 62.59C151.101 64.07 150.801 65.4 150.201 66.58C149.601 67.74 148.751 68.66 147.651 69.34C146.551 70.02 145.241 70.36 143.721 70.36C142.441 70.36 141.341 70.1 140.421 69.58C139.501 69.04 138.791 68.35 138.291 67.51V76.39H135.771ZM143.451 68.17C144.471 68.17 145.361 67.94 146.121 67.48C146.901 67 147.501 66.34 147.921 65.5C148.341 64.66 148.551 63.68 148.551 62.56C148.551 61.44 148.341 60.46 147.921 59.62C147.501 58.78 146.901 58.13 146.121 57.67C145.361 57.19 144.471 56.95 143.451 56.95C142.451 56.95 141.561 57.19 140.781 57.67C140.021 58.13 139.421 58.78 138.981 59.62C138.561 60.46 138.351 61.44 138.351 62.56C138.351 63.68 138.561 64.66 138.981 65.5C139.421 66.34 140.021 67 140.781 67.48C141.561 67.94 142.451 68.17 143.451 68.17ZM153.081 70V48.61H155.601V70H153.081ZM164.894 70.36C163.474 70.36 162.214 70.04 161.114 69.4C160.014 68.74 159.144 67.83 158.504 66.67C157.884 65.49 157.574 64.12 157.574 62.56C157.574 60.98 157.884 59.61 158.504 58.45C159.124 57.29 159.984 56.39 161.084 55.75C162.204 55.09 163.494 54.76 164.954 54.76C166.414 54.76 167.664 55.09 168.704 55.75C169.744 56.39 170.544 57.24 171.104 58.3C171.664 59.34 171.944 60.48 171.944 61.72C171.944 61.92 171.944 62.14 171.944 62.38C171.944 62.6 171.934 62.85 171.914 63.13H159.464V61.18H169.454C169.394 59.82 168.934 58.76 168.074 58C167.234 57.22 166.174 56.83 164.894 56.83C164.034 56.83 163.234 57.02 162.494 57.4C161.754 57.78 161.154 58.34 160.694 59.08C160.254 59.82 160.034 60.75 160.034 61.87V62.71C160.034 63.93 160.264 64.95 160.724 65.77C161.184 66.59 161.784 67.21 162.524 67.63C163.284 68.03 164.074 68.23 164.894 68.23C165.934 68.23 166.804 67.99 167.504 67.51C168.204 67.03 168.714 66.38 169.034 65.56H171.524C171.264 66.48 170.834 67.3 170.234 68.02C169.634 68.74 168.884 69.31 167.984 69.73C167.104 70.15 166.074 70.36 164.894 70.36ZM160.694 53.74V51.76L164.804 49.33L168.914 51.76V53.74L164.804 51.22L160.694 53.74ZM173.697 70V55.12H175.947L176.157 57.67H176.187C176.687 56.77 177.377 56.06 178.257 55.54C179.137 55.02 180.147 54.76 181.287 54.76C182.467 54.76 183.487 55 184.347 55.48C185.207 55.94 185.867 56.66 186.327 57.64C186.807 58.6 187.047 59.82 187.047 61.3V70H184.527V61.57C184.527 60.03 184.197 58.87 183.537 58.09C182.877 57.31 181.927 56.92 180.687 56.92C179.827 56.92 179.057 57.13 178.377 57.55C177.717 57.97 177.187 58.58 176.787 59.38C176.407 60.16 176.217 61.13 176.217 62.29V70H173.697ZM196.179 70.36C194.719 70.36 193.419 70.04 192.279 69.4C191.159 68.74 190.279 67.83 189.639 66.67C189.019 65.49 188.709 64.12 188.709 62.56C188.709 61 189.029 59.64 189.669 58.48C190.329 57.3 191.219 56.39 192.339 55.75C193.479 55.09 194.769 54.76 196.209 54.76C197.989 54.76 199.469 55.22 200.649 56.14C201.849 57.06 202.609 58.29 202.929 59.83H200.349C200.149 58.87 199.659 58.13 198.879 57.61C198.119 57.09 197.209 56.83 196.149 56.83C195.309 56.83 194.519 57.05 193.779 57.49C193.039 57.91 192.439 58.54 191.979 59.38C191.519 60.22 191.289 61.28 191.289 62.56C191.289 63.48 191.419 64.3 191.679 65.02C191.959 65.72 192.319 66.31 192.759 66.79C193.199 67.27 193.709 67.63 194.289 67.87C194.889 68.11 195.509 68.23 196.149 68.23C196.869 68.23 197.509 68.12 198.069 67.9C198.649 67.66 199.139 67.32 199.539 66.88C199.939 66.44 200.209 65.91 200.349 65.29H202.929C202.609 66.79 201.849 68.01 200.649 68.95C199.449 69.89 197.959 70.36 196.179 70.36ZM205.221 70V55.12H207.741V70H205.221ZM206.481 51.94C205.981 51.94 205.561 51.78 205.221 51.46C204.901 51.12 204.741 50.7 204.741 50.2C204.741 49.7 204.901 49.29 205.221 48.97C205.561 48.65 205.981 48.49 206.481 48.49C206.961 48.49 207.371 48.65 207.711 48.97C208.051 49.29 208.221 49.7 208.221 50.2C208.221 50.7 208.051 51.12 207.711 51.46C207.371 51.78 206.961 51.94 206.481 51.94ZM215.521 70.36C214.301 70.36 213.281 70.15 212.461 69.73C211.661 69.31 211.061 68.75 210.661 68.05C210.281 67.35 210.091 66.59 210.091 65.77C210.091 64.75 210.351 63.89 210.871 63.19C211.411 62.49 212.161 61.96 213.121 61.6C214.101 61.22 215.251 61.03 216.571 61.03H220.591C220.591 60.09 220.441 59.31 220.141 58.69C219.841 58.07 219.411 57.61 218.851 57.31C218.291 56.99 217.621 56.83 216.841 56.83C215.861 56.83 215.011 57.08 214.291 57.58C213.571 58.06 213.131 58.79 212.971 59.77H210.391C210.511 58.69 210.871 57.78 211.471 57.04C212.071 56.3 212.841 55.74 213.781 55.36C214.741 54.96 215.761 54.76 216.841 54.76C218.221 54.76 219.371 55.02 220.291 55.54C221.231 56.04 221.931 56.75 222.391 57.67C222.871 58.57 223.111 59.63 223.111 60.85V70H220.891L220.711 67.36H220.681C220.441 67.82 220.151 68.23 219.811 68.59C219.491 68.95 219.121 69.26 218.701 69.52C218.281 69.78 217.801 69.98 217.261 70.12C216.741 70.28 216.161 70.36 215.521 70.36ZM215.941 68.23C216.681 68.23 217.331 68.09 217.891 67.81C218.471 67.51 218.961 67.11 219.361 66.61C219.761 66.11 220.061 65.55 220.261 64.93C220.481 64.31 220.591 63.67 220.591 63.01V62.98H216.781C215.801 62.98 215.011 63.1 214.411 63.34C213.811 63.56 213.381 63.87 213.121 64.27C212.861 64.67 212.731 65.13 212.731 65.65C212.731 66.17 212.851 66.63 213.091 67.03C213.351 67.41 213.721 67.71 214.201 67.93C214.681 68.13 215.261 68.23 215.941 68.23ZM231.568 70V55.12H233.818L234.028 57.67H234.058C234.558 56.77 235.248 56.06 236.128 55.54C237.008 55.02 238.018 54.76 239.158 54.76C240.338 54.76 241.358 55 242.218 55.48C243.078 55.94 243.738 56.66 244.198 57.64C244.678 58.6 244.918 59.82 244.918 61.3V70H242.398V61.57C242.398 60.03 242.068 58.87 241.408 58.09C240.748 57.31 239.798 56.92 238.558 56.92C237.698 56.92 236.928 57.13 236.248 57.55C235.588 57.97 235.058 58.58 234.658 59.38C234.278 60.16 234.088 61.13 234.088 62.29V70H231.568ZM253.99 70.36C252.59 70.36 251.33 70.04 250.21 69.4C249.09 68.76 248.2 67.86 247.54 66.7C246.9 65.52 246.58 64.14 246.58 62.56C246.58 60.98 246.91 59.61 247.57 58.45C248.23 57.27 249.12 56.36 250.24 55.72C251.38 55.08 252.65 54.76 254.05 54.76C255.45 54.76 256.71 55.08 257.83 55.72C258.95 56.36 259.83 57.27 260.47 58.45C261.13 59.61 261.46 60.98 261.46 62.56C261.46 64.14 261.13 65.52 260.47 66.7C259.81 67.86 258.91 68.76 257.77 69.4C256.65 70.04 255.39 70.36 253.99 70.36ZM253.99 68.29C254.85 68.29 255.65 68.08 256.39 67.66C257.13 67.22 257.73 66.58 258.19 65.74C258.65 64.88 258.88 63.82 258.88 62.56C258.88 61.28 258.65 60.22 258.19 59.38C257.75 58.52 257.16 57.88 256.42 57.46C255.68 57.04 254.89 56.83 254.05 56.83C253.21 56.83 252.41 57.04 251.65 57.46C250.91 57.88 250.31 58.52 249.85 59.38C249.39 60.22 249.16 61.28 249.16 62.56C249.16 63.82 249.39 64.88 249.85 65.74C250.31 66.58 250.9 67.22 251.62 67.66C252.36 68.08 253.15 68.29 253.99 68.29ZM269.792 70V49H277.172C278.652 49 279.872 49.24 280.832 49.72C281.812 50.18 282.542 50.82 283.022 51.64C283.502 52.44 283.742 53.34 283.742 54.34C283.742 55.42 283.502 56.32 283.022 57.04C282.562 57.76 281.952 58.31 281.192 58.69C280.452 59.07 279.662 59.3 278.822 59.38L279.242 59.08C280.142 59.1 280.972 59.34 281.732 59.8C282.492 60.26 283.092 60.88 283.532 61.66C283.992 62.44 284.222 63.31 284.222 64.27C284.222 65.33 283.962 66.3 283.442 67.18C282.922 68.04 282.152 68.73 281.132 69.25C280.132 69.75 278.892 70 277.412 70H269.792ZM272.312 67.9H277.142C278.562 67.9 279.662 67.57 280.442 66.91C281.242 66.23 281.642 65.29 281.642 64.09C281.642 62.91 281.232 61.97 280.412 61.27C279.612 60.55 278.502 60.19 277.082 60.19H272.312V67.9ZM272.312 58.18H276.992C278.352 58.18 279.382 57.86 280.082 57.22C280.802 56.58 281.162 55.71 281.162 54.61C281.162 53.55 280.802 52.7 280.082 52.06C279.382 51.42 278.322 51.1 276.902 51.1H272.312V58.18ZM286.191 70V55.12H288.441L288.681 58.12H288.711C289.111 57.3 289.561 56.65 290.061 56.17C290.561 55.67 291.151 55.31 291.831 55.09C292.531 54.87 293.341 54.76 294.261 54.76V57.4H293.601C292.881 57.4 292.221 57.49 291.621 57.67C291.021 57.85 290.501 58.14 290.061 58.54C289.641 58.92 289.311 59.43 289.071 60.07C288.831 60.71 288.711 61.49 288.711 62.41V70H286.191ZM300.513 70.36C299.293 70.36 298.273 70.15 297.453 69.73C296.653 69.31 296.053 68.75 295.653 68.05C295.273 67.35 295.083 66.59 295.083 65.77C295.083 64.75 295.343 63.89 295.863 63.19C296.403 62.49 297.153 61.96 298.113 61.6C299.093 61.22 300.243 61.03 301.563 61.03H305.583C305.583 60.09 305.433 59.31 305.133 58.69C304.833 58.07 304.403 57.61 303.843 57.31C303.283 56.99 302.613 56.83 301.833 56.83C300.853 56.83 300.003 57.08 299.283 57.58C298.563 58.06 298.123 58.79 297.963 59.77H295.383C295.503 58.69 295.863 57.78 296.463 57.04C297.063 56.3 297.833 55.74 298.773 55.36C299.733 54.96 300.753 54.76 301.833 54.76C303.213 54.76 304.363 55.02 305.283 55.54C306.223 56.04 306.923 56.75 307.383 57.67C307.863 58.57 308.103 59.63 308.103 60.85V70H305.883L305.703 67.36H305.673C305.433 67.82 305.143 68.23 304.803 68.59C304.483 68.95 304.113 69.26 303.693 69.52C303.273 69.78 302.793 69.98 302.253 70.12C301.733 70.28 301.153 70.36 300.513 70.36ZM300.933 68.23C301.673 68.23 302.323 68.09 302.883 67.81C303.463 67.51 303.953 67.11 304.353 66.61C304.753 66.11 305.053 65.55 305.253 64.93C305.473 64.31 305.583 63.67 305.583 63.01V62.98H301.773C300.793 62.98 300.003 63.1 299.403 63.34C298.803 63.56 298.373 63.87 298.113 64.27C297.853 64.67 297.723 65.13 297.723 65.65C297.723 66.17 297.843 66.63 298.083 67.03C298.343 67.41 298.713 67.71 299.193 67.93C299.673 68.13 300.253 68.23 300.933 68.23ZM316.054 70.36C314.874 70.36 313.814 70.16 312.874 69.76C311.934 69.34 311.174 68.76 310.594 68.02C310.034 67.26 309.684 66.37 309.544 65.35H312.124C312.244 65.87 312.454 66.36 312.754 66.82C313.074 67.26 313.504 67.62 314.044 67.9C314.604 68.16 315.284 68.29 316.084 68.29C316.804 68.29 317.384 68.19 317.824 67.99C318.284 67.77 318.624 67.49 318.844 67.15C319.084 66.79 319.204 66.41 319.204 66.01C319.204 65.43 319.054 64.99 318.754 64.69C318.454 64.37 318.024 64.11 317.464 63.91C316.904 63.71 316.234 63.52 315.454 63.34C314.854 63.2 314.244 63.03 313.624 62.83C313.004 62.63 312.434 62.38 311.914 62.08C311.414 61.76 311.004 61.37 310.684 60.91C310.384 60.43 310.234 59.84 310.234 59.14C310.234 58.3 310.454 57.55 310.894 56.89C311.334 56.23 311.954 55.71 312.754 55.33C313.574 54.95 314.534 54.76 315.634 54.76C317.214 54.76 318.504 55.15 319.504 55.93C320.524 56.71 321.114 57.84 321.274 59.32H318.784C318.704 58.54 318.384 57.93 317.824 57.49C317.284 57.05 316.544 56.83 315.604 56.83C314.684 56.83 313.984 57.03 313.504 57.43C313.024 57.81 312.784 58.3 312.784 58.9C312.784 59.3 312.914 59.64 313.174 59.92C313.434 60.18 313.824 60.41 314.344 60.61C314.884 60.81 315.534 61.01 316.294 61.21C317.234 61.43 318.114 61.7 318.934 62.02C319.754 62.32 320.424 62.75 320.944 63.31C321.484 63.87 321.754 64.67 321.754 65.71C321.774 66.61 321.544 67.42 321.064 68.14C320.604 68.84 319.944 69.39 319.084 69.79C318.244 70.17 317.234 70.36 316.054 70.36ZM324.01 70V55.12H326.53V70H324.01ZM325.27 51.94C324.77 51.94 324.35 51.78 324.01 51.46C323.69 51.12 323.53 50.7 323.53 50.2C323.53 49.7 323.69 49.29 324.01 48.97C324.35 48.65 324.77 48.49 325.27 48.49C325.75 48.49 326.16 48.65 326.5 48.97C326.84 49.29 327.01 49.7 327.01 50.2C327.01 50.7 326.84 51.12 326.5 51.46C326.16 51.78 325.75 51.94 325.27 51.94ZM329.39 70V48.61H331.91V70H329.39Z" fill="#393F42"/>
<path d="M522.642 65.5V52.9H530.31V54.142H524.154V58.57H529.392V59.794H524.154V65.5H522.642ZM535.866 65.716C535.026 65.716 534.27 65.524 533.598 65.14C532.926 64.744 532.392 64.192 531.996 63.484C531.612 62.776 531.42 61.948 531.42 61C531.42 60.04 531.618 59.206 532.014 58.498C532.41 57.79 532.944 57.244 533.616 56.86C534.3 56.464 535.062 56.266 535.902 56.266C536.754 56.266 537.516 56.464 538.188 56.86C538.86 57.244 539.388 57.79 539.772 58.498C540.156 59.206 540.348 60.04 540.348 61C540.348 61.948 540.15 62.776 539.754 63.484C539.37 64.192 538.836 64.744 538.152 65.14C537.48 65.524 536.718 65.716 535.866 65.716ZM535.866 64.42C536.394 64.42 536.88 64.294 537.324 64.042C537.768 63.79 538.122 63.406 538.386 62.89C538.662 62.374 538.8 61.744 538.8 61C538.8 60.232 538.668 59.596 538.404 59.092C538.14 58.588 537.786 58.21 537.342 57.958C536.898 57.694 536.418 57.562 535.902 57.562C535.398 57.562 534.918 57.694 534.462 57.958C534.018 58.21 533.658 58.588 533.382 59.092C533.106 59.596 532.968 60.232 532.968 61C532.968 61.744 533.106 62.374 533.382 62.89C533.658 63.406 534.012 63.79 534.444 64.042C534.888 64.294 535.362 64.42 535.866 64.42ZM542.468 65.5V56.482H543.836L543.926 58.084C544.214 57.52 544.628 57.076 545.168 56.752C545.708 56.428 546.32 56.266 547.004 56.266C547.7 56.266 548.306 56.41 548.822 56.698C549.338 56.974 549.74 57.4 550.028 57.976C550.316 58.552 550.46 59.278 550.46 60.154V65.5H548.948V60.316C548.948 59.404 548.75 58.72 548.354 58.264C547.958 57.796 547.394 57.562 546.662 57.562C546.146 57.562 545.684 57.688 545.276 57.94C544.88 58.192 544.562 58.552 544.322 59.02C544.094 59.488 543.98 60.064 543.98 60.748V65.5H542.468ZM556.35 65.5C555.81 65.5 555.342 65.416 554.946 65.248C554.55 65.08 554.244 64.798 554.028 64.402C553.824 63.994 553.722 63.448 553.722 62.764V57.76H552.156V56.482H553.722L553.92 54.322H555.234V56.482H557.862V57.76H555.234V62.764C555.234 63.328 555.348 63.712 555.576 63.916C555.804 64.108 556.206 64.204 556.782 64.204H557.736V65.5H556.35ZM563.568 65.716C562.716 65.716 561.96 65.524 561.3 65.14C560.64 64.744 560.118 64.192 559.734 63.484C559.362 62.764 559.176 61.936 559.176 61C559.176 60.04 559.362 59.212 559.734 58.516C560.106 57.808 560.622 57.256 561.282 56.86C561.954 56.464 562.728 56.266 563.604 56.266C564.48 56.266 565.23 56.464 565.854 56.86C566.478 57.256 566.952 57.772 567.276 58.408C567.612 59.044 567.78 59.74 567.78 60.496C567.78 60.616 567.78 60.748 567.78 60.892C567.78 61.024 567.774 61.174 567.762 61.342H560.31V60.172H566.286C566.25 59.344 565.974 58.702 565.458 58.246C564.954 57.778 564.324 57.544 563.568 57.544C563.052 57.544 562.572 57.664 562.128 57.904C561.684 58.132 561.324 58.468 561.048 58.912C560.784 59.356 560.652 59.914 560.652 60.586V61.09C560.652 61.822 560.79 62.44 561.066 62.944C561.342 63.448 561.702 63.826 562.146 64.078C562.59 64.318 563.064 64.438 563.568 64.438C564.192 64.438 564.708 64.3 565.116 64.024C565.536 63.736 565.842 63.346 566.034 62.854H567.528C567.372 63.406 567.114 63.898 566.754 64.33C566.394 64.75 565.944 65.086 565.404 65.338C564.876 65.59 564.264 65.716 563.568 65.716ZM570.342 65.59C570.042 65.59 569.79 65.494 569.586 65.302C569.394 65.098 569.298 64.852 569.298 64.564C569.298 64.276 569.394 64.036 569.586 63.844C569.79 63.64 570.042 63.538 570.342 63.538C570.642 63.538 570.888 63.64 571.08 63.844C571.272 64.036 571.368 64.276 571.368 64.564C571.368 64.852 571.272 65.098 571.08 65.302C570.888 65.494 570.642 65.59 570.342 65.59ZM570.342 58.318C570.042 58.318 569.79 58.222 569.586 58.03C569.394 57.826 569.298 57.58 569.298 57.292C569.298 57.004 569.394 56.764 569.586 56.572C569.79 56.368 570.042 56.266 570.342 56.266C570.642 56.266 570.888 56.368 571.08 56.572C571.272 56.764 571.368 57.004 571.368 57.292C571.368 57.58 571.272 57.826 571.08 58.03C570.888 58.222 570.642 58.318 570.342 58.318ZM582.326 65.716C581.402 65.716 580.598 65.548 579.914 65.212C579.23 64.876 578.702 64.408 578.33 63.808C577.958 63.208 577.772 62.512 577.772 61.72H579.356C579.356 62.212 579.47 62.668 579.698 63.088C579.926 63.496 580.256 63.826 580.688 64.078C581.132 64.318 581.678 64.438 582.326 64.438C582.89 64.438 583.37 64.348 583.766 64.168C584.174 63.976 584.48 63.718 584.684 63.394C584.9 63.07 585.008 62.704 585.008 62.296C585.008 61.804 584.9 61.408 584.684 61.108C584.468 60.796 584.18 60.544 583.82 60.352C583.46 60.148 583.04 59.974 582.56 59.83C582.092 59.686 581.6 59.524 581.084 59.344C580.1 59.008 579.374 58.594 578.906 58.102C578.438 57.598 578.204 56.944 578.204 56.14C578.204 55.456 578.36 54.856 578.672 54.34C578.996 53.824 579.452 53.422 580.04 53.134C580.64 52.834 581.348 52.684 582.164 52.684C582.968 52.684 583.664 52.834 584.252 53.134C584.852 53.434 585.32 53.848 585.656 54.376C585.992 54.892 586.16 55.492 586.16 56.176H584.576C584.576 55.828 584.486 55.486 584.306 55.15C584.126 54.814 583.85 54.538 583.478 54.322C583.118 54.094 582.662 53.98 582.11 53.98C581.654 53.968 581.246 54.046 580.886 54.214C580.538 54.37 580.262 54.598 580.058 54.898C579.866 55.198 579.77 55.564 579.77 55.996C579.77 56.404 579.854 56.734 580.022 56.986C580.202 57.238 580.454 57.454 580.778 57.634C581.114 57.802 581.504 57.958 581.948 58.102C582.392 58.246 582.884 58.408 583.424 58.588C584.036 58.792 584.576 59.044 585.044 59.344C585.524 59.632 585.896 60.004 586.16 60.46C586.436 60.916 586.574 61.498 586.574 62.206C586.574 62.806 586.412 63.376 586.088 63.916C585.776 64.444 585.308 64.876 584.684 65.212C584.06 65.548 583.274 65.716 582.326 65.716ZM592.642 65.716C591.79 65.716 591.034 65.524 590.374 65.14C589.714 64.744 589.192 64.192 588.808 63.484C588.436 62.764 588.25 61.936 588.25 61C588.25 60.04 588.436 59.212 588.808 58.516C589.18 57.808 589.696 57.256 590.356 56.86C591.028 56.464 591.802 56.266 592.678 56.266C593.554 56.266 594.304 56.464 594.928 56.86C595.552 57.256 596.026 57.772 596.35 58.408C596.686 59.044 596.854 59.74 596.854 60.496C596.854 60.616 596.854 60.748 596.854 60.892C596.854 61.024 596.848 61.174 596.836 61.342H589.384V60.172H595.36C595.324 59.344 595.048 58.702 594.532 58.246C594.028 57.778 593.398 57.544 592.642 57.544C592.126 57.544 591.646 57.664 591.202 57.904C590.758 58.132 590.398 58.468 590.122 58.912C589.858 59.356 589.726 59.914 589.726 60.586V61.09C589.726 61.822 589.864 62.44 590.14 62.944C590.416 63.448 590.776 63.826 591.22 64.078C591.664 64.318 592.138 64.438 592.642 64.438C593.266 64.438 593.782 64.3 594.19 64.024C594.61 63.736 594.916 63.346 595.108 62.854H596.602C596.446 63.406 596.188 63.898 595.828 64.33C595.468 64.75 595.018 65.086 594.478 65.338C593.95 65.59 593.338 65.716 592.642 65.716ZM598.876 65.5V56.482H600.244L600.37 58.21C600.562 57.802 600.814 57.454 601.126 57.166C601.45 56.878 601.834 56.656 602.278 56.5C602.722 56.344 603.226 56.266 603.79 56.266V57.85H603.304C602.908 57.85 602.53 57.904 602.17 58.012C601.822 58.108 601.51 58.27 601.234 58.498C600.97 58.726 600.76 59.038 600.604 59.434C600.46 59.818 600.388 60.304 600.388 60.892V65.5H598.876ZM608.456 65.716C607.712 65.716 607.094 65.59 606.602 65.338C606.122 65.086 605.762 64.75 605.522 64.33C605.282 63.898 605.162 63.43 605.162 62.926C605.162 62.314 605.318 61.798 605.63 61.378C605.954 60.958 606.404 60.64 606.98 60.424C607.568 60.196 608.252 60.082 609.032 60.082H611.444C611.444 59.518 611.354 59.05 611.174 58.678C611.006 58.306 610.754 58.024 610.418 57.832C610.082 57.64 609.674 57.544 609.194 57.544C608.618 57.544 608.114 57.694 607.682 57.994C607.262 58.282 607.004 58.702 606.908 59.254H605.36C605.432 58.618 605.648 58.078 606.008 57.634C606.38 57.19 606.848 56.854 607.412 56.626C607.976 56.386 608.57 56.266 609.194 56.266C610.022 56.266 610.712 56.422 611.264 56.734C611.828 57.034 612.248 57.46 612.524 58.012C612.812 58.552 612.956 59.194 612.956 59.938V65.5H611.606L611.516 63.898C611.396 64.15 611.24 64.39 611.048 64.618C610.868 64.834 610.652 65.026 610.4 65.194C610.16 65.35 609.878 65.476 609.554 65.572C609.23 65.668 608.864 65.716 608.456 65.716ZM608.69 64.438C609.122 64.438 609.506 64.354 609.842 64.186C610.178 64.006 610.466 63.766 610.706 63.466C610.958 63.166 611.144 62.83 611.264 62.458C611.384 62.074 611.444 61.684 611.444 61.288V61.252H609.158C608.582 61.252 608.114 61.324 607.754 61.468C607.394 61.6 607.136 61.786 606.98 62.026C606.824 62.266 606.746 62.542 606.746 62.854C606.746 63.178 606.818 63.46 606.962 63.7C607.118 63.94 607.34 64.126 607.628 64.258C607.916 64.378 608.27 64.438 608.69 64.438ZM618.679 65.716C617.947 65.716 617.299 65.596 616.735 65.356C616.183 65.104 615.739 64.75 615.403 64.294C615.067 63.838 614.857 63.304 614.773 62.692H616.321C616.393 63.016 616.525 63.31 616.717 63.574C616.909 63.838 617.173 64.048 617.509 64.204C617.845 64.36 618.241 64.438 618.697 64.438C619.129 64.438 619.477 64.378 619.741 64.258C620.017 64.126 620.221 63.958 620.353 63.754C620.497 63.538 620.569 63.304 620.569 63.052C620.569 62.68 620.479 62.398 620.299 62.206C620.131 62.014 619.879 61.864 619.543 61.756C619.207 61.648 618.805 61.552 618.337 61.468C617.953 61.396 617.569 61.3 617.185 61.18C616.813 61.048 616.471 60.892 616.159 60.712C615.859 60.52 615.619 60.28 615.439 59.992C615.259 59.704 615.169 59.35 615.169 58.93C615.169 58.414 615.301 57.958 615.565 57.562C615.841 57.154 616.219 56.836 616.699 56.608C617.191 56.38 617.773 56.266 618.445 56.266C619.405 56.266 620.185 56.5 620.785 56.968C621.385 57.436 621.739 58.114 621.847 59.002H620.353C620.293 58.546 620.095 58.192 619.759 57.94C619.435 57.676 618.991 57.544 618.427 57.544C617.863 57.544 617.431 57.658 617.131 57.886C616.843 58.114 616.699 58.414 616.699 58.786C616.699 59.026 616.783 59.236 616.951 59.416C617.119 59.596 617.359 59.752 617.671 59.884C617.995 60.004 618.385 60.112 618.841 60.208C619.429 60.316 619.969 60.46 620.461 60.64C620.953 60.82 621.349 61.084 621.649 61.432C621.961 61.78 622.117 62.278 622.117 62.926C622.129 63.478 621.991 63.964 621.703 64.384C621.415 64.804 621.013 65.134 620.497 65.374C619.993 65.602 619.387 65.716 618.679 65.716ZM627.247 65.716C626.503 65.716 625.885 65.59 625.393 65.338C624.913 65.086 624.553 64.75 624.313 64.33C624.073 63.898 623.953 63.43 623.953 62.926C623.953 62.314 624.109 61.798 624.421 61.378C624.745 60.958 625.195 60.64 625.771 60.424C626.359 60.196 627.043 60.082 627.823 60.082H630.235C630.235 59.518 630.145 59.05 629.965 58.678C629.797 58.306 629.545 58.024 629.209 57.832C628.873 57.64 628.465 57.544 627.985 57.544C627.409 57.544 626.905 57.694 626.473 57.994C626.053 58.282 625.795 58.702 625.699 59.254H624.151C624.223 58.618 624.439 58.078 624.799 57.634C625.171 57.19 625.639 56.854 626.203 56.626C626.767 56.386 627.361 56.266 627.985 56.266C628.813 56.266 629.503 56.422 630.055 56.734C630.619 57.034 631.039 57.46 631.315 58.012C631.603 58.552 631.747 59.194 631.747 59.938V65.5H630.397L630.307 63.898C630.187 64.15 630.031 64.39 629.839 64.618C629.659 64.834 629.443 65.026 629.191 65.194C628.951 65.35 628.669 65.476 628.345 65.572C628.021 65.668 627.655 65.716 627.247 65.716ZM627.481 64.438C627.913 64.438 628.297 64.354 628.633 64.186C628.969 64.006 629.257 63.766 629.497 63.466C629.749 63.166 629.935 62.83 630.055 62.458C630.175 62.074 630.235 61.684 630.235 61.288V61.252H627.949C627.373 61.252 626.905 61.324 626.545 61.468C626.185 61.6 625.927 61.786 625.771 62.026C625.615 62.266 625.537 62.542 625.537 62.854C625.537 63.178 625.609 63.46 625.753 63.7C625.909 63.94 626.131 64.126 626.419 64.258C626.707 64.378 627.061 64.438 627.481 64.438ZM638.921 65.5V52.9H646.715V54.142H640.433V58.534H646.175V59.758H640.433V64.258H646.715V65.5H638.921ZM648.127 65.5L651.205 61L648.127 56.482H649.765L652.249 60.19L654.733 56.482H656.353L653.275 61L656.353 65.5H654.733L652.249 61.792L649.765 65.5H648.127ZM657.956 69.46V56.482H659.324L659.468 57.958C659.66 57.67 659.906 57.4 660.206 57.148C660.506 56.884 660.866 56.674 661.286 56.518C661.706 56.35 662.192 56.266 662.744 56.266C663.62 56.266 664.382 56.476 665.03 56.896C665.69 57.304 666.206 57.868 666.578 58.588C666.95 59.296 667.136 60.106 667.136 61.018C667.136 61.918 666.95 62.722 666.578 63.43C666.206 64.138 665.69 64.696 665.03 65.104C664.37 65.512 663.602 65.716 662.726 65.716C661.994 65.716 661.346 65.566 660.782 65.266C660.218 64.966 659.78 64.546 659.468 64.006V69.46H657.956ZM662.564 64.402C663.152 64.402 663.674 64.264 664.13 63.988C664.586 63.7 664.94 63.304 665.192 62.8C665.456 62.284 665.588 61.684 665.588 61C665.588 60.316 665.456 59.722 665.192 59.218C664.94 58.702 664.586 58.3 664.13 58.012C663.674 57.724 663.152 57.58 662.564 57.58C661.964 57.58 661.43 57.724 660.962 58.012C660.506 58.3 660.146 58.702 659.882 59.218C659.63 59.722 659.504 60.316 659.504 61C659.504 61.684 659.63 62.284 659.882 62.8C660.146 63.304 660.506 63.7 660.962 63.988C661.43 64.264 661.964 64.402 662.564 64.402ZM673.256 65.716C672.404 65.716 671.648 65.524 670.988 65.14C670.328 64.744 669.806 64.192 669.422 63.484C669.05 62.764 668.864 61.936 668.864 61C668.864 60.04 669.05 59.212 669.422 58.516C669.794 57.808 670.31 57.256 670.97 56.86C671.642 56.464 672.416 56.266 673.292 56.266C674.168 56.266 674.918 56.464 675.542 56.86C676.166 57.256 676.64 57.772 676.964 58.408C677.3 59.044 677.468 59.74 677.468 60.496C677.468 60.616 677.468 60.748 677.468 60.892C677.468 61.024 677.462 61.174 677.45 61.342H669.998V60.172H675.974C675.938 59.344 675.662 58.702 675.146 58.246C674.642 57.778 674.012 57.544 673.256 57.544C672.74 57.544 672.26 57.664 671.816 57.904C671.372 58.132 671.012 58.468 670.736 58.912C670.472 59.356 670.34 59.914 670.34 60.586V61.09C670.34 61.822 670.478 62.44 670.754 62.944C671.03 63.448 671.39 63.826 671.834 64.078C672.278 64.318 672.752 64.438 673.256 64.438C673.88 64.438 674.396 64.3 674.804 64.024C675.224 63.736 675.53 63.346 675.722 62.854H677.216C677.06 63.406 676.802 63.898 676.442 64.33C676.082 64.75 675.632 65.086 675.092 65.338C674.564 65.59 673.952 65.716 673.256 65.716ZM679.49 65.5V56.482H680.858L680.984 58.21C681.176 57.802 681.428 57.454 681.74 57.166C682.064 56.878 682.448 56.656 682.892 56.5C683.336 56.344 683.84 56.266 684.404 56.266V57.85H683.918C683.522 57.85 683.144 57.904 682.784 58.012C682.436 58.108 682.124 58.27 681.848 58.498C681.584 58.726 681.374 59.038 681.218 59.434C681.074 59.818 681.002 60.304 681.002 60.892V65.5H679.49ZM686.261 65.5V56.482H687.773V65.5H686.261ZM687.017 54.538C686.717 54.538 686.465 54.442 686.261 54.25C686.069 54.046 685.973 53.794 685.973 53.494C685.973 53.194 686.069 52.954 686.261 52.774C686.465 52.582 686.717 52.486 687.017 52.486C687.305 52.486 687.551 52.582 687.755 52.774C687.959 52.954 688.061 53.194 688.061 53.494C688.061 53.794 687.959 54.046 687.755 54.25C687.551 54.442 687.305 54.538 687.017 54.538ZM693.376 65.716C692.632 65.716 692.014 65.59 691.522 65.338C691.042 65.086 690.682 64.75 690.442 64.33C690.202 63.898 690.082 63.43 690.082 62.926C690.082 62.314 690.238 61.798 690.55 61.378C690.874 60.958 691.324 60.64 691.9 60.424C692.488 60.196 693.172 60.082 693.952 60.082H696.364C696.364 59.518 696.274 59.05 696.094 58.678C695.926 58.306 695.674 58.024 695.338 57.832C695.002 57.64 694.594 57.544 694.114 57.544C693.538 57.544 693.034 57.694 692.602 57.994C692.182 58.282 691.924 58.702 691.828 59.254H690.28C690.352 58.618 690.568 58.078 690.928 57.634C691.3 57.19 691.768 56.854 692.332 56.626C692.896 56.386 693.49 56.266 694.114 56.266C694.942 56.266 695.632 56.422 696.184 56.734C696.748 57.034 697.168 57.46 697.444 58.012C697.732 58.552 697.876 59.194 697.876 59.938V65.5H696.526L696.436 63.898C696.316 64.15 696.16 64.39 695.968 64.618C695.788 64.834 695.572 65.026 695.32 65.194C695.08 65.35 694.798 65.476 694.474 65.572C694.15 65.668 693.784 65.716 693.376 65.716ZM693.61 64.438C694.042 64.438 694.426 64.354 694.762 64.186C695.098 64.006 695.386 63.766 695.626 63.466C695.878 63.166 696.064 62.83 696.184 62.458C696.304 62.074 696.364 61.684 696.364 61.288V61.252H694.078C693.502 61.252 693.034 61.324 692.674 61.468C692.314 61.6 692.056 61.786 691.9 62.026C691.744 62.266 691.666 62.542 691.666 62.854C691.666 63.178 691.738 63.46 691.882 63.7C692.038 63.94 692.26 64.126 692.548 64.258C692.836 64.378 693.19 64.438 693.61 64.438ZM700.179 65.5V56.482H701.547L701.637 58.084C701.925 57.52 702.339 57.076 702.879 56.752C703.419 56.428 704.031 56.266 704.715 56.266C705.411 56.266 706.017 56.41 706.533 56.698C707.049 56.974 707.451 57.4 707.739 57.976C708.027 58.552 708.171 59.278 708.171 60.154V65.5H706.659V60.316C706.659 59.404 706.461 58.72 706.065 58.264C705.669 57.796 705.105 57.562 704.373 57.562C703.857 57.562 703.395 57.688 702.987 57.94C702.591 58.192 702.273 58.552 702.033 59.02C701.805 59.488 701.691 60.064 701.691 60.748V65.5H700.179Z" fill="#FF4000"/>
<g clip-path="url(#clip0_241_284)">
<path d="M62.4279 134.759C61.6476 134.759 60.9582 134.621 60.3597 134.344C59.765 134.064 59.301 133.68 58.9677 133.191C58.6344 132.699 58.4696 132.138 58.4734 131.509C58.4696 131.017 58.5662 130.562 58.7631 130.146C58.9601 129.725 59.229 129.375 59.57 129.094C59.9147 128.81 60.2991 128.63 60.7234 128.555V128.486C60.1665 128.343 59.7234 128.03 59.3938 127.549C59.0643 127.064 58.9014 126.513 58.9052 125.896C58.9014 125.305 59.051 124.776 59.354 124.31C59.6571 123.844 60.0737 123.477 60.604 123.208C61.1381 122.939 61.7461 122.805 62.4279 122.805C63.1022 122.805 63.7044 122.939 64.2347 123.208C64.765 123.477 65.1817 123.844 65.4847 124.31C65.7915 124.776 65.9469 125.305 65.9506 125.896C65.9469 126.513 65.7783 127.064 65.445 127.549C65.1154 128.03 64.6779 128.343 64.1325 128.486V128.555C64.5529 128.63 64.9317 128.81 65.2688 129.094C65.6059 129.375 65.8749 129.725 66.0756 130.146C66.2764 130.562 66.3787 131.017 66.3825 131.509C66.3787 132.138 66.2082 132.699 65.8711 133.191C65.5378 133.68 65.0737 134.064 64.479 134.344C63.8881 134.621 63.2044 134.759 62.4279 134.759ZM62.4279 133.509C62.9544 133.509 63.409 133.424 63.7915 133.254C64.1741 133.083 64.4696 132.843 64.6779 132.532C64.8862 132.221 64.9923 131.858 64.9961 131.441C64.9923 131.002 64.8787 130.613 64.6552 130.276C64.4317 129.939 64.1268 129.674 63.7404 129.481C63.3578 129.288 62.9203 129.191 62.4279 129.191C61.9317 129.191 61.4885 129.288 61.0984 129.481C60.712 129.674 60.4071 129.939 60.1836 130.276C59.9639 130.613 59.8559 131.002 59.8597 131.441C59.8559 131.858 59.9563 132.221 60.1609 132.532C60.3692 132.843 60.6665 133.083 61.0529 133.254C61.4393 133.424 61.8976 133.509 62.4279 133.509ZM62.4279 127.986C62.8446 127.986 63.2139 127.903 63.5359 127.736C63.8616 127.57 64.1173 127.337 64.3029 127.038C64.4885 126.738 64.5832 126.388 64.587 125.986C64.5832 125.593 64.4904 125.25 64.3086 124.958C64.1268 124.663 63.8749 124.435 63.5529 124.276C63.2309 124.113 62.8559 124.032 62.4279 124.032C61.9923 124.032 61.6116 124.113 61.2859 124.276C60.9601 124.435 60.7082 124.663 60.5302 124.958C60.3522 125.25 60.265 125.593 60.2688 125.986C60.265 126.388 60.354 126.738 60.5359 127.038C60.7215 127.337 60.9772 127.57 61.3029 127.736C61.6287 127.903 62.0037 127.986 62.4279 127.986ZM72.1964 134.759C71.5297 134.759 70.9293 134.627 70.3952 134.361C69.8612 134.096 69.4331 133.733 69.1112 133.271C68.7892 132.808 68.613 132.282 68.5827 131.691H69.9464C69.9994 132.218 70.238 132.653 70.6623 132.998C71.0903 133.339 71.6017 133.509 72.1964 133.509C72.6737 133.509 73.0979 133.397 73.4691 133.174C73.8441 132.95 74.1377 132.644 74.3498 132.254C74.5657 131.86 74.6737 131.414 74.6737 130.918C74.6737 130.411 74.5619 129.958 74.3384 129.56C74.1187 129.159 73.8157 128.843 73.4293 128.611C73.043 128.38 72.6017 128.263 72.1055 128.259C71.7494 128.255 71.3839 128.31 71.0089 128.424C70.6339 128.534 70.3252 128.676 70.0827 128.85L68.7646 128.691L69.4691 122.964H75.5146V124.214H70.6509L70.2418 127.646H70.31C70.5487 127.456 70.8479 127.299 71.2077 127.174C71.5676 127.049 71.9426 126.986 72.3327 126.986C73.0449 126.986 73.6793 127.157 74.2362 127.498C74.7968 127.835 75.2362 128.297 75.5543 128.884C75.8763 129.471 76.0373 130.142 76.0373 130.896C76.0373 131.638 75.8706 132.301 75.5373 132.884C75.2077 133.464 74.7532 133.922 74.1737 134.259C73.5941 134.593 72.935 134.759 72.1964 134.759ZM82.8171 134.6V125.873H84.1126V127.236H84.2262C84.408 126.771 84.7016 126.409 85.1069 126.151C85.5122 125.89 85.9989 125.759 86.5671 125.759C87.1429 125.759 87.622 125.89 88.0046 126.151C88.391 126.409 88.6921 126.771 88.908 127.236H88.9989C89.2224 126.786 89.5576 126.428 90.0046 126.163C90.4516 125.894 90.9876 125.759 91.6126 125.759C92.3929 125.759 93.0311 126.004 93.5273 126.492C94.0236 126.977 94.2717 127.733 94.2717 128.759V134.6H92.9308V128.759C92.9308 128.115 92.7546 127.655 92.4023 127.379C92.0501 127.102 91.6353 126.964 91.158 126.964C90.5444 126.964 90.069 127.149 89.7319 127.521C89.3948 127.888 89.2262 128.354 89.2262 128.918V134.6H87.8626V128.623C87.8626 128.127 87.7016 127.727 87.3796 127.424C87.0576 127.117 86.6429 126.964 86.1353 126.964C85.7868 126.964 85.4611 127.057 85.158 127.242C84.8588 127.428 84.6164 127.685 84.4308 128.015C84.2489 128.341 84.158 128.718 84.158 129.146V134.6H82.8171ZM96.7234 134.6V125.873H98.0643V134.6H96.7234ZM97.4052 124.418C97.1438 124.418 96.9184 124.329 96.729 124.151C96.5434 123.973 96.4506 123.759 96.4506 123.509C96.4506 123.259 96.5434 123.045 96.729 122.867C96.9184 122.689 97.1438 122.6 97.4052 122.6C97.6665 122.6 97.89 122.689 98.0756 122.867C98.265 123.045 98.3597 123.259 98.3597 123.509C98.3597 123.759 98.265 123.973 98.0756 124.151C97.89 124.329 97.6665 124.418 97.4052 124.418Z" fill="#393F42"/>
<path d="M62.4279 181.008C61.6476 181.008 60.9582 180.87 60.3597 180.593C59.765 180.313 59.301 179.929 58.9677 179.44C58.6344 178.948 58.4696 178.387 58.4734 177.758C58.4696 177.266 58.5662 176.811 58.7631 176.395C58.9601 175.974 59.229 175.624 59.57 175.343C59.9147 175.059 60.2991 174.879 60.7234 174.804V174.735C60.1665 174.592 59.7234 174.279 59.3938 173.798C59.0643 173.313 58.9014 172.762 58.9052 172.145C58.9014 171.554 59.051 171.025 59.354 170.559C59.6571 170.093 60.0737 169.726 60.604 169.457C61.1381 169.188 61.7461 169.054 62.4279 169.054C63.1022 169.054 63.7044 169.188 64.2347 169.457C64.765 169.726 65.1817 170.093 65.4847 170.559C65.7915 171.025 65.9469 171.554 65.9506 172.145C65.9469 172.762 65.7783 173.313 65.445 173.798C65.1154 174.279 64.6779 174.592 64.1325 174.735V174.804C64.5529 174.879 64.9317 175.059 65.2688 175.343C65.6059 175.624 65.8749 175.974 66.0756 176.395C66.2764 176.811 66.3787 177.266 66.3825 177.758C66.3787 178.387 66.2082 178.948 65.8711 179.44C65.5378 179.929 65.0737 180.313 64.479 180.593C63.8881 180.87 63.2044 181.008 62.4279 181.008ZM62.4279 179.758C62.9544 179.758 63.409 179.673 63.7915 179.503C64.1741 179.332 64.4696 179.092 64.6779 178.781C64.8862 178.47 64.9923 178.107 64.9961 177.69C64.9923 177.251 64.8787 176.862 64.6552 176.525C64.4317 176.188 64.1268 175.923 63.7404 175.73C63.3578 175.537 62.9203 175.44 62.4279 175.44C61.9317 175.44 61.4885 175.537 61.0984 175.73C60.712 175.923 60.4071 176.188 60.1836 176.525C59.9639 176.862 59.8559 177.251 59.8597 177.69C59.8559 178.107 59.9563 178.47 60.1609 178.781C60.3692 179.092 60.6665 179.332 61.0529 179.503C61.4393 179.673 61.8976 179.758 62.4279 179.758ZM62.4279 174.235C62.8446 174.235 63.2139 174.152 63.5359 173.985C63.8616 173.819 64.1173 173.586 64.3029 173.287C64.4885 172.987 64.5832 172.637 64.587 172.235C64.5832 171.842 64.4904 171.499 64.3086 171.207C64.1268 170.912 63.8749 170.684 63.5529 170.525C63.2309 170.362 62.8559 170.281 62.4279 170.281C61.9923 170.281 61.6116 170.362 61.2859 170.525C60.9601 170.684 60.7082 170.912 60.5302 171.207C60.3522 171.499 60.265 171.842 60.2688 172.235C60.265 172.637 60.354 172.987 60.5359 173.287C60.7215 173.586 60.9772 173.819 61.3029 173.985C61.6287 174.152 62.0037 174.235 62.4279 174.235ZM72.3555 181.008C71.4994 181.008 70.7702 180.775 70.168 180.309C69.5657 179.84 69.1055 179.16 68.7873 178.27C68.4691 177.376 68.31 176.296 68.31 175.031C68.31 173.773 68.4691 172.699 68.7873 171.809C69.1093 170.915 69.5714 170.234 70.1737 169.764C70.7797 169.29 71.507 169.054 72.3555 169.054C73.204 169.054 73.9293 169.29 74.5316 169.764C75.1377 170.234 75.5998 170.915 75.918 171.809C76.2399 172.699 76.4009 173.773 76.4009 175.031C76.4009 176.296 76.2418 177.376 75.9237 178.27C75.6055 179.16 75.1452 179.84 74.543 180.309C73.9407 180.775 73.2115 181.008 72.3555 181.008ZM72.3555 179.758C73.204 179.758 73.863 179.349 74.3327 178.531C74.8024 177.713 75.0373 176.546 75.0373 175.031C75.0373 174.023 74.9293 173.165 74.7134 172.457C74.5013 171.749 74.1945 171.209 73.793 170.838C73.3952 170.467 72.9161 170.281 72.3555 170.281C71.5146 170.281 70.8574 170.696 70.3839 171.525C69.9104 172.351 69.6737 173.52 69.6737 175.031C69.6737 176.039 69.7797 176.895 69.9918 177.599C70.204 178.304 70.5089 178.84 70.9066 179.207C71.3081 179.574 71.7911 179.758 72.3555 179.758ZM83.0827 180.849V172.122H84.3782V173.485H84.4918C84.6737 173.02 84.9672 172.658 85.3725 172.4C85.7778 172.139 86.2646 172.008 86.8327 172.008C87.4085 172.008 87.8877 172.139 88.2702 172.4C88.6566 172.658 88.9577 173.02 89.1737 173.485H89.2646C89.488 173.035 89.8233 172.677 90.2702 172.412C90.7172 172.143 91.2532 172.008 91.8782 172.008C92.6585 172.008 93.2968 172.253 93.793 172.741C94.2892 173.226 94.5373 173.982 94.5373 175.008V180.849H93.1964V175.008C93.1964 174.364 93.0202 173.904 92.668 173.628C92.3157 173.351 91.9009 173.213 91.4237 173.213C90.81 173.213 90.3346 173.398 89.9975 173.77C89.6604 174.137 89.4918 174.603 89.4918 175.167V180.849H88.1282V174.872C88.1282 174.376 87.9672 173.976 87.6452 173.673C87.3233 173.366 86.9085 173.213 86.4009 173.213C86.0524 173.213 85.7267 173.306 85.4237 173.491C85.1244 173.677 84.882 173.934 84.6964 174.264C84.5146 174.59 84.4237 174.967 84.4237 175.395V180.849H83.0827ZM96.989 180.849V172.122H98.3299V180.849H96.989ZM97.6708 170.667C97.4094 170.667 97.1841 170.578 96.9947 170.4C96.8091 170.222 96.7163 170.008 96.7163 169.758C96.7163 169.508 96.8091 169.294 96.9947 169.116C97.1841 168.938 97.4094 168.849 97.6708 168.849C97.9322 168.849 98.1557 168.938 98.3413 169.116C98.5307 169.294 98.6254 169.508 98.6254 169.758C98.6254 170.008 98.5307 170.222 98.3413 170.4C98.1557 170.578 97.9322 170.667 97.6708 170.667Z" fill="#393F42"/>
<path d="M60.0643 227.098L65.2688 216.803V216.712H59.2688V215.462H66.7234V216.78L61.5415 227.098H60.0643ZM72.3214 227.257C71.6547 227.257 71.0543 227.125 70.5202 226.86C69.9862 226.594 69.5581 226.231 69.2362 225.769C68.9142 225.306 68.738 224.78 68.7077 224.189H70.0714C70.1244 224.716 70.363 225.151 70.7873 225.496C71.2153 225.837 71.7267 226.007 72.3214 226.007C72.7987 226.007 73.2229 225.895 73.5941 225.672C73.9691 225.449 74.2627 225.142 74.4748 224.752C74.6907 224.358 74.7987 223.913 74.7987 223.416C74.7987 222.909 74.6869 222.456 74.4634 222.058C74.2437 221.657 73.9407 221.341 73.5543 221.11C73.168 220.878 72.7267 220.761 72.2305 220.757C71.8744 220.753 71.5089 220.808 71.1339 220.922C70.7589 221.032 70.4502 221.174 70.2077 221.348L68.8896 221.189L69.5941 215.462H75.6396V216.712H70.7759L70.3668 220.144H70.435C70.6737 219.954 70.9729 219.797 71.3327 219.672C71.6926 219.547 72.0676 219.485 72.4577 219.485C73.1699 219.485 73.8043 219.655 74.3612 219.996C74.9218 220.333 75.3612 220.795 75.6793 221.382C76.0013 221.969 76.1623 222.64 76.1623 223.394C76.1623 224.136 75.9956 224.799 75.6623 225.382C75.3327 225.962 74.8782 226.42 74.2987 226.757C73.7191 227.091 73.06 227.257 72.3214 227.257ZM82.9421 227.098V218.371H84.2376V219.735H84.3512C84.533 219.269 84.8266 218.907 85.2319 218.649C85.6372 218.388 86.1239 218.257 86.6921 218.257C87.2679 218.257 87.747 218.388 88.1296 218.649C88.516 218.907 88.8171 219.269 89.033 219.735H89.1239C89.3474 219.284 89.6826 218.926 90.1296 218.661C90.5766 218.392 91.1126 218.257 91.7376 218.257C92.5179 218.257 93.1561 218.502 93.6523 218.99C94.1486 219.475 94.3967 220.231 94.3967 221.257V227.098H93.0558V221.257C93.0558 220.613 92.8796 220.153 92.5273 219.877C92.1751 219.6 91.7603 219.462 91.283 219.462C90.6694 219.462 90.194 219.647 89.8569 220.019C89.5198 220.386 89.3512 220.852 89.3512 221.416V227.098H87.9876V221.121C87.9876 220.625 87.8266 220.225 87.5046 219.922C87.1826 219.615 86.7679 219.462 86.2603 219.462C85.9118 219.462 85.5861 219.555 85.283 219.74C84.9838 219.926 84.7414 220.183 84.5558 220.513C84.3739 220.839 84.283 221.216 84.283 221.644V227.098H82.9421ZM96.8484 227.098V218.371H98.1893V227.098H96.8484ZM97.5302 216.916C97.2688 216.916 97.0434 216.827 96.854 216.649C96.6684 216.471 96.5756 216.257 96.5756 216.007C96.5756 215.757 96.6684 215.543 96.854 215.365C97.0434 215.187 97.2688 215.098 97.5302 215.098C97.7915 215.098 98.015 215.187 98.2006 215.365C98.39 215.543 98.4847 215.757 98.4847 216.007C98.4847 216.257 98.39 216.471 98.2006 216.649C98.015 216.827 97.7915 216.916 97.5302 216.916Z" fill="#393F42"/>
<path d="M60.0643 273.347L65.2688 263.052V262.961H59.2688V261.711H66.7234V263.029L61.5415 273.347H60.0643ZM72.3867 273.506C71.5307 273.506 70.8015 273.273 70.1992 272.807C69.5969 272.338 69.1367 271.658 68.8185 270.768C68.5004 269.874 68.3413 268.794 68.3413 267.529C68.3413 266.271 68.5004 265.198 68.8185 264.307C69.1405 263.413 69.6026 262.732 70.2049 262.262C70.811 261.788 71.5382 261.552 72.3867 261.552C73.2352 261.552 73.9606 261.788 74.5629 262.262C75.1689 262.732 75.631 263.413 75.9492 264.307C76.2712 265.198 76.4322 266.271 76.4322 267.529C76.4322 268.794 76.2731 269.874 75.9549 270.768C75.6367 271.658 75.1765 272.338 74.5742 272.807C73.9719 273.273 73.2428 273.506 72.3867 273.506ZM72.3867 272.256C73.2352 272.256 73.8943 271.847 74.364 271.029C74.8337 270.211 75.0685 269.044 75.0685 267.529C75.0685 266.521 74.9606 265.663 74.7447 264.955C74.5326 264.247 74.2257 263.707 73.8242 263.336C73.4265 262.965 72.9473 262.779 72.3867 262.779C71.5458 262.779 70.8886 263.194 70.4151 264.023C69.9416 264.849 69.7049 266.018 69.7049 267.529C69.7049 268.537 69.811 269.393 70.0231 270.097C70.2352 270.802 70.5401 271.338 70.9379 271.705C71.3394 272.073 71.8223 272.256 72.3867 272.256ZM83.114 273.347V264.62H84.4094V265.984H84.5231C84.7049 265.518 84.9985 265.156 85.4038 264.898C85.8091 264.637 86.2958 264.506 86.864 264.506C87.4397 264.506 87.9189 264.637 88.3015 264.898C88.6879 265.156 88.989 265.518 89.2049 265.984H89.2958C89.5193 265.533 89.8545 265.175 90.3015 264.91C90.7485 264.641 91.2844 264.506 91.9094 264.506C92.6897 264.506 93.328 264.751 93.8242 265.239C94.3204 265.724 94.5685 266.48 94.5685 267.506V273.347H93.2276V267.506C93.2276 266.862 93.0515 266.402 92.6992 266.126C92.3469 265.849 91.9322 265.711 91.4549 265.711C90.8413 265.711 90.3659 265.896 90.0288 266.268C89.6916 266.635 89.5231 267.101 89.5231 267.665V273.347H88.1594V267.37C88.1594 266.874 87.9985 266.474 87.6765 266.171C87.3545 265.864 86.9397 265.711 86.4322 265.711C86.0837 265.711 85.7579 265.804 85.4549 265.989C85.1557 266.175 84.9132 266.432 84.7276 266.762C84.5458 267.088 84.4549 267.465 84.4549 267.893V273.347H83.114ZM97.0202 273.347V264.62H98.3612V273.347H97.0202ZM97.7021 263.165C97.4407 263.165 97.2153 263.076 97.0259 262.898C96.8403 262.72 96.7475 262.506 96.7475 262.256C96.7475 262.006 96.8403 261.792 97.0259 261.614C97.2153 261.436 97.4407 261.347 97.7021 261.347C97.9634 261.347 98.1869 261.436 98.3725 261.614C98.5619 261.792 98.6566 262.006 98.6566 262.256C98.6566 262.506 98.5619 262.72 98.3725 262.898C98.1869 263.076 97.9634 263.165 97.7021 263.165Z" fill="#393F42"/>
<path d="M62.5643 319.755C62.087 319.748 61.6097 319.657 61.1325 319.483C60.6552 319.308 60.2196 319.015 59.8256 318.602C59.4317 318.185 59.1154 317.623 58.8768 316.914C58.6381 316.202 58.5188 315.308 58.5188 314.233C58.5188 313.202 58.6154 312.289 58.8086 311.494C59.0018 310.695 59.2821 310.022 59.6495 309.477C60.0169 308.928 60.4601 308.511 60.979 308.227C61.5018 307.943 62.0908 307.801 62.7461 307.801C63.3976 307.801 63.9772 307.931 64.4847 308.193C64.9961 308.45 65.4128 308.81 65.7347 309.272C66.0567 309.734 66.265 310.267 66.3597 310.869H64.9734C64.8446 310.346 64.5946 309.912 64.2234 309.568C63.8522 309.223 63.3597 309.051 62.7461 309.051C61.8446 309.051 61.1344 309.443 60.6154 310.227C60.1003 311.011 59.8408 312.111 59.837 313.528H59.9279C60.14 313.206 60.3919 312.931 60.6836 312.704C60.979 312.473 61.3048 312.295 61.6609 312.17C62.0169 312.045 62.3938 311.983 62.7915 311.983C63.4582 311.983 64.0681 312.149 64.6211 312.483C65.1741 312.812 65.6173 313.269 65.9506 313.852C66.284 314.431 66.4506 315.096 66.4506 315.846C66.4506 316.566 66.2897 317.225 65.9677 317.823C65.6457 318.418 65.1931 318.892 64.6097 319.244C64.0302 319.592 63.3484 319.763 62.5643 319.755ZM62.5643 318.505C63.0415 318.505 63.4696 318.386 63.8484 318.147C64.2309 317.909 64.5321 317.589 64.7518 317.187C64.9753 316.786 65.087 316.339 65.087 315.846C65.087 315.365 64.979 314.928 64.7631 314.534C64.551 314.136 64.2575 313.82 63.8825 313.585C63.5112 313.35 63.087 313.233 62.6097 313.233C62.2499 313.233 61.9147 313.305 61.604 313.448C61.2934 313.589 61.0207 313.782 60.7859 314.028C60.5548 314.274 60.373 314.556 60.2404 314.875C60.1078 315.189 60.0415 315.52 60.0415 315.869C60.0415 316.331 60.1495 316.763 60.3654 317.164C60.5851 317.566 60.8844 317.89 61.2631 318.136C61.6457 318.382 62.0794 318.505 62.5643 318.505ZM72.3214 319.755C71.6547 319.755 71.0543 319.623 70.5202 319.358C69.9862 319.092 69.5581 318.729 69.2362 318.267C68.9142 317.805 68.738 317.278 68.7077 316.687H70.0714C70.1244 317.214 70.363 317.649 70.7873 317.994C71.2153 318.335 71.7267 318.505 72.3214 318.505C72.7987 318.505 73.2229 318.394 73.5941 318.17C73.9691 317.947 74.2627 317.64 74.4748 317.25C74.6907 316.856 74.7987 316.411 74.7987 315.914C74.7987 315.407 74.6869 314.954 74.4634 314.556C74.2437 314.155 73.9407 313.839 73.5543 313.608C73.168 313.376 72.7267 313.259 72.2305 313.255C71.8744 313.251 71.5089 313.306 71.1339 313.42C70.7589 313.53 70.4502 313.672 70.2077 313.846L68.8896 313.687L69.5941 307.96H75.6396V309.21H70.7759L70.3668 312.642H70.435C70.6737 312.452 70.9729 312.295 71.3327 312.17C71.6926 312.045 72.0676 311.983 72.4577 311.983C73.1699 311.983 73.8043 312.153 74.3612 312.494C74.9218 312.831 75.3612 313.293 75.6793 313.88C76.0013 314.467 76.1623 315.138 76.1623 315.892C76.1623 316.634 75.9956 317.297 75.6623 317.88C75.3327 318.46 74.8782 318.918 74.2987 319.255C73.7191 319.589 73.06 319.755 72.3214 319.755ZM82.9421 319.596V310.869H84.2376V312.233H84.3512C84.533 311.767 84.8266 311.405 85.2319 311.147C85.6372 310.886 86.1239 310.755 86.6921 310.755C87.2679 310.755 87.747 310.886 88.1296 311.147C88.516 311.405 88.8171 311.767 89.033 312.233H89.1239C89.3474 311.782 89.6826 311.424 90.1296 311.159C90.5766 310.89 91.1126 310.755 91.7376 310.755C92.5179 310.755 93.1561 311 93.6523 311.488C94.1486 311.973 94.3967 312.729 94.3967 313.755V319.596H93.0558V313.755C93.0558 313.111 92.8796 312.651 92.5273 312.375C92.1751 312.098 91.7603 311.96 91.283 311.96C90.6694 311.96 90.194 312.145 89.8569 312.517C89.5198 312.884 89.3512 313.35 89.3512 313.914V319.596H87.9876V313.619C87.9876 313.123 87.8266 312.723 87.5046 312.42C87.1826 312.113 86.7679 311.96 86.2603 311.96C85.9118 311.96 85.5861 312.053 85.283 312.238C84.9838 312.424 84.7414 312.681 84.5558 313.011C84.3739 313.337 84.283 313.714 84.283 314.142V319.596H82.9421ZM96.8484 319.596V310.869H98.1893V319.596H96.8484ZM97.5302 309.414C97.2688 309.414 97.0434 309.325 96.854 309.147C96.6684 308.969 96.5756 308.755 96.5756 308.505C96.5756 308.255 96.6684 308.041 96.854 307.863C97.0434 307.685 97.2688 307.596 97.5302 307.596C97.7915 307.596 98.015 307.685 98.2006 307.863C98.39 308.041 98.4847 308.255 98.4847 308.505C98.4847 308.755 98.39 308.969 98.2006 309.147C98.015 309.325 97.7915 309.414 97.5302 309.414Z" fill="#393F42"/>
<path d="M62.5643 366.004C62.087 365.997 61.6097 365.906 61.1325 365.732C60.6552 365.557 60.2196 365.264 59.8256 364.851C59.4317 364.434 59.1154 363.872 58.8768 363.163C58.6381 362.451 58.5188 361.557 58.5188 360.482C58.5188 359.451 58.6154 358.538 58.8086 357.743C59.0018 356.944 59.2821 356.271 59.6495 355.726C60.0169 355.177 60.4601 354.76 60.979 354.476C61.5018 354.192 62.0908 354.05 62.7461 354.05C63.3976 354.05 63.9772 354.18 64.4847 354.442C64.9961 354.699 65.4128 355.059 65.7347 355.521C66.0567 355.983 66.265 356.516 66.3597 357.118H64.9734C64.8446 356.595 64.5946 356.162 64.2234 355.817C63.8522 355.472 63.3597 355.3 62.7461 355.3C61.8446 355.3 61.1344 355.692 60.6154 356.476C60.1003 357.26 59.8408 358.36 59.837 359.777H59.9279C60.14 359.455 60.3919 359.18 60.6836 358.953C60.979 358.722 61.3048 358.544 61.6609 358.419C62.0169 358.294 62.3938 358.232 62.7915 358.232C63.4582 358.232 64.0681 358.398 64.6211 358.732C65.1741 359.061 65.6173 359.518 65.9506 360.101C66.284 360.68 66.4506 361.345 66.4506 362.095C66.4506 362.815 66.2897 363.474 65.9677 364.072C65.6457 364.667 65.1931 365.141 64.6097 365.493C64.0302 365.841 63.3484 366.012 62.5643 366.004ZM62.5643 364.754C63.0415 364.754 63.4696 364.635 63.8484 364.396C64.2309 364.158 64.5321 363.838 64.7518 363.436C64.9753 363.035 65.087 362.588 65.087 362.095C65.087 361.614 64.979 361.177 64.7631 360.783C64.551 360.385 64.2575 360.069 63.8825 359.834C63.5112 359.599 63.087 359.482 62.6097 359.482C62.2499 359.482 61.9147 359.554 61.604 359.697C61.2934 359.838 61.0207 360.031 60.7859 360.277C60.5548 360.523 60.373 360.805 60.2404 361.124C60.1078 361.438 60.0415 361.769 60.0415 362.118C60.0415 362.58 60.1495 363.012 60.3654 363.413C60.5851 363.815 60.8844 364.139 61.2631 364.385C61.6457 364.631 62.0794 364.754 62.5643 364.754ZM72.4805 366.004C71.6244 366.004 70.8952 365.771 70.293 365.305C69.6907 364.836 69.2305 364.156 68.9123 363.266C68.5941 362.372 68.435 361.292 68.435 360.027C68.435 358.769 68.5941 357.696 68.9123 356.805C69.2343 355.912 69.6964 355.23 70.2987 354.76C70.9047 354.287 71.632 354.05 72.4805 354.05C73.329 354.05 74.0543 354.287 74.6566 354.76C75.2627 355.23 75.7248 355.912 76.043 356.805C76.3649 357.696 76.5259 358.769 76.5259 360.027C76.5259 361.292 76.3668 362.372 76.0487 363.266C75.7305 364.156 75.2702 364.836 74.668 365.305C74.0657 365.771 73.3365 366.004 72.4805 366.004ZM72.4805 364.754C73.329 364.754 73.988 364.345 74.4577 363.527C74.9274 362.709 75.1623 361.542 75.1623 360.027C75.1623 359.019 75.0543 358.162 74.8384 357.453C74.6263 356.745 74.3195 356.205 73.918 355.834C73.5202 355.463 73.0411 355.277 72.4805 355.277C71.6396 355.277 70.9824 355.692 70.5089 356.521C70.0354 357.347 69.7987 358.516 69.7987 360.027C69.7987 361.035 69.9047 361.891 70.1168 362.595C70.329 363.3 70.6339 363.836 71.0316 364.203C71.4331 364.571 71.9161 364.754 72.4805 364.754ZM83.2077 365.845V357.118H84.5032V358.482H84.6168C84.7987 358.016 85.0922 357.654 85.4975 357.396C85.9028 357.135 86.3896 357.004 86.9577 357.004C87.5335 357.004 88.0127 357.135 88.3952 357.396C88.7816 357.654 89.0827 358.016 89.2987 358.482H89.3896C89.613 358.031 89.9483 357.673 90.3952 357.408C90.8422 357.139 91.3782 357.004 92.0032 357.004C92.7835 357.004 93.4218 357.249 93.918 357.737C94.4142 358.222 94.6623 358.978 94.6623 360.004V365.845H93.3214V360.004C93.3214 359.36 93.1452 358.9 92.793 358.624C92.4407 358.347 92.0259 358.209 91.5487 358.209C90.935 358.209 90.4596 358.394 90.1225 358.766C89.7854 359.133 89.6168 359.599 89.6168 360.163V365.845H88.2532V359.868C88.2532 359.372 88.0922 358.972 87.7702 358.669C87.4483 358.362 87.0335 358.209 86.5259 358.209C86.1774 358.209 85.8517 358.302 85.5487 358.487C85.2494 358.673 85.007 358.93 84.8214 359.26C84.6396 359.586 84.5487 359.963 84.5487 360.391V365.845H83.2077ZM97.114 365.845V357.118H98.4549V365.845H97.114ZM97.7958 355.663C97.5344 355.663 97.3091 355.574 97.1197 355.396C96.9341 355.218 96.8413 355.004 96.8413 354.754C96.8413 354.504 96.9341 354.29 97.1197 354.112C97.3091 353.934 97.5344 353.845 97.7958 353.845C98.0572 353.845 98.2807 353.934 98.4663 354.112C98.6557 354.29 98.7504 354.504 98.7504 354.754C98.7504 355.004 98.6557 355.218 98.4663 355.396C98.2807 355.574 98.0572 355.663 97.7958 355.663Z" fill="#393F42"/>
<path d="M72.4961 412.253C71.64 412.253 70.9109 412.02 70.3086 411.554C69.7063 411.085 69.2461 410.405 68.9279 409.515C68.6097 408.621 68.4506 407.541 68.4506 406.276C68.4506 405.018 68.6097 403.945 68.9279 403.054C69.2499 402.161 69.712 401.479 70.3143 401.009C70.9203 400.536 71.6476 400.299 72.4961 400.299C73.3446 400.299 74.07 400.536 74.6722 401.009C75.2783 401.479 75.7404 402.161 76.0586 403.054C76.3806 403.945 76.5415 405.018 76.5415 406.276C76.5415 407.541 76.3825 408.621 76.0643 409.515C75.7461 410.405 75.2859 411.085 74.6836 411.554C74.0813 412.02 73.3522 412.253 72.4961 412.253ZM72.4961 411.003C73.3446 411.003 74.0037 410.594 74.4734 409.776C74.9431 408.958 75.1779 407.791 75.1779 406.276C75.1779 405.268 75.07 404.411 74.854 403.702C74.6419 402.994 74.3351 402.454 73.9336 402.083C73.5359 401.712 73.0567 401.526 72.4961 401.526C71.6552 401.526 70.998 401.941 70.5245 402.77C70.051 403.596 69.8143 404.765 69.8143 406.276C69.8143 407.284 69.9203 408.14 70.1325 408.844C70.3446 409.549 70.6495 410.085 71.0472 410.452C71.4487 410.82 71.9317 411.003 72.4961 411.003Z" fill="#393F42"/>
<path d="M101.808 412.494V418.494" stroke="#A0A0A0"/>
<path d="M218.797 412.494V418.494" stroke="#A0A0A0"/>
<path d="M340.098 412.494V418.494" stroke="#A0A0A0"/>
<path d="M461.398 412.494V418.494" stroke="#A0A0A0"/>
<path d="M582.699 412.494V418.494" stroke="#A0A0A0"/>
<path d="M704 412.494V418.494" stroke="#A0A0A0"/>
<path d="M101.808 180.249H704" stroke="#101C2E" stroke-opacity="0.25"/>
<path d="M101.808 226.498H704" stroke="#101C2E" stroke-opacity="0.25"/>
<path d="M101.808 272.747H704" stroke="#101C2E" stroke-opacity="0.25"/>
<path d="M101.808 318.996H704" stroke="#101C2E" stroke-opacity="0.25"/>
<path d="M101.808 365.245H704" stroke="#101C2E" stroke-opacity="0.25"/>
<path d="M101.808 134H704" stroke="#101C2E" stroke-opacity="0.25"/>
<path d="M101.808 411.494H704" stroke="#101C2E" stroke-opacity="0.25"/>
<path d="M101.808 412.494H704" stroke="#A0A0A0"/>
<mask id="mask0_241_284" style="mask-type:luminance" maskUnits="userSpaceOnUse" x="104" y="124" width="602" height="298">
<path d="M706 124H104.787V421.494H706V124Z" fill="white"/>
</mask>
<g mask="url(#mask0_241_284)">
<path d="M107.431 339.458C143.349 329.834 179.138 318.383 219.881 307.466C263.348 295.819 296.388 283.912 339.035 272.485C393.684 257.842 429.22 248.833 465.381 239.144C508.474 226.026 542.908 171.368 584.698 171.368C636.373 171.368 687.557 227.456 704.014 236.958" stroke="#FF4000" stroke-width="4"/>
</g>
<path d="M91.3935 445.494V444.471L95.2344 440.266C95.6852 439.774 96.0564 439.346 96.3481 438.982C96.6397 438.615 96.8556 438.27 96.9958 437.948C97.1397 437.622 97.2117 437.282 97.2117 436.925C97.2117 436.516 97.1132 436.162 96.9162 435.863C96.7231 435.564 96.4579 435.333 96.1208 435.17C95.7837 435.007 95.4049 434.925 94.9844 434.925C94.5374 434.925 94.1473 435.018 93.814 435.204C93.4844 435.386 93.2287 435.641 93.0469 435.971C92.8689 436.3 92.7799 436.687 92.7799 437.13H91.439C91.439 436.448 91.5962 435.85 91.9106 435.335C92.2249 434.819 92.653 434.418 93.1946 434.13C93.7401 433.842 94.3518 433.698 95.0299 433.698C95.7117 433.698 96.3159 433.842 96.8424 434.13C97.3689 434.418 97.7818 434.806 98.081 435.295C98.3803 435.783 98.5299 436.327 98.5299 436.925C98.5299 437.354 98.4522 437.772 98.2969 438.181C98.1454 438.586 97.8803 439.039 97.5015 439.539C97.1265 440.035 96.6056 440.641 95.939 441.357L93.3253 444.153V444.244H98.7344V445.494H91.3935ZM104.876 445.653C104.02 445.653 103.291 445.42 102.689 444.954C102.087 444.484 101.626 443.804 101.308 442.914C100.99 442.02 100.831 440.941 100.831 439.675C100.831 438.418 100.99 437.344 101.308 436.454C101.63 435.56 102.092 434.878 102.695 434.408C103.301 433.935 104.028 433.698 104.876 433.698C105.725 433.698 106.45 433.935 107.053 434.408C107.659 434.878 108.121 435.56 108.439 436.454C108.761 437.344 108.922 438.418 108.922 439.675C108.922 440.941 108.763 442.02 108.445 442.914C108.126 443.804 107.666 444.484 107.064 444.954C106.462 445.42 105.733 445.653 104.876 445.653ZM104.876 444.403C105.725 444.403 106.384 443.994 106.854 443.175C107.323 442.357 107.558 441.191 107.558 439.675C107.558 438.668 107.45 437.81 107.234 437.102C107.022 436.393 106.715 435.854 106.314 435.482C105.916 435.111 105.437 434.925 104.876 434.925C104.036 434.925 103.378 435.34 102.905 436.17C102.431 436.996 102.195 438.164 102.195 439.675C102.195 440.683 102.301 441.539 102.513 442.244C102.725 442.948 103.03 443.484 103.428 443.852C103.829 444.219 104.312 444.403 104.876 444.403ZM111.081 445.494V444.471L114.922 440.266C115.373 439.774 115.744 439.346 116.036 438.982C116.327 438.615 116.543 438.27 116.683 437.948C116.827 437.622 116.899 437.282 116.899 436.925C116.899 436.516 116.801 436.162 116.604 435.863C116.411 435.564 116.145 435.333 115.808 435.17C115.471 435.007 115.092 434.925 114.672 434.925C114.225 434.925 113.835 435.018 113.501 435.204C113.172 435.386 112.916 435.641 112.734 435.971C112.556 436.3 112.467 436.687 112.467 437.13H111.126C111.126 436.448 111.284 435.85 111.598 435.335C111.912 434.819 112.34 434.418 112.882 434.13C113.428 433.842 114.039 433.698 114.717 433.698C115.399 433.698 116.003 433.842 116.53 434.13C117.056 434.418 117.469 434.806 117.769 435.295C118.068 435.783 118.217 436.327 118.217 436.925C118.217 437.354 118.14 437.772 117.984 438.181C117.833 438.586 117.568 439.039 117.189 439.539C116.814 440.035 116.293 440.641 115.626 441.357L113.013 444.153V444.244H118.422V445.494H111.081ZM124.859 433.857V445.494H123.45V435.335H123.382L120.541 437.221V435.789L123.45 433.857H124.859Z" fill="#393F42"/>
<path d="M205.275 445.494V444.471L209.116 440.266C209.567 439.774 209.938 439.346 210.23 438.982C210.522 438.615 210.737 438.27 210.878 437.948C211.022 437.622 211.094 437.282 211.094 436.925C211.094 436.516 210.995 436.162 210.798 435.863C210.605 435.564 210.34 435.333 210.003 435.17C209.665 435.007 209.287 434.925 208.866 434.925C208.419 434.925 208.029 435.018 207.696 435.204C207.366 435.386 207.111 435.641 206.929 435.971C206.751 436.3 206.662 436.687 206.662 437.13H205.321C205.321 436.448 205.478 435.85 205.792 435.335C206.107 434.819 206.535 434.418 207.076 434.13C207.622 433.842 208.234 433.698 208.912 433.698C209.594 433.698 210.198 433.842 210.724 434.13C211.251 434.418 211.664 434.806 211.963 435.295C212.262 435.783 212.412 436.327 212.412 436.925C212.412 437.354 212.334 437.772 212.179 438.181C212.027 438.586 211.762 439.039 211.383 439.539C211.008 440.035 210.487 440.641 209.821 441.357L207.207 444.153V444.244H212.616V445.494H205.275ZM218.758 445.653C217.902 445.653 217.173 445.42 216.571 444.954C215.969 444.484 215.508 443.804 215.19 442.914C214.872 442.02 214.713 440.941 214.713 439.675C214.713 438.418 214.872 437.344 215.19 436.454C215.512 435.56 215.974 434.878 216.576 434.408C217.183 433.935 217.91 433.698 218.758 433.698C219.607 433.698 220.332 433.935 220.934 434.408C221.54 434.878 222.003 435.56 222.321 436.454C222.643 437.344 222.804 438.418 222.804 439.675C222.804 440.941 222.645 442.02 222.326 442.914C222.008 443.804 221.548 444.484 220.946 444.954C220.344 445.42 219.614 445.653 218.758 445.653ZM218.758 444.403C219.607 444.403 220.266 443.994 220.736 443.175C221.205 442.357 221.44 441.191 221.44 439.675C221.44 438.668 221.332 437.81 221.116 437.102C220.904 436.393 220.597 435.854 220.196 435.482C219.798 435.111 219.319 434.925 218.758 434.925C217.917 434.925 217.26 435.34 216.787 436.17C216.313 436.996 216.076 438.164 216.076 439.675C216.076 440.683 216.183 441.539 216.395 442.244C216.607 442.948 216.912 443.484 217.309 443.852C217.711 444.219 218.194 444.403 218.758 444.403ZM224.963 445.494V444.471L228.804 440.266C229.255 439.774 229.626 439.346 229.917 438.982C230.209 438.615 230.425 438.27 230.565 437.948C230.709 437.622 230.781 437.282 230.781 436.925C230.781 436.516 230.683 436.162 230.486 435.863C230.292 435.564 230.027 435.333 229.69 435.17C229.353 435.007 228.974 434.925 228.554 434.925C228.107 434.925 227.717 435.018 227.383 435.204C227.054 435.386 226.798 435.641 226.616 435.971C226.438 436.3 226.349 436.687 226.349 437.13H225.008C225.008 436.448 225.165 435.85 225.48 435.335C225.794 434.819 226.222 434.418 226.764 434.13C227.309 433.842 227.921 433.698 228.599 433.698C229.281 433.698 229.885 433.842 230.412 434.13C230.938 434.418 231.351 434.806 231.65 435.295C231.95 435.783 232.099 436.327 232.099 436.925C232.099 437.354 232.022 437.772 231.866 438.181C231.715 438.586 231.45 439.039 231.071 439.539C230.696 440.035 230.175 440.641 229.508 441.357L226.895 444.153V444.244H232.304V445.494H224.963ZM234.65 445.494V444.471L238.491 440.266C238.942 439.774 239.313 439.346 239.605 438.982C239.897 438.615 240.112 438.27 240.253 437.948C240.397 437.622 240.469 437.282 240.469 436.925C240.469 436.516 240.37 436.162 240.173 435.863C239.98 435.564 239.715 435.333 239.378 435.17C239.04 435.007 238.662 434.925 238.241 434.925C237.794 434.925 237.404 435.018 237.071 435.204C236.741 435.386 236.486 435.641 236.304 435.971C236.126 436.3 236.037 436.687 236.037 437.13H234.696C234.696 436.448 234.853 435.85 235.167 435.335C235.482 434.819 235.91 434.418 236.451 434.13C236.997 433.842 237.609 433.698 238.287 433.698C238.969 433.698 239.573 433.842 240.099 434.13C240.626 434.418 241.039 434.806 241.338 435.295C241.637 435.783 241.787 436.327 241.787 436.925C241.787 437.354 241.709 437.772 241.554 438.181C241.402 438.586 241.137 439.039 240.758 439.539C240.383 440.035 239.862 440.641 239.196 441.357L236.582 444.153V444.244H241.991V445.494H234.65Z" fill="#393F42"/>
<path d="M322.447 445.494V444.471L326.288 440.266C326.739 439.774 327.11 439.346 327.402 438.982C327.693 438.615 327.909 438.27 328.049 437.948C328.193 437.622 328.265 437.282 328.265 436.925C328.265 436.516 328.167 436.162 327.97 435.863C327.777 435.564 327.512 435.333 327.174 435.17C326.837 435.007 326.459 434.925 326.038 434.925C325.591 434.925 325.201 435.018 324.868 435.204C324.538 435.386 324.282 435.641 324.101 435.971C323.923 436.3 323.834 436.687 323.834 437.13H322.493C322.493 436.448 322.65 435.85 322.964 435.335C323.279 434.819 323.707 434.418 324.248 434.13C324.794 433.842 325.406 433.698 326.084 433.698C326.765 433.698 327.37 433.842 327.896 434.13C328.423 434.418 328.835 434.806 329.135 435.295C329.434 435.783 329.584 436.327 329.584 436.925C329.584 437.354 329.506 437.772 329.351 438.181C329.199 438.586 328.934 439.039 328.555 439.539C328.18 440.035 327.659 440.641 326.993 441.357L324.379 444.153V444.244H329.788V445.494H322.447ZM335.93 445.653C335.074 445.653 334.345 445.42 333.743 444.954C333.14 444.484 332.68 443.804 332.362 442.914C332.044 442.02 331.885 440.941 331.885 439.675C331.885 438.418 332.044 437.344 332.362 436.454C332.684 435.56 333.146 434.878 333.748 434.408C334.354 433.935 335.082 433.698 335.93 433.698C336.779 433.698 337.504 433.935 338.106 434.408C338.712 434.878 339.174 435.56 339.493 436.454C339.815 437.344 339.976 438.418 339.976 439.675C339.976 440.941 339.817 442.02 339.498 442.914C339.18 443.804 338.72 444.484 338.118 444.954C337.515 445.42 336.786 445.653 335.93 445.653ZM335.93 444.403C336.779 444.403 337.438 443.994 337.907 443.175C338.377 442.357 338.612 441.191 338.612 439.675C338.612 438.668 338.504 437.81 338.288 437.102C338.076 436.393 337.769 435.854 337.368 435.482C336.97 435.111 336.491 434.925 335.93 434.925C335.089 434.925 334.432 435.34 333.959 436.17C333.485 436.996 333.248 438.164 333.248 439.675C333.248 440.683 333.354 441.539 333.567 442.244C333.779 442.948 334.084 443.484 334.481 443.852C334.883 444.219 335.366 444.403 335.93 444.403ZM342.135 445.494V444.471L345.976 440.266C346.426 439.774 346.798 439.346 347.089 438.982C347.381 438.615 347.597 438.27 347.737 437.948C347.881 437.622 347.953 437.282 347.953 436.925C347.953 436.516 347.854 436.162 347.657 435.863C347.464 435.564 347.199 435.333 346.862 435.17C346.525 435.007 346.146 434.925 345.726 434.925C345.279 434.925 344.889 435.018 344.555 435.204C344.226 435.386 343.97 435.641 343.788 435.971C343.61 436.3 343.521 436.687 343.521 437.13H342.18C342.18 436.448 342.337 435.85 342.652 435.335C342.966 434.819 343.394 434.418 343.936 434.13C344.481 433.842 345.093 433.698 345.771 433.698C346.453 433.698 347.057 433.842 347.584 434.13C348.11 434.418 348.523 434.806 348.822 435.295C349.121 435.783 349.271 436.327 349.271 436.925C349.271 437.354 349.193 437.772 349.038 438.181C348.887 438.586 348.621 439.039 348.243 439.539C347.868 440.035 347.347 440.641 346.68 441.357L344.067 444.153V444.244H349.476V445.494H342.135ZM355.754 445.653C355.004 445.653 354.335 445.524 353.748 445.266C353.165 445.009 352.701 444.651 352.356 444.193C352.015 443.73 351.83 443.194 351.799 442.585H353.231C353.262 442.96 353.39 443.283 353.618 443.556C353.845 443.825 354.142 444.033 354.51 444.181C354.877 444.329 355.284 444.403 355.731 444.403C356.231 444.403 356.674 444.316 357.061 444.141C357.447 443.967 357.75 443.725 357.97 443.414C358.19 443.104 358.299 442.744 358.299 442.335C358.299 441.907 358.193 441.53 357.981 441.204C357.769 440.874 357.459 440.617 357.049 440.431C356.64 440.246 356.14 440.153 355.549 440.153H354.618V438.903H355.549C356.012 438.903 356.417 438.819 356.765 438.653C357.118 438.486 357.392 438.251 357.589 437.948C357.79 437.645 357.89 437.289 357.89 436.88C357.89 436.486 357.803 436.143 357.629 435.852C357.455 435.56 357.209 435.333 356.89 435.17C356.576 435.007 356.205 434.925 355.777 434.925C355.375 434.925 354.996 434.999 354.64 435.147C354.288 435.291 354 435.501 353.777 435.778C353.553 436.05 353.432 436.38 353.413 436.766H352.049C352.072 436.157 352.256 435.622 352.601 435.164C352.945 434.702 353.396 434.342 353.953 434.085C354.514 433.827 355.129 433.698 355.799 433.698C356.519 433.698 357.137 433.844 357.652 434.136C358.167 434.424 358.563 434.804 358.839 435.278C359.116 435.751 359.254 436.263 359.254 436.812C359.254 437.467 359.082 438.026 358.737 438.488C358.396 438.95 357.932 439.27 357.345 439.448V439.539C358.08 439.66 358.654 439.973 359.067 440.477C359.479 440.977 359.686 441.596 359.686 442.335C359.686 442.967 359.514 443.535 359.169 444.039C358.828 444.539 358.362 444.933 357.771 445.221C357.18 445.509 356.508 445.653 355.754 445.653Z" fill="#393F42"/>
<path d="M439.471 445.494V444.471L443.312 440.266C443.762 439.774 444.134 439.346 444.425 438.982C444.717 438.615 444.933 438.27 445.073 437.948C445.217 437.622 445.289 437.282 445.289 436.925C445.289 436.516 445.19 436.162 444.993 435.863C444.8 435.564 444.535 435.333 444.198 435.17C443.861 435.007 443.482 434.925 443.062 434.925C442.615 434.925 442.224 435.018 441.891 435.204C441.562 435.386 441.306 435.641 441.124 435.971C440.946 436.3 440.857 436.687 440.857 437.13H439.516C439.516 436.448 439.673 435.85 439.988 435.335C440.302 434.819 440.73 434.418 441.272 434.13C441.817 433.842 442.429 433.698 443.107 433.698C443.789 433.698 444.393 433.842 444.92 434.13C445.446 434.418 445.859 434.806 446.158 435.295C446.457 435.783 446.607 436.327 446.607 436.925C446.607 437.354 446.529 437.772 446.374 438.181C446.223 438.586 445.957 439.039 445.579 439.539C445.204 440.035 444.683 440.641 444.016 441.357L441.402 444.153V444.244H446.812V445.494H439.471ZM452.954 445.653C452.098 445.653 451.368 445.42 450.766 444.954C450.164 444.484 449.704 443.804 449.385 442.914C449.067 442.02 448.908 440.941 448.908 439.675C448.908 438.418 449.067 437.344 449.385 436.454C449.707 435.56 450.17 434.878 450.772 434.408C451.378 433.935 452.105 433.698 452.954 433.698C453.802 433.698 454.527 433.935 455.13 434.408C455.736 434.878 456.198 435.56 456.516 436.454C456.838 437.344 456.999 438.418 456.999 439.675C456.999 440.941 456.84 442.02 456.522 442.914C456.204 443.804 455.743 444.484 455.141 444.954C454.539 445.42 453.81 445.653 452.954 445.653ZM452.954 444.403C453.802 444.403 454.461 443.994 454.931 443.175C455.401 442.357 455.635 441.191 455.635 439.675C455.635 438.668 455.527 437.81 455.312 437.102C455.099 436.393 454.793 435.854 454.391 435.482C453.993 435.111 453.514 434.925 452.954 434.925C452.113 434.925 451.456 435.34 450.982 436.17C450.509 436.996 450.272 438.164 450.272 439.675C450.272 440.683 450.378 441.539 450.59 442.244C450.802 442.948 451.107 443.484 451.505 443.852C451.906 444.219 452.389 444.403 452.954 444.403ZM459.158 445.494V444.471L462.999 440.266C463.45 439.774 463.821 439.346 464.113 438.982C464.404 438.615 464.62 438.27 464.76 437.948C464.904 437.622 464.976 437.282 464.976 436.925C464.976 436.516 464.878 436.162 464.681 435.863C464.488 435.564 464.223 435.333 463.885 435.17C463.548 435.007 463.17 434.925 462.749 434.925C462.302 434.925 461.912 435.018 461.579 435.204C461.249 435.386 460.993 435.641 460.812 435.971C460.634 436.3 460.545 436.687 460.545 437.13H459.204C459.204 436.448 459.361 435.85 459.675 435.335C459.99 434.819 460.418 434.418 460.959 434.13C461.505 433.842 462.116 433.698 462.795 433.698C463.476 433.698 464.081 433.842 464.607 434.13C465.134 434.418 465.546 434.806 465.846 435.295C466.145 435.783 466.295 436.327 466.295 436.925C466.295 437.354 466.217 437.772 466.062 438.181C465.91 438.586 465.645 439.039 465.266 439.539C464.891 440.035 464.37 440.641 463.704 441.357L461.09 444.153V444.244H466.499V445.494H459.158ZM468.323 443.107V441.948L473.437 433.857H474.277V435.653H473.709L469.846 441.766V441.857H476.732V443.107H468.323ZM473.8 445.494V442.755V442.215V433.857H475.141V445.494H473.8Z" fill="#393F42"/>
<path d="M557.517 445.494V444.471L561.358 440.266C561.809 439.774 562.18 439.346 562.472 438.982C562.763 438.615 562.979 438.27 563.119 437.948C563.263 437.622 563.335 437.282 563.335 436.925C563.335 436.516 563.237 436.162 563.04 435.863C562.847 435.564 562.581 435.333 562.244 435.17C561.907 435.007 561.528 434.925 561.108 434.925C560.661 434.925 560.271 435.018 559.938 435.204C559.608 435.386 559.352 435.641 559.17 435.971C558.992 436.3 558.903 436.687 558.903 437.13H557.562C557.562 436.448 557.72 435.85 558.034 435.335C558.348 434.819 558.777 434.418 559.318 434.13C559.864 433.842 560.475 433.698 561.153 433.698C561.835 433.698 562.439 433.842 562.966 434.13C563.492 434.418 563.905 434.806 564.205 435.295C564.504 435.783 564.653 436.327 564.653 436.925C564.653 437.354 564.576 437.772 564.42 438.181C564.269 438.586 564.004 439.039 563.625 439.539C563.25 440.035 562.729 440.641 562.062 441.357L559.449 444.153V444.244H564.858V445.494H557.517ZM571 445.653C570.144 445.653 569.415 445.42 568.812 444.954C568.21 444.484 567.75 443.804 567.432 442.914C567.114 442.02 566.955 440.941 566.955 439.675C566.955 438.418 567.114 437.344 567.432 436.454C567.754 435.56 568.216 434.878 568.818 434.408C569.424 433.935 570.152 433.698 571 433.698C571.848 433.698 572.574 433.935 573.176 434.408C573.782 434.878 574.244 435.56 574.562 436.454C574.884 437.344 575.045 438.418 575.045 439.675C575.045 440.941 574.886 442.02 574.568 442.914C574.25 443.804 573.79 444.484 573.188 444.954C572.585 445.42 571.856 445.653 571 445.653ZM571 444.403C571.848 444.403 572.508 443.994 572.977 443.175C573.447 442.357 573.682 441.191 573.682 439.675C573.682 438.668 573.574 437.81 573.358 437.102C573.146 436.393 572.839 435.854 572.438 435.482C572.04 435.111 571.561 434.925 571 434.925C570.159 434.925 569.502 435.34 569.028 436.17C568.555 436.996 568.318 438.164 568.318 439.675C568.318 440.683 568.424 441.539 568.636 442.244C568.848 442.948 569.153 443.484 569.551 443.852C569.953 444.219 570.436 444.403 571 444.403ZM577.205 445.494V444.471L581.045 440.266C581.496 439.774 581.867 439.346 582.159 438.982C582.451 438.615 582.667 438.27 582.807 437.948C582.951 437.622 583.023 437.282 583.023 436.925C583.023 436.516 582.924 436.162 582.727 435.863C582.534 435.564 582.269 435.333 581.932 435.17C581.595 435.007 581.216 434.925 580.795 434.925C580.348 434.925 579.958 435.018 579.625 435.204C579.295 435.386 579.04 435.641 578.858 435.971C578.68 436.3 578.591 436.687 578.591 437.13H577.25C577.25 436.448 577.407 435.85 577.722 435.335C578.036 434.819 578.464 434.418 579.006 434.13C579.551 433.842 580.163 433.698 580.841 433.698C581.523 433.698 582.127 433.842 582.653 434.13C583.18 434.418 583.593 434.806 583.892 435.295C584.191 435.783 584.341 436.327 584.341 436.925C584.341 437.354 584.263 437.772 584.108 438.181C583.956 438.586 583.691 439.039 583.312 439.539C582.938 440.035 582.417 440.641 581.75 441.357L579.136 444.153V444.244H584.545V445.494H577.205ZM590.528 445.653C589.862 445.653 589.261 445.52 588.727 445.255C588.193 444.99 587.765 444.626 587.443 444.164C587.121 443.702 586.945 443.175 586.915 442.585H588.278C588.331 443.111 588.57 443.547 588.994 443.891C589.422 444.232 589.934 444.403 590.528 444.403C591.006 444.403 591.43 444.291 591.801 444.068C592.176 443.844 592.47 443.537 592.682 443.147C592.898 442.753 593.006 442.308 593.006 441.812C593.006 441.304 592.894 440.852 592.67 440.454C592.451 440.052 592.148 439.736 591.761 439.505C591.375 439.274 590.934 439.157 590.438 439.153C590.081 439.149 589.716 439.204 589.341 439.318C588.966 439.427 588.657 439.569 588.415 439.744L587.097 439.585L587.801 433.857H593.847V435.107H588.983L588.574 438.539H588.642C588.881 438.35 589.18 438.193 589.54 438.068C589.9 437.943 590.275 437.88 590.665 437.88C591.377 437.88 592.011 438.05 592.568 438.391C593.129 438.729 593.568 439.191 593.886 439.778C594.208 440.365 594.369 441.035 594.369 441.789C594.369 442.532 594.203 443.194 593.869 443.778C593.54 444.357 593.085 444.816 592.506 445.153C591.926 445.486 591.267 445.653 590.528 445.653Z" fill="#393F42"/>
<path d="M642.979 433.857H644.661L648.615 443.516H648.752L652.706 433.857H654.388V445.494H653.07V436.653H652.956L649.32 445.494H648.047L644.411 436.653H644.297V445.494H642.979V433.857ZM659.6 445.698C659.047 445.698 658.545 445.594 658.094 445.386C657.643 445.174 657.285 444.869 657.02 444.471C656.755 444.069 656.622 443.585 656.622 443.016C656.622 442.516 656.721 442.111 656.918 441.8C657.115 441.486 657.378 441.24 657.708 441.062C658.037 440.884 658.401 440.751 658.799 440.664C659.2 440.573 659.603 440.501 660.009 440.448C660.539 440.38 660.969 440.329 661.299 440.295C661.632 440.257 661.874 440.194 662.026 440.107C662.181 440.02 662.259 439.869 662.259 439.653V439.607C662.259 439.047 662.105 438.611 661.799 438.3C661.495 437.99 661.035 437.835 660.418 437.835C659.778 437.835 659.276 437.975 658.912 438.255C658.549 438.535 658.293 438.835 658.145 439.153L656.872 438.698C657.1 438.168 657.403 437.755 657.781 437.46C658.164 437.16 658.581 436.952 659.031 436.835C659.486 436.713 659.933 436.653 660.372 436.653C660.653 436.653 660.975 436.687 661.338 436.755C661.706 436.819 662.06 436.954 662.401 437.158C662.745 437.363 663.031 437.672 663.259 438.085C663.486 438.497 663.6 439.05 663.6 439.744V445.494H662.259V444.312H662.191C662.1 444.501 661.948 444.704 661.736 444.92C661.524 445.136 661.242 445.319 660.889 445.471C660.537 445.622 660.107 445.698 659.6 445.698ZM659.804 444.494C660.335 444.494 660.781 444.389 661.145 444.181C661.513 443.973 661.789 443.704 661.975 443.374C662.164 443.045 662.259 442.698 662.259 442.335V441.107C662.202 441.175 662.077 441.238 661.884 441.295C661.694 441.348 661.475 441.395 661.225 441.437C660.978 441.475 660.738 441.509 660.503 441.539C660.272 441.566 660.085 441.588 659.941 441.607C659.592 441.653 659.266 441.727 658.963 441.829C658.664 441.927 658.422 442.077 658.236 442.278C658.054 442.475 657.963 442.744 657.963 443.085C657.963 443.55 658.136 443.903 658.48 444.141C658.829 444.376 659.27 444.494 659.804 444.494ZM666.047 445.494V436.766H667.343V438.085H667.433C667.593 437.653 667.88 437.302 668.297 437.033C668.714 436.764 669.183 436.63 669.706 436.63C669.805 436.63 669.928 436.632 670.076 436.636C670.223 436.639 670.335 436.645 670.411 436.653V438.016C670.365 438.005 670.261 437.988 670.098 437.965C669.939 437.939 669.771 437.925 669.593 437.925C669.168 437.925 668.79 438.014 668.456 438.193C668.127 438.367 667.865 438.609 667.672 438.92C667.483 439.227 667.388 439.577 667.388 439.971V445.494H666.047ZM675.567 433.312L671.817 447.244H670.59L674.34 433.312H675.567ZM677.134 445.494V444.471L680.975 440.266C681.425 439.774 681.797 439.346 682.088 438.982C682.38 438.615 682.596 438.27 682.736 437.948C682.88 437.622 682.952 437.282 682.952 436.925C682.952 436.516 682.853 436.162 682.656 435.863C682.463 435.564 682.198 435.333 681.861 435.17C681.524 435.007 681.145 434.925 680.725 434.925C680.278 434.925 679.888 435.018 679.554 435.204C679.225 435.386 678.969 435.641 678.787 435.971C678.609 436.3 678.52 436.687 678.52 437.13H677.179C677.179 436.448 677.336 435.85 677.651 435.335C677.965 434.819 678.393 434.418 678.935 434.13C679.48 433.842 680.092 433.698 680.77 433.698C681.452 433.698 682.056 433.842 682.583 434.13C683.109 434.418 683.522 434.806 683.821 435.295C684.12 435.783 684.27 436.327 684.27 436.925C684.27 437.354 684.192 437.772 684.037 438.181C683.886 438.586 683.62 439.039 683.242 439.539C682.867 440.035 682.346 440.641 681.679 441.357L679.066 444.153V444.244H684.475V445.494H677.134ZM690.617 445.653C689.761 445.653 689.031 445.42 688.429 444.954C687.827 444.484 687.367 443.804 687.049 442.914C686.73 442.02 686.571 440.941 686.571 439.675C686.571 438.418 686.73 437.344 687.049 436.454C687.37 435.56 687.833 434.878 688.435 434.408C689.041 433.935 689.768 433.698 690.617 433.698C691.465 433.698 692.191 433.935 692.793 434.408C693.399 434.878 693.861 435.56 694.179 436.454C694.501 437.344 694.662 438.418 694.662 439.675C694.662 440.941 694.503 442.02 694.185 442.914C693.867 443.804 693.406 444.484 692.804 444.954C692.202 445.42 691.473 445.653 690.617 445.653ZM690.617 444.403C691.465 444.403 692.124 443.994 692.594 443.175C693.064 442.357 693.299 441.191 693.299 439.675C693.299 438.668 693.191 437.81 692.975 437.102C692.763 436.393 692.456 435.854 692.054 435.482C691.656 435.111 691.177 434.925 690.617 434.925C689.776 434.925 689.119 435.34 688.645 436.17C688.172 436.996 687.935 438.164 687.935 439.675C687.935 440.683 688.041 441.539 688.253 442.244C688.465 442.948 688.77 443.484 689.168 443.852C689.569 444.219 690.052 444.403 690.617 444.403ZM696.821 445.494V444.471L700.662 440.266C701.113 439.774 701.484 439.346 701.776 438.982C702.067 438.615 702.283 438.27 702.424 437.948C702.567 437.622 702.639 437.282 702.639 436.925C702.639 436.516 702.541 436.162 702.344 435.863C702.151 435.564 701.886 435.333 701.549 435.17C701.211 435.007 700.833 434.925 700.412 434.925C699.965 434.925 699.575 435.018 699.242 435.204C698.912 435.386 698.656 435.641 698.475 435.971C698.297 436.3 698.208 436.687 698.208 437.13H696.867C696.867 436.448 697.024 435.85 697.338 435.335C697.653 434.819 698.081 434.418 698.622 434.13C699.168 433.842 699.78 433.698 700.458 433.698C701.139 433.698 701.744 433.842 702.27 434.13C702.797 434.418 703.21 434.806 703.509 435.295C703.808 435.783 703.958 436.327 703.958 436.925C703.958 437.354 703.88 437.772 703.725 438.181C703.573 438.586 703.308 439.039 702.929 439.539C702.554 440.035 702.033 440.641 701.367 441.357L698.753 444.153V444.244H704.162V445.494H696.821ZM710.372 445.653C709.895 445.645 709.418 445.554 708.941 445.38C708.463 445.206 708.028 444.912 707.634 444.499C707.24 444.083 706.924 443.52 706.685 442.812C706.446 442.1 706.327 441.206 706.327 440.13C706.327 439.1 706.424 438.187 706.617 437.391C706.81 436.592 707.09 435.92 707.458 435.374C707.825 434.825 708.268 434.408 708.787 434.124C709.31 433.84 709.899 433.698 710.554 433.698C711.206 433.698 711.785 433.829 712.293 434.09C712.804 434.348 713.221 434.708 713.543 435.17C713.865 435.632 714.073 436.164 714.168 436.766H712.781C712.653 436.244 712.403 435.81 712.031 435.465C711.66 435.121 711.168 434.948 710.554 434.948C709.653 434.948 708.942 435.34 708.424 436.124C707.908 436.908 707.649 438.009 707.645 439.425H707.736C707.948 439.104 708.2 438.829 708.492 438.602C708.787 438.371 709.113 438.193 709.469 438.068C709.825 437.943 710.202 437.88 710.6 437.88C711.266 437.88 711.876 438.047 712.429 438.38C712.982 438.71 713.425 439.166 713.759 439.749C714.092 440.329 714.259 440.994 714.259 441.744C714.259 442.463 714.098 443.122 713.776 443.721C713.454 444.316 713.001 444.789 712.418 445.141C711.838 445.49 711.156 445.66 710.372 445.653ZM710.372 444.403C710.85 444.403 711.278 444.283 711.656 444.045C712.039 443.806 712.34 443.486 712.56 443.085C712.783 442.683 712.895 442.236 712.895 441.744C712.895 441.263 712.787 440.825 712.571 440.431C712.359 440.033 712.066 439.717 711.691 439.482C711.319 439.247 710.895 439.13 710.418 439.13C710.058 439.13 709.723 439.202 709.412 439.346C709.102 439.486 708.829 439.679 708.594 439.925C708.363 440.172 708.181 440.454 708.049 440.772C707.916 441.086 707.85 441.418 707.85 441.766C707.85 442.229 707.958 442.66 708.174 443.062C708.393 443.463 708.692 443.787 709.071 444.033C709.454 444.28 709.888 444.403 710.372 444.403Z" fill="#393F42"/>
<circle cx="109.364" cy="339.478" r="6.59814" fill="#FF4000" stroke="#F3F0E9" stroke-width="2"/>
<circle cx="218.797" cy="307.069" r="6.59814" fill="#FF4000" stroke="#F3F0E9" stroke-width="2"/>
<circle cx="340.098" cy="270.566" r="6.59814" fill="#FF4000" stroke="#F3F0E9" stroke-width="2"/>
<circle cx="461.398" cy="239.598" r="6.59814" fill="#FF4000" stroke="#F3F0E9" stroke-width="2"/>
<circle cx="582.699" cy="170.27" r="6.59814" fill="#FF4000" stroke="#F3F0E9" stroke-width="2"/>
<circle cx="704" cy="237.816" r="6.59814" fill="#FF4000" stroke="#F3F0E9" stroke-width="2"/>
</g>
<defs>
<clipPath id="clip0_241_284">
<rect width="669" height="350" fill="white" transform="translate(45 104)"/>
</clipPath>
</defs>
</svg>
