<svg width="260" height="120" viewBox="0 0 260 120" fill="none" xmlns="http://www.w3.org/2000/svg">
<path d="M19.6571 0.142648C19.836 0.12417 20.0151 0.108841 20.1947 0.0968717C23.017 -0.0971514 29.3927 0.0594955 32.4023 0.0639051L56.5985 0.0802811L134.094 0.0783939L205.915 0.0765035L228.276 0.0752443C231.928 0.0748243 237.688 -0.0507458 241.198 0.237559C245.423 0.56534 249.424 1.9886 252.659 4.3131C256.775 7.30932 259.36 11.8531 259.504 16.3956C259.675 21.7848 259.59 27.2347 259.59 32.6239L259.593 63.9817V89.414C259.593 95.2335 259.98 101.815 258.792 107.47C258.482 108.954 255.847 112.644 254.502 113.861C250.258 117.702 245.773 119.299 239.742 119.643C234.421 119.835 228.301 119.717 222.933 119.712L194.469 119.703L105.91 119.702L47.7686 119.708L29.5475 119.719C21.6965 119.721 13.6146 120.364 7.21408 115.667C2.69619 112.385 0.377214 107.965 0.168834 102.952C-0.0737805 97.1248 0.0371088 91.2493 0.0428145 85.4057L0.0423148 52.8552L0.034131 28.2802C0.033883 24.637 -0.172019 17.5241 0.430548 14.1675C1.01674 11.0911 2.61458 8.21644 5.04146 5.87283C9.03294 1.9783 13.7463 0.508436 19.6571 0.142648Z" fill="#FF4000"/>
<path d="M194.99 29.9238C195.827 29.8462 196.27 29.7382 197.026 30.0982C197.668 31.2411 197.358 57.4843 197.331 60.8403L216.541 60.7903C219.784 60.7854 225.174 60.6407 228.22 61.0659C228.437 68.9067 225.764 76.5541 220.712 82.5534C214.602 89.7698 206.764 93.2206 197.454 93.9975C190.642 94.4429 181.738 91.477 176.414 87.1696C169.597 81.616 165.268 73.5796 164.381 64.8312C163.552 56.8063 166.252 48.1628 171.352 41.9203C177.64 34.2238 185.262 30.9158 194.99 29.9238Z" fill="white"/>
<path d="M200.035 25.7432C206.025 25.4634 211.961 26.9924 217.07 30.1318C224.308 34.592 229.476 41.2193 231.503 49.5536C231.932 51.3148 233.039 56.5109 232.087 58.2626C231.914 58.582 231.331 58.566 230.874 58.6371L212.089 58.7092C208.24 58.7149 203.432 58.8411 199.664 58.5116C199.241 55.2905 199.231 26.8898 200.035 25.7432Z" fill="white"/>
<path d="M174.085 42.0188C175.227 42.3402 194.412 61.7193 195.325 63.1939C205.511 63.3593 215.803 63.0059 226.028 63.25C225.954 64.0491 225.861 64.8462 225.747 65.6408C224.443 74.3469 220.575 81.1536 213.482 86.4057C193.48 99.7561 167.453 86.7852 166.41 62.6333C166.11 55.6905 169.245 47.0844 174.085 42.0188Z" fill="#FF4000"/>
<path d="M221.125 36.6401C222.314 36.6456 223.434 37.8307 223.623 38.9778C223.478 40.5533 209.114 54.0587 206.889 56.0833C206.429 56.5026 205.836 56.4938 205.23 56.4637C203.955 56.4263 202.681 56.3781 201.403 56.3185C204.43 52.8557 208.85 48.7785 212.118 45.3861C214.06 43.3688 219.228 37.9658 221.125 36.6401Z" fill="#FF4000"/>
<path d="M225.002 41.2512C225.501 41.3509 225.671 41.3866 226.028 41.7875C226.643 42.4785 227.224 43.6361 227.084 44.5878C226.919 45.7181 217.156 55.0374 215.712 56.1409C214.988 56.6941 214.302 56.5553 213.455 56.4335C212.717 56.4665 211.056 56.6786 210.595 56.101C211.346 54.5708 223.033 43.2101 225.002 41.2512Z" fill="#FF4000"/>
<path d="M228.211 46.9441C228.324 46.9766 228.636 47.1863 228.759 47.2616C230.361 51.9784 227.802 53.8342 224.091 56.4441C222.989 56.4687 221.591 56.4145 220.464 56.3995C220.04 56.4271 219.868 56.3596 219.464 56.2602L219.408 55.8389C222.068 52.8927 225.358 49.783 228.211 46.9441Z" fill="#FF4000"/>
<path d="M216.278 32.1458C216.602 32.27 218.918 34.227 219.484 34.6702C214.493 40.1819 208.649 45.8079 203.34 51.0837C202.87 51.6177 202.796 51.7237 202.147 52.0028L201.765 51.7011C201.443 50.5516 201.64 48.5442 201.696 47.2842C204.563 43.9826 208.024 40.7753 211.075 37.6142C212.79 35.8367 214.838 34.1423 216.278 32.1458Z" fill="#FF4000"/>
<path d="M210.485 29.2378C210.967 29.3759 213.873 30.9708 214.488 31.2993C211.705 33.4662 206.833 38.9112 203.956 41.6431C203.397 42.2702 202.715 43.1756 201.854 43.1135C199.361 38.2419 207.583 32.7173 210.485 29.2378Z" fill="#FF4000"/>
<path d="M203.459 28.0612C204.667 28.0037 206.486 28.4727 207.721 28.7331C206.641 30.3625 205.295 31.6358 203.87 32.9487C203.213 33.717 203.008 34.1786 202.147 34.4004L201.721 34.048C201.091 32.5539 201.552 31.0215 201.881 29.479C202.019 28.8313 202.885 28.3849 203.459 28.0612Z" fill="#FF4000"/>
<path d="M192.65 32.3645L194.99 32.2141C195.071 37.9023 194.946 43.6494 194.99 49.3422C195.012 52.413 194.884 55.7535 195.155 58.7873C193.009 57.2384 188.771 52.8035 186.729 50.7447C184.982 49.0442 177.116 41.7625 176.546 40.1295C176.895 36.7344 189.389 32.801 192.65 32.3645Z" fill="#FF4000"/>
<path d="M52.8278 65.808C51.0998 65.808 49.5998 65.496 48.3278 64.872C47.0558 64.224 46.0478 63.36 45.3038 62.28C44.5598 61.176 44.0918 59.94 43.8998 58.572H46.8518C47.1398 59.964 47.8118 61.092 48.8678 61.956C49.9238 62.796 51.2558 63.216 52.8638 63.216C54.0638 63.216 55.0958 62.94 55.9598 62.388C56.8238 61.812 57.4838 61.044 57.9398 60.084C58.4198 59.124 58.6598 58.056 58.6598 56.88C58.6598 55.632 58.4198 54.54 57.9398 53.604C57.4598 52.668 56.7878 51.936 55.9238 51.408C55.0838 50.88 54.0998 50.616 52.9718 50.616C51.5798 50.616 50.3918 50.928 49.4078 51.552C48.4238 52.176 47.7038 52.992 47.2478 54H44.3678L46.5278 40.176H59.7398V42.804H48.8678L47.3918 50.472C47.9918 49.776 48.7958 49.2 49.8038 48.744C50.8118 48.288 51.9758 48.06 53.2958 48.06C54.5438 48.06 55.6718 48.288 56.6798 48.744C57.6878 49.176 58.5518 49.788 59.2718 50.58C60.0158 51.372 60.5798 52.308 60.9638 53.388C61.3718 54.444 61.5758 55.596 61.5758 56.844C61.5758 58.068 61.3838 59.22 60.9998 60.3C60.6158 61.38 60.0398 62.34 59.2718 63.18C58.5278 63.996 57.6158 64.644 56.5358 65.124C55.4558 65.58 54.2198 65.808 52.8278 65.808ZM71.4399 65.808C69.8559 65.808 68.4999 65.496 67.3719 64.872C66.2439 64.248 65.3439 63.408 64.6719 62.352C64.0239 61.296 63.6279 60.144 63.4839 58.896H66.2919C66.5319 60.264 67.1079 61.32 68.0199 62.064C68.9319 62.808 70.0839 63.18 71.4759 63.18C72.7479 63.18 73.8759 62.796 74.8599 62.028C75.8679 61.236 76.6719 60.048 77.2719 58.464C77.8959 56.856 78.2439 54.828 78.3159 52.38C78.3159 52.332 78.3159 52.284 78.3159 52.236C78.3159 52.188 78.3159 52.152 78.3159 52.128C77.9319 52.872 77.3919 53.568 76.6959 54.216C75.9999 54.84 75.1719 55.344 74.2119 55.728C73.2759 56.112 72.2079 56.304 71.0079 56.304C69.5919 56.304 68.2479 55.968 66.9759 55.296C65.7039 54.624 64.6719 53.688 63.8799 52.488C63.0879 51.264 62.6919 49.836 62.6919 48.204C62.6919 46.788 63.0399 45.432 63.7359 44.136C64.4319 42.84 65.4279 41.784 66.7239 40.968C68.0439 40.152 69.6039 39.744 71.4039 39.744C73.2279 39.744 74.7639 40.092 76.0119 40.788C77.2599 41.46 78.2559 42.372 78.9999 43.524C79.7679 44.676 80.3199 45.972 80.6559 47.412C81.0159 48.828 81.1959 50.28 81.1959 51.768C81.1959 54.528 80.8119 56.964 80.0439 59.076C79.2759 61.188 78.1599 62.844 76.6959 64.044C75.2559 65.22 73.5039 65.808 71.4399 65.808ZM71.6199 53.676C72.7479 53.676 73.7559 53.424 74.6439 52.92C75.5319 52.392 76.2399 51.696 76.7679 50.832C77.2959 49.968 77.5599 49.032 77.5599 48.024C77.5599 46.944 77.2959 45.984 76.7679 45.144C76.2399 44.28 75.5319 43.608 74.6439 43.128C73.7559 42.648 72.7479 42.408 71.6199 42.408C70.4919 42.408 69.4839 42.66 68.5959 43.164C67.7079 43.644 67.0119 44.304 66.5079 45.144C66.0039 45.984 65.7519 46.956 65.7519 48.06C65.7519 49.188 66.0039 50.172 66.5079 51.012C67.0119 51.852 67.7079 52.512 68.5959 52.992C69.4839 53.448 70.4919 53.676 71.6199 53.676ZM91.82 65.808C90.092 65.808 88.592 65.496 87.32 64.872C86.048 64.224 85.04 63.36 84.296 62.28C83.552 61.176 83.084 59.94 82.892 58.572H85.844C86.132 59.964 86.804 61.092 87.86 61.956C88.916 62.796 90.248 63.216 91.856 63.216C93.056 63.216 94.088 62.94 94.952 62.388C95.816 61.812 96.476 61.044 96.932 60.084C97.412 59.124 97.652 58.056 97.652 56.88C97.652 55.632 97.412 54.54 96.932 53.604C96.452 52.668 95.78 51.936 94.916 51.408C94.076 50.88 93.092 50.616 91.964 50.616C90.572 50.616 89.384 50.928 88.4 51.552C87.416 52.176 86.696 52.992 86.24 54H83.36L85.52 40.176H98.732V42.804H87.86L86.384 50.472C86.984 49.776 87.788 49.2 88.796 48.744C89.804 48.288 90.968 48.06 92.288 48.06C93.536 48.06 94.664 48.288 95.672 48.744C96.68 49.176 97.544 49.788 98.264 50.58C99.008 51.372 99.572 52.308 99.956 53.388C100.364 54.444 100.568 55.596 100.568 56.844C100.568 58.068 100.376 59.22 99.992 60.3C99.608 61.38 99.032 62.34 98.264 63.18C97.52 63.996 96.608 64.644 95.528 65.124C94.448 65.58 93.212 65.808 91.82 65.808Z" fill="white"/>
<path d="M28.5453 85.896V74.344H29.5693L29.6653 75.768C29.836 75.4906 30.06 75.2293 30.3373 74.984C30.6146 74.728 30.9453 74.5253 31.3293 74.376C31.7133 74.2266 32.156 74.152 32.6573 74.152C33.4466 74.152 34.1346 74.3386 34.7213 74.712C35.308 75.0746 35.7613 75.576 36.0813 76.216C36.4013 76.8453 36.5613 77.5653 36.5613 78.376C36.5613 79.1866 36.396 79.9066 36.0653 80.536C35.7453 81.1653 35.292 81.6613 34.7053 82.024C34.1293 82.3866 33.4413 82.568 32.6413 82.568C31.9693 82.568 31.372 82.424 30.8493 82.136C30.3373 81.848 29.9426 81.4373 29.6653 80.904V85.896H28.5453ZM32.5773 81.592C33.132 81.592 33.6226 81.4586 34.0493 81.192C34.476 80.9253 34.8066 80.552 35.0413 80.072C35.2866 79.5813 35.4093 79.0106 35.4093 78.36C35.4093 77.7093 35.2866 77.144 35.0413 76.664C34.8066 76.1733 34.476 75.7946 34.0493 75.528C33.6226 75.2613 33.132 75.128 32.5773 75.128C32.0226 75.128 31.5266 75.2613 31.0893 75.528C30.6626 75.7946 30.3266 76.1733 30.0813 76.664C29.8466 77.144 29.7293 77.7093 29.7293 78.36C29.7293 79.0106 29.8466 79.5813 30.0813 80.072C30.3266 80.552 30.6626 80.9253 31.0893 81.192C31.5266 81.4586 32.0226 81.592 32.5773 81.592ZM41.0432 82.568C40.3925 82.568 39.8485 82.456 39.4112 82.232C38.9845 81.9973 38.6645 81.6933 38.4512 81.32C38.2378 80.936 38.1312 80.5253 38.1312 80.088C38.1312 79.5226 38.2752 79.0533 38.5632 78.68C38.8512 78.296 39.2512 78.008 39.7632 77.816C40.2858 77.624 40.8832 77.528 41.5552 77.528H43.7312C43.7312 77.0053 43.6512 76.568 43.4912 76.216C43.3312 75.8533 43.0965 75.5813 42.7872 75.4C42.4885 75.208 42.1045 75.112 41.6352 75.112C41.0805 75.112 40.6058 75.2506 40.2112 75.528C39.8165 75.8053 39.5712 76.2106 39.4752 76.744H38.2912C38.3658 76.1786 38.5632 75.704 38.8832 75.32C39.2138 74.936 39.6192 74.648 40.0992 74.456C40.5898 74.2533 41.1018 74.152 41.6352 74.152C42.3712 74.152 42.9738 74.2906 43.4432 74.568C43.9232 74.8453 44.2752 75.2293 44.4992 75.72C44.7338 76.2106 44.8512 76.7813 44.8512 77.432V82.376H43.8432L43.7792 80.904C43.6725 81.128 43.5392 81.3413 43.3792 81.544C43.2192 81.7466 43.0272 81.928 42.8032 82.088C42.5898 82.2373 42.3338 82.3546 42.0352 82.44C41.7472 82.5253 41.4165 82.568 41.0432 82.568ZM41.1712 81.576C41.5765 81.576 41.9338 81.496 42.2432 81.336C42.5632 81.176 42.8298 80.9626 43.0432 80.696C43.2672 80.4293 43.4378 80.1306 43.5552 79.8C43.6725 79.4586 43.7312 79.1066 43.7312 78.744V78.472H41.6352C41.0698 78.472 40.6165 78.5413 40.2752 78.68C39.9338 78.8186 39.6885 79.0053 39.5392 79.24C39.3898 79.4746 39.3152 79.7466 39.3152 80.056C39.3152 80.3546 39.3845 80.6213 39.5232 80.856C39.6618 81.08 39.8698 81.256 40.1472 81.384C40.4352 81.512 40.7765 81.576 41.1712 81.576ZM46.9672 82.376V74.344H47.9912L48.0712 75.896C48.2418 75.5226 48.4658 75.208 48.7432 74.952C49.0312 74.6853 49.3725 74.488 49.7672 74.36C50.1725 74.2213 50.6365 74.152 51.1592 74.152V75.32H50.7432C50.4018 75.32 50.0658 75.368 49.7352 75.464C49.4152 75.5493 49.1325 75.6986 48.8872 75.912C48.6418 76.1253 48.4445 76.4133 48.2952 76.776C48.1565 77.1386 48.0872 77.592 48.0872 78.136V82.376H46.9672ZM55.2932 82.568C54.6425 82.568 54.0985 82.456 53.6612 82.232C53.2345 81.9973 52.9145 81.6933 52.7012 81.32C52.4878 80.936 52.3812 80.5253 52.3812 80.088C52.3812 79.5226 52.5252 79.0533 52.8132 78.68C53.1012 78.296 53.5012 78.008 54.0132 77.816C54.5358 77.624 55.1332 77.528 55.8052 77.528H57.9812C57.9812 77.0053 57.9012 76.568 57.7412 76.216C57.5812 75.8533 57.3465 75.5813 57.0372 75.4C56.7385 75.208 56.3545 75.112 55.8852 75.112C55.3305 75.112 54.8558 75.2506 54.4612 75.528C54.0665 75.8053 53.8212 76.2106 53.7252 76.744H52.5412C52.6158 76.1786 52.8132 75.704 53.1332 75.32C53.4638 74.936 53.8692 74.648 54.3492 74.456C54.8398 74.2533 55.3518 74.152 55.8852 74.152C56.6212 74.152 57.2238 74.2906 57.6932 74.568C58.1732 74.8453 58.5252 75.2293 58.7492 75.72C58.9838 76.2106 59.1012 76.7813 59.1012 77.432V82.376H58.0932L58.0292 80.904C57.9225 81.128 57.7892 81.3413 57.6292 81.544C57.4692 81.7466 57.2772 81.928 57.0532 82.088C56.8398 82.2373 56.5838 82.3546 56.2852 82.44C55.9972 82.5253 55.6665 82.568 55.2932 82.568ZM55.4212 81.576C55.8265 81.576 56.1838 81.496 56.4932 81.336C56.8132 81.176 57.0798 80.9626 57.2932 80.696C57.5172 80.4293 57.6878 80.1306 57.8052 79.8C57.9225 79.4586 57.9812 79.1066 57.9812 78.744V78.472H55.8852C55.3198 78.472 54.8665 78.5413 54.5252 78.68C54.1838 78.8186 53.9385 79.0053 53.7892 79.24C53.6398 79.4746 53.5652 79.7466 53.5652 80.056C53.5652 80.3546 53.6345 80.6213 53.7732 80.856C53.9118 81.08 54.1198 81.256 54.3972 81.384C54.6852 81.512 55.0265 81.576 55.4212 81.576ZM70.5354 82.568C69.4581 82.568 68.5248 82.328 67.7354 81.848C66.9461 81.3573 66.3381 80.68 65.9114 79.816C65.4848 78.9413 65.2714 77.928 65.2714 76.776C65.2714 75.624 65.4848 74.616 65.9114 73.752C66.3381 72.8773 66.9461 72.2 67.7354 71.72C68.5354 71.2293 69.4741 70.984 70.5514 70.984C71.8101 70.984 72.8288 71.2826 73.6074 71.88C74.3861 72.4666 74.8928 73.2986 75.1274 74.376H73.8794C73.7088 73.6506 73.3461 73.0693 72.7914 72.632C72.2368 72.184 71.4848 71.96 70.5354 71.96C69.7141 71.96 68.9941 72.152 68.3754 72.536C67.7568 72.92 67.2768 73.4746 66.9354 74.2C66.5941 74.9146 66.4234 75.7733 66.4234 76.776C66.4234 77.7786 66.5941 78.6426 66.9354 79.368C67.2768 80.0826 67.7568 80.632 68.3754 81.016C68.9941 81.4 69.7194 81.592 70.5514 81.592C71.4901 81.592 72.2368 81.3733 72.7914 80.936C73.3461 80.4986 73.7088 79.9226 73.8794 79.208H75.1274C74.8928 80.264 74.3861 81.0906 73.6074 81.688C72.8288 82.2746 71.8048 82.568 70.5354 82.568ZM77.1417 82.376V71.176H80.6617C81.5257 71.176 82.235 71.32 82.7897 71.608C83.355 71.8853 83.771 72.2693 84.0377 72.76C84.315 73.24 84.4537 73.7893 84.4537 74.408C84.4537 75.016 84.3203 75.5653 84.0537 76.056C83.787 76.536 83.371 76.92 82.8057 77.208C82.251 77.496 81.5363 77.64 80.6617 77.64H78.2617V82.376H77.1417ZM78.2617 76.68H80.6457C81.6057 76.68 82.2883 76.4773 82.6937 76.072C83.099 75.656 83.3017 75.1013 83.3017 74.408C83.3017 73.6826 83.099 73.1226 82.6937 72.728C82.2883 72.3226 81.6057 72.12 80.6457 72.12H78.2617V76.68ZM86.3136 82.376V71.176H93.0016V72.104H87.4336V76.296H92.2336V77.224H87.4336V82.376H86.3136ZM101.699 82.568C101.049 82.568 100.505 82.456 100.067 82.232C99.6408 81.9973 99.3208 81.6933 99.1074 81.32C98.8941 80.936 98.7874 80.5253 98.7874 80.088C98.7874 79.5226 98.9314 79.0533 99.2194 78.68C99.5074 78.296 99.9074 78.008 100.419 77.816C100.942 77.624 101.539 77.528 102.211 77.528H104.387C104.387 77.0053 104.307 76.568 104.147 76.216C103.987 75.8533 103.753 75.5813 103.443 75.4C103.145 75.208 102.761 75.112 102.291 75.112C101.737 75.112 101.262 75.2506 100.867 75.528C100.473 75.8053 100.227 76.2106 100.131 76.744H98.9474C99.0221 76.1786 99.2194 75.704 99.5394 75.32C99.8701 74.936 100.275 74.648 100.755 74.456C101.246 74.2533 101.758 74.152 102.291 74.152C103.027 74.152 103.63 74.2906 104.099 74.568C104.579 74.8453 104.931 75.2293 105.155 75.72C105.39 76.2106 105.507 76.7813 105.507 77.432V82.376H104.499L104.435 80.904C104.329 81.128 104.195 81.3413 104.035 81.544C103.875 81.7466 103.683 81.928 103.459 82.088C103.246 82.2373 102.99 82.3546 102.691 82.44C102.403 82.5253 102.073 82.568 101.699 82.568ZM101.827 81.576C102.233 81.576 102.59 81.496 102.899 81.336C103.219 81.176 103.486 80.9626 103.699 80.696C103.923 80.4293 104.094 80.1306 104.211 79.8C104.329 79.4586 104.387 79.1066 104.387 78.744V78.472H102.291C101.726 78.472 101.273 78.5413 100.931 78.68C100.59 78.8186 100.345 79.0053 100.195 79.24C100.046 79.4746 99.9714 79.7466 99.9714 80.056C99.9714 80.3546 100.041 80.6213 100.179 80.856C100.318 81.08 100.526 81.256 100.803 81.384C101.091 81.512 101.433 81.576 101.827 81.576ZM103.715 73.656L100.515 71.784L100.643 70.792L103.795 72.84L103.715 73.656ZM114.398 82.376L111.326 74.344H112.494L115.038 81.288L117.582 74.344H118.734L115.662 82.376H114.398ZM120.439 82.376V74.344H121.559V82.376H120.439ZM121.015 72.424C120.781 72.424 120.583 72.3493 120.423 72.2C120.274 72.04 120.199 71.8426 120.199 71.608C120.199 71.3626 120.274 71.1706 120.423 71.032C120.583 70.8826 120.775 70.808 120.999 70.808C121.223 70.808 121.415 70.8826 121.575 71.032C121.735 71.1706 121.815 71.3626 121.815 71.608C121.815 71.8426 121.735 72.04 121.575 72.2C121.426 72.3493 121.239 72.424 121.015 72.424ZM126.958 82.568C126.329 82.568 125.769 82.4613 125.278 82.248C124.798 82.0346 124.409 81.7306 124.11 81.336C123.812 80.9306 123.63 80.4506 123.566 79.896H124.718C124.782 80.2053 124.905 80.488 125.086 80.744C125.278 81 125.534 81.2026 125.854 81.352C126.174 81.5013 126.553 81.576 126.99 81.576C127.396 81.576 127.726 81.5173 127.982 81.4C128.249 81.2826 128.446 81.1226 128.574 80.92C128.702 80.7066 128.766 80.472 128.766 80.216C128.766 79.8746 128.686 79.608 128.526 79.416C128.366 79.2133 128.132 79.064 127.822 78.968C127.513 78.872 127.134 78.7813 126.686 78.696C126.345 78.632 126.009 78.552 125.678 78.456C125.348 78.3493 125.049 78.2106 124.782 78.04C124.526 77.8693 124.318 77.656 124.158 77.4C124.009 77.1333 123.934 76.8186 123.934 76.456C123.934 76.008 124.046 75.6133 124.27 75.272C124.505 74.92 124.83 74.648 125.246 74.456C125.673 74.2533 126.174 74.152 126.75 74.152C127.572 74.152 128.244 74.36 128.766 74.776C129.3 75.1813 129.609 75.7786 129.694 76.568H128.558C128.516 76.1306 128.334 75.784 128.014 75.528C127.694 75.272 127.262 75.144 126.718 75.144C126.196 75.144 125.79 75.256 125.502 75.48C125.225 75.6933 125.086 75.9866 125.086 76.36C125.086 76.584 125.161 76.7813 125.31 76.952C125.46 77.1226 125.678 77.272 125.966 77.4C126.265 77.5173 126.628 77.6186 127.054 77.704C127.556 77.8 128.02 77.928 128.446 78.088C128.884 78.2373 129.236 78.4666 129.502 78.776C129.78 79.0853 129.918 79.5333 129.918 80.12C129.929 80.5893 129.812 81.0106 129.566 81.384C129.332 81.7573 128.99 82.0506 128.542 82.264C128.094 82.4666 127.566 82.568 126.958 82.568ZM134.554 82.376C134.095 82.376 133.701 82.3066 133.37 82.168C133.039 82.0186 132.783 81.7786 132.602 81.448C132.431 81.1066 132.346 80.6426 132.346 80.056V75.304H130.954V74.344H132.346L132.506 72.472H133.466V74.344H135.882V75.304H133.466V80.056C133.466 80.5893 133.573 80.952 133.786 81.144C134.01 81.3253 134.389 81.416 134.922 81.416H135.754V82.376H134.554ZM140.184 82.568C139.533 82.568 138.989 82.456 138.552 82.232C138.125 81.9973 137.805 81.6933 137.592 81.32C137.378 80.936 137.272 80.5253 137.272 80.088C137.272 79.5226 137.416 79.0533 137.704 78.68C137.992 78.296 138.392 78.008 138.904 77.816C139.426 77.624 140.024 77.528 140.696 77.528H142.872C142.872 77.0053 142.792 76.568 142.632 76.216C142.472 75.8533 142.237 75.5813 141.928 75.4C141.629 75.208 141.245 75.112 140.776 75.112C140.221 75.112 139.746 75.2506 139.352 75.528C138.957 75.8053 138.712 76.2106 138.616 76.744H137.432C137.506 76.1786 137.704 75.704 138.024 75.32C138.354 74.936 138.76 74.648 139.24 74.456C139.73 74.2533 140.242 74.152 140.776 74.152C141.512 74.152 142.114 74.2906 142.584 74.568C143.064 74.8453 143.416 75.2293 143.64 75.72C143.874 76.2106 143.992 76.7813 143.992 77.432V82.376H142.984L142.92 80.904C142.813 81.128 142.68 81.3413 142.52 81.544C142.36 81.7466 142.168 81.928 141.944 82.088C141.73 82.2373 141.474 82.3546 141.176 82.44C140.888 82.5253 140.557 82.568 140.184 82.568ZM140.312 81.576C140.717 81.576 141.074 81.496 141.384 81.336C141.704 81.176 141.97 80.9626 142.184 80.696C142.408 80.4293 142.578 80.1306 142.696 79.8C142.813 79.4586 142.872 79.1066 142.872 78.744V78.472H140.776C140.21 78.472 139.757 78.5413 139.416 78.68C139.074 78.8186 138.829 79.0053 138.68 79.24C138.53 79.4746 138.456 79.7466 138.456 80.056C138.456 80.3546 138.525 80.6213 138.664 80.856C138.802 81.08 139.01 81.256 139.288 81.384C139.576 81.512 139.917 81.576 140.312 81.576Z" fill="white"/>
<path d="M28.5361 49.376V40.976H31.2481C31.9041 40.976 32.4401 41.088 32.8561 41.312C33.2721 41.528 33.5801 41.82 33.7801 42.188C33.9801 42.556 34.0801 42.972 34.0801 43.436C34.0801 43.884 33.9761 44.296 33.7681 44.672C33.5681 45.048 33.2561 45.348 32.8321 45.572C32.4081 45.796 31.8641 45.908 31.2001 45.908H29.5441V49.376H28.5361ZM32.9761 49.376L31.1281 45.62H32.2561L34.1641 49.376H32.9761ZM29.5441 45.116H31.1761C31.8161 45.116 32.2841 44.96 32.5801 44.648C32.8841 44.336 33.0361 43.936 33.0361 43.448C33.0361 42.952 32.8881 42.56 32.5921 42.272C32.3041 41.976 31.8281 41.828 31.1641 41.828H29.5441V45.116ZM37.8446 50.42V39.884H38.6726V50.42H37.8446ZM38.3606 49.52C37.7446 49.52 37.2086 49.408 36.7526 49.184C36.2966 48.96 35.9446 48.648 35.6966 48.248C35.4486 47.848 35.3246 47.384 35.3246 46.856H36.3806C36.3806 47.184 36.4566 47.488 36.6086 47.768C36.7606 48.04 36.9806 48.26 37.2686 48.428C37.5646 48.588 37.9286 48.668 38.3606 48.668C38.7366 48.668 39.0566 48.608 39.3206 48.488C39.5926 48.36 39.7966 48.188 39.9326 47.972C40.0766 47.756 40.1486 47.512 40.1486 47.24C40.1486 46.92 40.0806 46.66 39.9446 46.46C39.8086 46.252 39.6206 46.084 39.3806 45.956C39.1486 45.828 38.8766 45.716 38.5646 45.62C38.2526 45.516 37.9246 45.404 37.5806 45.284C36.9006 45.06 36.4006 44.78 36.0806 44.444C35.7686 44.108 35.6126 43.672 35.6126 43.136C35.6126 42.68 35.7166 42.28 35.9246 41.936C36.1406 41.592 36.4446 41.324 36.8366 41.132C37.2366 40.932 37.7086 40.832 38.2526 40.832C38.7886 40.832 39.2526 40.932 39.6446 41.132C40.0446 41.332 40.3566 41.608 40.5806 41.96C40.8046 42.304 40.9166 42.704 40.9166 43.16H39.8606C39.8606 42.928 39.8006 42.7 39.6806 42.476C39.5606 42.252 39.3766 42.068 39.1286 41.924C38.8886 41.772 38.5846 41.696 38.2166 41.696C37.9126 41.688 37.6406 41.74 37.4006 41.852C37.1686 41.956 36.9846 42.108 36.8486 42.308C36.7206 42.508 36.6566 42.752 36.6566 43.04C36.6566 43.312 36.7126 43.532 36.8246 43.7C36.9446 43.868 37.1126 44.012 37.3286 44.132C37.5526 44.244 37.8126 44.348 38.1086 44.444C38.4046 44.54 38.7326 44.648 39.0926 44.768C39.5006 44.904 39.8606 45.072 40.1726 45.272C40.4926 45.464 40.7406 45.712 40.9166 46.016C41.1006 46.32 41.1926 46.708 41.1926 47.18C41.1926 47.58 41.0846 47.96 40.8686 48.32C40.6606 48.672 40.3486 48.96 39.9326 49.184C39.5166 49.408 38.9926 49.52 38.3606 49.52Z" fill="white"/>
</svg>
