<svg width="576" height="424" viewBox="0 0 576 424" fill="none" xmlns="http://www.w3.org/2000/svg">
<rect width="576" height="424" rx="15" fill="#E5E5EC"/>
<rect x="50.4487" y="61.6924" width="227.204" height="300.615" rx="15" fill="white"/>
<path d="M103.79 98.1175C102.75 98.1175 101.85 97.8925 101.09 97.4425C100.34 96.9825 99.7598 96.3475 99.3498 95.5375C98.9498 94.7175 98.7498 93.7725 98.7498 92.7025C98.7498 91.6225 98.9498 90.6775 99.3498 89.8675C99.7598 89.0475 100.34 88.4075 101.09 87.9475C101.85 87.4875 102.75 87.2575 103.79 87.2575C105.04 87.2575 106.06 87.5675 106.85 88.1875C107.64 88.7975 108.14 89.6625 108.35 90.7825H106.37C106.23 90.1925 105.945 89.7275 105.515 89.3875C105.085 89.0475 104.505 88.8775 103.775 88.8775C103.115 88.8775 102.545 89.0325 102.065 89.3425C101.595 89.6425 101.23 90.0825 100.97 90.6625C100.72 91.2325 100.595 91.9125 100.595 92.7025C100.595 93.4925 100.72 94.1725 100.97 94.7425C101.23 95.3025 101.595 95.7375 102.065 96.0475C102.545 96.3475 103.115 96.4975 103.775 96.4975C104.505 96.4975 105.085 96.3425 105.515 96.0325C105.945 95.7125 106.23 95.2725 106.37 94.7125H108.35C108.15 95.7725 107.65 96.6075 106.85 97.2175C106.06 97.8175 105.04 98.1175 103.79 98.1175ZM114.896 98.1175C113.886 98.1175 112.991 97.8925 112.211 97.4425C111.441 96.9825 110.836 96.3475 110.396 95.5375C109.956 94.7175 109.736 93.7675 109.736 92.6875C109.736 91.6175 109.956 90.6775 110.396 89.8675C110.836 89.0475 111.441 88.4075 112.211 87.9475C112.991 87.4875 113.886 87.2575 114.896 87.2575C115.926 87.2575 116.831 87.4875 117.611 87.9475C118.391 88.4075 118.996 89.0475 119.426 89.8675C119.856 90.6775 120.071 91.6175 120.071 92.6875C120.071 93.7675 119.856 94.7175 119.426 95.5375C118.996 96.3475 118.391 96.9825 117.611 97.4425C116.831 97.8925 115.926 98.1175 114.896 98.1175ZM114.911 96.4975C115.581 96.4975 116.166 96.3475 116.666 96.0475C117.166 95.7375 117.551 95.2975 117.821 94.7275C118.091 94.1575 118.226 93.4775 118.226 92.6875C118.226 91.8975 118.091 91.2175 117.821 90.6475C117.551 90.0775 117.166 89.6425 116.666 89.3425C116.166 89.0325 115.581 88.8775 114.911 88.8775C114.241 88.8775 113.656 89.0325 113.156 89.3425C112.656 89.6425 112.266 90.0775 111.986 90.6475C111.716 91.2175 111.581 91.8975 111.581 92.6875C111.581 93.4775 111.716 94.1575 111.986 94.7275C112.266 95.2975 112.656 95.7375 113.156 96.0475C113.656 96.3475 114.241 96.4975 114.911 96.4975ZM121.83 97.9375V87.4375H123.63L128.685 95.0275V87.4375H130.485V97.9375H128.685L123.63 90.3625V97.9375H121.83ZM136.121 98.1175C135.361 98.1175 134.686 97.9825 134.096 97.7125C133.506 97.4425 133.046 97.0575 132.716 96.5575C132.386 96.0575 132.216 95.4625 132.206 94.7725H134.111C134.111 95.1225 134.191 95.4375 134.351 95.7175C134.521 95.9875 134.751 96.2025 135.041 96.3625C135.341 96.5225 135.701 96.6025 136.121 96.6025C136.481 96.6025 136.791 96.5475 137.051 96.4375C137.321 96.3175 137.526 96.1525 137.666 95.9425C137.816 95.7225 137.891 95.4675 137.891 95.1775C137.891 94.8475 137.811 94.5775 137.651 94.3675C137.501 94.1475 137.291 93.9625 137.021 93.8125C136.751 93.6625 136.441 93.5325 136.091 93.4225C135.741 93.3025 135.371 93.1775 134.981 93.0475C134.151 92.7675 133.526 92.4125 133.106 91.9825C132.686 91.5425 132.476 90.9575 132.476 90.2275C132.476 89.6175 132.621 89.0925 132.911 88.6525C133.201 88.2125 133.606 87.8725 134.126 87.6325C134.656 87.3825 135.266 87.2575 135.956 87.2575C136.656 87.2575 137.266 87.3825 137.786 87.6325C138.316 87.8825 138.731 88.2325 139.031 88.6825C139.341 89.1225 139.501 89.6525 139.511 90.2725H137.591C137.581 90.0125 137.511 89.7725 137.381 89.5525C137.251 89.3225 137.061 89.1375 136.811 88.9975C136.571 88.8475 136.276 88.7725 135.926 88.7725C135.626 88.7625 135.356 88.8125 135.116 88.9225C134.886 89.0225 134.701 89.1725 134.561 89.3725C134.431 89.5625 134.366 89.8025 134.366 90.0925C134.366 90.3725 134.426 90.6075 134.546 90.7975C134.676 90.9775 134.861 91.1325 135.101 91.2625C135.341 91.3825 135.621 91.4975 135.941 91.6075C136.261 91.7175 136.611 91.8375 136.991 91.9675C137.511 92.1375 137.981 92.3475 138.401 92.5975C138.831 92.8375 139.171 93.1525 139.421 93.5425C139.671 93.9325 139.796 94.4375 139.796 95.0575C139.796 95.5975 139.656 96.1025 139.376 96.5725C139.096 97.0325 138.686 97.4075 138.146 97.6975C137.606 97.9775 136.931 98.1175 136.121 98.1175ZM145.522 98.1175C144.762 98.1175 144.072 97.9675 143.452 97.6675C142.842 97.3675 142.352 96.9075 141.982 96.2875C141.622 95.6675 141.442 94.8875 141.442 93.9475V87.4375H143.242V93.9625C143.242 94.5325 143.337 95.0025 143.527 95.3725C143.717 95.7425 143.982 96.0225 144.322 96.2125C144.672 96.3925 145.082 96.4825 145.552 96.4825C146.032 96.4825 146.442 96.3925 146.782 96.2125C147.132 96.0225 147.397 95.7425 147.577 95.3725C147.767 95.0025 147.862 94.5325 147.862 93.9625V87.4375H149.662V93.9475C149.662 94.8875 149.477 95.6675 149.107 96.2875C148.737 96.9075 148.237 97.3675 147.607 97.6675C146.977 97.9675 146.282 98.1175 145.522 98.1175ZM151.683 97.9375V87.4375H153.483V96.5275H158.163V97.9375H151.683ZM160.632 97.9375V88.8925H157.542V87.4375H165.507V88.8925H162.417V97.9375H160.632ZM165.173 97.9375L169.013 87.4375H171.023L174.863 97.9375H172.958L170.003 89.5375L167.048 97.9375H165.173ZM166.883 95.4625L167.363 94.0375H172.538L173.018 95.4625H166.883ZM179.969 97.9375V87.4375H183.359C184.579 87.4375 185.584 87.6525 186.374 88.0825C187.174 88.5125 187.764 89.1225 188.144 89.9125C188.534 90.6925 188.729 91.6225 188.729 92.7025C188.729 93.7625 188.534 94.6875 188.144 95.4775C187.764 96.2575 187.174 96.8625 186.374 97.2925C185.584 97.7225 184.579 97.9375 183.359 97.9375H179.969ZM181.769 96.4075H183.269C184.179 96.4075 184.894 96.2625 185.414 95.9725C185.944 95.6725 186.319 95.2475 186.539 94.6975C186.769 94.1375 186.884 93.4725 186.884 92.7025C186.884 91.9225 186.769 91.2575 186.539 90.7075C186.319 90.1475 185.944 89.7175 185.414 89.4175C184.894 89.1075 184.179 88.9525 183.269 88.9525H181.769V96.4075ZM190.487 97.9375V87.4375H197.267V88.8925H192.287V91.9075H196.817V93.3325H192.287V96.4825H197.267V97.9375H190.487ZM207.486 98.1175C206.446 98.1175 205.546 97.8925 204.786 97.4425C204.036 96.9825 203.456 96.3475 203.046 95.5375C202.646 94.7175 202.446 93.7725 202.446 92.7025C202.446 91.6225 202.646 90.6775 203.046 89.8675C203.456 89.0475 204.036 88.4075 204.786 87.9475C205.546 87.4875 206.446 87.2575 207.486 87.2575C208.736 87.2575 209.756 87.5675 210.546 88.1875C211.336 88.7975 211.836 89.6625 212.046 90.7825H210.066C209.926 90.1925 209.641 89.7275 209.211 89.3875C208.781 89.0475 208.201 88.8775 207.471 88.8775C206.811 88.8775 206.241 89.0325 205.761 89.3425C205.291 89.6425 204.926 90.0825 204.666 90.6625C204.416 91.2325 204.291 91.9125 204.291 92.7025C204.291 93.4925 204.416 94.1725 204.666 94.7425C204.926 95.3025 205.291 95.7375 205.761 96.0475C206.241 96.3475 206.811 96.4975 207.471 96.4975C208.201 96.4975 208.781 96.3425 209.211 96.0325C209.641 95.7125 209.926 95.2725 210.066 94.7125H212.046C211.846 95.7725 211.346 96.6075 210.546 97.2175C209.756 97.8175 208.736 98.1175 207.486 98.1175ZM213.807 97.9375V87.4375H217.587C218.427 87.4375 219.122 87.5825 219.672 87.8725C220.222 88.1525 220.632 88.5325 220.902 89.0125C221.172 89.4925 221.307 90.0425 221.307 90.6625C221.307 91.2425 221.177 91.7775 220.917 92.2675C220.657 92.7475 220.252 93.1375 219.702 93.4375C219.152 93.7275 218.447 93.8725 217.587 93.8725H215.607V97.9375H213.807ZM215.607 92.4025H217.482C218.192 92.4025 218.702 92.2475 219.012 91.9375C219.322 91.6175 219.477 91.1925 219.477 90.6625C219.477 90.1125 219.322 89.6825 219.012 89.3725C218.702 89.0625 218.192 88.9075 217.482 88.9075H215.607V92.4025ZM222.86 97.9375V87.4375H229.565V88.8925H224.66V91.9675H228.665V93.3925H224.66V97.9375H222.86Z" fill="#101C2E"/>
<path d="M101.182 127.363V118.963H102.622L106.666 125.035V118.963H108.106V127.363H106.666L102.622 121.303V127.363H101.182ZM109.796 127.363V118.963H115.22V120.127H111.236V122.539H114.86V123.679H111.236V126.199H115.22V127.363H109.796ZM116.733 127.363V118.963H118.173L122.217 125.035V118.963H123.657V127.363H122.217L118.173 121.303V127.363H116.733ZM130.65 127.363V118.963H132.09V127.363H130.65ZM125.346 127.363V118.963H126.786V127.363H125.346ZM126.57 123.667V122.491H130.926V123.667H126.57ZM136.976 127.507C136.368 127.507 135.816 127.387 135.32 127.147C134.832 126.907 134.44 126.539 134.144 126.043C133.856 125.547 133.712 124.923 133.712 124.171V118.963H135.152V124.183C135.152 124.639 135.228 125.015 135.38 125.311C135.532 125.607 135.744 125.831 136.016 125.983C136.296 126.127 136.624 126.199 137 126.199C137.384 126.199 137.712 126.127 137.984 125.983C138.264 125.831 138.476 125.607 138.62 125.311C138.772 125.015 138.848 124.639 138.848 124.183V118.963H140.288V124.171C140.288 124.923 140.14 125.547 139.844 126.043C139.548 126.539 139.148 126.907 138.644 127.147C138.14 127.387 137.584 127.507 136.976 127.507ZM141.905 127.363V118.963H143.609L146.297 124.387L148.961 118.963H150.677V127.363H149.237V121.435L146.861 126.187H145.733L143.345 121.447V127.363H141.905ZM151.829 127.363L154.901 118.963H156.509L159.581 127.363H158.057L155.693 120.643L153.329 127.363H151.829ZM153.197 125.383L153.581 124.243H157.721L158.105 125.383H153.197ZM163.667 127.363V118.963H166.679C167.343 118.963 167.891 119.079 168.323 119.311C168.763 119.535 169.087 119.839 169.295 120.223C169.511 120.599 169.619 121.027 169.619 121.507C169.619 121.955 169.515 122.371 169.307 122.755C169.099 123.139 168.775 123.447 168.335 123.679C167.895 123.911 167.331 124.027 166.643 124.027H165.107V127.363H163.667ZM168.047 127.363L166.283 123.655H167.843L169.691 127.363H168.047ZM165.107 122.959H166.583C167.119 122.959 167.511 122.831 167.759 122.575C168.015 122.311 168.143 121.967 168.143 121.543C168.143 121.127 168.019 120.795 167.771 120.547C167.523 120.291 167.127 120.163 166.583 120.163H165.107V122.959ZM171.108 127.363V118.963H176.532V120.127H172.548V122.539H176.172V123.679H172.548V126.199H176.532V127.363H171.108ZM180.866 127.507C180.258 127.507 179.718 127.399 179.246 127.183C178.774 126.967 178.406 126.659 178.142 126.259C177.878 125.859 177.742 125.383 177.734 124.831H179.258C179.258 125.111 179.322 125.363 179.45 125.587C179.586 125.803 179.77 125.975 180.002 126.103C180.242 126.231 180.53 126.295 180.866 126.295C181.154 126.295 181.402 126.251 181.61 126.163C181.826 126.067 181.99 125.935 182.102 125.767C182.222 125.591 182.282 125.387 182.282 125.155C182.282 124.891 182.218 124.675 182.09 124.507C181.97 124.331 181.802 124.183 181.586 124.063C181.37 123.943 181.122 123.839 180.842 123.751C180.562 123.655 180.266 123.555 179.954 123.451C179.29 123.227 178.79 122.943 178.454 122.599C178.118 122.247 177.95 121.779 177.95 121.195C177.95 120.707 178.066 120.287 178.298 119.935C178.53 119.583 178.854 119.311 179.27 119.119C179.694 118.919 180.182 118.819 180.734 118.819C181.294 118.819 181.782 118.919 182.198 119.119C182.622 119.319 182.954 119.599 183.194 119.959C183.442 120.311 183.57 120.735 183.578 121.231H182.042C182.034 121.023 181.978 120.831 181.874 120.655C181.77 120.471 181.618 120.323 181.418 120.211C181.226 120.091 180.99 120.031 180.71 120.031C180.47 120.023 180.254 120.063 180.062 120.151C179.878 120.231 179.73 120.351 179.618 120.511C179.514 120.663 179.462 120.855 179.462 121.087C179.462 121.311 179.51 121.499 179.606 121.651C179.71 121.795 179.858 121.919 180.05 122.023C180.242 122.119 180.466 122.211 180.722 122.299C180.978 122.387 181.258 122.483 181.562 122.587C181.978 122.723 182.354 122.891 182.69 123.091C183.034 123.283 183.306 123.535 183.506 123.847C183.706 124.159 183.806 124.563 183.806 125.059C183.806 125.491 183.694 125.895 183.47 126.271C183.246 126.639 182.918 126.939 182.486 127.171C182.054 127.395 181.514 127.507 180.866 127.507ZM187.045 127.363V120.127H184.573V118.963H190.945V120.127H188.473V127.363H187.045ZM192.131 127.363V118.963H195.143C195.807 118.963 196.355 119.079 196.787 119.311C197.227 119.535 197.551 119.839 197.759 120.223C197.975 120.599 198.083 121.027 198.083 121.507C198.083 121.955 197.979 122.371 197.771 122.755C197.563 123.139 197.239 123.447 196.799 123.679C196.359 123.911 195.795 124.027 195.107 124.027H193.571V127.363H192.131ZM196.511 127.363L194.747 123.655H196.307L198.155 127.363H196.511ZM193.571 122.959H195.047C195.583 122.959 195.975 122.831 196.223 122.575C196.479 122.311 196.607 121.967 196.607 121.543C196.607 121.127 196.483 120.795 196.235 120.547C195.987 120.291 195.591 120.163 195.047 120.163H193.571V122.959ZM199.573 127.363V118.963H201.013V127.363H199.573ZM206.434 127.507C205.602 127.507 204.882 127.327 204.274 126.967C203.674 126.599 203.21 126.091 202.882 125.443C202.562 124.787 202.402 124.031 202.402 123.175C202.402 122.311 202.562 121.555 202.882 120.907C203.21 120.251 203.674 119.739 204.274 119.371C204.882 119.003 205.602 118.819 206.434 118.819C207.434 118.819 208.25 119.067 208.882 119.563C209.514 120.051 209.914 120.743 210.082 121.639H208.498C208.386 121.167 208.158 120.795 207.814 120.523C207.47 120.251 207.006 120.115 206.422 120.115C205.894 120.115 205.438 120.239 205.054 120.487C204.678 120.727 204.386 121.079 204.178 121.543C203.978 121.999 203.878 122.543 203.878 123.175C203.878 123.807 203.978 124.351 204.178 124.807C204.386 125.255 204.678 125.603 205.054 125.851C205.438 126.091 205.894 126.211 206.422 126.211C207.006 126.211 207.47 126.087 207.814 125.839C208.158 125.583 208.386 125.231 208.498 124.783H210.082C209.922 125.631 209.522 126.299 208.882 126.787C208.25 127.267 207.434 127.507 206.434 127.507ZM205.258 130.531V129.691H206.554C206.786 129.691 206.958 129.655 207.07 129.583C207.182 129.511 207.238 129.391 207.238 129.223C207.238 129.079 207.182 128.971 207.07 128.899C206.958 128.827 206.786 128.791 206.554 128.791H205.858V127.303H206.758V128.011C207.038 128.011 207.294 128.051 207.526 128.131C207.766 128.219 207.958 128.355 208.102 128.539C208.246 128.731 208.318 128.971 208.318 129.259C208.318 129.539 208.246 129.771 208.102 129.955C207.966 130.147 207.778 130.291 207.538 130.387C207.306 130.483 207.05 130.531 206.77 130.531H205.258ZM210.822 127.363L213.894 118.963H215.502L218.574 127.363H217.05L214.686 120.643L212.322 127.363H210.822ZM212.19 125.383L212.574 124.243H216.714L217.098 125.383H212.19ZM215.466 118.339C215.242 118.339 215.05 118.295 214.89 118.207C214.738 118.111 214.594 118.019 214.458 117.931C214.322 117.835 214.174 117.787 214.014 117.787C213.878 117.787 213.762 117.831 213.666 117.919C213.578 118.007 213.522 118.143 213.498 118.327H212.718C212.79 117.831 212.946 117.467 213.186 117.235C213.426 116.995 213.722 116.875 214.074 116.875C214.298 116.875 214.486 116.923 214.638 117.019C214.798 117.107 214.946 117.199 215.082 117.295C215.218 117.383 215.366 117.427 215.526 117.427C215.662 117.427 215.774 117.383 215.862 117.295C215.958 117.207 216.018 117.071 216.042 116.887H216.834C216.762 117.383 216.602 117.751 216.354 117.991C216.114 118.223 215.818 118.339 215.466 118.339ZM223.077 127.507C222.269 127.507 221.553 127.327 220.929 126.967C220.313 126.599 219.829 126.091 219.477 125.443C219.125 124.787 218.949 124.027 218.949 123.163C218.949 122.307 219.125 121.555 219.477 120.907C219.829 120.251 220.313 119.739 220.929 119.371C221.553 119.003 222.269 118.819 223.077 118.819C223.901 118.819 224.625 119.003 225.249 119.371C225.873 119.739 226.357 120.251 226.701 120.907C227.045 121.555 227.217 122.307 227.217 123.163C227.217 124.027 227.045 124.787 226.701 125.443C226.357 126.091 225.873 126.599 225.249 126.967C224.625 127.327 223.901 127.507 223.077 127.507ZM223.089 126.211C223.625 126.211 224.093 126.091 224.493 125.851C224.893 125.603 225.201 125.251 225.417 124.795C225.633 124.339 225.741 123.795 225.741 123.163C225.741 122.531 225.633 121.987 225.417 121.531C225.201 121.075 224.893 120.727 224.493 120.487C224.093 120.239 223.625 120.115 223.089 120.115C222.553 120.115 222.085 120.239 221.685 120.487C221.285 120.727 220.973 121.075 220.749 121.531C220.533 121.987 220.425 122.531 220.425 123.163C220.425 123.795 220.533 124.339 220.749 124.795C220.973 125.251 221.285 125.603 221.685 125.851C222.085 126.091 222.553 126.211 223.089 126.211ZM145.525 141.363L142.441 132.963H143.989L146.401 139.887L148.849 132.963H150.373L147.277 141.363H145.525ZM151.432 141.363V132.963H152.872V141.363H151.432ZM157.381 141.507C156.773 141.507 156.233 141.399 155.761 141.183C155.289 140.967 154.921 140.659 154.657 140.259C154.393 139.859 154.257 139.383 154.249 138.831H155.773C155.773 139.111 155.837 139.363 155.965 139.587C156.101 139.803 156.285 139.975 156.517 140.103C156.757 140.231 157.045 140.295 157.381 140.295C157.669 140.295 157.917 140.251 158.125 140.163C158.341 140.067 158.505 139.935 158.617 139.767C158.737 139.591 158.797 139.387 158.797 139.155C158.797 138.891 158.733 138.675 158.605 138.507C158.485 138.331 158.317 138.183 158.101 138.063C157.885 137.943 157.637 137.839 157.357 137.751C157.077 137.655 156.781 137.555 156.469 137.451C155.805 137.227 155.305 136.943 154.969 136.599C154.633 136.247 154.465 135.779 154.465 135.195C154.465 134.707 154.581 134.287 154.813 133.935C155.045 133.583 155.369 133.311 155.785 133.119C156.209 132.919 156.697 132.819 157.249 132.819C157.809 132.819 158.297 132.919 158.713 133.119C159.137 133.319 159.469 133.599 159.709 133.959C159.957 134.311 160.085 134.735 160.093 135.231H158.557C158.549 135.023 158.493 134.831 158.389 134.655C158.285 134.471 158.133 134.323 157.933 134.211C157.741 134.091 157.505 134.031 157.225 134.031C156.985 134.023 156.769 134.063 156.577 134.151C156.393 134.231 156.245 134.351 156.133 134.511C156.029 134.663 155.977 134.855 155.977 135.087C155.977 135.311 156.025 135.499 156.121 135.651C156.225 135.795 156.373 135.919 156.565 136.023C156.757 136.119 156.981 136.211 157.237 136.299C157.493 136.387 157.773 136.483 158.077 136.587C158.493 136.723 158.869 136.891 159.205 137.091C159.549 137.283 159.821 137.535 160.021 137.847C160.221 138.159 160.321 138.563 160.321 139.059C160.321 139.491 160.209 139.895 159.985 140.271C159.761 140.639 159.433 140.939 159.001 141.171C158.569 141.395 158.029 141.507 157.381 141.507ZM161.721 141.363V132.963H163.161V141.363H161.721ZM161.193 132.447L161.061 131.475L163.629 129.963L163.797 131.091L161.193 132.447ZM167.286 141.363L164.202 132.963H165.75L168.162 139.887L170.61 132.963H172.134L169.038 141.363H167.286ZM173.194 141.363V132.963H178.618V134.127H174.634V136.539H178.258V137.679H174.634V140.199H178.618V141.363H173.194ZM180.131 141.363V132.963H181.571V140.235H185.315V141.363H180.131Z" fill="#4B9857"/>
<rect x="80.6118" y="173.037" width="61.7031" height="4.94238" fill="#E5E5F1"/>
<rect x="80.6118" y="200.74" width="61.7031" height="4.94238" fill="#E5E5F1"/>
<rect x="80.6118" y="258.493" width="18.5031" height="4.94238" fill="#E5E5F1"/>
<rect x="157.26" y="258.493" width="18.5031" height="4.94238" fill="#E5E5F1"/>
<rect x="195.428" y="258.493" width="18.5031" height="4.94238" fill="#E5E5F1"/>
<rect x="233.598" y="258.493" width="18.5031" height="4.94238" fill="#E5E5F1"/>
<rect x="80.6118" y="285.024" width="18.5031" height="4.94238" fill="#E5E5F1"/>
<rect x="80.6118" y="300.089" width="18.5031" height="4.94238" fill="#E5E5F1"/>
<rect x="80.6118" y="313.94" width="18.5031" height="4.94238" fill="#E5E5F1"/>
<rect x="80.6118" y="327.792" width="18.5031" height="4.94238" fill="#E5E5F1"/>
<rect x="157.26" y="300.089" width="18.5031" height="4.94238" fill="#E5E5F1"/>
<rect x="157.26" y="285.024" width="18.5031" height="4.94238" fill="#E5E5F1"/>
<rect x="157.26" y="313.94" width="18.5031" height="4.94238" fill="#E5E5F1"/>
<rect x="195.428" y="300.089" width="18.5031" height="4.94238" fill="#E5E5F1"/>
<rect x="157.26" y="327.792" width="18.5031" height="4.94238" fill="#E5E5F1"/>
<rect x="195.428" y="313.94" width="18.5031" height="4.94238" fill="#E5E5F1"/>
<rect x="233.598" y="300.089" width="18.5031" height="4.94238" fill="#E5E5F1"/>
<rect x="233.598" y="313.94" width="18.5031" height="4.94238" fill="#E5E5F1"/>
<rect x="195.428" y="285.024" width="18.5031" height="4.94238" fill="#E5E5F1"/>
<rect x="195.428" y="327.792" width="18.5031" height="4.94238" fill="#E5E5F1"/>
<rect x="233.598" y="285.024" width="18.5031" height="4.94238" fill="#E5E5F1"/>
<rect x="233.598" y="327.792" width="18.5031" height="4.94238" fill="#E5E5F1"/>
<rect x="68.106" y="237.849" width="193.89" height="1.34473" fill="#101C2E" fill-opacity="0.25"/>
<rect x="80.6118" y="273.557" width="171.489" height="1.34473" fill="#101C2E" fill-opacity="0.25"/>
<rect x="80.6118" y="186.889" width="92.301" height="4.94238" fill="#E5E5F1"/>
<rect x="296" y="61.6924" width="227.204" height="300.615" rx="15" fill="white"/>
<path d="M352.49 98.1175C351.73 98.1175 351.055 97.9825 350.465 97.7125C349.875 97.4425 349.415 97.0575 349.085 96.5575C348.755 96.0575 348.585 95.4625 348.575 94.7725H350.48C350.48 95.1225 350.56 95.4375 350.72 95.7175C350.89 95.9875 351.12 96.2025 351.41 96.3625C351.71 96.5225 352.07 96.6025 352.49 96.6025C352.85 96.6025 353.16 96.5475 353.42 96.4375C353.69 96.3175 353.895 96.1525 354.035 95.9425C354.185 95.7225 354.26 95.4675 354.26 95.1775C354.26 94.8475 354.18 94.5775 354.02 94.3675C353.87 94.1475 353.66 93.9625 353.39 93.8125C353.12 93.6625 352.81 93.5325 352.46 93.4225C352.11 93.3025 351.74 93.1775 351.35 93.0475C350.52 92.7675 349.895 92.4125 349.475 91.9825C349.055 91.5425 348.845 90.9575 348.845 90.2275C348.845 89.6175 348.99 89.0925 349.28 88.6525C349.57 88.2125 349.975 87.8725 350.495 87.6325C351.025 87.3825 351.635 87.2575 352.325 87.2575C353.025 87.2575 353.635 87.3825 354.155 87.6325C354.685 87.8825 355.1 88.2325 355.4 88.6825C355.71 89.1225 355.87 89.6525 355.88 90.2725H353.96C353.95 90.0125 353.88 89.7725 353.75 89.5525C353.62 89.3225 353.43 89.1375 353.18 88.9975C352.94 88.8475 352.645 88.7725 352.295 88.7725C351.995 88.7625 351.725 88.8125 351.485 88.9225C351.255 89.0225 351.07 89.1725 350.93 89.3725C350.8 89.5625 350.735 89.8025 350.735 90.0925C350.735 90.3725 350.795 90.6075 350.915 90.7975C351.045 90.9775 351.23 91.1325 351.47 91.2625C351.71 91.3825 351.99 91.4975 352.31 91.6075C352.63 91.7175 352.98 91.8375 353.36 91.9675C353.88 92.1375 354.35 92.3475 354.77 92.5975C355.2 92.8375 355.54 93.1525 355.79 93.5425C356.04 93.9325 356.165 94.4375 356.165 95.0575C356.165 95.5975 356.025 96.1025 355.745 96.5725C355.465 97.0325 355.055 97.4075 354.515 97.6975C353.975 97.9775 353.3 98.1175 352.49 98.1175ZM362.58 98.1175C361.54 98.1175 360.64 97.8925 359.88 97.4425C359.13 96.9825 358.55 96.3475 358.14 95.5375C357.74 94.7175 357.54 93.7725 357.54 92.7025C357.54 91.6225 357.74 90.6775 358.14 89.8675C358.55 89.0475 359.13 88.4075 359.88 87.9475C360.64 87.4875 361.54 87.2575 362.58 87.2575C363.83 87.2575 364.85 87.5675 365.64 88.1875C366.43 88.7975 366.93 89.6625 367.14 90.7825H365.16C365.02 90.1925 364.735 89.7275 364.305 89.3875C363.875 89.0475 363.295 88.8775 362.565 88.8775C361.905 88.8775 361.335 89.0325 360.855 89.3425C360.385 89.6425 360.02 90.0825 359.76 90.6625C359.51 91.2325 359.385 91.9125 359.385 92.7025C359.385 93.4925 359.51 94.1725 359.76 94.7425C360.02 95.3025 360.385 95.7375 360.855 96.0475C361.335 96.3475 361.905 96.4975 362.565 96.4975C363.295 96.4975 363.875 96.3425 364.305 96.0325C364.735 95.7125 365.02 95.2725 365.16 94.7125H367.14C366.94 95.7725 366.44 96.6075 365.64 97.2175C364.85 97.8175 363.83 98.1175 362.58 98.1175ZM373.687 98.1175C372.677 98.1175 371.782 97.8925 371.002 97.4425C370.232 96.9825 369.627 96.3475 369.187 95.5375C368.747 94.7175 368.527 93.7675 368.527 92.6875C368.527 91.6175 368.747 90.6775 369.187 89.8675C369.627 89.0475 370.232 88.4075 371.002 87.9475C371.782 87.4875 372.677 87.2575 373.687 87.2575C374.717 87.2575 375.622 87.4875 376.402 87.9475C377.182 88.4075 377.787 89.0475 378.217 89.8675C378.647 90.6775 378.862 91.6175 378.862 92.6875C378.862 93.7675 378.647 94.7175 378.217 95.5375C377.787 96.3475 377.182 96.9825 376.402 97.4425C375.622 97.8925 374.717 98.1175 373.687 98.1175ZM373.702 96.4975C374.372 96.4975 374.957 96.3475 375.457 96.0475C375.957 95.7375 376.342 95.2975 376.612 94.7275C376.882 94.1575 377.017 93.4775 377.017 92.6875C377.017 91.8975 376.882 91.2175 376.612 90.6475C376.342 90.0775 375.957 89.6425 375.457 89.3425C374.957 89.0325 374.372 88.8775 373.702 88.8775C373.032 88.8775 372.447 89.0325 371.947 89.3425C371.447 89.6425 371.057 90.0775 370.777 90.6475C370.507 91.2175 370.372 91.8975 370.372 92.6875C370.372 93.4775 370.507 94.1575 370.777 94.7275C371.057 95.2975 371.447 95.7375 371.947 96.0475C372.447 96.3475 373.032 96.4975 373.702 96.4975ZM380.62 97.9375V87.4375H384.385C385.215 87.4375 385.9 87.5825 386.44 87.8725C386.99 88.1525 387.395 88.5325 387.655 89.0125C387.925 89.4825 388.06 90.0175 388.06 90.6175C388.06 91.1775 387.93 91.6975 387.67 92.1775C387.41 92.6575 387.005 93.0425 386.455 93.3325C385.905 93.6225 385.2 93.7675 384.34 93.7675H382.42V97.9375H380.62ZM386.095 97.9375L383.89 93.3025H385.84L388.15 97.9375H386.095ZM382.42 92.4325H384.265C384.935 92.4325 385.425 92.2725 385.735 91.9525C386.055 91.6225 386.215 91.1925 386.215 90.6625C386.215 90.1425 386.06 89.7275 385.75 89.4175C385.44 89.0975 384.945 88.9375 384.265 88.9375H382.42V92.4325ZM389.922 97.9375V87.4375H396.702V88.8925H391.722V91.9075H396.252V93.3325H391.722V96.4825H396.702V97.9375H389.922ZM405.781 98.1175C405.021 98.1175 404.346 97.9825 403.756 97.7125C403.166 97.4425 402.706 97.0575 402.376 96.5575C402.046 96.0575 401.876 95.4625 401.866 94.7725H403.771C403.771 95.1225 403.851 95.4375 404.011 95.7175C404.181 95.9875 404.411 96.2025 404.701 96.3625C405.001 96.5225 405.361 96.6025 405.781 96.6025C406.141 96.6025 406.451 96.5475 406.711 96.4375C406.981 96.3175 407.186 96.1525 407.326 95.9425C407.476 95.7225 407.551 95.4675 407.551 95.1775C407.551 94.8475 407.471 94.5775 407.311 94.3675C407.161 94.1475 406.951 93.9625 406.681 93.8125C406.411 93.6625 406.101 93.5325 405.751 93.4225C405.401 93.3025 405.031 93.1775 404.641 93.0475C403.811 92.7675 403.186 92.4125 402.766 91.9825C402.346 91.5425 402.136 90.9575 402.136 90.2275C402.136 89.6175 402.281 89.0925 402.571 88.6525C402.861 88.2125 403.266 87.8725 403.786 87.6325C404.316 87.3825 404.926 87.2575 405.616 87.2575C406.316 87.2575 406.926 87.3825 407.446 87.6325C407.976 87.8825 408.391 88.2325 408.691 88.6825C409.001 89.1225 409.161 89.6525 409.171 90.2725H407.251C407.241 90.0125 407.171 89.7725 407.041 89.5525C406.911 89.3225 406.721 89.1375 406.471 88.9975C406.231 88.8475 405.936 88.7725 405.586 88.7725C405.286 88.7625 405.016 88.8125 404.776 88.9225C404.546 89.0225 404.361 89.1725 404.221 89.3725C404.091 89.5625 404.026 89.8025 404.026 90.0925C404.026 90.3725 404.086 90.6075 404.206 90.7975C404.336 90.9775 404.521 91.1325 404.761 91.2625C405.001 91.3825 405.281 91.4975 405.601 91.6075C405.921 91.7175 406.271 91.8375 406.651 91.9675C407.171 92.1375 407.641 92.3475 408.061 92.5975C408.491 92.8375 408.831 93.1525 409.081 93.5425C409.331 93.9325 409.456 94.4375 409.456 95.0575C409.456 95.5975 409.316 96.1025 409.036 96.5725C408.756 97.0325 408.346 97.4075 407.806 97.6975C407.266 97.9775 406.591 98.1175 405.781 98.1175ZM415.181 98.1175C414.421 98.1175 413.731 97.9675 413.111 97.6675C412.501 97.3675 412.011 96.9075 411.641 96.2875C411.281 95.6675 411.101 94.8875 411.101 93.9475V87.4375H412.901V93.9625C412.901 94.5325 412.996 95.0025 413.186 95.3725C413.376 95.7425 413.641 96.0225 413.981 96.2125C414.331 96.3925 414.741 96.4825 415.211 96.4825C415.691 96.4825 416.101 96.3925 416.441 96.2125C416.791 96.0225 417.056 95.7425 417.236 95.3725C417.426 95.0025 417.521 94.5325 417.521 93.9625V87.4375H419.321V93.9475C419.321 94.8875 419.136 95.6675 418.766 96.2875C418.396 96.9075 417.896 97.3675 417.266 97.6675C416.636 97.9675 415.941 98.1175 415.181 98.1175ZM421.343 97.9375V87.4375H425.453C426.193 87.4375 426.808 87.5525 427.298 87.7825C427.798 88.0125 428.173 88.3325 428.423 88.7425C428.673 89.1425 428.798 89.6075 428.798 90.1375C428.798 90.6675 428.683 91.1125 428.453 91.4725C428.223 91.8325 427.918 92.1075 427.538 92.2975C427.168 92.4875 426.763 92.6025 426.323 92.6425L426.548 92.4775C427.018 92.4875 427.438 92.6125 427.808 92.8525C428.188 93.0925 428.488 93.4075 428.708 93.7975C428.928 94.1775 429.038 94.6025 429.038 95.0725C429.038 95.6225 428.903 96.1175 428.633 96.5575C428.373 96.9875 427.988 97.3275 427.478 97.5775C426.968 97.8175 426.343 97.9375 425.603 97.9375H421.343ZM423.143 96.4675H425.333C425.923 96.4675 426.383 96.3275 426.713 96.0475C427.043 95.7675 427.208 95.3775 427.208 94.8775C427.208 94.3775 427.038 93.9825 426.698 93.6925C426.358 93.3925 425.893 93.2425 425.303 93.2425H423.143V96.4675ZM423.143 91.8775H425.198C425.778 91.8775 426.218 91.7475 426.518 91.4875C426.818 91.2175 426.968 90.8475 426.968 90.3775C426.968 89.9175 426.818 89.5575 426.518 89.2975C426.218 89.0275 425.773 88.8925 425.183 88.8925H423.143V91.8775ZM430.762 97.9375V87.4375H432.562V97.9375H430.762ZM434.673 97.9375V87.4375H436.473L441.528 95.0275V87.4375H443.328V97.9375H441.528L436.473 90.3625V97.9375H434.673ZM445.44 97.9375V87.4375H448.83C450.05 87.4375 451.055 87.6525 451.845 88.0825C452.645 88.5125 453.235 89.1225 453.615 89.9125C454.005 90.6925 454.2 91.6225 454.2 92.7025C454.2 93.7625 454.005 94.6875 453.615 95.4775C453.235 96.2575 452.645 96.8625 451.845 97.2925C451.055 97.7225 450.05 97.9375 448.83 97.9375H445.44ZM447.24 96.4075H448.74C449.65 96.4075 450.365 96.2625 450.885 95.9725C451.415 95.6725 451.79 95.2475 452.01 94.6975C452.24 94.1375 452.355 93.4725 452.355 92.7025C452.355 91.9225 452.24 91.2575 452.01 90.7075C451.79 90.1475 451.415 89.7175 450.885 89.4175C450.365 89.1075 449.65 88.9525 448.74 88.9525H447.24V96.4075ZM460.742 98.1175C459.732 98.1175 458.837 97.8925 458.057 97.4425C457.287 96.9825 456.682 96.3475 456.242 95.5375C455.802 94.7175 455.582 93.7675 455.582 92.6875C455.582 91.6175 455.802 90.6775 456.242 89.8675C456.682 89.0475 457.287 88.4075 458.057 87.9475C458.837 87.4875 459.732 87.2575 460.742 87.2575C461.772 87.2575 462.677 87.4875 463.457 87.9475C464.237 88.4075 464.842 89.0475 465.272 89.8675C465.702 90.6775 465.917 91.6175 465.917 92.6875C465.917 93.7675 465.702 94.7175 465.272 95.5375C464.842 96.3475 464.237 96.9825 463.457 97.4425C462.677 97.8925 461.772 98.1175 460.742 98.1175ZM460.757 96.4975C461.427 96.4975 462.012 96.3475 462.512 96.0475C463.012 95.7375 463.397 95.2975 463.667 94.7275C463.937 94.1575 464.072 93.4775 464.072 92.6875C464.072 91.8975 463.937 91.2175 463.667 90.6475C463.397 90.0775 463.012 89.6425 462.512 89.3425C462.012 89.0325 461.427 88.8775 460.757 88.8775C460.087 88.8775 459.502 89.0325 459.002 89.3425C458.502 89.6425 458.112 90.0775 457.832 90.6475C457.562 91.2175 457.427 91.8975 457.427 92.6875C457.427 93.4775 457.562 94.1575 457.832 94.7275C458.112 95.2975 458.502 95.7375 459.002 96.0475C459.502 96.3475 460.087 96.4975 460.757 96.4975Z" fill="#101C2E"/>
<rect x="322.816" y="123.363" width="61.7031" height="4.94238" fill="#E5E5F1"/>
<rect x="322.816" y="151.066" width="30.9917" height="4.94238" fill="#E5E5F1"/>
<rect x="417.967" y="123.363" width="46.7046" height="4.94238" fill="#E5E5F1"/>
<rect x="322.816" y="270.5" width="18.5031" height="4.94238" fill="#E5E5F1"/>
<rect x="399.464" y="270.5" width="18.5031" height="4.94238" fill="#E5E5F1"/>
<rect x="437.633" y="270.5" width="56.6721" height="4.94238" fill="#E5E5F1"/>
<rect x="322.816" y="309.671" width="33.7466" height="4.94238" fill="#E5E5F1"/>
<rect x="322.816" y="324.735" width="48.4135" height="4.94238" fill="#E5E5F1"/>
<rect x="402.03" y="309.671" width="50.1603" height="4.94238" fill="#E5E5F1"/>
<rect x="463.34" y="324.735" width="30.9651" height="4.94238" fill="#E5E5F1"/>
<rect x="463.34" y="309.671" width="30.9651" height="4.94238" fill="#E5E5F1"/>
<rect x="322.816" y="137.214" width="37.4813" height="4.94238" fill="#E5E5F1"/>
<rect x="322.816" y="284.352" width="171.489" height="1.34473" fill="#101C2E" fill-opacity="0.25"/>
<rect x="417.967" y="137.214" width="37.4813" height="4.94238" fill="#E5E5F1"/>
<path d="M459.16 225.169C460.58 225.169 461.739 224.017 461.669 222.597C461.233 213.767 458.557 205.177 453.873 197.644C449.19 190.112 442.671 183.911 434.945 179.612C433.703 178.922 432.157 179.451 431.528 180.725C430.899 181.999 431.427 183.536 432.665 184.233C439.532 188.102 445.328 193.644 449.504 200.361C453.68 207.078 456.085 214.728 456.516 222.598C456.594 224.016 457.739 225.169 459.16 225.169Z" fill="#17B654"/>
<path d="M430.924 180.432C431.535 179.149 430.993 177.607 429.682 177.06C423.874 174.636 417.668 173.28 411.364 173.067C405.06 172.854 398.777 173.786 392.818 175.812C391.473 176.27 390.828 177.771 391.351 179.092C391.874 180.413 393.368 181.053 394.715 180.603C400.014 178.833 405.593 178.02 411.19 178.209C416.787 178.399 422.298 179.587 427.465 181.711C428.779 182.252 430.312 181.714 430.924 180.432Z" fill="#B5E746"/>
<path d="M390.592 179.4C390.048 178.088 388.539 177.46 387.255 178.069C379.018 181.976 371.949 187.977 366.755 195.469C365.946 196.637 366.32 198.228 367.526 198.979C368.733 199.73 370.314 199.356 371.129 198.193C375.748 191.606 381.982 186.314 389.231 182.827C390.512 182.211 391.137 180.712 390.592 179.4Z" fill="#FED111"/>
<path d="M367.165 199.569C365.949 198.835 364.361 199.223 363.688 200.474C360.031 207.274 357.929 214.801 357.536 222.511C357.464 223.93 358.62 225.085 360.041 225.087C361.462 225.09 362.608 223.939 362.688 222.52C363.071 215.744 364.917 209.13 368.1 203.136C368.766 201.881 368.382 200.303 367.165 199.569Z" fill="#FF4840"/>
<path d="M405.072 207.845C404.693 207.845 404.364 207.779 404.086 207.648C403.813 207.511 403.598 207.327 403.442 207.094C403.285 206.857 403.192 206.589 403.161 206.291H404.048C404.094 206.513 404.207 206.7 404.389 206.852C404.571 206.998 404.799 207.072 405.072 207.072C405.279 207.072 405.456 207.024 405.602 206.928C405.749 206.826 405.863 206.693 405.943 206.526C406.029 206.354 406.072 206.162 406.072 205.95C406.072 205.732 406.029 205.543 405.943 205.381C405.863 205.219 405.749 205.096 405.602 205.01C405.456 204.919 405.286 204.873 405.094 204.873C404.857 204.873 404.652 204.929 404.48 205.04C404.314 205.146 404.192 205.28 404.116 205.442H403.237L403.677 202.447H406.603V203.243H404.359L404.116 204.555C404.233 204.428 404.387 204.327 404.579 204.251C404.771 204.171 404.991 204.13 405.238 204.13C405.516 204.13 405.762 204.178 405.974 204.274C406.186 204.37 406.365 204.502 406.512 204.668C406.659 204.835 406.767 205.03 406.838 205.252C406.914 205.47 406.952 205.699 406.952 205.942C406.952 206.215 406.906 206.468 406.815 206.7C406.724 206.928 406.595 207.127 406.429 207.299C406.267 207.471 406.07 207.605 405.837 207.701C405.61 207.797 405.355 207.845 405.072 207.845ZM410.311 207.754V206.746H407.681V206.018L410.183 202.447H411.214V205.95H411.934V206.746H411.214V207.754H410.311ZM408.659 205.95H410.364V203.448L408.659 205.95ZM414.592 207.845C414.213 207.845 413.885 207.779 413.607 207.648C413.334 207.511 413.119 207.327 412.962 207.094C412.806 206.857 412.712 206.589 412.682 206.291H413.569C413.614 206.513 413.728 206.7 413.91 206.852C414.092 206.998 414.319 207.072 414.592 207.072C414.8 207.072 414.976 207.024 415.123 206.928C415.27 206.826 415.383 206.693 415.464 206.526C415.55 206.354 415.593 206.162 415.593 205.95C415.593 205.732 415.55 205.543 415.464 205.381C415.383 205.219 415.27 205.096 415.123 205.01C414.976 204.919 414.807 204.873 414.615 204.873C414.378 204.873 414.173 204.929 414.001 205.04C413.834 205.146 413.713 205.28 413.637 205.442H412.758L413.197 202.447H416.124V203.243H413.88L413.637 204.555C413.753 204.428 413.908 204.327 414.1 204.251C414.292 204.171 414.511 204.13 414.759 204.13C415.037 204.13 415.282 204.178 415.494 204.274C415.707 204.37 415.886 204.502 416.033 204.668C416.179 204.835 416.288 205.03 416.359 205.252C416.434 205.47 416.472 205.699 416.472 205.942C416.472 206.215 416.427 206.468 416.336 206.7C416.245 206.928 416.116 207.127 415.949 207.299C415.788 207.471 415.59 207.605 415.358 207.701C415.131 207.797 414.875 207.845 414.592 207.845Z" fill="#101C2E"/>
<path d="M402.126 214.249L403.516 209.412H404.061L402.671 214.249H402.126ZM405.069 213.688V210.424L404.39 210.596V210.18L405.274 209.796H405.636V213.688H405.069ZM407.966 213.754C407.621 213.754 407.325 213.671 407.076 213.504C406.828 213.334 406.637 213.098 406.504 212.798C406.37 212.494 406.304 212.142 406.304 211.742C406.304 211.341 406.37 210.991 406.504 210.691C406.637 210.387 406.828 210.152 407.076 209.985C407.325 209.814 407.621 209.729 407.966 209.729C408.31 209.729 408.605 209.814 408.85 209.985C409.098 210.152 409.287 210.387 409.417 210.691C409.55 210.991 409.617 211.341 409.617 211.742C409.617 212.142 409.55 212.494 409.417 212.798C409.287 213.098 409.098 213.334 408.85 213.504C408.605 213.671 408.31 213.754 407.966 213.754ZM407.966 213.259C408.173 213.259 408.359 213.198 408.522 213.076C408.689 212.954 408.818 212.779 408.911 212.553C409.004 212.327 409.05 212.057 409.05 211.742C409.05 211.427 409.004 211.156 408.911 210.93C408.818 210.704 408.689 210.532 408.522 210.413C408.359 210.291 408.173 210.23 407.966 210.23C407.755 210.23 407.566 210.291 407.399 210.413C407.232 210.532 407.102 210.704 407.01 210.93C406.917 211.156 406.871 211.427 406.871 211.742C406.871 212.057 406.917 212.327 407.01 212.553C407.102 212.779 407.232 212.954 407.399 213.076C407.566 213.198 407.755 213.259 407.966 213.259ZM411.804 213.754C411.459 213.754 411.163 213.671 410.915 213.504C410.666 213.334 410.475 213.098 410.342 212.798C410.209 212.494 410.142 212.142 410.142 211.742C410.142 211.341 410.209 210.991 410.342 210.691C410.475 210.387 410.666 210.152 410.915 209.985C411.163 209.814 411.459 209.729 411.804 209.729C412.149 209.729 412.443 209.814 412.688 209.985C412.936 210.152 413.125 210.387 413.255 210.691C413.389 210.991 413.455 211.341 413.455 211.742C413.455 212.142 413.389 212.494 413.255 212.798C413.125 213.098 412.936 213.334 412.688 213.504C412.443 213.671 412.149 213.754 411.804 213.754ZM411.804 213.259C412.012 213.259 412.197 213.198 412.36 213.076C412.527 212.954 412.657 212.779 412.749 212.553C412.842 212.327 412.888 212.057 412.888 211.742C412.888 211.427 412.842 211.156 412.749 210.93C412.657 210.704 412.527 210.532 412.36 210.413C412.197 210.291 412.012 210.23 411.804 210.23C411.593 210.23 411.404 210.291 411.237 210.413C411.07 210.532 410.941 210.704 410.848 210.93C410.755 211.156 410.709 211.427 410.709 211.742C410.709 212.057 410.755 212.327 410.848 212.553C410.941 212.779 411.07 212.954 411.237 213.076C411.404 213.198 411.593 213.259 411.804 213.259ZM415.643 213.754C415.298 213.754 415.001 213.671 414.753 213.504C414.505 213.334 414.314 213.098 414.18 212.798C414.047 212.494 413.98 212.142 413.98 211.742C413.98 211.341 414.047 210.991 414.18 210.691C414.314 210.387 414.505 210.152 414.753 209.985C415.001 209.814 415.298 209.729 415.643 209.729C415.987 209.729 416.282 209.814 416.526 209.985C416.775 210.152 416.964 210.387 417.094 210.691C417.227 210.991 417.294 211.341 417.294 211.742C417.294 212.142 417.227 212.494 417.094 212.798C416.964 213.098 416.775 213.334 416.526 213.504C416.282 213.671 415.987 213.754 415.643 213.754ZM415.643 213.259C415.85 213.259 416.035 213.198 416.198 213.076C416.365 212.954 416.495 212.779 416.588 212.553C416.68 212.327 416.727 212.057 416.727 211.742C416.727 211.427 416.68 211.156 416.588 210.93C416.495 210.704 416.365 210.532 416.198 210.413C416.035 210.291 415.85 210.23 415.643 210.23C415.431 210.23 415.242 210.291 415.075 210.413C414.909 210.532 414.779 210.704 414.686 210.93C414.594 211.156 414.547 211.427 414.547 211.742C414.547 212.057 414.594 212.327 414.686 212.553C414.779 212.779 414.909 212.954 415.075 213.076C415.242 213.198 415.431 213.259 415.643 213.259Z" fill="#101C2E"/>
<circle cx="415.621" cy="175.508" r="5.84858" fill="#B5E746"/>
<circle cx="415.62" cy="175.508" r="3.02915" fill="white"/>
</svg>
