<svg width="264" height="124" viewBox="0 0 264 124" fill="none" xmlns="http://www.w3.org/2000/svg">
<path d="M0 8C0 3.58172 3.58172 0 8 0H255.2C259.618 0 263.2 3.58172 263.2 8V124H0V8Z" fill="white"/>
<path d="M8.876 32.3721V23.9721H14.096V24.9561H10.076V27.6801H13.436V28.6401H10.076V32.3721H8.876ZM14.9865 32.3721V26.3241H16.1865V32.3721H14.9865ZM15.5985 25.1841C15.3665 25.1841 15.1745 25.1121 15.0225 24.9681C14.8785 24.8241 14.8065 24.6401 14.8065 24.4161C14.8065 24.2001 14.8785 24.0241 15.0225 23.8881C15.1745 23.7441 15.3665 23.6721 15.5985 23.6721C15.8225 23.6721 16.0105 23.7441 16.1625 23.8881C16.3145 24.0241 16.3905 24.2001 16.3905 24.4161C16.3905 24.6401 16.3145 24.8241 16.1625 24.9681C16.0105 25.1121 15.8225 25.1841 15.5985 25.1841ZM17.4851 32.3721V26.3241H18.5651L18.6371 27.3561C18.8291 26.9961 19.1011 26.7121 19.4531 26.5041C19.8051 26.2881 20.2091 26.1801 20.6651 26.1801C21.1451 26.1801 21.5571 26.2761 21.9011 26.4681C22.2451 26.6601 22.5131 26.9521 22.7051 27.3441C22.8971 27.7281 22.9931 28.2121 22.9931 28.7961V32.3721H21.7931V28.9161C21.7931 28.3561 21.6691 27.9321 21.4211 27.6441C21.1731 27.3561 20.8131 27.2121 20.3411 27.2121C20.0291 27.2121 19.7491 27.2881 19.5011 27.4401C19.2531 27.5841 19.0531 27.8001 18.9011 28.0881C18.7571 28.3761 18.6851 28.7281 18.6851 29.1441V32.3721H17.4851ZM26.1147 32.5161C25.6187 32.5161 25.2067 32.4321 24.8787 32.2641C24.5507 32.0961 24.3067 31.8721 24.1467 31.5921C23.9867 31.3041 23.9067 30.9961 23.9067 30.6681C23.9067 30.2681 24.0107 29.9281 24.2187 29.6481C24.4267 29.3601 24.7227 29.1401 25.1067 28.9881C25.4907 28.8361 25.9507 28.7601 26.4867 28.7601H28.0587C28.0587 28.4081 28.0067 28.1161 27.9027 27.8841C27.7987 27.6521 27.6427 27.4801 27.4347 27.3681C27.2347 27.2481 26.9787 27.1881 26.6667 27.1881C26.3067 27.1881 25.9987 27.2761 25.7427 27.4521C25.4867 27.6201 25.3267 27.8721 25.2627 28.2081H24.0627C24.1107 27.7841 24.2547 27.4241 24.4947 27.1281C24.7427 26.8241 25.0587 26.5921 25.4427 26.4321C25.8267 26.2641 26.2347 26.1801 26.6667 26.1801C27.2347 26.1801 27.7107 26.2801 28.0947 26.4801C28.4787 26.6801 28.7667 26.9641 28.9587 27.3321C29.1587 27.6921 29.2587 28.1241 29.2587 28.6281V32.3721H28.2147L28.1187 31.3521C28.0307 31.5121 27.9267 31.6641 27.8067 31.8081C27.6867 31.9521 27.5427 32.0761 27.3747 32.1801C27.2147 32.2841 27.0267 32.3641 26.8107 32.4201C26.6027 32.4841 26.3707 32.5161 26.1147 32.5161ZM26.3427 31.5441C26.5987 31.5441 26.8307 31.4921 27.0387 31.3881C27.2467 31.2841 27.4227 31.1441 27.5667 30.9681C27.7187 30.7841 27.8307 30.5801 27.9027 30.3561C27.9827 30.1241 28.0267 29.8881 28.0347 29.6481V29.6121H26.6067C26.2627 29.6121 25.9827 29.6561 25.7667 29.7441C25.5587 29.8241 25.4067 29.9361 25.3107 30.0801C25.2147 30.2241 25.1667 30.3921 25.1667 30.5841C25.1667 30.7841 25.2107 30.9561 25.2987 31.1001C25.3947 31.2361 25.5307 31.3441 25.7067 31.4241C25.8827 31.5041 26.0947 31.5441 26.3427 31.5441ZM30.373 32.3721V26.3241H31.453L31.525 27.3561C31.717 26.9961 31.989 26.7121 32.341 26.5041C32.693 26.2881 33.097 26.1801 33.553 26.1801C34.033 26.1801 34.445 26.2761 34.789 26.4681C35.133 26.6601 35.401 26.9521 35.593 27.3441C35.785 27.7281 35.881 28.2121 35.881 28.7961V32.3721H34.681V28.9161C34.681 28.3561 34.557 27.9321 34.309 27.6441C34.061 27.3561 33.701 27.2121 33.229 27.2121C32.917 27.2121 32.637 27.2881 32.389 27.4401C32.141 27.5841 31.941 27.8001 31.789 28.0881C31.645 28.3761 31.573 28.7281 31.573 29.1441V32.3721H30.373ZM39.7945 32.5161C39.2105 32.5161 38.6905 32.3841 38.2345 32.1201C37.7785 31.8481 37.4185 31.4761 37.1545 31.0041C36.8985 30.5321 36.7705 29.9841 36.7705 29.3601C36.7705 28.7281 36.8985 28.1761 37.1545 27.7041C37.4185 27.2241 37.7785 26.8521 38.2345 26.5881C38.6905 26.3161 39.2105 26.1801 39.7945 26.1801C40.5305 26.1801 41.1465 26.3721 41.6425 26.7561C42.1385 27.1401 42.4545 27.6601 42.5905 28.3161H41.3425C41.2625 27.9641 41.0785 27.6921 40.7905 27.5001C40.5105 27.3081 40.1745 27.2121 39.7825 27.2121C39.4625 27.2121 39.1665 27.2961 38.8945 27.4641C38.6225 27.6241 38.4025 27.8641 38.2345 28.1841C38.0745 28.4961 37.9945 28.8841 37.9945 29.3481C37.9945 29.6921 38.0425 30.0001 38.1385 30.2721C38.2345 30.5361 38.3625 30.7601 38.5225 30.9441C38.6905 31.1281 38.8825 31.2681 39.0985 31.3641C39.3145 31.4521 39.5425 31.4961 39.7825 31.4961C40.0465 31.4961 40.2825 31.4561 40.4905 31.3761C40.7065 31.2881 40.8865 31.1601 41.0305 30.9921C41.1825 30.8241 41.2865 30.6241 41.3425 30.3921H42.5905C42.4545 31.0321 42.1385 31.5481 41.6425 31.9401C41.1465 32.3241 40.5305 32.5161 39.7945 32.5161ZM43.6612 32.3721V26.3241H44.8612V32.3721H43.6612ZM44.2732 25.1841C44.0412 25.1841 43.8492 25.1121 43.6972 24.9681C43.5532 24.8241 43.4812 24.6401 43.4812 24.4161C43.4812 24.2001 43.5532 24.0241 43.6972 23.8881C43.8492 23.7441 44.0412 23.6721 44.2732 23.6721C44.4972 23.6721 44.6852 23.7441 44.8372 23.8881C44.9892 24.0241 45.0652 24.2001 45.0652 24.4161C45.0652 24.6401 44.9892 24.8241 44.8372 24.9681C44.6852 25.1121 44.4972 25.1841 44.2732 25.1841ZM48.1638 32.5161C47.6678 32.5161 47.2558 32.4321 46.9278 32.2641C46.5998 32.0961 46.3558 31.8721 46.1958 31.5921C46.0358 31.3041 45.9558 30.9961 45.9558 30.6681C45.9558 30.2681 46.0598 29.9281 46.2678 29.6481C46.4758 29.3601 46.7718 29.1401 47.1558 28.9881C47.5398 28.8361 47.9998 28.7601 48.5358 28.7601H50.1078C50.1078 28.4081 50.0558 28.1161 49.9518 27.8841C49.8478 27.6521 49.6918 27.4801 49.4838 27.3681C49.2838 27.2481 49.0278 27.1881 48.7158 27.1881C48.3558 27.1881 48.0478 27.2761 47.7918 27.4521C47.5358 27.6201 47.3758 27.8721 47.3118 28.2081H46.1118C46.1598 27.7841 46.3038 27.4241 46.5438 27.1281C46.7918 26.8241 47.1078 26.5921 47.4918 26.4321C47.8758 26.2641 48.2838 26.1801 48.7158 26.1801C49.2838 26.1801 49.7598 26.2801 50.1438 26.4801C50.5278 26.6801 50.8158 26.9641 51.0078 27.3321C51.2078 27.6921 51.3078 28.1241 51.3078 28.6281V32.3721H50.2638L50.1678 31.3521C50.0798 31.5121 49.9758 31.6641 49.8558 31.8081C49.7358 31.9521 49.5918 32.0761 49.4238 32.1801C49.2638 32.2841 49.0758 32.3641 48.8598 32.4201C48.6518 32.4841 48.4198 32.5161 48.1638 32.5161ZM48.3918 31.5441C48.6478 31.5441 48.8798 31.4921 49.0878 31.3881C49.2958 31.2841 49.4718 31.1441 49.6158 30.9681C49.7678 30.7841 49.8798 30.5801 49.9518 30.3561C50.0318 30.1241 50.0758 29.8881 50.0838 29.6481V29.6121H48.6558C48.3118 29.6121 48.0318 29.6561 47.8158 29.7441C47.6078 29.8241 47.4558 29.9361 47.3598 30.0801C47.2638 30.2241 47.2158 30.3921 47.2158 30.5841C47.2158 30.7841 47.2598 30.9561 47.3478 31.1001C47.4438 31.2361 47.5798 31.3441 47.7558 31.4241C47.9318 31.5041 48.1438 31.5441 48.3918 31.5441ZM52.4221 32.3721V26.3241H53.5021L53.5861 27.1761C53.7781 26.8641 54.0341 26.6201 54.3541 26.4441C54.6741 26.2681 55.0341 26.1801 55.4341 26.1801C55.7381 26.1801 56.0141 26.2241 56.2621 26.3121C56.5101 26.3921 56.7301 26.5161 56.9221 26.6841C57.1141 26.8521 57.2701 27.0601 57.3901 27.3081C57.6061 26.9561 57.8941 26.6801 58.2541 26.4801C58.6221 26.2801 59.0101 26.1801 59.4181 26.1801C59.9061 26.1801 60.3261 26.2801 60.6781 26.4801C61.0301 26.6721 61.2981 26.9641 61.4821 27.3561C61.6661 27.7401 61.7581 28.2201 61.7581 28.7961V32.3721H60.5701V28.9161C60.5701 28.3561 60.4541 27.9321 60.2221 27.6441C59.9981 27.3561 59.6661 27.2121 59.2261 27.2121C58.9301 27.2121 58.6661 27.2881 58.4341 27.4401C58.2021 27.5921 58.0181 27.8121 57.8821 28.1001C57.7541 28.3881 57.6901 28.7401 57.6901 29.1561V32.3721H56.4901V28.9161C56.4901 28.3561 56.3741 27.9321 56.1421 27.6441C55.9181 27.3561 55.5861 27.2121 55.1461 27.2121C54.8661 27.2121 54.6101 27.2881 54.3781 27.4401C54.1461 27.5921 53.9621 27.8121 53.8261 28.1001C53.6901 28.3881 53.6221 28.7401 53.6221 29.1561V32.3721H52.4221ZM65.6274 32.5161C65.0514 32.5161 64.5394 32.3841 64.0914 32.1201C63.6434 31.8561 63.2914 31.4881 63.0354 31.0161C62.7874 30.5441 62.6634 29.9961 62.6634 29.3721C62.6634 28.7321 62.7874 28.1761 63.0354 27.7041C63.2914 27.2241 63.6434 26.8521 64.0914 26.5881C64.5394 26.3161 65.0594 26.1801 65.6514 26.1801C66.2434 26.1801 66.7514 26.3121 67.1754 26.5761C67.5994 26.8401 67.9274 27.1921 68.1594 27.6321C68.3914 28.0641 68.5074 28.5441 68.5074 29.0721C68.5074 29.1521 68.5034 29.2401 68.4954 29.3361C68.4954 29.4241 68.4914 29.5241 68.4834 29.6361H63.5394V28.7841H67.3074C67.2834 28.2801 67.1154 27.8881 66.8034 27.6081C66.4914 27.3201 66.1034 27.1761 65.6394 27.1761C65.3114 27.1761 65.0114 27.2521 64.7394 27.4041C64.4674 27.5481 64.2474 27.7641 64.0794 28.0521C63.9194 28.3321 63.8394 28.6881 63.8394 29.1201V29.4561C63.8394 29.9041 63.9194 30.2841 64.0794 30.5961C64.2474 30.9001 64.4674 31.1321 64.7394 31.2921C65.0114 31.4441 65.3074 31.5201 65.6274 31.5201C66.0114 31.5201 66.3274 31.4361 66.5754 31.2681C66.8234 31.1001 67.0074 30.8721 67.1274 30.5841H68.3274C68.2234 30.9521 68.0474 31.2841 67.7994 31.5801C67.5514 31.8681 67.2434 32.0961 66.8754 32.2641C66.5154 32.4321 66.0994 32.5161 65.6274 32.5161ZM69.4232 32.3721V26.3241H70.5032L70.5752 27.3561C70.7672 26.9961 71.0392 26.7121 71.3912 26.5041C71.7432 26.2881 72.1472 26.1801 72.6032 26.1801C73.0832 26.1801 73.4952 26.2761 73.8392 26.4681C74.1832 26.6601 74.4512 26.9521 74.6432 27.3441C74.8352 27.7281 74.9312 28.2121 74.9312 28.7961V32.3721H73.7312V28.9161C73.7312 28.3561 73.6072 27.9321 73.3592 27.6441C73.1112 27.3561 72.7512 27.2121 72.2792 27.2121C71.9672 27.2121 71.6872 27.2881 71.4392 27.4401C71.1912 27.5841 70.9912 27.8001 70.8392 28.0881C70.6952 28.3761 70.6232 28.7281 70.6232 29.1441V32.3721H69.4232ZM78.5448 32.3721C78.1608 32.3721 77.8288 32.3121 77.5488 32.1921C77.2688 32.0721 77.0528 31.8721 76.9008 31.5921C76.7488 31.3121 76.6728 30.9321 76.6728 30.4521V27.3441H75.6288V26.3241H76.6728L76.8168 24.8121H77.8728V26.3241H79.5888V27.3441H77.8728V30.4641C77.8728 30.8081 77.9448 31.0441 78.0888 31.1721C78.2328 31.2921 78.4808 31.3521 78.8328 31.3521H79.5288V32.3721H78.5448ZM83.0906 32.5161C82.5226 32.5161 82.0106 32.3841 81.5546 32.1201C81.1066 31.8561 80.7506 31.4881 80.4866 31.0161C80.2306 30.5361 80.1026 29.9841 80.1026 29.3601C80.1026 28.7201 80.2346 28.1641 80.4986 27.6921C80.7626 27.2121 81.1226 26.8401 81.5786 26.5761C82.0346 26.3121 82.5466 26.1801 83.1146 26.1801C83.6906 26.1801 84.2026 26.3121 84.6506 26.5761C85.0986 26.8401 85.4506 27.2081 85.7066 27.6801C85.9706 28.1521 86.1026 28.7081 86.1026 29.3481C86.1026 29.9881 85.9706 30.5441 85.7066 31.0161C85.4506 31.4881 85.0946 31.8561 84.6386 32.1201C84.1826 32.3841 83.6666 32.5161 83.0906 32.5161ZM83.0906 31.4841C83.4186 31.4841 83.7146 31.4041 83.9786 31.2441C84.2506 31.0841 84.4666 30.8481 84.6266 30.5361C84.7946 30.2161 84.8786 29.8201 84.8786 29.3481C84.8786 28.8761 84.7986 28.4841 84.6386 28.1721C84.4786 27.8521 84.2626 27.6121 83.9906 27.4521C83.7266 27.2921 83.4346 27.2121 83.1146 27.2121C82.7946 27.2121 82.4986 27.2921 82.2266 27.4521C81.9546 27.6121 81.7346 27.8521 81.5666 28.1721C81.4066 28.4841 81.3266 28.8761 81.3266 29.3481C81.3266 29.8201 81.4066 30.2161 81.5666 30.5361C81.7346 30.8481 81.9506 31.0841 82.2146 31.2441C82.4866 31.4041 82.7786 31.4841 83.0906 31.4841Z" fill="#15191E"/>
<path d="M8.6 46.7114V41.1114H10.568C10.9627 41.1114 11.288 41.1754 11.544 41.3034C11.8053 41.4261 12 41.5968 12.128 41.8154C12.256 42.0288 12.32 42.2688 12.32 42.5354C12.32 42.8234 12.256 43.0634 12.128 43.2554C12.0053 43.4474 11.8427 43.5941 11.64 43.6954C11.4427 43.7968 11.232 43.8581 11.008 43.8794L11.12 43.7994C11.36 43.8048 11.5813 43.8688 11.784 43.9914C11.9867 44.1141 12.1467 44.2794 12.264 44.4874C12.3867 44.6954 12.448 44.9274 12.448 45.1834C12.448 45.4661 12.3787 45.7248 12.24 45.9594C12.1013 46.1888 11.896 46.3728 11.624 46.5114C11.3573 46.6448 11.0267 46.7114 10.632 46.7114H8.6ZM9.272 46.1514H10.56C10.9387 46.1514 11.232 46.0634 11.44 45.8874C11.6533 45.7061 11.76 45.4554 11.76 45.1354C11.76 44.8208 11.6507 44.5701 11.432 44.3834C11.2187 44.1914 10.9227 44.0954 10.544 44.0954H9.272V46.1514ZM9.272 43.5594H10.52C10.8827 43.5594 11.1573 43.4741 11.344 43.3034C11.536 43.1328 11.632 42.9008 11.632 42.6074C11.632 42.3248 11.536 42.0981 11.344 41.9274C11.1573 41.7568 10.8747 41.6714 10.496 41.6714H9.272V43.5594ZM12.7662 46.7114L14.8302 41.1114H15.5422L17.5982 46.7114H16.8862L15.1822 41.9514L13.4702 46.7114H12.7662ZM13.7102 45.2714L13.9022 44.7274H16.4382L16.6302 45.2714H13.7102ZM18.2384 46.7114V41.1114H18.9104L21.8944 45.5994V41.1114H22.5664V46.7114H21.8944L18.9104 42.2234V46.7114H18.2384ZM26.0013 46.8074C25.4573 46.8074 24.9853 46.6874 24.5853 46.4474C24.1906 46.2021 23.8866 45.8634 23.6733 45.4314C23.4599 44.9941 23.3533 44.4874 23.3533 43.9114C23.3533 43.3354 23.4599 42.8314 23.6733 42.3994C23.8866 41.9621 24.1906 41.6234 24.5853 41.3834C24.9853 41.1381 25.4573 41.0154 26.0013 41.0154C26.6413 41.0154 27.1613 41.1674 27.5613 41.4714C27.9613 41.7754 28.2173 42.2048 28.3293 42.7594H27.5853C27.4999 42.4128 27.3266 42.1354 27.0653 41.9274C26.8039 41.7141 26.4493 41.6074 26.0013 41.6074C25.6013 41.6074 25.2546 41.7008 24.9613 41.8874C24.6679 42.0688 24.4413 42.3328 24.2813 42.6794C24.1213 43.0208 24.0413 43.4314 24.0413 43.9114C24.0413 44.3914 24.1213 44.8048 24.2813 45.1514C24.4413 45.4928 24.6679 45.7568 24.9613 45.9434C25.2546 46.1248 25.6013 46.2154 26.0013 46.2154C26.4493 46.2154 26.8039 46.1141 27.0653 45.9114C27.3266 45.7034 27.4999 45.4288 27.5853 45.0874H28.3293C28.2173 45.6261 27.9613 46.0474 27.5613 46.3514C27.1613 46.6554 26.6413 46.8074 26.0013 46.8074ZM31.5993 46.8074C31.0606 46.8074 30.5859 46.6874 30.1753 46.4474C29.7699 46.2021 29.4526 45.8634 29.2233 45.4314C28.9993 44.9941 28.8873 44.4874 28.8873 43.9114C28.8873 43.3408 28.9993 42.8394 29.2233 42.4074C29.4526 41.9701 29.7699 41.6288 30.1753 41.3834C30.5859 41.1381 31.0606 41.0154 31.5993 41.0154C32.1486 41.0154 32.6259 41.1381 33.0313 41.3834C33.4366 41.6288 33.7513 41.9701 33.9753 42.4074C34.2046 42.8394 34.3193 43.3408 34.3193 43.9114C34.3193 44.4874 34.2046 44.9941 33.9753 45.4314C33.7513 45.8634 33.4366 46.2021 33.0313 46.4474C32.6259 46.6874 32.1486 46.8074 31.5993 46.8074ZM31.5993 46.2154C32.0046 46.2154 32.3593 46.1248 32.6633 45.9434C32.9726 45.7568 33.2099 45.4928 33.3753 45.1514C33.5459 44.8048 33.6313 44.3914 33.6313 43.9114C33.6313 43.4314 33.5459 43.0208 33.3753 42.6794C33.2099 42.3328 32.9726 42.0688 32.6633 41.8874C32.3593 41.7061 32.0046 41.6154 31.5993 41.6154C31.1993 41.6154 30.8446 41.7061 30.5353 41.8874C30.2313 42.0688 29.9939 42.3328 29.8233 42.6794C29.6579 43.0208 29.5753 43.4314 29.5753 43.9114C29.5753 44.3914 29.6579 44.8048 29.8233 45.1514C29.9939 45.4928 30.2313 45.7568 30.5353 45.9434C30.8446 46.1248 31.1993 46.2154 31.5993 46.2154Z" fill="#707070"/>
<rect x="196.843" y="26.8628" width="58.3574" height="16.3574" rx="6.67841" fill="#FF4000"/>
<circle cx="209.021" cy="35.0415" r="4.17872" fill="white"/>
<mask id="mask0_241_702" style="mask-type:alpha" maskUnits="userSpaceOnUse" x="206" y="32" width="6" height="6">
<rect x="206.22" y="32.2407" width="5.60252" height="5.60252" fill="#D9D9D9"/>
</mask>
<g mask="url(#mask0_241_702)">
<path d="M208.45 36.4423L207.119 35.1118L207.452 34.7791L208.45 35.7771L210.592 33.6353L210.924 33.9679L208.45 36.4423Z" fill="#FF4000"/>
</g>
<path d="M217.367 37.0415L219.077 32.3666H219.972L221.681 37.0415H220.833L219.518 33.3016L218.202 37.0415H217.367ZM218.128 35.9396L218.342 35.3051H220.646L220.86 35.9396H218.128ZM222.097 38.5108V33.6756H222.812L222.899 34.1631C222.97 34.0652 223.055 33.9739 223.153 33.8893C223.255 33.8003 223.377 33.729 223.52 33.6756C223.667 33.6222 223.834 33.5954 224.021 33.5954C224.337 33.5954 224.615 33.6734 224.856 33.8292C225.1 33.985 225.292 34.1965 225.43 34.4636C225.568 34.7263 225.637 35.0269 225.637 35.3652C225.637 35.7036 225.566 36.0064 225.423 36.2735C225.285 36.5362 225.094 36.7432 224.849 36.8946C224.608 37.046 224.332 37.1216 224.021 37.1216C223.767 37.1216 223.544 37.0749 223.353 36.9814C223.166 36.8834 223.015 36.7454 222.899 36.5673V38.5108H222.097ZM223.854 36.4271C224.041 36.4271 224.208 36.3826 224.355 36.2935C224.502 36.2045 224.615 36.0798 224.695 35.9195C224.78 35.7592 224.822 35.5745 224.822 35.3652C224.822 35.1515 224.78 34.9645 224.695 34.8042C224.615 34.644 224.502 34.5193 224.355 34.4302C224.208 34.3412 224.041 34.2967 223.854 34.2967C223.662 34.2967 223.493 34.3412 223.346 34.4302C223.204 34.5193 223.09 34.644 223.006 34.8042C222.926 34.9645 222.885 35.1493 222.885 35.3585C222.885 35.5723 222.926 35.7592 223.006 35.9195C223.09 36.0754 223.204 36.2 223.346 36.2935C223.493 36.3826 223.662 36.4271 223.854 36.4271ZM226.215 37.0415V33.6756H226.929L227.003 34.3034C227.083 34.1564 227.183 34.0318 227.303 33.9294C227.423 33.8225 227.564 33.7401 227.724 33.6823C227.889 33.6244 228.069 33.5954 228.265 33.5954V34.4436H227.984C227.851 34.4436 227.724 34.4614 227.604 34.497C227.483 34.5282 227.379 34.5816 227.29 34.6573C227.205 34.7285 227.138 34.8287 227.089 34.9578C227.04 35.0825 227.016 35.2406 227.016 35.432V37.0415H226.215ZM230.166 37.1216C229.846 37.1216 229.556 37.0482 229.298 36.9013C229.044 36.7499 228.844 36.5428 228.697 36.2802C228.555 36.013 228.483 35.708 228.483 35.3652C228.483 35.0135 228.557 34.7063 228.704 34.4436C228.851 34.1765 229.051 33.9694 229.305 33.8225C229.563 33.6711 229.852 33.5954 230.173 33.5954C230.494 33.5954 230.781 33.6711 231.034 33.8225C231.293 33.9694 231.493 34.1742 231.636 34.4369C231.782 34.6996 231.856 35.0068 231.856 35.3585C231.856 35.7103 231.782 36.0175 231.636 36.2802C231.489 36.5428 231.286 36.7499 231.028 36.9013C230.774 37.0482 230.487 37.1216 230.166 37.1216ZM230.166 36.4338C230.327 36.4338 230.471 36.3937 230.6 36.3136C230.734 36.2334 230.841 36.1132 230.921 35.9529C231.001 35.7926 231.041 35.5945 231.041 35.3585C231.041 35.1226 231.001 34.9267 230.921 34.7708C230.845 34.6106 230.741 34.4904 230.607 34.4102C230.478 34.3301 230.333 34.29 230.173 34.29C230.017 34.29 229.872 34.3301 229.739 34.4102C229.605 34.4904 229.498 34.6106 229.418 34.7708C229.338 34.9267 229.298 35.1226 229.298 35.3585C229.298 35.5945 229.338 35.7926 229.418 35.9529C229.498 36.1132 229.603 36.2334 229.732 36.3136C229.866 36.3937 230.01 36.4338 230.166 36.4338ZM233.199 37.0415L231.956 33.6756H232.798L233.686 36.2802L234.574 33.6756H235.403L234.16 37.0415H233.199ZM236.701 37.1216C236.425 37.1216 236.196 37.0749 236.013 36.9814C235.83 36.8879 235.695 36.7632 235.606 36.6074C235.517 36.4516 235.472 36.2824 235.472 36.0998C235.472 35.8861 235.525 35.7014 235.632 35.5455C235.744 35.3897 235.906 35.2695 236.12 35.1849C236.334 35.0959 236.596 35.0513 236.908 35.0513H237.756C237.756 34.8732 237.732 34.7263 237.683 34.6106C237.634 34.4904 237.558 34.4013 237.456 34.3434C237.353 34.2855 237.222 34.2566 237.062 34.2566C236.879 34.2566 236.723 34.2989 236.594 34.3835C236.465 34.4636 236.385 34.5883 236.354 34.7575H235.566C235.592 34.5171 235.672 34.3123 235.806 34.1431C235.94 33.9694 236.115 33.8359 236.334 33.7424C236.556 33.6444 236.799 33.5954 237.062 33.5954C237.378 33.5954 237.647 33.6511 237.87 33.7624C238.092 33.8693 238.261 34.0251 238.377 34.2299C238.497 34.4302 238.557 34.6729 238.557 34.9578V37.0415H237.876L237.796 36.5006C237.752 36.5896 237.694 36.672 237.622 36.7477C237.556 36.8233 237.478 36.8901 237.389 36.948C237.3 37.0014 237.197 37.0437 237.082 37.0749C236.97 37.1061 236.843 37.1216 236.701 37.1216ZM236.881 36.4872C237.01 36.4872 237.124 36.4649 237.222 36.4204C237.324 36.3714 237.411 36.3047 237.482 36.2201C237.558 36.131 237.616 36.0331 237.656 35.9262C237.696 35.8194 237.723 35.7058 237.736 35.5856V35.5723H236.995C236.839 35.5723 236.71 35.5923 236.607 35.6324C236.505 35.668 236.432 35.7214 236.387 35.7926C236.342 35.8639 236.32 35.9462 236.32 36.0397C236.32 36.1332 236.342 36.2134 236.387 36.2802C236.432 36.3469 236.496 36.3982 236.581 36.4338C236.665 36.4694 236.765 36.4872 236.881 36.4872ZM240.709 37.1216C240.398 37.1216 240.119 37.046 239.875 36.8946C239.63 36.7432 239.438 36.5339 239.3 36.2668C239.167 35.9997 239.1 35.6969 239.1 35.3585C239.1 35.0202 239.169 34.7196 239.307 34.457C239.445 34.1898 239.636 33.9806 239.881 33.8292C240.131 33.6734 240.411 33.5954 240.723 33.5954C240.977 33.5954 241.197 33.6444 241.384 33.7424C241.575 33.8359 241.727 33.9694 241.838 34.1431V32.2331H242.639V37.0415H241.918L241.838 36.554C241.767 36.6519 241.68 36.7454 241.578 36.8345C241.475 36.9191 241.353 36.9881 241.21 37.0415C241.068 37.0949 240.901 37.1216 240.709 37.1216ZM240.876 36.4271C241.068 36.4271 241.237 36.3826 241.384 36.2935C241.531 36.2 241.644 36.0731 241.725 35.9129C241.805 35.7526 241.845 35.5678 241.845 35.3585C241.845 35.1493 241.805 34.9645 241.725 34.8042C241.644 34.644 241.531 34.5193 241.384 34.4302C241.237 34.3412 241.068 34.2967 240.876 34.2967C240.694 34.2967 240.529 34.3412 240.382 34.4302C240.235 34.5193 240.119 34.644 240.035 34.8042C239.955 34.9645 239.915 35.1493 239.915 35.3585C239.915 35.5678 239.955 35.7526 240.035 35.9129C240.119 36.0731 240.235 36.2 240.382 36.2935C240.529 36.3826 240.694 36.4271 240.876 36.4271ZM244.9 37.1216C244.579 37.1216 244.29 37.0482 244.032 36.9013C243.778 36.7499 243.578 36.5428 243.431 36.2802C243.288 36.013 243.217 35.708 243.217 35.3652C243.217 35.0135 243.29 34.7063 243.437 34.4436C243.584 34.1765 243.785 33.9694 244.038 33.8225C244.297 33.6711 244.586 33.5954 244.907 33.5954C245.227 33.5954 245.514 33.6711 245.768 33.8225C246.026 33.9694 246.227 34.1742 246.369 34.4369C246.516 34.6996 246.59 35.0068 246.59 35.3585C246.59 35.7103 246.516 36.0175 246.369 36.2802C246.222 36.5428 246.02 36.7499 245.761 36.9013C245.508 37.0482 245.221 37.1216 244.9 37.1216ZM244.9 36.4338C245.06 36.4338 245.205 36.3937 245.334 36.3136C245.468 36.2334 245.574 36.1132 245.655 35.9529C245.735 35.7926 245.775 35.5945 245.775 35.3585C245.775 35.1226 245.735 34.9267 245.655 34.7708C245.579 34.6106 245.474 34.4904 245.341 34.4102C245.212 34.3301 245.067 34.29 244.907 34.29C244.751 34.29 244.606 34.3301 244.473 34.4102C244.339 34.4904 244.232 34.6106 244.152 34.7708C244.072 34.9267 244.032 35.1226 244.032 35.3585C244.032 35.5945 244.072 35.7926 244.152 35.9529C244.232 36.1132 244.337 36.2334 244.466 36.3136C244.599 36.3937 244.744 36.4338 244.9 36.4338Z" fill="white"/>
<rect x="8" y="57.0596" width="54.8929" height="9.62405" fill="#D9D9D9"/>
<rect x="8" y="75.0317" width="247.2" height="9.62405" fill="#D9D9D9"/>
<rect x="8" y="93.0034" width="247.2" height="9.62405" fill="#D9D9D9"/>
</svg>
