<svg width="186" height="243" viewBox="0 0 186 243" fill="none" xmlns="http://www.w3.org/2000/svg">
<rect width="185.649" height="242.533" rx="25" fill="#FEFEFE"/>
<path d="M38.176 201.784C37.7173 201.784 37.3227 201.714 36.992 201.576C36.6613 201.426 36.4053 201.186 36.224 200.856C36.0533 200.514 35.968 200.05 35.968 199.464V194.712H34.576V193.752H35.968L36.128 191.88H37.088V193.752H39.504V194.712H37.088V199.464C37.088 199.997 37.1947 200.36 37.408 200.552C37.632 200.733 38.0107 200.824 38.544 200.824H39.376V201.784H38.176ZM43.8058 201.976C43.1551 201.976 42.6111 201.864 42.1738 201.64C41.7471 201.405 41.4271 201.101 41.2138 200.728C41.0004 200.344 40.8938 199.933 40.8938 199.496C40.8938 198.93 41.0378 198.461 41.3258 198.088C41.6138 197.704 42.0138 197.416 42.5258 197.224C43.0484 197.032 43.6458 196.936 44.3177 196.936H46.4938C46.4938 196.413 46.4138 195.976 46.2538 195.624C46.0938 195.261 45.8591 194.989 45.5498 194.808C45.2511 194.616 44.8671 194.52 44.3978 194.52C43.8431 194.52 43.3684 194.658 42.9738 194.936C42.5791 195.213 42.3338 195.618 42.2378 196.152H41.0538C41.1284 195.586 41.3258 195.112 41.6458 194.728C41.9764 194.344 42.3818 194.056 42.8618 193.864C43.3524 193.661 43.8644 193.56 44.3978 193.56C45.1338 193.56 45.7364 193.698 46.2058 193.976C46.6858 194.253 47.0378 194.637 47.2618 195.128C47.4964 195.618 47.6138 196.189 47.6138 196.84V201.784H46.6058L46.5418 200.312C46.4351 200.536 46.3018 200.749 46.1418 200.952C45.9818 201.154 45.7898 201.336 45.5658 201.496C45.3524 201.645 45.0964 201.762 44.7977 201.848C44.5098 201.933 44.1791 201.976 43.8058 201.976ZM43.9338 200.984C44.3391 200.984 44.6964 200.904 45.0058 200.744C45.3258 200.584 45.5924 200.37 45.8058 200.104C46.0298 199.837 46.2004 199.538 46.3178 199.208C46.4351 198.866 46.4938 198.514 46.4938 198.152V197.88H44.3978C43.8324 197.88 43.3791 197.949 43.0378 198.088C42.6964 198.226 42.4511 198.413 42.3018 198.648C42.1524 198.882 42.0778 199.154 42.0778 199.464C42.0778 199.762 42.1471 200.029 42.2858 200.264C42.4244 200.488 42.6324 200.664 42.9098 200.792C43.1978 200.92 43.5391 200.984 43.9338 200.984ZM48.9298 201.784L51.6338 197.768L48.9298 193.752H50.1458L52.4178 197.192L54.6898 193.752H55.8898L53.2018 197.768L55.8898 201.784H54.6898L52.4178 198.328L50.1458 201.784H48.9298ZM59.9308 201.976C59.2801 201.976 58.7361 201.864 58.2988 201.64C57.8721 201.405 57.5521 201.101 57.3388 200.728C57.1254 200.344 57.0188 199.933 57.0188 199.496C57.0188 198.93 57.1628 198.461 57.4508 198.088C57.7388 197.704 58.1388 197.416 58.6508 197.224C59.1734 197.032 59.7708 196.936 60.4427 196.936H62.6188C62.6188 196.413 62.5388 195.976 62.3788 195.624C62.2188 195.261 61.9841 194.989 61.6748 194.808C61.3761 194.616 60.9921 194.52 60.5228 194.52C59.9681 194.52 59.4934 194.658 59.0988 194.936C58.7041 195.213 58.4588 195.618 58.3628 196.152H57.1788C57.2534 195.586 57.4508 195.112 57.7708 194.728C58.1014 194.344 58.5068 194.056 58.9868 193.864C59.4774 193.661 59.9894 193.56 60.5228 193.56C61.2588 193.56 61.8614 193.698 62.3308 193.976C62.8108 194.253 63.1628 194.637 63.3868 195.128C63.6214 195.618 63.7388 196.189 63.7388 196.84V201.784H62.7308L62.6668 200.312C62.5601 200.536 62.4268 200.749 62.2668 200.952C62.1068 201.154 61.9148 201.336 61.6908 201.496C61.4774 201.645 61.2214 201.762 60.9227 201.848C60.6348 201.933 60.3041 201.976 59.9308 201.976ZM60.0588 200.984C60.4641 200.984 60.8214 200.904 61.1308 200.744C61.4508 200.584 61.7174 200.37 61.9308 200.104C62.1548 199.837 62.3254 199.538 62.4428 199.208C62.5601 198.866 62.6188 198.514 62.6188 198.152V197.88H60.5228C59.9574 197.88 59.5041 197.949 59.1628 198.088C58.8214 198.226 58.5761 198.413 58.4268 198.648C58.2774 198.882 58.2028 199.154 58.2028 199.464C58.2028 199.762 58.2721 200.029 58.4108 200.264C58.5494 200.488 58.7574 200.664 59.0348 200.792C59.3228 200.92 59.6641 200.984 60.0588 200.984ZM73.797 201.976C73.0077 201.976 72.3197 201.794 71.733 201.432C71.157 201.058 70.709 200.557 70.389 199.928C70.069 199.288 69.909 198.562 69.909 197.752C69.909 196.941 70.069 196.221 70.389 195.592C70.709 194.962 71.1623 194.466 71.749 194.104C72.3357 193.741 73.0237 193.56 73.813 193.56C74.4957 193.56 75.093 193.704 75.605 193.992C76.1277 194.28 76.5223 194.69 76.789 195.224V190.264H77.909V201.784H76.885L76.789 200.344C76.629 200.621 76.4103 200.888 76.133 201.144C75.8557 201.389 75.5197 201.592 75.125 201.752C74.741 201.901 74.2983 201.976 73.797 201.976ZM73.877 201C74.4423 201 74.9383 200.866 75.365 200.6C75.7917 200.333 76.1223 199.96 76.357 199.48C76.6023 198.989 76.725 198.418 76.725 197.768C76.725 197.117 76.6023 196.552 76.357 196.072C76.1223 195.581 75.7917 195.202 75.365 194.936C74.9383 194.669 74.4423 194.536 73.877 194.536C73.333 194.536 72.8423 194.669 72.405 194.936C71.9783 195.202 71.6423 195.581 71.397 196.072C71.1623 196.552 71.045 197.112 71.045 197.752C71.045 198.413 71.1677 198.989 71.413 199.48C71.6583 199.96 71.9943 200.333 72.421 200.6C72.8477 200.866 73.333 201 73.877 201ZM83.6389 201.976C82.8922 201.976 82.2309 201.8 81.6549 201.448C81.0895 201.096 80.6415 200.605 80.3109 199.976C79.9909 199.346 79.8309 198.605 79.8309 197.752C79.8309 196.898 79.9909 196.162 80.3109 195.544C80.6309 194.914 81.0789 194.429 81.6549 194.088C82.2415 193.736 82.9135 193.56 83.6709 193.56C84.4495 193.56 85.1109 193.736 85.6549 194.088C86.1989 194.44 86.6095 194.898 86.8869 195.464C87.1749 196.018 87.3189 196.626 87.3189 197.288C87.3189 197.394 87.3189 197.506 87.3189 197.624C87.3189 197.741 87.3135 197.869 87.3029 198.008H80.6789V197.064H86.2309C86.1989 196.253 85.9375 195.629 85.4469 195.192C84.9669 194.744 84.3589 194.52 83.6229 194.52C83.1535 194.52 82.7109 194.626 82.2949 194.84C81.8789 195.053 81.5429 195.373 81.2869 195.8C81.0415 196.216 80.9189 196.738 80.9189 197.368V197.8C80.9189 198.514 81.0469 199.112 81.3029 199.592C81.5695 200.072 81.9109 200.429 82.3269 200.664C82.7429 200.898 83.1802 201.016 83.6389 201.016C84.2469 201.016 84.7482 200.882 85.1429 200.616C85.5482 200.338 85.8362 199.954 86.0069 199.464H87.0949C86.9669 199.944 86.7482 200.376 86.4389 200.76C86.1295 201.133 85.7402 201.432 85.2709 201.656C84.8015 201.869 84.2575 201.976 83.6389 201.976ZM96.5023 201.976C95.8729 201.976 95.3129 201.869 94.8223 201.656C94.3423 201.442 93.9529 201.138 93.6543 200.744C93.3556 200.338 93.1743 199.858 93.1103 199.304H94.2623C94.3263 199.613 94.4489 199.896 94.6303 200.152C94.8223 200.408 95.0783 200.61 95.3983 200.76C95.7183 200.909 96.0969 200.984 96.5343 200.984C96.9396 200.984 97.2703 200.925 97.5263 200.808C97.7929 200.69 97.9903 200.53 98.1183 200.328C98.2463 200.114 98.3103 199.88 98.3103 199.624C98.3103 199.282 98.2303 199.016 98.0703 198.824C97.9103 198.621 97.6756 198.472 97.3663 198.376C97.0569 198.28 96.6783 198.189 96.2303 198.104C95.8889 198.04 95.5529 197.96 95.2223 197.864C94.8916 197.757 94.5929 197.618 94.3263 197.448C94.0703 197.277 93.8623 197.064 93.7023 196.808C93.5529 196.541 93.4783 196.226 93.4783 195.864C93.4783 195.416 93.5903 195.021 93.8143 194.68C94.0489 194.328 94.3743 194.056 94.7903 193.864C95.2169 193.661 95.7183 193.56 96.2943 193.56C97.1156 193.56 97.7876 193.768 98.3103 194.184C98.8436 194.589 99.1529 195.186 99.2383 195.976H98.1023C98.0596 195.538 97.8783 195.192 97.5583 194.936C97.2383 194.68 96.8063 194.552 96.2623 194.552C95.7396 194.552 95.3343 194.664 95.0463 194.888C94.7689 195.101 94.6303 195.394 94.6303 195.768C94.6303 195.992 94.7049 196.189 94.8543 196.36C95.0036 196.53 95.2223 196.68 95.5103 196.808C95.8089 196.925 96.1716 197.026 96.5983 197.112C97.0996 197.208 97.5636 197.336 97.9903 197.496C98.4276 197.645 98.7796 197.874 99.0463 198.184C99.3236 198.493 99.4623 198.941 99.4623 199.528C99.4729 199.997 99.3556 200.418 99.1103 200.792C98.8756 201.165 98.5343 201.458 98.0863 201.672C97.6383 201.874 97.1103 201.976 96.5023 201.976ZM104.345 201.976C103.737 201.976 103.203 201.858 102.745 201.624C102.286 201.378 101.929 201.005 101.673 200.504C101.417 200.002 101.289 199.362 101.289 198.584V193.752H102.409V198.456C102.409 199.32 102.595 199.96 102.969 200.376C103.342 200.792 103.87 201 104.553 201C105.033 201 105.459 200.888 105.833 200.664C106.217 200.429 106.515 200.093 106.729 199.656C106.942 199.208 107.049 198.664 107.049 198.024V193.752H108.169V201.784H107.161L107.081 200.344C106.835 200.856 106.467 201.256 105.977 201.544C105.497 201.832 104.953 201.976 104.345 201.976ZM113.985 201.976C113.249 201.976 112.582 201.8 111.985 201.448C111.398 201.096 110.934 200.605 110.593 199.976C110.252 199.346 110.081 198.616 110.081 197.784C110.081 196.92 110.252 196.178 110.593 195.56C110.934 194.93 111.398 194.44 111.985 194.088C112.582 193.736 113.249 193.56 113.985 193.56C114.924 193.56 115.702 193.805 116.321 194.296C116.95 194.776 117.35 195.416 117.521 196.216H116.401C116.284 195.672 116.001 195.256 115.553 194.968C115.116 194.669 114.593 194.52 113.985 194.52C113.494 194.52 113.041 194.642 112.625 194.888C112.209 195.133 111.873 195.496 111.617 195.976C111.361 196.445 111.233 197.042 111.233 197.768C111.233 198.312 111.308 198.786 111.457 199.192C111.606 199.597 111.809 199.938 112.065 200.216C112.332 200.482 112.625 200.685 112.945 200.824C113.276 200.962 113.622 201.032 113.985 201.032C114.38 201.032 114.742 200.968 115.073 200.84C115.414 200.701 115.702 200.509 115.937 200.264C116.172 200.008 116.326 199.693 116.401 199.32H117.521C117.361 200.109 116.966 200.749 116.337 201.24C115.708 201.73 114.924 201.976 113.985 201.976ZM122.905 201.976C122.158 201.976 121.497 201.8 120.921 201.448C120.355 201.096 119.907 200.605 119.577 199.976C119.257 199.346 119.097 198.605 119.097 197.752C119.097 196.898 119.257 196.162 119.577 195.544C119.897 194.914 120.345 194.429 120.921 194.088C121.507 193.736 122.179 193.56 122.937 193.56C123.715 193.56 124.377 193.736 124.921 194.088C125.465 194.44 125.875 194.898 126.153 195.464C126.441 196.018 126.585 196.626 126.585 197.288C126.585 197.394 126.585 197.506 126.585 197.624C126.585 197.741 126.579 197.869 126.569 198.008H119.945V197.064H125.497C125.465 196.253 125.203 195.629 124.713 195.192C124.233 194.744 123.625 194.52 122.889 194.52C122.419 194.52 121.977 194.626 121.561 194.84C121.145 195.053 120.809 195.373 120.553 195.8C120.307 196.216 120.185 196.738 120.185 197.368V197.8C120.185 198.514 120.313 199.112 120.569 199.592C120.835 200.072 121.177 200.429 121.593 200.664C122.009 200.898 122.446 201.016 122.905 201.016C123.513 201.016 124.014 200.882 124.409 200.616C124.814 200.338 125.102 199.954 125.273 199.464H126.361C126.233 199.944 126.014 200.376 125.705 200.76C125.395 201.133 125.006 201.432 124.537 201.656C124.067 201.869 123.523 201.976 122.905 201.976ZM131.362 201.976C130.732 201.976 130.172 201.869 129.682 201.656C129.202 201.442 128.812 201.138 128.514 200.744C128.215 200.338 128.034 199.858 127.97 199.304H129.122C129.186 199.613 129.308 199.896 129.49 200.152C129.682 200.408 129.938 200.61 130.258 200.76C130.578 200.909 130.956 200.984 131.394 200.984C131.799 200.984 132.13 200.925 132.386 200.808C132.652 200.69 132.85 200.53 132.978 200.328C133.106 200.114 133.17 199.88 133.17 199.624C133.17 199.282 133.09 199.016 132.93 198.824C132.77 198.621 132.535 198.472 132.226 198.376C131.916 198.28 131.538 198.189 131.09 198.104C130.748 198.04 130.412 197.96 130.082 197.864C129.751 197.757 129.452 197.618 129.186 197.448C128.93 197.277 128.722 197.064 128.562 196.808C128.412 196.541 128.338 196.226 128.338 195.864C128.338 195.416 128.45 195.021 128.674 194.68C128.908 194.328 129.234 194.056 129.65 193.864C130.076 193.661 130.578 193.56 131.154 193.56C131.975 193.56 132.647 193.768 133.17 194.184C133.703 194.589 134.012 195.186 134.098 195.976H132.962C132.919 195.538 132.738 195.192 132.418 194.936C132.098 194.68 131.666 194.552 131.122 194.552C130.599 194.552 130.194 194.664 129.906 194.888C129.628 195.101 129.49 195.394 129.49 195.768C129.49 195.992 129.564 196.189 129.714 196.36C129.863 196.53 130.082 196.68 130.37 196.808C130.668 196.925 131.031 197.026 131.458 197.112C131.959 197.208 132.423 197.336 132.85 197.496C133.287 197.645 133.639 197.874 133.906 198.184C134.183 198.493 134.322 198.941 134.322 199.528C134.332 199.997 134.215 200.418 133.97 200.792C133.735 201.165 133.394 201.458 132.946 201.672C132.498 201.874 131.97 201.976 131.362 201.976ZM139.268 201.976C138.639 201.976 138.079 201.869 137.588 201.656C137.108 201.442 136.719 201.138 136.42 200.744C136.121 200.338 135.94 199.858 135.876 199.304H137.028C137.092 199.613 137.215 199.896 137.396 200.152C137.588 200.408 137.844 200.61 138.164 200.76C138.484 200.909 138.863 200.984 139.3 200.984C139.705 200.984 140.036 200.925 140.292 200.808C140.559 200.69 140.756 200.53 140.884 200.328C141.012 200.114 141.076 199.88 141.076 199.624C141.076 199.282 140.996 199.016 140.836 198.824C140.676 198.621 140.441 198.472 140.132 198.376C139.823 198.28 139.444 198.189 138.996 198.104C138.655 198.04 138.319 197.96 137.988 197.864C137.657 197.757 137.359 197.618 137.092 197.448C136.836 197.277 136.628 197.064 136.468 196.808C136.319 196.541 136.244 196.226 136.244 195.864C136.244 195.416 136.356 195.021 136.58 194.68C136.815 194.328 137.14 194.056 137.556 193.864C137.983 193.661 138.484 193.56 139.06 193.56C139.881 193.56 140.553 193.768 141.076 194.184C141.609 194.589 141.919 195.186 142.004 195.976H140.868C140.825 195.538 140.644 195.192 140.324 194.936C140.004 194.68 139.572 194.552 139.028 194.552C138.505 194.552 138.1 194.664 137.812 194.888C137.535 195.101 137.396 195.394 137.396 195.768C137.396 195.992 137.471 196.189 137.62 196.36C137.769 196.53 137.988 196.68 138.276 196.808C138.575 196.925 138.937 197.026 139.364 197.112C139.865 197.208 140.329 197.336 140.756 197.496C141.193 197.645 141.545 197.874 141.812 198.184C142.089 198.493 142.228 198.941 142.228 199.528C142.239 199.997 142.121 200.418 141.876 200.792C141.641 201.165 141.3 201.458 140.852 201.672C140.404 201.874 139.876 201.976 139.268 201.976ZM147.766 201.976C147.03 201.976 146.363 201.805 145.766 201.464C145.179 201.112 144.715 200.621 144.374 199.992C144.033 199.352 143.862 198.616 143.862 197.784C143.862 196.909 144.033 196.162 144.374 195.544C144.726 194.914 145.201 194.429 145.798 194.088C146.395 193.736 147.062 193.56 147.798 193.56C148.555 193.56 149.227 193.736 149.814 194.088C150.401 194.429 150.865 194.914 151.206 195.544C151.558 196.162 151.734 196.909 151.734 197.784C151.734 198.626 151.558 199.362 151.206 199.992C150.854 200.621 150.379 201.112 149.782 201.464C149.195 201.805 148.523 201.976 147.766 201.976ZM147.782 201.016C148.273 201.016 148.726 200.893 149.142 200.648C149.569 200.402 149.915 200.04 150.182 199.56C150.449 199.08 150.582 198.482 150.582 197.768C150.582 197.042 150.449 196.445 150.182 195.976C149.926 195.496 149.585 195.133 149.158 194.888C148.742 194.642 148.289 194.52 147.798 194.52C147.318 194.52 146.865 194.642 146.438 194.888C146.011 195.133 145.665 195.496 145.398 195.976C145.142 196.445 145.014 197.042 145.014 197.768C145.014 198.482 145.142 199.08 145.398 199.56C145.654 200.04 145.99 200.402 146.406 200.648C146.833 200.893 147.291 201.016 147.782 201.016Z" fill="#101C2E"/>
<path d="M69.9193 176.216C68.3353 176.216 66.9793 175.904 65.8513 175.28C64.7233 174.656 63.8233 173.816 63.1513 172.76C62.5033 171.704 62.1073 170.552 61.9633 169.304H64.7713C65.0113 170.672 65.5873 171.728 66.4993 172.472C67.4113 173.216 68.5633 173.588 69.9553 173.588C71.2273 173.588 72.3553 173.204 73.3393 172.436C74.3473 171.644 75.1513 170.456 75.7513 168.872C76.3753 167.264 76.7233 165.236 76.7953 162.788C76.7953 162.74 76.7953 162.692 76.7953 162.644C76.7953 162.596 76.7953 162.56 76.7953 162.536C76.4113 163.28 75.8713 163.976 75.1753 164.624C74.4793 165.248 73.6513 165.752 72.6913 166.136C71.7553 166.52 70.6873 166.712 69.4873 166.712C68.0713 166.712 66.7273 166.376 65.4553 165.704C64.1833 165.032 63.1513 164.096 62.3593 162.896C61.5673 161.672 61.1713 160.244 61.1713 158.612C61.1713 157.196 61.5193 155.84 62.2153 154.544C62.9113 153.248 63.9073 152.192 65.2033 151.376C66.5233 150.56 68.0833 150.152 69.8833 150.152C71.7073 150.152 73.2433 150.5 74.4913 151.196C75.7393 151.868 76.7353 152.78 77.4793 153.932C78.2473 155.084 78.7993 156.38 79.1353 157.82C79.4953 159.236 79.6753 160.688 79.6753 162.176C79.6753 164.936 79.2913 167.372 78.5233 169.484C77.7553 171.596 76.6393 173.252 75.1753 174.452C73.7353 175.628 71.9833 176.216 69.9193 176.216ZM70.0993 164.084C71.2273 164.084 72.2353 163.832 73.1233 163.328C74.0113 162.8 74.7193 162.104 75.2473 161.24C75.7753 160.376 76.0393 159.44 76.0393 158.432C76.0393 157.352 75.7753 156.392 75.2473 155.552C74.7193 154.688 74.0113 154.016 73.1233 153.536C72.2353 153.056 71.2273 152.816 70.0993 152.816C68.9713 152.816 67.9633 153.068 67.0753 153.572C66.1873 154.052 65.4913 154.712 64.9873 155.552C64.4833 156.392 64.2313 157.364 64.2313 158.468C64.2313 159.596 64.4833 160.58 64.9873 161.42C65.4913 162.26 66.1873 162.92 67.0753 163.4C67.9633 163.856 68.9713 164.084 70.0993 164.084ZM84.5812 175.784L94.5892 153.176H80.7652V150.584H97.6852V152.852L87.7852 175.784H84.5812ZM102.677 175.784L117.329 150.584H120.353L105.701 175.784H102.677ZM118.373 176.216C117.293 176.216 116.321 175.976 115.457 175.496C114.593 174.992 113.897 174.284 113.369 173.372C112.865 172.46 112.613 171.392 112.613 170.168C112.613 168.92 112.865 167.852 113.369 166.964C113.897 166.052 114.593 165.356 115.457 164.876C116.321 164.372 117.293 164.12 118.373 164.12C119.477 164.12 120.449 164.372 121.289 164.876C122.153 165.356 122.837 166.052 123.341 166.964C123.845 167.852 124.097 168.92 124.097 170.168C124.097 171.392 123.845 172.46 123.341 173.372C122.837 174.284 122.153 174.992 121.289 175.496C120.425 175.976 119.453 176.216 118.373 176.216ZM118.337 173.876C118.913 173.876 119.441 173.744 119.921 173.48C120.401 173.192 120.785 172.772 121.073 172.22C121.385 171.668 121.541 170.984 121.541 170.168C121.541 169.328 121.397 168.632 121.109 168.08C120.821 167.528 120.437 167.12 119.957 166.856C119.477 166.568 118.949 166.424 118.373 166.424C117.821 166.424 117.293 166.568 116.789 166.856C116.309 167.12 115.913 167.528 115.601 168.08C115.313 168.632 115.169 169.328 115.169 170.168C115.169 170.984 115.313 171.668 115.601 172.22C115.913 172.772 116.309 173.192 116.789 173.48C117.269 173.744 117.785 173.876 118.337 173.876ZM104.909 162.284C103.829 162.284 102.857 162.044 101.993 161.564C101.129 161.06 100.433 160.352 99.905 159.44C99.401 158.528 99.149 157.46 99.149 156.236C99.149 154.988 99.401 153.92 99.905 153.032C100.433 152.12 101.129 151.424 101.993 150.944C102.881 150.44 103.865 150.188 104.945 150.188C106.025 150.188 106.997 150.44 107.861 150.944C108.725 151.424 109.409 152.12 109.913 153.032C110.417 153.92 110.669 154.988 110.669 156.236C110.669 157.46 110.417 158.528 109.913 159.44C109.409 160.352 108.713 161.06 107.825 161.564C106.961 162.044 105.989 162.284 104.909 162.284ZM104.909 159.944C105.485 159.944 106.013 159.812 106.493 159.548C106.973 159.26 107.357 158.84 107.645 158.288C107.933 157.736 108.077 157.052 108.077 156.236C108.077 155.396 107.933 154.7 107.645 154.148C107.357 153.572 106.973 153.152 106.493 152.888C106.013 152.6 105.497 152.456 104.945 152.456C104.393 152.456 103.865 152.6 103.361 152.888C102.857 153.152 102.449 153.572 102.137 154.148C101.849 154.7 101.705 155.396 101.705 156.236C101.705 157.052 101.849 157.736 102.137 158.288C102.449 158.84 102.845 159.26 103.325 159.548C103.829 159.812 104.357 159.944 104.909 159.944Z" fill="#101C2E"/>
<path d="M138.962 75.712C138.962 100.958 118.496 121.424 93.2499 121.424C68.0038 121.424 47.5378 100.958 47.5378 75.712C47.5378 50.466 68.0038 30 93.2499 30C118.496 30 138.962 50.466 138.962 75.712ZM65.3663 75.712C65.3663 91.1117 77.8502 103.596 93.2499 103.596C108.65 103.596 121.133 91.1117 121.133 75.712C121.133 60.3123 108.65 47.8284 93.2499 47.8284C77.8502 47.8284 65.3663 60.3123 65.3663 75.712Z" fill="#C3C3C3"/>
<path d="M135.802 92.4135C132.05 101.971 125.19 109.988 116.327 115.172C107.463 120.355 97.113 122.404 86.9434 120.987C76.7738 119.57 67.3772 114.771 60.2679 107.363C53.1585 99.9545 48.7503 90.3683 47.7537 80.149C46.7571 69.9297 49.23 59.6725 54.774 51.0301C60.3181 42.3877 68.6103 35.8635 78.3146 32.5087C88.0189 29.154 98.57 29.1641 108.268 32.5374C117.966 35.9107 126.245 42.4508 131.773 51.1038L116.748 60.7014C113.377 55.4232 108.326 51.4339 102.411 49.3762C96.4951 47.3185 90.0591 47.3124 84.1396 49.3587C78.2201 51.405 73.162 55.3847 69.7802 60.6564C66.3985 65.9282 64.89 72.1849 65.4979 78.4185C66.1059 84.6521 68.7948 90.4995 73.1314 95.0185C77.468 99.5375 83.1997 102.465 89.403 103.329C95.6063 104.193 101.92 102.944 107.326 99.7817C112.733 96.6198 116.917 91.7299 119.206 85.8997L135.802 92.4135Z" fill="#FF4000"/>
</svg>
