<svg width="264" height="105" viewBox="0 0 264 105" fill="none" xmlns="http://www.w3.org/2000/svg">
<path d="M263.2 104.996H0L14.0166 84.8674L24.9183 90.7381L38.9349 87.3834L52.9515 70.6099L89.5503 69.7713L109.018 60.5459L118.362 47.9658L141.723 48.8044L169.756 37.9017L196.232 43.7724L213.363 30.3536L228.937 13.5802L242.954 11.9028L263.2 1V104.996Z" fill="#ED9E16" fill-opacity="0.5"/>
<path d="M263.2 105H0L14.0166 93.9972L24.9183 97.2063L38.9349 95.3725L52.9515 86.2037L89.5503 85.7452L109.018 80.7024L118.362 73.8257L141.723 74.2841L169.756 68.3244L196.232 71.5335L213.363 64.1984L228.937 55.0295L242.954 54.1126L263.2 48.1528V105Z" fill="#FF4000"/>
<line x1="4.37114e-08" y1="0.5" x2="263.2" y2="0.500023" stroke="#101C2E" stroke-opacity="0.25"/>
<line x1="3.40455e-08" y1="35.1665" x2="263.2" y2="35.1665" stroke="#101C2E" stroke-opacity="0.25"/>
<line x1="3.40455e-08" y1="104.495" x2="263.2" y2="104.495" stroke="#101C2E" stroke-opacity="0.25"/>
<line x1="3.40455e-08" y1="69.8296" x2="263.2" y2="69.8296" stroke="#101C2E" stroke-opacity="0.25"/>
<rect x="40.2002" y="16.1143" width="183.481" height="29.358" rx="7.51321" fill="white" fill-opacity="0.7"/>
<path d="M48.6897 30.2245C48.0591 30.2245 47.5143 30.0867 47.0551 29.8112C46.6021 29.5296 46.2501 29.1409 45.9991 28.645C45.7542 28.143 45.6318 27.5614 45.6318 26.9003C45.6318 26.2452 45.7542 25.6667 45.9991 25.1647C46.2501 24.6627 46.6021 24.274 47.0551 23.9985C47.5143 23.7169 48.0591 23.5761 48.6897 23.5761C49.4427 23.5761 50.0518 23.7567 50.517 24.1179C50.9884 24.4791 51.2884 24.9872 51.417 25.6422H50.4068C50.315 25.2627 50.1252 24.9596 49.8375 24.7331C49.5559 24.5066 49.1733 24.3934 48.6897 24.3934C48.255 24.3934 47.8785 24.4944 47.5602 24.6964C47.2418 24.8984 46.997 25.1862 46.8256 25.5596C46.6541 25.933 46.5684 26.3799 46.5684 26.9003C46.5684 27.4206 46.6541 27.8706 46.8256 28.2501C46.997 28.6236 47.2418 28.9113 47.5602 29.1133C47.8785 29.3092 48.255 29.4072 48.6897 29.4072C49.1733 29.4072 49.5559 29.3 49.8375 29.0858C50.1252 28.8654 50.315 28.5685 50.4068 28.1951H51.417C51.2884 28.8317 50.9884 29.3307 50.517 29.6918C50.0518 30.0469 49.4427 30.2245 48.6897 30.2245ZM53.5857 30.2245C53.2062 30.2245 52.8909 30.1602 52.6399 30.0316C52.3889 29.9031 52.2022 29.7316 52.0798 29.5174C51.9573 29.297 51.8961 29.0613 51.8961 28.8103C51.8961 28.5042 51.9757 28.244 52.1349 28.0298C52.294 27.8094 52.5205 27.641 52.8144 27.5247C53.1082 27.4084 53.4602 27.3502 53.8704 27.3502H55.0733C55.0733 27.0809 55.0336 26.8574 54.954 26.6799C54.8744 26.5024 54.755 26.3707 54.5958 26.285C54.4428 26.1932 54.2469 26.1473 54.0081 26.1473C53.7327 26.1473 53.497 26.2146 53.3011 26.3493C53.1052 26.4779 52.9827 26.6707 52.9338 26.9278H52.0155C52.0522 26.6034 52.1624 26.3279 52.3461 26.1014C52.5358 25.8687 52.7776 25.6912 53.0715 25.5688C53.3653 25.4402 53.6776 25.3759 54.0081 25.3759C54.4428 25.3759 54.807 25.4525 55.1009 25.6055C55.3947 25.7585 55.6151 25.9759 55.7621 26.2575C55.9151 26.533 55.9916 26.8635 55.9916 27.2492V30.1143H55.1927L55.1193 29.3337C55.0519 29.4562 54.9723 29.5725 54.8805 29.6827C54.7887 29.7929 54.6785 29.8877 54.5499 29.9673C54.4275 30.0469 54.2836 30.1081 54.1183 30.151C53.9592 30.2 53.7816 30.2245 53.5857 30.2245ZM53.7602 29.4806C53.9561 29.4806 54.1336 29.4409 54.2928 29.3613C54.452 29.2817 54.5867 29.1746 54.6969 29.0399C54.8132 28.8991 54.8989 28.743 54.954 28.5715C55.0152 28.394 55.0489 28.2134 55.055 28.0298V28.0022H53.9622C53.699 28.0022 53.4847 28.0359 53.3194 28.1032C53.1603 28.1644 53.0439 28.2501 52.9705 28.3603C52.897 28.4705 52.8603 28.5991 52.8603 28.746C52.8603 28.8991 52.894 29.0307 52.9613 29.1409C53.0348 29.245 53.1388 29.3276 53.2735 29.3888C53.4082 29.45 53.5704 29.4806 53.7602 29.4806ZM56.7463 32.1345V25.4861H57.5728L57.6646 26.2024C57.7626 26.0616 57.885 25.93 58.0319 25.8075C58.1788 25.679 58.3533 25.5749 58.5553 25.4953C58.7635 25.4157 59.0053 25.3759 59.2808 25.3759C59.7216 25.3759 60.1072 25.4831 60.4378 25.6973C60.7745 25.9116 61.0347 26.2024 61.2184 26.5697C61.4081 26.9309 61.503 27.3441 61.503 27.8094C61.503 28.2746 61.4081 28.6909 61.2184 29.0582C61.0286 29.4194 60.7653 29.7041 60.4286 29.9122C60.0981 30.1204 59.7124 30.2245 59.2716 30.2245C58.9104 30.2245 58.5921 30.154 58.3166 30.0132C58.0411 29.8663 57.8238 29.6643 57.6646 29.4072V32.1345H56.7463ZM59.1247 29.4255C59.4063 29.4255 59.6542 29.3582 59.8685 29.2235C60.0889 29.0888 60.2603 28.8991 60.3827 28.6542C60.5113 28.4093 60.5756 28.1246 60.5756 27.8002C60.5756 27.4757 60.5113 27.1941 60.3827 26.9554C60.2603 26.7105 60.0889 26.5207 59.8685 26.386C59.6542 26.2452 59.4063 26.1748 59.1247 26.1748C58.8369 26.1748 58.5829 26.2452 58.3625 26.386C58.1482 26.5207 57.9799 26.7105 57.8574 26.9554C57.735 27.1941 57.6738 27.4757 57.6738 27.8002C57.6738 28.1246 57.735 28.4093 57.8574 28.6542C57.9799 28.8991 58.1482 29.0888 58.3625 29.2235C58.5829 29.3582 58.8369 29.4255 59.1247 29.4255ZM62.2221 30.1143V25.4861H63.1404V30.1143H62.2221ZM62.6905 24.6138C62.5129 24.6138 62.366 24.5587 62.2497 24.4485C62.1395 24.3383 62.0844 24.1975 62.0844 24.0261C62.0844 23.8608 62.1395 23.7261 62.2497 23.622C62.366 23.5118 62.5129 23.4567 62.6905 23.4567C62.8619 23.4567 63.0057 23.5118 63.1221 23.622C63.2384 23.7261 63.2965 23.8608 63.2965 24.0261C63.2965 24.1975 63.2384 24.3383 63.1221 24.4485C63.0057 24.5587 62.8619 24.6138 62.6905 24.6138ZM65.9462 30.1143C65.6523 30.1143 65.3983 30.0683 65.184 29.9765C64.9697 29.8847 64.8045 29.7316 64.6881 29.5174C64.5718 29.3031 64.5137 29.0123 64.5137 28.645V26.2667H63.7148V25.4861H64.5137L64.6239 24.3291H65.4319V25.4861H66.7451V26.2667H65.4319V28.6542C65.4319 28.9174 65.487 29.098 65.5972 29.196C65.7074 29.2878 65.8972 29.3337 66.1666 29.3337H66.6992V30.1143H65.9462ZM68.8738 30.2245C68.4943 30.2245 68.179 30.1602 67.928 30.0316C67.677 29.9031 67.4903 29.7316 67.3679 29.5174C67.2454 29.297 67.1842 29.0613 67.1842 28.8103C67.1842 28.5042 67.2638 28.244 67.423 28.0298C67.5821 27.8094 67.8086 27.641 68.1025 27.5247C68.3963 27.4084 68.7483 27.3502 69.1585 27.3502H70.3614C70.3614 27.0809 70.3217 26.8574 70.2421 26.6799C70.1625 26.5024 70.0431 26.3707 69.8839 26.285C69.7309 26.1932 69.535 26.1473 69.2962 26.1473C69.0208 26.1473 68.7851 26.2146 68.5892 26.3493C68.3933 26.4779 68.2708 26.6707 68.2219 26.9278H67.3036C67.3403 26.6034 67.4505 26.3279 67.6342 26.1014C67.8239 25.8687 68.0657 25.6912 68.3596 25.5688C68.6534 25.4402 68.9657 25.3759 69.2962 25.3759C69.7309 25.3759 70.0951 25.4525 70.389 25.6055C70.6828 25.7585 70.9032 25.9759 71.0502 26.2575C71.2032 26.533 71.2797 26.8635 71.2797 27.2492V30.1143H70.4808L70.4074 29.3337C70.34 29.4562 70.2604 29.5725 70.1686 29.6827C70.0768 29.7929 69.9666 29.8877 69.838 29.9673C69.7156 30.0469 69.5717 30.1081 69.4064 30.151C69.2473 30.2 69.0697 30.2245 68.8738 30.2245ZM69.0483 29.4806C69.2442 29.4806 69.4217 29.4409 69.5809 29.3613C69.7401 29.2817 69.8748 29.1746 69.985 29.0399C70.1013 28.8991 70.187 28.743 70.2421 28.5715C70.3033 28.394 70.337 28.2134 70.3431 28.0298V28.0022H69.2503C68.9871 28.0022 68.7728 28.0359 68.6075 28.1032C68.4484 28.1644 68.332 28.2501 68.2586 28.3603C68.1851 28.4705 68.1484 28.5991 68.1484 28.746C68.1484 28.8991 68.1821 29.0307 68.2494 29.1409C68.3229 29.245 68.4269 29.3276 68.5616 29.3888C68.6963 29.45 68.8585 29.4806 69.0483 29.4806ZM72.0344 30.1143V23.5026H72.9527V30.1143H72.0344ZM77.7852 30.2245C77.3444 30.2245 76.9557 30.1204 76.619 29.9122C76.2823 29.698 76.019 29.4102 75.8293 29.0491C75.6456 28.6817 75.5538 28.2655 75.5538 27.8002C75.5538 27.3288 75.6456 26.9125 75.8293 26.5513C76.019 26.1901 76.2823 25.9055 76.619 25.6973C76.9618 25.4831 77.3536 25.3759 77.7944 25.3759C78.1556 25.3759 78.4739 25.4494 78.7494 25.5963C79.0249 25.7371 79.2392 25.9391 79.3922 26.2024V23.5026H80.3105V30.1143H79.484L79.3922 29.398C79.3004 29.5388 79.181 29.6735 79.0341 29.802C78.8871 29.9245 78.7096 30.0255 78.5015 30.1051C78.2933 30.1847 78.0546 30.2245 77.7852 30.2245ZM77.9321 29.4255C78.2199 29.4255 78.4739 29.3582 78.6943 29.2235C78.9147 29.0888 79.083 28.8991 79.1994 28.6542C79.3218 28.4093 79.383 28.1246 79.383 27.8002C79.383 27.4757 79.3218 27.1941 79.1994 26.9554C79.083 26.7105 78.9147 26.5207 78.6943 26.386C78.4739 26.2452 78.2199 26.1748 77.9321 26.1748C77.6566 26.1748 77.4087 26.2452 77.1883 26.386C76.9679 26.5207 76.7965 26.7105 76.6741 26.9554C76.5516 27.1941 76.4904 27.4757 76.4904 27.8002C76.4904 28.1246 76.5516 28.4093 76.6741 28.6542C76.7965 28.8991 76.9679 29.0888 77.1883 29.2235C77.4087 29.3582 77.6566 29.4255 77.9321 29.4255ZM83.2424 30.2245C82.8017 30.2245 82.4099 30.1234 82.067 29.9214C81.7242 29.7194 81.4548 29.4378 81.2589 29.0766C81.0692 28.7154 80.9743 28.2961 80.9743 27.8186C80.9743 27.3288 81.0692 26.9033 81.2589 26.5421C81.4548 26.1748 81.7242 25.8902 82.067 25.6881C82.4099 25.48 82.8078 25.3759 83.2608 25.3759C83.7138 25.3759 84.1026 25.4769 84.427 25.679C84.7515 25.881 85.0025 26.1503 85.18 26.487C85.3575 26.8176 85.4463 27.1849 85.4463 27.589C85.4463 27.6502 85.4432 27.7175 85.4371 27.791C85.4371 27.8583 85.4341 27.9349 85.4279 28.0206H81.6446V27.3686H84.528C84.5097 26.9829 84.3811 26.6829 84.1423 26.4687C83.9036 26.2483 83.6067 26.1381 83.2516 26.1381C83.0006 26.1381 82.771 26.1963 82.5629 26.3126C82.3548 26.4228 82.1864 26.5881 82.0579 26.8084C81.9354 27.0227 81.8742 27.2951 81.8742 27.6257V27.8828C81.8742 28.2257 81.9354 28.5164 82.0579 28.7552C82.1864 28.9878 82.3548 29.1654 82.5629 29.2878C82.771 29.4041 82.9976 29.4623 83.2424 29.4623C83.5363 29.4623 83.7781 29.398 83.9679 29.2694C84.1577 29.1409 84.2985 28.9664 84.3903 28.746H85.3086C85.229 29.0276 85.0943 29.2817 84.9045 29.5082C84.7147 29.7286 84.4791 29.9031 84.1974 30.0316C83.922 30.1602 83.6036 30.2245 83.2424 30.2245ZM90.8095 30.2245C90.2035 30.2245 89.6739 30.0867 89.2209 29.8112C88.7679 29.5357 88.4159 29.1501 88.1649 28.6542C87.9139 28.1583 87.7884 27.5798 87.7884 26.9186C87.7884 26.2636 87.9139 25.6851 88.1649 25.1831C88.422 24.6811 88.7863 24.2893 89.2576 24.0077C89.7352 23.72 90.2984 23.5761 90.9473 23.5761C91.6758 23.5761 92.2849 23.7536 92.7747 24.1087C93.2644 24.4576 93.5797 24.9443 93.7205 25.5688H92.6737C92.5818 25.2137 92.389 24.9352 92.0951 24.7331C91.8013 24.525 91.4156 24.4209 90.9381 24.4209C90.4851 24.4209 90.0902 24.5219 89.7535 24.724C89.4229 24.926 89.1689 25.2137 88.9913 25.5871C88.8138 25.9606 88.725 26.4044 88.725 26.9186C88.725 27.439 88.8138 27.8859 88.9913 28.2593C89.1689 28.6328 89.4199 28.9174 89.7443 29.1133C90.0688 29.3092 90.4422 29.4072 90.8646 29.4072C91.5136 29.4072 92.0002 29.2205 92.3247 28.847C92.6553 28.4736 92.8481 27.9747 92.9032 27.3502H91.1309V26.6432H93.8307V30.1143H92.9951L92.9124 29.1317C92.7655 29.3705 92.5941 29.5725 92.3982 29.7378C92.2084 29.8969 91.9849 30.0194 91.7278 30.1051C91.4707 30.1847 91.1646 30.2245 90.8095 30.2245ZM94.6408 30.1143V25.4861H95.559V30.1143H94.6408ZM95.1091 24.6138C94.9316 24.6138 94.7846 24.5587 94.6683 24.4485C94.5581 24.3383 94.503 24.1975 94.503 24.0261C94.503 23.8608 94.5581 23.7261 94.6683 23.622C94.7846 23.5118 94.9316 23.4567 95.1091 23.4567C95.2805 23.4567 95.4244 23.5118 95.5407 23.622C95.657 23.7261 95.7152 23.8608 95.7152 24.0261C95.7152 24.1975 95.657 24.3383 95.5407 24.4485C95.4244 24.5587 95.2805 24.6138 95.1091 24.6138ZM96.4548 30.1143V25.4861H97.2812L97.3639 26.3585C97.468 26.1503 97.6026 25.9759 97.7679 25.8351C97.9332 25.6881 98.1261 25.5749 98.3464 25.4953C98.573 25.4157 98.8301 25.3759 99.1178 25.3759V26.3493H98.7872C98.5974 26.3493 98.4169 26.3738 98.2454 26.4228C98.074 26.4656 97.921 26.5421 97.7863 26.6523C97.6577 26.7625 97.5567 26.9125 97.4833 27.1023C97.4098 27.2921 97.3731 27.5278 97.3731 27.8094V30.1143H96.4548ZM101.521 30.2245C101.087 30.2245 100.695 30.1234 100.346 29.9214C100.003 29.7194 99.7306 29.4378 99.5286 29.0766C99.3327 28.7093 99.2347 28.2869 99.2347 27.8094C99.2347 27.3196 99.3357 26.8942 99.5378 26.533C99.7398 26.1657 100.015 25.881 100.364 25.679C100.713 25.4769 101.105 25.3759 101.54 25.3759C101.98 25.3759 102.372 25.4769 102.715 25.679C103.058 25.881 103.327 26.1626 103.523 26.5238C103.725 26.885 103.826 27.3104 103.826 27.8002C103.826 28.2899 103.725 28.7154 103.523 29.0766C103.327 29.4378 103.055 29.7194 102.706 29.9214C102.357 30.1234 101.962 30.2245 101.521 30.2245ZM101.521 29.4347C101.772 29.4347 101.999 29.3735 102.201 29.2511C102.409 29.1286 102.574 28.948 102.697 28.7093C102.825 28.4644 102.889 28.1614 102.889 27.8002C102.889 27.439 102.828 27.139 102.706 26.9003C102.583 26.6554 102.418 26.4717 102.21 26.3493C102.008 26.2269 101.784 26.1657 101.54 26.1657C101.295 26.1657 101.068 26.2269 100.86 26.3493C100.652 26.4717 100.484 26.6554 100.355 26.9003C100.233 27.139 100.171 27.439 100.171 27.8002C100.171 28.1614 100.233 28.4644 100.355 28.7093C100.484 28.948 100.649 29.1286 100.851 29.2511C101.059 29.3735 101.282 29.4347 101.521 29.4347Z" fill="#15191E"/>
<path d="M45.7011 38.1143V33.4394H47.344C47.6734 33.4394 47.945 33.4928 48.1587 33.5997C48.3769 33.7021 48.5394 33.8445 48.6463 34.0271C48.7531 34.2052 48.8065 34.4055 48.8065 34.6281C48.8065 34.8686 48.7531 35.0689 48.6463 35.2292C48.5438 35.3895 48.4081 35.5119 48.2389 35.5965C48.0741 35.6811 47.8983 35.7323 47.7113 35.7501L47.8048 35.6833C48.0051 35.6878 48.1899 35.7412 48.3591 35.8436C48.5283 35.946 48.6618 36.084 48.7598 36.2577C48.8622 36.4313 48.9134 36.625 48.9134 36.8387C48.9134 37.0747 48.8555 37.2906 48.7397 37.4865C48.624 37.6779 48.4526 37.8315 48.2255 37.9473C48.0029 38.0586 47.7269 38.1143 47.3974 38.1143H45.7011ZM46.2621 37.6468H47.3373C47.6534 37.6468 47.8983 37.5733 48.0719 37.4264C48.25 37.275 48.339 37.0657 48.339 36.7986C48.339 36.5359 48.2478 36.3267 48.0652 36.1708C47.8871 36.0106 47.64 35.9304 47.3239 35.9304H46.2621V37.6468ZM46.2621 35.483H47.3039C47.6066 35.483 47.8359 35.4117 47.9918 35.2693C48.1521 35.1268 48.2322 34.9331 48.2322 34.6882C48.2322 34.4523 48.1521 34.263 47.9918 34.1206C47.8359 33.9781 47.6 33.9069 47.2839 33.9069H46.2621V35.483ZM49.1459 38.1143L50.869 33.4394H51.4633L53.1797 38.1143H52.5853L51.1628 34.1406L49.7336 38.1143H49.1459ZM49.934 36.9121L50.0943 36.458H52.2113L52.3716 36.9121H49.934ZM53.681 38.1143V33.4394H54.242L56.733 37.186V33.4394H57.294V38.1143H56.733L54.242 34.3677V38.1143H53.681ZM60.1284 38.1944C59.6742 38.1944 59.2802 38.0942 58.9463 37.8939C58.6168 37.6891 58.363 37.4063 58.1849 37.0457C58.0069 36.6806 57.9178 36.2577 57.9178 35.7768C57.9178 35.296 58.0069 34.8752 58.1849 34.5146C58.363 34.1495 58.6168 33.8668 58.9463 33.6664C59.2802 33.4616 59.6742 33.3592 60.1284 33.3592C60.6626 33.3592 61.0967 33.4861 61.4306 33.7399C61.7646 33.9937 61.9783 34.3521 62.0718 34.8151H61.4507C61.3794 34.5257 61.2347 34.2942 61.0166 34.1206C60.7984 33.9425 60.5024 33.8534 60.1284 33.8534C59.7944 33.8534 59.505 33.9314 59.2602 34.0872C59.0153 34.2386 58.8261 34.4589 58.6925 34.7483C58.5589 35.0333 58.4922 35.3761 58.4922 35.7768C58.4922 36.1775 58.5589 36.5226 58.6925 36.812C58.8261 37.0969 59.0153 37.3173 59.2602 37.4731C59.505 37.6245 59.7944 37.7002 60.1284 37.7002C60.5024 37.7002 60.7984 37.6156 61.0166 37.4464C61.2347 37.2728 61.3794 37.0435 61.4507 36.7585H62.0718C61.9783 37.2082 61.7646 37.56 61.4306 37.8137C61.0967 38.0675 60.6626 38.1944 60.1284 38.1944ZM64.7685 38.1944C64.3188 38.1944 63.9226 38.0942 63.5797 37.8939C63.2414 37.6891 62.9765 37.4063 62.785 37.0457C62.598 36.6806 62.5045 36.2577 62.5045 35.7768C62.5045 35.3004 62.598 34.8819 62.785 34.5213C62.9765 34.1562 63.2414 33.8712 63.5797 33.6664C63.9226 33.4616 64.3188 33.3592 64.7685 33.3592C65.2271 33.3592 65.6256 33.4616 65.9639 33.6664C66.3023 33.8712 66.565 34.1562 66.752 34.5213C66.9434 34.8819 67.0392 35.3004 67.0392 35.7768C67.0392 36.2577 66.9434 36.6806 66.752 37.0457C66.565 37.4063 66.3023 37.6891 65.9639 37.8939C65.6256 38.0942 65.2271 38.1944 64.7685 38.1944ZM64.7685 37.7002C65.1069 37.7002 65.4029 37.6245 65.6567 37.4731C65.915 37.3173 66.1131 37.0969 66.2511 36.812C66.3936 36.5226 66.4648 36.1775 66.4648 35.7768C66.4648 35.3761 66.3936 35.0333 66.2511 34.7483C66.1131 34.4589 65.915 34.2386 65.6567 34.0872C65.4029 33.9358 65.1069 33.8601 64.7685 33.8601C64.4346 33.8601 64.1385 33.9358 63.8803 34.0872C63.6265 34.2386 63.4284 34.4589 63.2859 34.7483C63.1479 35.0333 63.0789 35.3761 63.0789 35.7768C63.0789 36.1775 63.1479 36.5226 63.2859 36.812C63.4284 37.0969 63.6265 37.3173 63.8803 37.4731C64.1385 37.6245 64.4346 37.7002 64.7685 37.7002Z" fill="#707070"/>
<rect x="169.054" y="23.9312" width="49.6272" height="13.3662" rx="6.6784" fill="#FF4000"/>
<circle cx="177.406" cy="30.6143" r="4.17872" fill="white"/>
<mask id="mask0_241_748" style="mask-type:alpha" maskUnits="userSpaceOnUse" x="174" y="27" width="7" height="7">
<rect x="174.605" y="27.8135" width="5.60252" height="5.60252" fill="#D9D9D9"/>
</mask>
<g mask="url(#mask0_241_748)">
<path d="M176.835 32.0151L175.504 30.6845L175.837 30.3519L176.835 31.3498L178.976 29.208L179.309 29.5407L176.835 32.0151Z" fill="#FF4000"/>
</g>
<path d="M184.674 32.6143L186.383 27.9394H187.278L188.988 32.6143H188.14L186.824 28.8744L185.509 32.6143H184.674ZM185.435 31.5123L185.649 30.8779H187.953L188.167 31.5123H185.435ZM189.404 34.0835V29.2483H190.119L190.205 29.7359C190.277 29.6379 190.361 29.5466 190.459 29.4621C190.562 29.373 190.684 29.3018 190.827 29.2483C190.973 29.1949 191.14 29.1682 191.327 29.1682C191.644 29.1682 191.922 29.2461 192.162 29.4019C192.407 29.5578 192.599 29.7693 192.737 30.0364C192.875 30.2991 192.944 30.5996 192.944 30.938C192.944 31.2764 192.872 31.5791 192.73 31.8462C192.592 32.1089 192.4 32.316 192.156 32.4673C191.915 32.6187 191.639 32.6944 191.327 32.6944C191.074 32.6944 190.851 32.6476 190.66 32.5542C190.473 32.4562 190.321 32.3182 190.205 32.1401V34.0835H189.404ZM191.16 31.9998C191.347 31.9998 191.514 31.9553 191.661 31.8663C191.808 31.7772 191.922 31.6526 192.002 31.4923C192.087 31.332 192.129 31.1472 192.129 30.938C192.129 30.7243 192.087 30.5373 192.002 30.377C191.922 30.2167 191.808 30.092 191.661 30.003C191.514 29.914 191.347 29.8694 191.16 29.8694C190.969 29.8694 190.8 29.914 190.653 30.003C190.51 30.092 190.397 30.2167 190.312 30.377C190.232 30.5373 190.192 30.722 190.192 30.9313C190.192 31.145 190.232 31.332 190.312 31.4923C190.397 31.6481 190.51 31.7728 190.653 31.8663C190.8 31.9553 190.969 31.9998 191.16 31.9998ZM193.521 32.6143V29.2483H194.236L194.309 29.8761C194.389 29.7292 194.49 29.6045 194.61 29.5021C194.73 29.3953 194.87 29.3129 195.03 29.255C195.195 29.1971 195.376 29.1682 195.571 29.1682V30.0164H195.291C195.157 30.0164 195.03 30.0342 194.91 30.0698C194.79 30.101 194.685 30.1544 194.596 30.2301C194.512 30.3013 194.445 30.4015 194.396 30.5306C194.347 30.6553 194.323 30.8133 194.323 31.0048V32.6143H193.521ZM197.473 32.6944C197.152 32.6944 196.863 32.6209 196.605 32.474C196.351 32.3226 196.151 32.1156 196.004 31.8529C195.861 31.5858 195.79 31.2808 195.79 30.938C195.79 30.5862 195.863 30.279 196.01 30.0164C196.157 29.7492 196.358 29.5422 196.611 29.3953C196.87 29.2439 197.159 29.1682 197.48 29.1682C197.8 29.1682 198.087 29.2439 198.341 29.3953C198.599 29.5422 198.8 29.747 198.942 30.0097C199.089 30.2724 199.163 30.5796 199.163 30.9313C199.163 31.283 199.089 31.5902 198.942 31.8529C198.795 32.1156 198.593 32.3226 198.334 32.474C198.081 32.6209 197.793 32.6944 197.473 32.6944ZM197.473 32.0065C197.633 32.0065 197.778 31.9665 197.907 31.8863C198.041 31.8062 198.147 31.686 198.228 31.5257C198.308 31.3654 198.348 31.1673 198.348 30.9313C198.348 30.6953 198.308 30.4994 198.228 30.3436C198.152 30.1833 198.047 30.0631 197.914 29.983C197.785 29.9028 197.64 29.8628 197.48 29.8628C197.324 29.8628 197.179 29.9028 197.045 29.983C196.912 30.0631 196.805 30.1833 196.725 30.3436C196.645 30.4994 196.605 30.6953 196.605 30.9313C196.605 31.1673 196.645 31.3654 196.725 31.5257C196.805 31.686 196.91 31.8062 197.039 31.8863C197.172 31.9665 197.317 32.0065 197.473 32.0065ZM200.505 32.6143L199.263 29.2483H200.105L200.993 31.8529L201.881 29.2483H202.709L201.467 32.6143H200.505ZM204.008 32.6944C203.731 32.6944 203.502 32.6476 203.32 32.5542C203.137 32.4607 203.001 32.336 202.912 32.1802C202.823 32.0243 202.779 31.8551 202.779 31.6726C202.779 31.4589 202.832 31.2741 202.939 31.1183C203.05 30.9625 203.213 30.8423 203.426 30.7577C203.64 30.6686 203.903 30.6241 204.215 30.6241H205.063C205.063 30.446 205.038 30.2991 204.989 30.1833C204.94 30.0631 204.865 29.9741 204.762 29.9162C204.66 29.8583 204.528 29.8294 204.368 29.8294C204.186 29.8294 204.03 29.8717 203.901 29.9563C203.772 30.0364 203.691 30.1611 203.66 30.3302H202.872C202.899 30.0898 202.979 29.885 203.113 29.7158C203.246 29.5422 203.422 29.4086 203.64 29.3151C203.863 29.2172 204.105 29.1682 204.368 29.1682C204.684 29.1682 204.954 29.2239 205.176 29.3352C205.399 29.442 205.568 29.5978 205.684 29.8026C205.804 30.003 205.864 30.2457 205.864 30.5306V32.6143H205.183L205.103 32.0733C205.058 32.1624 205 32.2447 204.929 32.3204C204.862 32.3961 204.784 32.4629 204.695 32.5208C204.606 32.5742 204.504 32.6165 204.388 32.6476C204.277 32.6788 204.15 32.6944 204.008 32.6944ZM204.188 32.06C204.317 32.06 204.43 32.0377 204.528 31.9932C204.631 31.9442 204.718 31.8774 204.789 31.7928C204.865 31.7038 204.922 31.6058 204.963 31.499C205.003 31.3921 205.029 31.2786 205.043 31.1584V31.145H204.301C204.146 31.145 204.016 31.165 203.914 31.2051C203.812 31.2407 203.738 31.2942 203.694 31.3654C203.649 31.4366 203.627 31.519 203.627 31.6125C203.627 31.706 203.649 31.7861 203.694 31.8529C203.738 31.9197 203.803 31.9709 203.887 32.0065C203.972 32.0421 204.072 32.06 204.188 32.06ZM208.016 32.6944C207.704 32.6944 207.426 32.6187 207.181 32.4673C206.936 32.316 206.745 32.1067 206.607 31.8396C206.473 31.5724 206.407 31.2697 206.407 30.9313C206.407 30.5929 206.476 30.2924 206.614 30.0297C206.752 29.7626 206.943 29.5533 207.188 29.4019C207.437 29.2461 207.718 29.1682 208.029 29.1682C208.283 29.1682 208.504 29.2172 208.691 29.3151C208.882 29.4086 209.033 29.5422 209.145 29.7158V27.8058H209.946V32.6143H209.225L209.145 32.1267C209.073 32.2247 208.987 32.3182 208.884 32.4072C208.782 32.4918 208.659 32.5608 208.517 32.6143C208.374 32.6677 208.207 32.6944 208.016 32.6944ZM208.183 31.9998C208.374 31.9998 208.544 31.9553 208.691 31.8663C208.837 31.7728 208.951 31.6459 209.031 31.4856C209.111 31.3253 209.151 31.1406 209.151 30.9313C209.151 30.722 209.111 30.5373 209.031 30.377C208.951 30.2167 208.837 30.092 208.691 30.003C208.544 29.914 208.374 29.8694 208.183 29.8694C208 29.8694 207.836 29.914 207.689 30.003C207.542 30.092 207.426 30.2167 207.342 30.377C207.261 30.5373 207.221 30.722 207.221 30.9313C207.221 31.1406 207.261 31.3253 207.342 31.4856C207.426 31.6459 207.542 31.7728 207.689 31.8663C207.836 31.9553 208 31.9998 208.183 31.9998ZM212.207 32.6944C211.886 32.6944 211.597 32.6209 211.338 32.474C211.085 32.3226 210.884 32.1156 210.737 31.8529C210.595 31.5858 210.524 31.2808 210.524 30.938C210.524 30.5862 210.597 30.279 210.744 30.0164C210.891 29.7492 211.091 29.5422 211.345 29.3953C211.603 29.2439 211.893 29.1682 212.213 29.1682C212.534 29.1682 212.821 29.2439 213.075 29.3953C213.333 29.5422 213.533 29.747 213.676 30.0097C213.823 30.2724 213.896 30.5796 213.896 30.9313C213.896 31.283 213.823 31.5902 213.676 31.8529C213.529 32.1156 213.326 32.3226 213.068 32.474C212.814 32.6209 212.527 32.6944 212.207 32.6944ZM212.207 32.0065C212.367 32.0065 212.512 31.9665 212.641 31.8863C212.774 31.8062 212.881 31.686 212.961 31.5257C213.041 31.3654 213.081 31.1673 213.081 30.9313C213.081 30.6953 213.041 30.4994 212.961 30.3436C212.886 30.1833 212.781 30.0631 212.647 29.983C212.518 29.9028 212.374 29.8628 212.213 29.8628C212.057 29.8628 211.913 29.9028 211.779 29.983C211.646 30.0631 211.539 30.1833 211.459 30.3436C211.378 30.4994 211.338 30.6953 211.338 30.9313C211.338 31.1673 211.378 31.3654 211.459 31.5257C211.539 31.686 211.643 31.8062 211.773 31.8863C211.906 31.9665 212.051 32.0065 212.207 32.0065Z" fill="white"/>
</svg>
