<svg width="239" height="39" viewBox="0 0 239 39" fill="none" xmlns="http://www.w3.org/2000/svg">
<path d="M69.8697 8.84109V30.1535H64.991V17.4431L61.7813 21.9688H57.2877L54.1101 17.4431V30.1535H49.1992V8.84109H53.4681L59.6629 17.411L65.5687 8.84109H69.8697Z" fill="white"/>
<path d="M85.8573 8.84109L94.2988 30.1535H89.0028L86.9486 24.9217H78.0577L76.0356 30.1535H70.8038L79.2774 8.84109H85.8573ZM79.7589 20.396H85.2796L82.455 13.6236L79.7589 20.396Z" fill="white"/>
<path d="M100.162 30.1535H95.251V8.84109H100.162V30.1535Z" fill="white"/>
<path d="M106.77 23.1564V23.5736C106.77 24.4724 107.444 25.0822 108.536 25.4995C109.563 25.8846 110.879 26.013 111.81 26.013C112.869 26.013 114.153 25.9167 115.212 25.5316C116.207 25.1143 116.849 24.5045 116.849 23.4774C116.849 22.6107 116.175 22.1293 115.051 21.8404C114.474 21.6799 113.832 21.6157 113.254 21.5836C112.644 21.5515 112.098 21.5515 111.649 21.5515C106.995 21.5515 102.277 20.717 102.277 15.2605C102.277 9.96449 106.995 8.42383 111.81 8.42383C116.335 8.42383 121.374 10.4459 121.374 15.3889V15.8703H116.464V15.3889C116.464 14.5223 115.854 13.9124 114.923 13.5273C113.928 13.1421 112.74 12.9816 111.81 12.9816C110.815 12.9816 109.627 13.0779 108.696 13.431C107.765 13.7519 107.188 14.3297 107.188 15.2605C107.188 16.095 107.797 16.5444 108.889 16.7691C109.402 16.8975 109.98 16.9616 110.526 16.9937C111.071 17.0258 111.649 17.0258 112.034 17.0258C116.785 17.0258 121.792 17.8604 121.792 23.4774C121.792 28.998 116.785 30.5708 111.81 30.5708C107.316 30.5708 101.892 28.6771 101.892 23.5736V23.1564H106.77Z" fill="white"/>
<path d="M134.203 23.1564V23.5736C134.203 24.4724 134.877 25.0822 135.969 25.4995C136.996 25.8846 138.312 26.013 139.243 26.013C140.302 26.013 141.586 25.9167 142.645 25.5316C143.64 25.1143 144.282 24.5045 144.282 23.4774C144.282 22.6107 143.608 22.1293 142.484 21.8404C141.907 21.6799 141.265 21.6157 140.687 21.5836C140.077 21.5515 139.531 21.5515 139.082 21.5515C134.428 21.5515 129.71 20.717 129.71 15.2605C129.71 9.96449 134.428 8.42383 139.243 8.42383C143.768 8.42383 148.807 10.4459 148.807 15.3889V15.8703H143.897V15.3889C143.897 14.5223 143.287 13.9124 142.356 13.5273C141.361 13.1421 140.173 12.9816 139.243 12.9816C138.247 12.9816 137.06 13.0779 136.129 13.431C135.198 13.7519 134.621 14.3297 134.621 15.2605C134.621 16.095 135.23 16.5444 136.322 16.7691C136.835 16.8975 137.413 16.9616 137.959 16.9937C138.504 17.0258 139.082 17.0258 139.467 17.0258C144.218 17.0258 149.225 17.8604 149.225 23.4774C149.225 28.998 144.218 30.5708 139.243 30.5708C134.749 30.5708 129.325 28.6771 129.325 23.5736V23.1564H134.203Z" fill="white"/>
<path d="M149.968 19.4973C149.968 13.8482 153.852 8.42383 160.689 8.42383C166.659 8.42383 170.51 12.5964 171.281 17.5715L171.345 18.0529H166.209L166.145 17.732C165.535 15.1642 163.577 13.1742 160.689 13.1742C157.03 13.1742 155.072 16.3197 155.072 19.4973C155.072 22.707 157.062 25.7883 160.689 25.7883C163.577 25.7883 165.535 23.7983 166.145 21.2306L166.209 20.8775H171.345L171.281 21.3589C170.51 26.3982 166.659 30.5708 160.689 30.5708C153.852 30.5708 149.968 25.1143 149.968 19.4973Z" fill="white"/>
<path d="M172.116 19.4973C172.116 13.8482 176 8.42383 182.837 8.42383C189.673 8.42383 193.557 13.8482 193.557 19.4973C193.557 25.1143 189.673 30.5708 182.837 30.5708C176 30.5708 172.116 25.1143 172.116 19.4973ZM177.22 19.4973C177.22 22.707 179.21 25.7883 182.837 25.7883C186.464 25.7883 188.486 22.707 188.486 19.4973C188.486 16.3197 186.496 13.1742 182.837 13.1742C179.178 13.1742 177.22 16.3197 177.22 19.4973Z" fill="white"/>
<path d="M195.322 8.84109H209.991C214.292 8.84109 216.378 11.9545 216.378 15.3889C216.378 18.2776 214.773 20.9417 211.563 21.5836C211.66 21.7441 211.788 21.8725 211.852 22.033L216.731 30.1535H211.178L206.171 21.7441H200.233V30.1535H195.322V8.84109ZM200.233 17.2184H209.991C210.954 17.2184 211.467 16.5444 211.467 15.6136V15.0037C211.467 14.0408 210.954 13.3989 209.991 13.3989H200.233V17.2184Z" fill="white"/>
<path d="M238.947 13.3989H223.573V17.2184H234.999V21.7441H223.573V25.6279H238.947V30.1535H218.662V8.84109H238.947V13.3989Z" fill="white"/>
<path d="M18.2646 0.0459409C18.8936 -0.0241499 21.2751 -0.0545556 21.7802 0.262114C21.9923 0.589945 21.9247 2.50865 21.9247 3.02666L21.9226 7.07272L21.9247 11.248C21.9252 12.0263 21.9448 12.881 21.9102 13.6492L27.9066 7.64803C28.9154 6.6378 29.9362 5.60616 30.9591 4.60864C31.0827 4.48804 31.3068 4.31044 31.4749 4.28393C31.7943 4.34003 32.0411 4.55997 32.2767 4.7696C32.7621 5.20165 34.6976 6.95909 34.7027 7.52935C34.7044 7.69742 34.4979 7.9076 34.3867 8.03051C33.3129 9.21358 32.1108 10.3164 30.9788 11.4483C29.101 13.3263 27.2408 15.2273 25.3365 17.0781C25.8291 17.0442 26.6173 17.0695 27.1287 17.0693L30.6679 17.0687L35.502 17.0688C35.9968 17.0689 38.3047 17.0162 38.6682 17.1542C38.8603 17.3615 38.9248 17.6535 38.9321 17.9276C38.9513 18.67 39.1549 21.2983 38.6772 21.8239C38.2376 21.9868 34.1724 21.9244 33.3454 21.9244L25.3613 21.9231L31.8452 28.4117C32.2767 28.8419 34.6138 31.0306 34.6929 31.3954C34.7322 31.5767 34.6608 31.717 34.5594 31.859C34.1395 32.447 32.1279 34.6271 31.4898 34.7036C31.3735 34.7173 31.2213 34.5937 31.1323 34.5262C30.7859 34.2627 30.4806 33.9159 30.1727 33.608L28.4732 31.9077L25.9668 29.3992C25.508 28.9403 24.7142 28.197 24.3666 27.6911C23.9411 27.0728 23.6768 26.3578 23.5981 25.6115C23.5408 25.0748 23.5635 24.3256 23.5643 23.7701L23.572 20.6872C23.5729 20.1437 23.5921 19.465 23.5198 18.9347C23.4116 18.1503 23.0747 17.415 22.5508 16.8211C21.1849 15.2698 19.6835 15.4207 17.8432 15.4242L14.9411 15.4308C11.9451 15.434 11.65 15.0839 9.58257 13.0167L7.15026 10.5826L5.29878 8.72894C5.05092 8.48103 4.27111 7.81481 4.28736 7.50695C4.30519 7.17035 4.94405 6.48428 5.31982 6.12271C5.62781 5.81096 7.17292 4.17787 7.55186 4.28513C7.94063 4.3952 10.7941 7.35689 11.1282 7.69105L17.0873 13.654C17.0402 12.9979 17.0736 11.8961 17.0738 11.1955L17.0722 6.53598L17.0714 2.60231C17.0715 1.91423 17.0563 1.20622 17.0939 0.520712C17.1207 0.0349954 17.9316 0.0647144 18.2646 0.0459409Z" fill="#FF4000"/>
<path d="M1.04933 17.0695L14.5711 17.072L17.9742 17.0686C19.3248 17.0677 20.6809 16.8781 21.5242 18.1905C21.6906 18.4491 21.8821 18.8942 21.8954 19.2043C21.9412 20.2926 21.9223 21.4109 21.9228 22.5001L21.9219 29.0461L21.9223 35.2978C21.9223 36.0684 21.9724 37.9834 21.8389 38.6761C21.5541 38.9285 21.1119 38.9323 20.7506 38.9507C20.1339 38.9819 17.6097 39.1059 17.2384 38.7352C17.1266 38.6235 17.0784 38.4576 17.0657 38.3037C17.0348 37.9299 17.0742 37.5254 17.0741 37.1477L17.0738 34.28L17.0728 25.3521L16.4587 25.9662L10.9141 31.5118C10.4638 31.963 7.93913 34.5926 7.55673 34.7123C6.83487 34.6324 5.04018 32.5591 4.50122 31.9468C4.37618 31.8048 4.28911 31.5905 4.28612 31.3951C4.49694 30.9824 6.86198 28.6937 7.33478 28.2211L13.6328 21.9228L5.10522 21.9237C3.67454 21.9237 2.23287 21.963 0.803304 21.9211C0.665732 21.9168 0.458324 21.9219 0.34363 21.8441C0.164447 21.7218 0.100303 21.4883 0.0779371 21.2843C0.00797469 20.6454 -0.117539 17.6308 0.255452 17.2368C0.45653 17.0243 0.781836 17.0707 1.04933 17.0695Z" fill="#FF4000"/>
</svg>
